ISO-10303-21;
HEADER;
/* Generated by software containing ST-Developer
 * from STEP Tools, Inc. (www.steptools.com) 
 */

FILE_DESCRIPTION(
/* description */ (''),
/* implementation_level */ '2;1');

FILE_NAME(
/* name */ 'Hinge.step',
/* time_stamp */ '2026-03-13T15:47:03+01:00',
/* author */ (''),
/* organization */ (''),
/* preprocessor_version */ 'ST-DEVELOPER v20.1',
/* originating_system */ 'Autodesk Translation Framework v14.24.0.0',
/* authorisation */ '');

FILE_SCHEMA (('AUTOMOTIVE_DESIGN { 1 0 10303 214 3 1 1 }'));
ENDSEC;

DATA;
#10=MECHANICAL_DESIGN_GEOMETRIC_PRESENTATION_REPRESENTATION('',(#13),#541);
#11=SHAPE_REPRESENTATION_RELATIONSHIP('SRR','None',#548,#12);
#12=ADVANCED_BREP_SHAPE_REPRESENTATION('',(#14),#540);
#13=STYLED_ITEM('',(#557),#14);
#14=MANIFOLD_SOLID_BREP('Body1',#257);
#15=FACE_BOUND('',#100,.T.);
#16=FACE_BOUND('',#109,.T.);
#17=FACE_BOUND('',#110,.T.);
#18=FACE_BOUND('',#111,.T.);
#19=FACE_BOUND('',#113,.T.);
#20=FACE_BOUND('',#114,.T.);
#21=FACE_BOUND('',#115,.T.);
#22=CIRCLE('',#274,3.);
#23=CIRCLE('',#276,1.355);
#24=CIRCLE('',#277,1.355);
#25=CIRCLE('',#280,1.27);
#26=CIRCLE('',#281,1.27);
#27=CIRCLE('',#283,1.27);
#28=CIRCLE('',#284,1.27);
#29=CIRCLE('',#286,5.50000007450581);
#30=CIRCLE('',#287,5.50000007450581);
#31=CIRCLE('',#289,12.);
#32=CIRCLE('',#290,12.);
#33=CIRCLE('',#293,12.);
#34=CIRCLE('',#294,12.);
#35=CYLINDRICAL_SURFACE('',#273,3.);
#36=CYLINDRICAL_SURFACE('',#275,1.355);
#37=CYLINDRICAL_SURFACE('',#279,1.27);
#38=CYLINDRICAL_SURFACE('',#282,1.27);
#39=CYLINDRICAL_SURFACE('',#285,5.50000007450581);
#40=CYLINDRICAL_SURFACE('',#288,12.);
#41=CYLINDRICAL_SURFACE('',#292,12.);
#42=LINE('',#481,#57);
#43=LINE('',#483,#58);
#44=LINE('',#484,#59);
#45=LINE('',#487,#60);
#46=LINE('',#489,#61);
#47=LINE('',#490,#62);
#48=LINE('',#494,#63);
#49=LINE('',#499,#64);
#50=LINE('',#506,#65);
#51=LINE('',#512,#66);
#52=LINE('',#518,#67);
#53=LINE('',#524,#68);
#54=LINE('',#532,#69);
#55=LINE('',#534,#70);
#56=LINE('',#535,#71);
#57=VECTOR('',#302,10.);
#58=VECTOR('',#303,10.);
#59=VECTOR('',#304,10.);
#60=VECTOR('',#307,10.);
#61=VECTOR('',#308,10.);
#62=VECTOR('',#309,10.);
#63=VECTOR('',#314,3.);
#64=VECTOR('',#319,1.355);
#65=VECTOR('',#328,1.27);
#66=VECTOR('',#335,1.27);
#67=VECTOR('',#342,5.50000007450581);
#68=VECTOR('',#349,10.);
#69=VECTOR('',#360,10.);
#70=VECTOR('',#363,10.);
#71=VECTOR('',#364,10.);
#72=PLANE('',#271);
#73=PLANE('',#272);
#74=PLANE('',#278);
#75=PLANE('',#291);
#76=PLANE('',#295);
#77=PLANE('',#296);
#78=PLANE('',#297);
#79=FACE_OUTER_BOUND('',#94,.T.);
#80=FACE_OUTER_BOUND('',#95,.T.);
#81=FACE_OUTER_BOUND('',#96,.T.);
#82=FACE_OUTER_BOUND('',#97,.T.);
#83=FACE_OUTER_BOUND('',#98,.T.);
#84=FACE_OUTER_BOUND('',#99,.T.);
#85=FACE_OUTER_BOUND('',#101,.T.);
#86=FACE_OUTER_BOUND('',#102,.T.);
#87=FACE_OUTER_BOUND('',#103,.T.);
#88=FACE_OUTER_BOUND('',#104,.T.);
#89=FACE_OUTER_BOUND('',#105,.T.);
#90=FACE_OUTER_BOUND('',#106,.T.);
#91=FACE_OUTER_BOUND('',#107,.T.);
#92=FACE_OUTER_BOUND('',#108,.T.);
#93=FACE_OUTER_BOUND('',#112,.T.);
#94=EDGE_LOOP('',(#175,#176,#177,#178,#179,#180));
#95=EDGE_LOOP('',(#181,#182,#183,#184));
#96=EDGE_LOOP('',(#185,#186,#187,#188,#189));
#97=EDGE_LOOP('',(#190,#191,#192,#193));
#98=EDGE_LOOP('',(#194,#195,#196,#197));
#99=EDGE_LOOP('',(#198));
#100=EDGE_LOOP('',(#199));
#101=EDGE_LOOP('',(#200,#201,#202,#203));
#102=EDGE_LOOP('',(#204,#205,#206,#207));
#103=EDGE_LOOP('',(#208,#209,#210,#211));
#104=EDGE_LOOP('',(#212,#213,#214,#215));
#105=EDGE_LOOP('',(#216));
#106=EDGE_LOOP('',(#217,#218,#219,#220));
#107=EDGE_LOOP('',(#221,#222,#223,#224));
#108=EDGE_LOOP('',(#225,#226,#227,#228,#229));
#109=EDGE_LOOP('',(#230));
#110=EDGE_LOOP('',(#231));
#111=EDGE_LOOP('',(#232));
#112=EDGE_LOOP('',(#233,#234,#235,#236,#237));
#113=EDGE_LOOP('',(#238));
#114=EDGE_LOOP('',(#239));
#115=EDGE_LOOP('',(#240));
#116=B_SPLINE_CURVE_WITH_KNOTS('',3,(#442,#443,#444,#445,#446,#447,#448),
 .UNSPECIFIED.,.F.,.F.,(4,1,1,1,4),(0.,0.285714285714286,0.571428571428571,
0.785714285714286,1.),.UNSPECIFIED.);
#117=B_SPLINE_CURVE_WITH_KNOTS('',3,(#449,#450,#451,#452,#453,#454,#455,
#456,#457,#458),.UNSPECIFIED.,.T.,.F.,(4,1,1,1,1,1,1,4),(0.,0.312729721533394,
0.625459443066789,0.938189164600183,1.25091888613358,1.56364860766697,1.87637832920037,
2.18910805073376),.UNSPECIFIED.);
#118=B_SPLINE_CURVE_WITH_KNOTS('',3,(#460,#461,#462,#463,#464),
 .UNSPECIFIED.,.F.,.F.,(4,1,4),(-2.18910805073376,-1.87637832920037,-1.64183103340217),
 .UNSPECIFIED.);
#119=B_SPLINE_CURVE_WITH_KNOTS('',3,(#466,#467,#468,#469,#470,#471,#472,
#473),.UNSPECIFIED.,.F.,.F.,(4,1,1,1,1,4),(-1.64183103340217,-1.56364860766697,
-1.25091888613358,-0.938189164600183,-0.625459443066789,-0.547277018326639),
 .UNSPECIFIED.);
#120=B_SPLINE_CURVE_WITH_KNOTS('',3,(#474,#475,#476,#477,#478),
 .UNSPECIFIED.,.F.,.F.,(4,1,4),(-0.547277018326639,-0.312729721533394,0.),
 .UNSPECIFIED.);
#121=VERTEX_POINT('',#440);
#122=VERTEX_POINT('',#441);
#123=VERTEX_POINT('',#459);
#124=VERTEX_POINT('',#465);
#125=VERTEX_POINT('',#480);
#126=VERTEX_POINT('',#482);
#127=VERTEX_POINT('',#486);
#128=VERTEX_POINT('',#488);
#129=VERTEX_POINT('',#492);
#130=VERTEX_POINT('',#496);
#131=VERTEX_POINT('',#498);
#132=VERTEX_POINT('',#503);
#133=VERTEX_POINT('',#505);
#134=VERTEX_POINT('',#509);
#135=VERTEX_POINT('',#511);
#136=VERTEX_POINT('',#515);
#137=VERTEX_POINT('',#517);
#138=VERTEX_POINT('',#521);
#139=VERTEX_POINT('',#523);
#140=VERTEX_POINT('',#528);
#141=VERTEX_POINT('',#530);
#142=EDGE_CURVE('',#121,#122,#116,.T.);
#143=EDGE_CURVE('',#122,#122,#117,.T.);
#144=EDGE_CURVE('',#121,#123,#118,.T.);
#145=EDGE_CURVE('',#123,#124,#119,.T.);
#146=EDGE_CURVE('',#124,#121,#120,.T.);
#147=EDGE_CURVE('',#123,#125,#42,.T.);
#148=EDGE_CURVE('',#125,#126,#43,.T.);
#149=EDGE_CURVE('',#124,#126,#44,.T.);
#150=EDGE_CURVE('',#127,#124,#45,.T.);
#151=EDGE_CURVE('',#128,#127,#46,.T.);
#152=EDGE_CURVE('',#128,#123,#47,.T.);
#153=EDGE_CURVE('',#129,#129,#22,.T.);
#154=EDGE_CURVE('',#129,#122,#48,.T.);
#155=EDGE_CURVE('',#130,#130,#23,.T.);
#156=EDGE_CURVE('',#130,#131,#49,.T.);
#157=EDGE_CURVE('',#131,#131,#24,.T.);
#158=EDGE_CURVE('',#132,#132,#25,.T.);
#159=EDGE_CURVE('',#132,#133,#50,.T.);
#160=EDGE_CURVE('',#133,#133,#26,.T.);
#161=EDGE_CURVE('',#134,#134,#27,.T.);
#162=EDGE_CURVE('',#134,#135,#51,.T.);
#163=EDGE_CURVE('',#135,#135,#28,.T.);
#164=EDGE_CURVE('',#136,#136,#29,.T.);
#165=EDGE_CURVE('',#136,#137,#52,.T.);
#166=EDGE_CURVE('',#137,#137,#30,.T.);
#167=EDGE_CURVE('',#125,#138,#31,.T.);
#168=EDGE_CURVE('',#138,#139,#53,.T.);
#169=EDGE_CURVE('',#126,#139,#32,.T.);
#170=EDGE_CURVE('',#140,#128,#33,.T.);
#171=EDGE_CURVE('',#141,#127,#34,.T.);
#172=EDGE_CURVE('',#140,#141,#54,.T.);
#173=EDGE_CURVE('',#138,#140,#55,.T.);
#174=EDGE_CURVE('',#139,#141,#56,.T.);
#175=ORIENTED_EDGE('',*,*,#142,.T.);
#176=ORIENTED_EDGE('',*,*,#143,.T.);
#177=ORIENTED_EDGE('',*,*,#142,.F.);
#178=ORIENTED_EDGE('',*,*,#144,.T.);
#179=ORIENTED_EDGE('',*,*,#145,.T.);
#180=ORIENTED_EDGE('',*,*,#146,.T.);
#181=ORIENTED_EDGE('',*,*,#145,.F.);
#182=ORIENTED_EDGE('',*,*,#147,.T.);
#183=ORIENTED_EDGE('',*,*,#148,.T.);
#184=ORIENTED_EDGE('',*,*,#149,.F.);
#185=ORIENTED_EDGE('',*,*,#144,.F.);
#186=ORIENTED_EDGE('',*,*,#146,.F.);
#187=ORIENTED_EDGE('',*,*,#150,.F.);
#188=ORIENTED_EDGE('',*,*,#151,.F.);
#189=ORIENTED_EDGE('',*,*,#152,.T.);
#190=ORIENTED_EDGE('',*,*,#153,.F.);
#191=ORIENTED_EDGE('',*,*,#154,.T.);
#192=ORIENTED_EDGE('',*,*,#143,.F.);
#193=ORIENTED_EDGE('',*,*,#154,.F.);
#194=ORIENTED_EDGE('',*,*,#155,.F.);
#195=ORIENTED_EDGE('',*,*,#156,.T.);
#196=ORIENTED_EDGE('',*,*,#157,.F.);
#197=ORIENTED_EDGE('',*,*,#156,.F.);
#198=ORIENTED_EDGE('',*,*,#153,.T.);
#199=ORIENTED_EDGE('',*,*,#155,.T.);
#200=ORIENTED_EDGE('',*,*,#158,.F.);
#201=ORIENTED_EDGE('',*,*,#159,.T.);
#202=ORIENTED_EDGE('',*,*,#160,.T.);
#203=ORIENTED_EDGE('',*,*,#159,.F.);
#204=ORIENTED_EDGE('',*,*,#161,.F.);
#205=ORIENTED_EDGE('',*,*,#162,.T.);
#206=ORIENTED_EDGE('',*,*,#163,.T.);
#207=ORIENTED_EDGE('',*,*,#162,.F.);
#208=ORIENTED_EDGE('',*,*,#164,.F.);
#209=ORIENTED_EDGE('',*,*,#165,.T.);
#210=ORIENTED_EDGE('',*,*,#166,.T.);
#211=ORIENTED_EDGE('',*,*,#165,.F.);
#212=ORIENTED_EDGE('',*,*,#167,.T.);
#213=ORIENTED_EDGE('',*,*,#168,.T.);
#214=ORIENTED_EDGE('',*,*,#169,.F.);
#215=ORIENTED_EDGE('',*,*,#148,.F.);
#216=ORIENTED_EDGE('',*,*,#157,.T.);
#217=ORIENTED_EDGE('',*,*,#170,.T.);
#218=ORIENTED_EDGE('',*,*,#151,.T.);
#219=ORIENTED_EDGE('',*,*,#171,.F.);
#220=ORIENTED_EDGE('',*,*,#172,.F.);
#221=ORIENTED_EDGE('',*,*,#173,.T.);
#222=ORIENTED_EDGE('',*,*,#172,.T.);
#223=ORIENTED_EDGE('',*,*,#174,.F.);
#224=ORIENTED_EDGE('',*,*,#168,.F.);
#225=ORIENTED_EDGE('',*,*,#174,.T.);
#226=ORIENTED_EDGE('',*,*,#171,.T.);
#227=ORIENTED_EDGE('',*,*,#150,.T.);
#228=ORIENTED_EDGE('',*,*,#149,.T.);
#229=ORIENTED_EDGE('',*,*,#169,.T.);
#230=ORIENTED_EDGE('',*,*,#164,.T.);
#231=ORIENTED_EDGE('',*,*,#161,.T.);
#232=ORIENTED_EDGE('',*,*,#158,.T.);
#233=ORIENTED_EDGE('',*,*,#173,.F.);
#234=ORIENTED_EDGE('',*,*,#167,.F.);
#235=ORIENTED_EDGE('',*,*,#147,.F.);
#236=ORIENTED_EDGE('',*,*,#152,.F.);
#237=ORIENTED_EDGE('',*,*,#170,.F.);
#238=ORIENTED_EDGE('',*,*,#166,.F.);
#239=ORIENTED_EDGE('',*,*,#163,.F.);
#240=ORIENTED_EDGE('',*,*,#160,.F.);
#241=B_SPLINE_SURFACE_WITH_KNOTS('',3,3,((#370,#371,#372,#373,#374,#375,
#376,#377,#378,#379),(#380,#381,#382,#383,#384,#385,#386,#387,#388,#389),
(#390,#391,#392,#393,#394,#395,#396,#397,#398,#399),(#400,#401,#402,#403,
#404,#405,#406,#407,#408,#409),(#410,#411,#412,#413,#414,#415,#416,#417,
#418,#419),(#420,#421,#422,#423,#424,#425,#426,#427,#428,#429),(#430,#431,
#432,#433,#434,#435,#436,#437,#438,#439)),.UNSPECIFIED.,.F.,.T.,.F.,(4,
1,1,1,4),(4,1,1,1,1,1,1,4),(0.,0.285714285714286,0.571428571428571,0.785714285714286,
1.),(0.,0.312729721533394,0.625459443066789,0.938189164600183,1.25091888613358,
1.56364860766697,1.87637832920037,2.18910805073376),.UNSPECIFIED.);
#242=ADVANCED_FACE('',(#79),#241,.T.);
#243=ADVANCED_FACE('',(#80),#72,.T.);
#244=ADVANCED_FACE('',(#81),#73,.T.);
#245=ADVANCED_FACE('',(#82),#35,.T.);
#246=ADVANCED_FACE('',(#83),#36,.F.);
#247=ADVANCED_FACE('',(#84,#15),#74,.T.);
#248=ADVANCED_FACE('',(#85),#37,.F.);
#249=ADVANCED_FACE('',(#86),#38,.F.);
#250=ADVANCED_FACE('',(#87),#39,.F.);
#251=ADVANCED_FACE('',(#88),#40,.T.);
#252=ADVANCED_FACE('',(#89),#75,.T.);
#253=ADVANCED_FACE('',(#90),#41,.T.);
#254=ADVANCED_FACE('',(#91),#76,.T.);
#255=ADVANCED_FACE('',(#92,#16,#17,#18),#77,.T.);
#256=ADVANCED_FACE('',(#93,#19,#20,#21),#78,.F.);
#257=CLOSED_SHELL('',(#242,#243,#244,#245,#246,#247,#248,#249,#250,#251,
#252,#253,#254,#255,#256));
#258=DERIVED_UNIT_ELEMENT(#260,1.);
#259=DERIVED_UNIT_ELEMENT(#543,-3.);
#260=(
MASS_UNIT()
NAMED_UNIT(*)
SI_UNIT(.KILO.,.GRAM.)
);
#261=DERIVED_UNIT((#258,#259));
#262=MEASURE_REPRESENTATION_ITEM('density measure',
POSITIVE_RATIO_MEASURE(1290.),#261);
#263=PROPERTY_DEFINITION_REPRESENTATION(#268,#265);
#264=PROPERTY_DEFINITION_REPRESENTATION(#269,#266);
#265=REPRESENTATION('material name',(#267),#540);
#266=REPRESENTATION('density',(#262),#540);
#267=DESCRIPTIVE_REPRESENTATION_ITEM('Plastic','Plastic');
#268=PROPERTY_DEFINITION('material property','material name',#550);
#269=PROPERTY_DEFINITION('material property','density of part',#550);
#270=AXIS2_PLACEMENT_3D('',#369,#298,#299);
#271=AXIS2_PLACEMENT_3D('',#479,#300,#301);
#272=AXIS2_PLACEMENT_3D('',#485,#305,#306);
#273=AXIS2_PLACEMENT_3D('',#491,#310,#311);
#274=AXIS2_PLACEMENT_3D('',#493,#312,#313);
#275=AXIS2_PLACEMENT_3D('',#495,#315,#316);
#276=AXIS2_PLACEMENT_3D('',#497,#317,#318);
#277=AXIS2_PLACEMENT_3D('',#500,#320,#321);
#278=AXIS2_PLACEMENT_3D('',#501,#322,#323);
#279=AXIS2_PLACEMENT_3D('',#502,#324,#325);
#280=AXIS2_PLACEMENT_3D('',#504,#326,#327);
#281=AXIS2_PLACEMENT_3D('',#507,#329,#330);
#282=AXIS2_PLACEMENT_3D('',#508,#331,#332);
#283=AXIS2_PLACEMENT_3D('',#510,#333,#334);
#284=AXIS2_PLACEMENT_3D('',#513,#336,#337);
#285=AXIS2_PLACEMENT_3D('',#514,#338,#339);
#286=AXIS2_PLACEMENT_3D('',#516,#340,#341);
#287=AXIS2_PLACEMENT_3D('',#519,#343,#344);
#288=AXIS2_PLACEMENT_3D('',#520,#345,#346);
#289=AXIS2_PLACEMENT_3D('',#522,#347,#348);
#290=AXIS2_PLACEMENT_3D('',#525,#350,#351);
#291=AXIS2_PLACEMENT_3D('',#526,#352,#353);
#292=AXIS2_PLACEMENT_3D('',#527,#354,#355);
#293=AXIS2_PLACEMENT_3D('',#529,#356,#357);
#294=AXIS2_PLACEMENT_3D('',#531,#358,#359);
#295=AXIS2_PLACEMENT_3D('',#533,#361,#362);
#296=AXIS2_PLACEMENT_3D('',#536,#365,#366);
#297=AXIS2_PLACEMENT_3D('',#537,#367,#368);
#298=DIRECTION('axis',(0.,0.,1.));
#299=DIRECTION('refdir',(1.,0.,0.));
#300=DIRECTION('center_axis',(1.,-5.41572207134223E-17,0.));
#301=DIRECTION('ref_axis',(5.41572207134223E-17,1.,0.));
#302=DIRECTION('',(5.41572207134223E-17,1.,0.));
#303=DIRECTION('',(0.,0.,1.));
#304=DIRECTION('',(5.41572207134223E-17,1.,0.));
#305=DIRECTION('center_axis',(1.,-5.41572207134223E-17,0.));
#306=DIRECTION('ref_axis',(5.41572207134223E-17,1.,0.));
#307=DIRECTION('',(5.41572207134223E-17,1.,0.));
#308=DIRECTION('',(0.,0.,1.));
#309=DIRECTION('',(5.41572207134223E-17,1.,0.));
#310=DIRECTION('center_axis',(1.,0.,0.));
#311=DIRECTION('ref_axis',(0.,1.,0.));
#312=DIRECTION('center_axis',(1.,0.,0.));
#313=DIRECTION('ref_axis',(0.,1.,0.));
#314=DIRECTION('',(-1.,0.,0.));
#315=DIRECTION('center_axis',(1.,0.,0.));
#316=DIRECTION('ref_axis',(0.,1.,0.));
#317=DIRECTION('center_axis',(-1.,0.,0.));
#318=DIRECTION('ref_axis',(0.,1.,0.));
#319=DIRECTION('',(-1.,0.,0.));
#320=DIRECTION('center_axis',(1.,-5.41572207134223E-17,0.));
#321=DIRECTION('ref_axis',(0.,1.,0.));
#322=DIRECTION('center_axis',(1.,0.,0.));
#323=DIRECTION('ref_axis',(0.,1.,0.));
#324=DIRECTION('center_axis',(0.,0.,1.));
#325=DIRECTION('ref_axis',(-1.,0.,0.));
#326=DIRECTION('center_axis',(0.,0.,-1.));
#327=DIRECTION('ref_axis',(-1.,0.,0.));
#328=DIRECTION('',(0.,0.,-1.));
#329=DIRECTION('center_axis',(0.,0.,-1.));
#330=DIRECTION('ref_axis',(-1.,0.,0.));
#331=DIRECTION('center_axis',(0.,0.,1.));
#332=DIRECTION('ref_axis',(-1.,0.,0.));
#333=DIRECTION('center_axis',(0.,0.,-1.));
#334=DIRECTION('ref_axis',(-1.,0.,0.));
#335=DIRECTION('',(0.,0.,-1.));
#336=DIRECTION('center_axis',(0.,0.,-1.));
#337=DIRECTION('ref_axis',(-1.,0.,0.));
#338=DIRECTION('center_axis',(0.,0.,1.));
#339=DIRECTION('ref_axis',(-1.,0.,0.));
#340=DIRECTION('center_axis',(0.,0.,-1.));
#341=DIRECTION('ref_axis',(-1.,0.,0.));
#342=DIRECTION('',(0.,0.,-1.));
#343=DIRECTION('center_axis',(0.,0.,-1.));
#344=DIRECTION('ref_axis',(-1.,0.,0.));
#345=DIRECTION('center_axis',(0.,0.,1.));
#346=DIRECTION('ref_axis',(0.519999332264529,0.854166666666667,0.));
#347=DIRECTION('center_axis',(0.,0.,1.));
#348=DIRECTION('ref_axis',(0.519999332264529,0.854166666666667,0.));
#349=DIRECTION('',(0.,0.,1.));
#350=DIRECTION('center_axis',(0.,0.,1.));
#351=DIRECTION('ref_axis',(0.519999332264529,0.854166666666667,0.));
#352=DIRECTION('center_axis',(1.,-5.41572207134223E-17,0.));
#353=DIRECTION('ref_axis',(5.41572207134223E-17,1.,0.));
#354=DIRECTION('center_axis',(0.,0.,1.));
#355=DIRECTION('ref_axis',(-0.519999332264529,-0.854166666666667,0.));
#356=DIRECTION('center_axis',(0.,0.,1.));
#357=DIRECTION('ref_axis',(-0.519999332264529,-0.854166666666667,0.));
#358=DIRECTION('center_axis',(0.,0.,1.));
#359=DIRECTION('ref_axis',(-0.519999332264529,-0.854166666666667,0.));
#360=DIRECTION('',(0.,0.,1.));
#361=DIRECTION('center_axis',(-1.,1.62471662140267E-16,0.));
#362=DIRECTION('ref_axis',(-1.62471662140267E-16,-1.,0.));
#363=DIRECTION('',(-1.62471662140267E-16,-1.,0.));
#364=DIRECTION('',(-1.62471662140267E-16,-1.,0.));
#365=DIRECTION('center_axis',(0.,0.,1.));
#366=DIRECTION('ref_axis',(-1.,0.,0.));
#367=DIRECTION('center_axis',(0.,0.,1.));
#368=DIRECTION('ref_axis',(-1.,0.,0.));
#369=CARTESIAN_POINT('',(0.,0.,0.));
#370=CARTESIAN_POINT('Ctrl Pts',(6.23999198717434,-3.5,7.1));
#371=CARTESIAN_POINT('Ctrl Pts',(6.23999198717434,-3.5,8.14719277729682));
#372=CARTESIAN_POINT('Ctrl Pts',(6.23999198717435,-2.49820819365689,10.233643287998));
#373=CARTESIAN_POINT('Ctrl Pts',(6.23999198717434,0.890494242093711,11.0032392213487));
#374=CARTESIAN_POINT('Ctrl Pts',(6.23999198717435,3.61387039355354,8.83932714533164));
#375=CARTESIAN_POINT('Ctrl Pts',(6.23999198717435,3.60632221830452,5.36403789852847));
#376=CARTESIAN_POINT('Ctrl Pts',(6.23999198717434,0.892368022206755,3.18749397073501));
#377=CARTESIAN_POINT('Ctrl Pts',(6.23999198717435,-2.49718819679132,3.97237496520257));
#378=CARTESIAN_POINT('Ctrl Pts',(6.23999198717434,-3.5000000000006,6.05280722270305));
#379=CARTESIAN_POINT('Ctrl Pts',(6.23999198717434,-3.50000000000061,7.10000000000011));
#380=CARTESIAN_POINT('Ctrl Pts',(6.23999198717434,-3.45748786484953,7.1));
#381=CARTESIAN_POINT('Ctrl Pts',(6.23999198717434,-3.45748786484953,8.13478501555531));
#382=CARTESIAN_POINT('Ctrl Pts',(6.23999198717434,-2.46826478017608,10.1958251651679));
#383=CARTESIAN_POINT('Ctrl Pts',(6.23999198717434,0.879700569055936,10.9561383412898));
#384=CARTESIAN_POINT('Ctrl Pts',(6.23999198717434,3.57043623666713,8.81837899635872));
#385=CARTESIAN_POINT('Ctrl Pts',(6.23999198717435,3.56269092991859,5.38498511339254));
#386=CARTESIAN_POINT('Ctrl Pts',(6.23999198717433,0.881715626580309,3.23443379119046));
#387=CARTESIAN_POINT('Ctrl Pts',(6.23999198717434,-2.46714735388858,4.01030046251352));
#388=CARTESIAN_POINT('Ctrl Pts',(6.23999198717432,-3.45748786485009,6.06521498444456));
#389=CARTESIAN_POINT('Ctrl Pts',(6.23999198717432,-3.4574878648501,7.10000000000011));
#390=CARTESIAN_POINT('Ctrl Pts',(6.2675628599593,-3.33800066406154,7.1));
#391=CARTESIAN_POINT('Ctrl Pts',(6.2675628599593,-3.33800066406154,8.09867632588934));
#392=CARTESIAN_POINT('Ctrl Pts',(6.26756285995927,-2.38251745684614,10.0885644890521));
#393=CARTESIAN_POINT('Ctrl Pts',(6.26756285995929,0.849273878386975,10.8225295583598));
#394=CARTESIAN_POINT('Ctrl Pts',(6.26756285995928,3.44653161431226,8.75879483817268));
#395=CARTESIAN_POINT('Ctrl Pts',(6.2675628599593,3.43937596308924,5.44440848546333));
#396=CARTESIAN_POINT('Ctrl Pts',(6.26756285995926,0.851036420239907,3.36867343495077));
#397=CARTESIAN_POINT('Ctrl Pts',(6.26756285995929,-2.38156107947689,4.11714824083728));
#398=CARTESIAN_POINT('Ctrl Pts',(6.26756285995922,-3.33800066406197,6.10132367411057));
#399=CARTESIAN_POINT('Ctrl Pts',(6.26756285995922,-3.33800066406198,7.10000000000011));
#400=CARTESIAN_POINT('Ctrl Pts',(6.44207989615113,-3.12641295612514,7.1));
#401=CARTESIAN_POINT('Ctrl Pts',(6.44207989615113,-3.12641295612514,8.03552816224752));
#402=CARTESIAN_POINT('Ctrl Pts',(6.4420798961511,-2.2316952959998,9.89924843460671));
#403=CARTESIAN_POINT('Ctrl Pts',(6.44207989615111,0.795451732225902,10.586721669675));
#404=CARTESIAN_POINT('Ctrl Pts',(6.4420798961511,3.22829434311409,8.65373679719952));
#405=CARTESIAN_POINT('Ctrl Pts',(6.44207989615113,3.22144823613515,5.5492833935319));
#406=CARTESIAN_POINT('Ctrl Pts',(6.44207989615108,0.797184358028767,3.60490248823038));
#407=CARTESIAN_POINT('Ctrl Pts',(6.44207989615112,-2.23074477320101,4.30619218388094));
#408=CARTESIAN_POINT('Ctrl Pts',(6.44207989615105,-3.1264129561253,6.1644718377524));
#409=CARTESIAN_POINT('Ctrl Pts',(6.44207989615105,-3.12641295612531,7.10000000000011));
#410=CARTESIAN_POINT('Ctrl Pts',(6.62698201180753,-3.01520191992085,7.1));
#411=CARTESIAN_POINT('Ctrl Pts',(6.62698201180753,-3.01520191992085,8.00208897189643));
#412=CARTESIAN_POINT('Ctrl Pts',(6.62698201180752,-2.15210365342238,9.79954897373974));
#413=CARTESIAN_POINT('Ctrl Pts',(6.62698201180753,0.767144705960535,10.4625342021387));
#414=CARTESIAN_POINT('Ctrl Pts',(6.62698201180752,3.11322099367749,8.59837600988487));
#415=CARTESIAN_POINT('Ctrl Pts',(6.62698201180753,3.10676764421887,5.60451611172217));
#416=CARTESIAN_POINT('Ctrl Pts',(6.62698201180751,0.768730941098053,3.72952927590947));
#417=CARTESIAN_POINT('Ctrl Pts',(6.62698201180753,-2.15124368589557,4.40560486224381));
#418=CARTESIAN_POINT('Ctrl Pts',(6.6269820118075,-3.01520191992087,6.19791102810351));
#419=CARTESIAN_POINT('Ctrl Pts',(6.6269820118075,-3.01520191992088,7.10000000000012));
#420=CARTESIAN_POINT('Ctrl Pts',(6.70810788581149,-3.,7.1));
#421=CARTESIAN_POINT('Ctrl Pts',(6.70810788581149,-3.,7.99767928618368));
#422=CARTESIAN_POINT('Ctrl Pts',(6.70810788581149,-2.14143114535776,9.78604688970674));
#423=CARTESIAN_POINT('Ctrl Pts',(6.70810788581149,0.763286963603226,10.4457183683309));
#424=CARTESIAN_POINT('Ctrl Pts',(6.70810788581149,3.09772960419508,8.59090071630764));
#425=CARTESIAN_POINT('Ctrl Pts',(6.70810788581149,3.09118055926705,5.61199455650761));
#426=CARTESIAN_POINT('Ctrl Pts',(6.70810788581148,0.764938032736596,3.74626363934391));
#427=CARTESIAN_POINT('Ctrl Pts',(6.70810788581149,-2.14052675477287,4.41916109130054));
#428=CARTESIAN_POINT('Ctrl Pts',(6.70810788581148,-3.,6.20232071381625));
#429=CARTESIAN_POINT('Ctrl Pts',(6.70810788581148,-3.00000000000001,7.10000000000012));
#430=CARTESIAN_POINT('Ctrl Pts',(6.73999198717435,-3.,7.1));
#431=CARTESIAN_POINT('Ctrl Pts',(6.73999198717435,-3.,7.99759380911155));
#432=CARTESIAN_POINT('Ctrl Pts',(6.73999198717435,-2.14132130884868,9.785979961141));
#433=CARTESIAN_POINT('Ctrl Pts',(6.73999198717434,0.763280778937421,10.4456336182988));
#434=CARTESIAN_POINT('Ctrl Pts',(6.73999198717435,3.09760319447438,8.59085183885564));
#435=CARTESIAN_POINT('Ctrl Pts',(6.73999198717434,3.09113332997526,5.61203248445298));
#436=CARTESIAN_POINT('Ctrl Pts',(6.73999198717434,0.764886876177278,3.74642340348732));
#437=CARTESIAN_POINT('Ctrl Pts',(6.73999198717435,-2.14044702582111,4.41917854160228));
#438=CARTESIAN_POINT('Ctrl Pts',(6.73999198717435,-3.,6.20240619088836));
#439=CARTESIAN_POINT('Ctrl Pts',(6.73999198717435,-3.00000000000001,7.10000000000012));
#440=CARTESIAN_POINT('',(6.23999198717434,-3.50000000000061,7.10000000000011));
#441=CARTESIAN_POINT('',(6.73999198717435,-3.,7.1));
#442=CARTESIAN_POINT('Ctrl Pts',(6.23999198717434,-3.5,7.1));
#443=CARTESIAN_POINT('Ctrl Pts',(6.23999198717434,-3.45748786484953,7.1));
#444=CARTESIAN_POINT('Ctrl Pts',(6.2675628599593,-3.33800066406154,7.1));
#445=CARTESIAN_POINT('Ctrl Pts',(6.44207989615113,-3.12641295612514,7.1));
#446=CARTESIAN_POINT('Ctrl Pts',(6.62698201180753,-3.01520191992085,7.1));
#447=CARTESIAN_POINT('Ctrl Pts',(6.70810788581149,-3.,7.1));
#448=CARTESIAN_POINT('Ctrl Pts',(6.73999198717435,-3.,7.1));
#449=CARTESIAN_POINT('Ctrl Pts',(6.73999198717435,-3.,7.1));
#450=CARTESIAN_POINT('Ctrl Pts',(6.73999198717435,-3.,7.99759380911155));
#451=CARTESIAN_POINT('Ctrl Pts',(6.73999198717435,-2.14132130884868,9.785979961141));
#452=CARTESIAN_POINT('Ctrl Pts',(6.73999198717434,0.763280778937421,10.4456336182988));
#453=CARTESIAN_POINT('Ctrl Pts',(6.73999198717435,3.09760319447438,8.59085183885564));
#454=CARTESIAN_POINT('Ctrl Pts',(6.73999198717434,3.09113332997526,5.61203248445298));
#455=CARTESIAN_POINT('Ctrl Pts',(6.73999198717434,0.764886876177278,3.74642340348732));
#456=CARTESIAN_POINT('Ctrl Pts',(6.73999198717435,-2.14044702582111,4.41917854160228));
#457=CARTESIAN_POINT('Ctrl Pts',(6.73999198717435,-3.,6.20240619088836));
#458=CARTESIAN_POINT('Ctrl Pts',(6.73999198717435,-3.00000000000001,7.10000000000012));
#459=CARTESIAN_POINT('',(6.23999198717434,-1.43780585007414E-8,3.59999999999993));
#460=CARTESIAN_POINT('Ctrl Pts',(6.23999198717434,-3.50000000000061,7.10000000000011));
#461=CARTESIAN_POINT('Ctrl Pts',(6.23999198717434,-3.5000000000006,6.05280722270305));
#462=CARTESIAN_POINT('Ctrl Pts',(6.23999198717435,-2.62253966474,4.23242898192922));
#463=CARTESIAN_POINT('Ctrl Pts',(6.23999198717434,-0.782771113185013,3.60426536762958));
#464=CARTESIAN_POINT('Ctrl Pts',(6.23999198717434,0.00238548261573213,3.59802213640997));
#465=CARTESIAN_POINT('',(6.23999198717434,-4.3820568701447E-9,10.6000000000001));
#466=CARTESIAN_POINT('Ctrl Pts',(6.23999198717434,0.00238548261573213,3.59802213640997));
#467=CARTESIAN_POINT('Ctrl Pts',(6.23999198717434,0.264104327136135,3.59594105950174));
#468=CARTESIAN_POINT('Ctrl Pts',(6.23999198717434,1.57085658467718,3.73162996346682));
#469=CARTESIAN_POINT('Ctrl Pts',(6.23999198717435,3.60632221830452,5.36403789852847));
#470=CARTESIAN_POINT('Ctrl Pts',(6.23999198717435,3.61387039355354,8.83932714533164));
#471=CARTESIAN_POINT('Ctrl Pts',(6.23999198717435,1.57133829633975,10.4622611893286));
#472=CARTESIAN_POINT('Ctrl Pts',(6.23999198717435,0.263336201414261,10.5999568526032));
#473=CARTESIAN_POINT('Ctrl Pts',(6.23999198717435,0.00144943218364679,10.5984319152016));
#474=CARTESIAN_POINT('Ctrl Pts',(6.23999198717435,0.00144943218364679,10.5984319152016));
#475=CARTESIAN_POINT('Ctrl Pts',(6.23999198717435,-0.78421095112003,10.5938571025566));
#476=CARTESIAN_POINT('Ctrl Pts',(6.23999198717435,-2.62343216041113,9.97283699298529));
#477=CARTESIAN_POINT('Ctrl Pts',(6.23999198717434,-3.5,8.14719277729682));
#478=CARTESIAN_POINT('Ctrl Pts',(6.23999198717434,-3.5,7.1));
#479=CARTESIAN_POINT('Origin',(6.23999198717434,-10.25,3.6));
#480=CARTESIAN_POINT('',(6.23999198717435,10.25,3.6));
#481=CARTESIAN_POINT('',(6.23999198717434,-10.25,3.6));
#482=CARTESIAN_POINT('',(6.23999198717435,10.25,10.6));
#483=CARTESIAN_POINT('',(6.23999198717435,10.25,3.6));
#484=CARTESIAN_POINT('',(6.23999198717434,-10.25,10.6));
#485=CARTESIAN_POINT('Origin',(6.23999198717434,-10.25,3.6));
#486=CARTESIAN_POINT('',(6.23999198717434,-10.25,10.6));
#487=CARTESIAN_POINT('',(6.23999198717434,-10.25,10.6));
#488=CARTESIAN_POINT('',(6.23999198717434,-10.25,3.6));
#489=CARTESIAN_POINT('',(6.23999198717434,-10.25,3.6));
#490=CARTESIAN_POINT('',(6.23999198717434,-10.25,3.6));
#491=CARTESIAN_POINT('Origin',(6.23999198717434,-2.22044604925031E-15,7.1));
#492=CARTESIAN_POINT('',(41.2399919871743,-3.,7.1));
#493=CARTESIAN_POINT('Origin',(41.2399919871743,-2.22044604925031E-15,7.1));
#494=CARTESIAN_POINT('',(6.23999198717434,-3.,7.1));
#495=CARTESIAN_POINT('Origin',(6.23999198717434,-2.22044604925031E-15,7.1));
#496=CARTESIAN_POINT('',(41.2399919871743,-1.355,7.1));
#497=CARTESIAN_POINT('Origin',(41.2399919871743,-2.22044604925031E-15,7.1));
#498=CARTESIAN_POINT('',(6.23999198717434,-1.355,7.1));
#499=CARTESIAN_POINT('',(6.23999198717434,-1.355,7.1));
#500=CARTESIAN_POINT('Origin',(6.23999198717434,-2.22044604925031E-15,7.1));
#501=CARTESIAN_POINT('Origin',(41.2399919871743,-2.22044604925031E-15,7.1));
#502=CARTESIAN_POINT('Origin',(3.98986399474665E-15,-8.99999986588951,3.6));
#503=CARTESIAN_POINT('',(1.27,-8.99999986588951,10.6));
#504=CARTESIAN_POINT('Origin',(3.98986399474665E-15,-8.99999986588951,10.6));
#505=CARTESIAN_POINT('',(1.27,-8.99999986588951,3.6));
#506=CARTESIAN_POINT('',(1.27,-8.99999986588951,3.6));
#507=CARTESIAN_POINT('Origin',(3.98986399474665E-15,-8.99999986588951,3.6));
#508=CARTESIAN_POINT('Origin',(4.30211422042248E-15,9.00000013411046,3.6));
#509=CARTESIAN_POINT('',(1.27,9.00000013411046,10.6));
#510=CARTESIAN_POINT('Origin',(4.30211422042248E-15,9.00000013411046,10.6));
#511=CARTESIAN_POINT('',(1.27,9.00000013411046,3.6));
#512=CARTESIAN_POINT('',(1.27,9.00000013411046,3.6));
#513=CARTESIAN_POINT('Origin',(4.30211422042248E-15,9.00000013411046,3.6));
#514=CARTESIAN_POINT('Origin',(0.,0.,3.6));
#515=CARTESIAN_POINT('',(5.50000007450581,6.73555748655374E-16,10.6));
#516=CARTESIAN_POINT('Origin',(0.,0.,10.6));
#517=CARTESIAN_POINT('',(5.50000007450581,6.73555748655374E-16,3.6));
#518=CARTESIAN_POINT('',(5.50000007450581,6.73555748655374E-16,3.6));
#519=CARTESIAN_POINT('Origin',(0.,0.,3.6));
#520=CARTESIAN_POINT('Origin',(0.,0.,3.6));
#521=CARTESIAN_POINT('',(-6.23999198717434,10.25,3.6));
#522=CARTESIAN_POINT('Origin',(0.,0.,3.6));
#523=CARTESIAN_POINT('',(-6.23999198717434,10.25,10.6));
#524=CARTESIAN_POINT('',(-6.23999198717434,10.25,3.6));
#525=CARTESIAN_POINT('Origin',(0.,0.,10.6));
#526=CARTESIAN_POINT('Origin',(6.23999198717434,-10.25,3.6));
#527=CARTESIAN_POINT('Origin',(0.,0.,3.6));
#528=CARTESIAN_POINT('',(-6.23999198717435,-10.25,3.6));
#529=CARTESIAN_POINT('Origin',(0.,0.,3.6));
#530=CARTESIAN_POINT('',(-6.23999198717435,-10.25,10.6));
#531=CARTESIAN_POINT('Origin',(0.,0.,10.6));
#532=CARTESIAN_POINT('',(-6.23999198717435,-10.25,3.6));
#533=CARTESIAN_POINT('Origin',(-6.23999198717434,10.25,3.6));
#534=CARTESIAN_POINT('',(-6.23999198717434,10.25,3.6));
#535=CARTESIAN_POINT('',(-6.23999198717434,10.25,10.6));
#536=CARTESIAN_POINT('Origin',(0.,0.,10.6));
#537=CARTESIAN_POINT('Origin',(0.,0.,3.6));
#538=UNCERTAINTY_MEASURE_WITH_UNIT(LENGTH_MEASURE(0.01),#542,
'DISTANCE_ACCURACY_VALUE',
'Maximum model space distance between geometric entities at asserted c
onnectivities');
#539=UNCERTAINTY_MEASURE_WITH_UNIT(LENGTH_MEASURE(0.01),#542,
'DISTANCE_ACCURACY_VALUE',
'Maximum model space distance between geometric entities at asserted c
onnectivities');
#540=(
GEOMETRIC_REPRESENTATION_CONTEXT(3)
GLOBAL_UNCERTAINTY_ASSIGNED_CONTEXT((#538))
GLOBAL_UNIT_ASSIGNED_CONTEXT((#542,#544,#545))
REPRESENTATION_CONTEXT('','3D')
);
#541=(
GEOMETRIC_REPRESENTATION_CONTEXT(3)
GLOBAL_UNCERTAINTY_ASSIGNED_CONTEXT((#539))
GLOBAL_UNIT_ASSIGNED_CONTEXT((#542,#544,#545))
REPRESENTATION_CONTEXT('','3D')
);
#542=(
LENGTH_UNIT()
NAMED_UNIT(*)
SI_UNIT(.MILLI.,.METRE.)
);
#543=(
LENGTH_UNIT()
NAMED_UNIT(*)
SI_UNIT($,.METRE.)
);
#544=(
NAMED_UNIT(*)
PLANE_ANGLE_UNIT()
SI_UNIT($,.RADIAN.)
);
#545=(
NAMED_UNIT(*)
SI_UNIT($,.STERADIAN.)
SOLID_ANGLE_UNIT()
);
#546=SHAPE_DEFINITION_REPRESENTATION(#547,#548);
#547=PRODUCT_DEFINITION_SHAPE('',$,#550);
#548=SHAPE_REPRESENTATION('',(#270),#540);
#549=PRODUCT_DEFINITION_CONTEXT('part definition',#554,'design');
#550=PRODUCT_DEFINITION('Holder','Holder',#551,#549);
#551=PRODUCT_DEFINITION_FORMATION('',$,#556);
#552=PRODUCT_RELATED_PRODUCT_CATEGORY('Holder','Holder',(#556));
#553=APPLICATION_PROTOCOL_DEFINITION('international standard',
'automotive_design',2009,#554);
#554=APPLICATION_CONTEXT(
'Core Data for Automotive Mechanical Design Process');
#555=PRODUCT_CONTEXT('part definition',#554,'mechanical');
#556=PRODUCT('Holder','Holder',$,(#555));
#557=PRESENTATION_STYLE_ASSIGNMENT((#558));
#558=SURFACE_STYLE_USAGE(.BOTH.,#559);
#559=SURFACE_SIDE_STYLE('',(#560));
#560=SURFACE_STYLE_FILL_AREA(#561);
#561=FILL_AREA_STYLE('Plastic - Glossy (Grey)',(#562));
#562=FILL_AREA_STYLE_COLOUR('Plastic - Glossy (Grey)',#563);
#563=COLOUR_RGB('Plastic - Glossy (Grey)',0.701960784313725,0.701960784313725,
0.701960784313725);
ENDSEC;
END-ISO-10303-21;
