ISO-10303-21;
HEADER;
/* Generated by software containing ST-Developer
 * from STEP Tools, Inc. (www.steptools.com) 
 */

FILE_DESCRIPTION(
/* description */ (''),
/* implementation_level */ '2;1');

FILE_NAME(
/* name */ 'HolderV2.step',
/* time_stamp */ '2026-03-13T16:02:50+01:00',
/* author */ (''),
/* organization */ (''),
/* preprocessor_version */ 'ST-DEVELOPER v20.1',
/* originating_system */ 'Autodesk Translation Framework v14.24.0.0',
/* authorisation */ '');

FILE_SCHEMA (('AUTOMOTIVE_DESIGN { 1 0 10303 214 3 1 1 }'));
ENDSEC;

DATA;
#10=MECHANICAL_DESIGN_GEOMETRIC_PRESENTATION_REPRESENTATION('',(#13),#541);
#11=SHAPE_REPRESENTATION_RELATIONSHIP('SRR','None',#548,#12);
#12=ADVANCED_BREP_SHAPE_REPRESENTATION('',(#14),#540);
#13=STYLED_ITEM('',(#557),#14);
#14=MANIFOLD_SOLID_BREP('Body1',#257);
#15=FACE_BOUND('',#58,.T.);
#16=FACE_BOUND('',#65,.T.);
#17=FACE_BOUND('',#66,.T.);
#18=FACE_BOUND('',#67,.T.);
#19=FACE_BOUND('',#69,.T.);
#20=FACE_BOUND('',#70,.T.);
#21=FACE_BOUND('',#71,.T.);
#22=PLANE('',#277);
#23=PLANE('',#278);
#24=PLANE('',#284);
#25=PLANE('',#291);
#26=PLANE('',#295);
#27=PLANE('',#296);
#28=PLANE('',#297);
#29=B_SPLINE_CURVE_WITH_KNOTS('',3,(#454,#455,#456,#457,#458,#459,#460),
 .UNSPECIFIED.,.F.,.F.,(4,1,1,1,4),(0.,0.285714285714286,0.571428571428571,
0.785714285714286,1.),.UNSPECIFIED.);
#30=B_SPLINE_CURVE_WITH_KNOTS('',3,(#461,#462,#463,#464,#465,#466,#467,
#468,#469,#470),.UNSPECIFIED.,.T.,.F.,(4,1,1,1,1,1,1,4),(0.,0.312729721533394,
0.625459443066789,0.938189164600183,1.25091888613358,1.56364860766697,1.87637832920037,
2.18910805073376),.UNSPECIFIED.);
#31=B_SPLINE_CURVE_WITH_KNOTS('',3,(#472,#473,#474,#475,#476),
 .UNSPECIFIED.,.F.,.F.,(4,1,4),(-2.18910805073376,-1.87637832920037,-1.64183103340217),
 .UNSPECIFIED.);
#32=B_SPLINE_CURVE_WITH_KNOTS('',3,(#478,#479,#480,#481,#482,#483,#484,
#485),.UNSPECIFIED.,.F.,.F.,(4,1,1,1,1,4),(-1.64183103340217,-1.56364860766697,
-1.25091888613358,-0.938189164600183,-0.625459443066789,-0.547277018326639),
 .UNSPECIFIED.);
#33=B_SPLINE_CURVE_WITH_KNOTS('',3,(#486,#487,#488,#489,#490),
 .UNSPECIFIED.,.F.,.F.,(4,1,4),(-0.547277018326639,-0.312729721533394,0.),
 .UNSPECIFIED.);
#34=B_SPLINE_SURFACE_WITH_KNOTS('',3,3,((#382,#383,#384,#385,#386,#387,
#388,#389,#390,#391),(#392,#393,#394,#395,#396,#397,#398,#399,#400,#401),
(#402,#403,#404,#405,#406,#407,#408,#409,#410,#411),(#412,#413,#414,#415,
#416,#417,#418,#419,#420,#421),(#422,#423,#424,#425,#426,#427,#428,#429,
#430,#431),(#432,#433,#434,#435,#436,#437,#438,#439,#440,#441),(#442,#443,
#444,#445,#446,#447,#448,#449,#450,#451)),.UNSPECIFIED.,.F.,.T.,.F.,(4,
1,1,1,4),(4,1,1,1,1,1,1,4),(0.,0.285714285714286,0.571428571428571,0.785714285714286,
1.),(0.,0.312729721533394,0.625459443066789,0.938189164600183,1.25091888613358,
1.56364860766697,1.87637832920037,2.18910805073376),.UNSPECIFIED.);
#35=FACE_OUTER_BOUND('',#50,.T.);
#36=FACE_OUTER_BOUND('',#51,.T.);
#37=FACE_OUTER_BOUND('',#52,.T.);
#38=FACE_OUTER_BOUND('',#53,.T.);
#39=FACE_OUTER_BOUND('',#54,.T.);
#40=FACE_OUTER_BOUND('',#55,.T.);
#41=FACE_OUTER_BOUND('',#56,.T.);
#42=FACE_OUTER_BOUND('',#57,.T.);
#43=FACE_OUTER_BOUND('',#59,.T.);
#44=FACE_OUTER_BOUND('',#60,.T.);
#45=FACE_OUTER_BOUND('',#61,.T.);
#46=FACE_OUTER_BOUND('',#62,.T.);
#47=FACE_OUTER_BOUND('',#63,.T.);
#48=FACE_OUTER_BOUND('',#64,.T.);
#49=FACE_OUTER_BOUND('',#68,.T.);
#50=EDGE_LOOP('',(#169,#170,#171,#172));
#51=EDGE_LOOP('',(#173,#174,#175,#176));
#52=EDGE_LOOP('',(#177,#178,#179,#180,#181,#182));
#53=EDGE_LOOP('',(#183,#184,#185,#186));
#54=EDGE_LOOP('',(#187,#188,#189,#190,#191));
#55=EDGE_LOOP('',(#192,#193,#194,#195));
#56=EDGE_LOOP('',(#196,#197,#198,#199));
#57=EDGE_LOOP('',(#200));
#58=EDGE_LOOP('',(#201));
#59=EDGE_LOOP('',(#202,#203,#204,#205));
#60=EDGE_LOOP('',(#206,#207,#208,#209));
#61=EDGE_LOOP('',(#210));
#62=EDGE_LOOP('',(#211,#212,#213,#214));
#63=EDGE_LOOP('',(#215,#216,#217,#218));
#64=EDGE_LOOP('',(#219,#220,#221,#222,#223));
#65=EDGE_LOOP('',(#224));
#66=EDGE_LOOP('',(#225));
#67=EDGE_LOOP('',(#226));
#68=EDGE_LOOP('',(#227,#228,#229,#230,#231));
#69=EDGE_LOOP('',(#232));
#70=EDGE_LOOP('',(#233));
#71=EDGE_LOOP('',(#234));
#72=LINE('',#374,#87);
#73=LINE('',#380,#88);
#74=LINE('',#493,#89);
#75=LINE('',#495,#90);
#76=LINE('',#496,#91);
#77=LINE('',#499,#92);
#78=LINE('',#501,#93);
#79=LINE('',#502,#94);
#80=LINE('',#506,#95);
#81=LINE('',#511,#96);
#82=LINE('',#518,#97);
#83=LINE('',#524,#98);
#84=LINE('',#532,#99);
#85=LINE('',#534,#100);
#86=LINE('',#535,#101);
#87=VECTOR('',#304,2.2);
#88=VECTOR('',#311,2.2);
#89=VECTOR('',#316,10.);
#90=VECTOR('',#317,10.);
#91=VECTOR('',#318,10.);
#92=VECTOR('',#321,10.);
#93=VECTOR('',#322,10.);
#94=VECTOR('',#323,10.);
#95=VECTOR('',#328,3.);
#96=VECTOR('',#333,1.355);
#97=VECTOR('',#342,5.50000007450581);
#98=VECTOR('',#349,10.);
#99=VECTOR('',#360,10.);
#100=VECTOR('',#363,10.);
#101=VECTOR('',#364,10.);
#102=CIRCLE('',#272,2.2);
#103=CIRCLE('',#273,2.2);
#104=CIRCLE('',#275,2.2);
#105=CIRCLE('',#276,2.2);
#106=CIRCLE('',#280,3.);
#107=CIRCLE('',#282,1.355);
#108=CIRCLE('',#283,1.355);
#109=CIRCLE('',#286,5.50000007450581);
#110=CIRCLE('',#287,5.50000007450581);
#111=CIRCLE('',#289,14.);
#112=CIRCLE('',#290,14.);
#113=CIRCLE('',#293,14.);
#114=CIRCLE('',#294,14.);
#115=VERTEX_POINT('',#371);
#116=VERTEX_POINT('',#373);
#117=VERTEX_POINT('',#377);
#118=VERTEX_POINT('',#379);
#119=VERTEX_POINT('',#452);
#120=VERTEX_POINT('',#453);
#121=VERTEX_POINT('',#471);
#122=VERTEX_POINT('',#477);
#123=VERTEX_POINT('',#492);
#124=VERTEX_POINT('',#494);
#125=VERTEX_POINT('',#498);
#126=VERTEX_POINT('',#500);
#127=VERTEX_POINT('',#504);
#128=VERTEX_POINT('',#508);
#129=VERTEX_POINT('',#510);
#130=VERTEX_POINT('',#515);
#131=VERTEX_POINT('',#517);
#132=VERTEX_POINT('',#521);
#133=VERTEX_POINT('',#523);
#134=VERTEX_POINT('',#528);
#135=VERTEX_POINT('',#530);
#136=EDGE_CURVE('',#115,#115,#102,.T.);
#137=EDGE_CURVE('',#115,#116,#72,.T.);
#138=EDGE_CURVE('',#116,#116,#103,.T.);
#139=EDGE_CURVE('',#117,#117,#104,.T.);
#140=EDGE_CURVE('',#117,#118,#73,.T.);
#141=EDGE_CURVE('',#118,#118,#105,.T.);
#142=EDGE_CURVE('',#119,#120,#29,.T.);
#143=EDGE_CURVE('',#120,#120,#30,.T.);
#144=EDGE_CURVE('',#119,#121,#31,.T.);
#145=EDGE_CURVE('',#121,#122,#32,.T.);
#146=EDGE_CURVE('',#122,#119,#33,.T.);
#147=EDGE_CURVE('',#121,#123,#74,.T.);
#148=EDGE_CURVE('',#123,#124,#75,.F.);
#149=EDGE_CURVE('',#122,#124,#76,.T.);
#150=EDGE_CURVE('',#125,#122,#77,.T.);
#151=EDGE_CURVE('',#126,#125,#78,.T.);
#152=EDGE_CURVE('',#126,#121,#79,.T.);
#153=EDGE_CURVE('',#127,#127,#106,.T.);
#154=EDGE_CURVE('',#127,#120,#80,.T.);
#155=EDGE_CURVE('',#128,#128,#107,.T.);
#156=EDGE_CURVE('',#128,#129,#81,.T.);
#157=EDGE_CURVE('',#129,#129,#108,.T.);
#158=EDGE_CURVE('',#130,#130,#109,.T.);
#159=EDGE_CURVE('',#130,#131,#82,.T.);
#160=EDGE_CURVE('',#131,#131,#110,.T.);
#161=EDGE_CURVE('',#123,#132,#111,.F.);
#162=EDGE_CURVE('',#132,#133,#83,.T.);
#163=EDGE_CURVE('',#124,#133,#112,.F.);
#164=EDGE_CURVE('',#134,#126,#113,.F.);
#165=EDGE_CURVE('',#135,#125,#114,.F.);
#166=EDGE_CURVE('',#134,#135,#84,.F.);
#167=EDGE_CURVE('',#132,#134,#85,.T.);
#168=EDGE_CURVE('',#133,#135,#86,.T.);
#169=ORIENTED_EDGE('',*,*,#136,.F.);
#170=ORIENTED_EDGE('',*,*,#137,.T.);
#171=ORIENTED_EDGE('',*,*,#138,.F.);
#172=ORIENTED_EDGE('',*,*,#137,.F.);
#173=ORIENTED_EDGE('',*,*,#139,.F.);
#174=ORIENTED_EDGE('',*,*,#140,.T.);
#175=ORIENTED_EDGE('',*,*,#141,.F.);
#176=ORIENTED_EDGE('',*,*,#140,.F.);
#177=ORIENTED_EDGE('',*,*,#142,.T.);
#178=ORIENTED_EDGE('',*,*,#143,.T.);
#179=ORIENTED_EDGE('',*,*,#142,.F.);
#180=ORIENTED_EDGE('',*,*,#144,.T.);
#181=ORIENTED_EDGE('',*,*,#145,.T.);
#182=ORIENTED_EDGE('',*,*,#146,.T.);
#183=ORIENTED_EDGE('',*,*,#145,.F.);
#184=ORIENTED_EDGE('',*,*,#147,.T.);
#185=ORIENTED_EDGE('',*,*,#148,.T.);
#186=ORIENTED_EDGE('',*,*,#149,.F.);
#187=ORIENTED_EDGE('',*,*,#144,.F.);
#188=ORIENTED_EDGE('',*,*,#146,.F.);
#189=ORIENTED_EDGE('',*,*,#150,.F.);
#190=ORIENTED_EDGE('',*,*,#151,.F.);
#191=ORIENTED_EDGE('',*,*,#152,.T.);
#192=ORIENTED_EDGE('',*,*,#153,.F.);
#193=ORIENTED_EDGE('',*,*,#154,.T.);
#194=ORIENTED_EDGE('',*,*,#143,.F.);
#195=ORIENTED_EDGE('',*,*,#154,.F.);
#196=ORIENTED_EDGE('',*,*,#155,.F.);
#197=ORIENTED_EDGE('',*,*,#156,.T.);
#198=ORIENTED_EDGE('',*,*,#157,.F.);
#199=ORIENTED_EDGE('',*,*,#156,.F.);
#200=ORIENTED_EDGE('',*,*,#153,.T.);
#201=ORIENTED_EDGE('',*,*,#155,.T.);
#202=ORIENTED_EDGE('',*,*,#158,.F.);
#203=ORIENTED_EDGE('',*,*,#159,.T.);
#204=ORIENTED_EDGE('',*,*,#160,.T.);
#205=ORIENTED_EDGE('',*,*,#159,.F.);
#206=ORIENTED_EDGE('',*,*,#161,.T.);
#207=ORIENTED_EDGE('',*,*,#162,.T.);
#208=ORIENTED_EDGE('',*,*,#163,.F.);
#209=ORIENTED_EDGE('',*,*,#148,.F.);
#210=ORIENTED_EDGE('',*,*,#157,.T.);
#211=ORIENTED_EDGE('',*,*,#164,.T.);
#212=ORIENTED_EDGE('',*,*,#151,.T.);
#213=ORIENTED_EDGE('',*,*,#165,.F.);
#214=ORIENTED_EDGE('',*,*,#166,.F.);
#215=ORIENTED_EDGE('',*,*,#167,.T.);
#216=ORIENTED_EDGE('',*,*,#166,.T.);
#217=ORIENTED_EDGE('',*,*,#168,.F.);
#218=ORIENTED_EDGE('',*,*,#162,.F.);
#219=ORIENTED_EDGE('',*,*,#168,.T.);
#220=ORIENTED_EDGE('',*,*,#165,.T.);
#221=ORIENTED_EDGE('',*,*,#150,.T.);
#222=ORIENTED_EDGE('',*,*,#149,.T.);
#223=ORIENTED_EDGE('',*,*,#163,.T.);
#224=ORIENTED_EDGE('',*,*,#136,.T.);
#225=ORIENTED_EDGE('',*,*,#139,.T.);
#226=ORIENTED_EDGE('',*,*,#158,.T.);
#227=ORIENTED_EDGE('',*,*,#167,.F.);
#228=ORIENTED_EDGE('',*,*,#161,.F.);
#229=ORIENTED_EDGE('',*,*,#147,.F.);
#230=ORIENTED_EDGE('',*,*,#152,.F.);
#231=ORIENTED_EDGE('',*,*,#164,.F.);
#232=ORIENTED_EDGE('',*,*,#138,.T.);
#233=ORIENTED_EDGE('',*,*,#141,.T.);
#234=ORIENTED_EDGE('',*,*,#160,.F.);
#235=CYLINDRICAL_SURFACE('',#271,2.2);
#236=CYLINDRICAL_SURFACE('',#274,2.2);
#237=CYLINDRICAL_SURFACE('',#279,3.);
#238=CYLINDRICAL_SURFACE('',#281,1.355);
#239=CYLINDRICAL_SURFACE('',#285,5.50000007450581);
#240=CYLINDRICAL_SURFACE('',#288,14.);
#241=CYLINDRICAL_SURFACE('',#292,14.);
#242=ADVANCED_FACE('',(#35),#235,.F.);
#243=ADVANCED_FACE('',(#36),#236,.F.);
#244=ADVANCED_FACE('',(#37),#34,.T.);
#245=ADVANCED_FACE('',(#38),#22,.T.);
#246=ADVANCED_FACE('',(#39),#23,.T.);
#247=ADVANCED_FACE('',(#40),#237,.T.);
#248=ADVANCED_FACE('',(#41),#238,.F.);
#249=ADVANCED_FACE('',(#42,#15),#24,.T.);
#250=ADVANCED_FACE('',(#43),#239,.F.);
#251=ADVANCED_FACE('',(#44),#240,.T.);
#252=ADVANCED_FACE('',(#45),#25,.T.);
#253=ADVANCED_FACE('',(#46),#241,.T.);
#254=ADVANCED_FACE('',(#47),#26,.T.);
#255=ADVANCED_FACE('',(#48,#16,#17,#18),#27,.T.);
#256=ADVANCED_FACE('',(#49,#19,#20,#21),#28,.F.);
#257=CLOSED_SHELL('',(#242,#243,#244,#245,#246,#247,#248,#249,#250,#251,
#252,#253,#254,#255,#256));
#258=DERIVED_UNIT_ELEMENT(#260,1.);
#259=DERIVED_UNIT_ELEMENT(#543,-3.);
#260=(
MASS_UNIT()
NAMED_UNIT(*)
SI_UNIT(.KILO.,.GRAM.)
);
#261=DERIVED_UNIT((#258,#259));
#262=MEASURE_REPRESENTATION_ITEM('density measure',
POSITIVE_RATIO_MEASURE(1290.),#261);
#263=PROPERTY_DEFINITION_REPRESENTATION(#268,#265);
#264=PROPERTY_DEFINITION_REPRESENTATION(#269,#266);
#265=REPRESENTATION('material name',(#267),#540);
#266=REPRESENTATION('density',(#262),#540);
#267=DESCRIPTIVE_REPRESENTATION_ITEM('Plastic','Plastic');
#268=PROPERTY_DEFINITION('material property','material name',#550);
#269=PROPERTY_DEFINITION('material property','density of part',#550);
#270=AXIS2_PLACEMENT_3D('',#369,#298,#299);
#271=AXIS2_PLACEMENT_3D('',#370,#300,#301);
#272=AXIS2_PLACEMENT_3D('',#372,#302,#303);
#273=AXIS2_PLACEMENT_3D('',#375,#305,#306);
#274=AXIS2_PLACEMENT_3D('',#376,#307,#308);
#275=AXIS2_PLACEMENT_3D('',#378,#309,#310);
#276=AXIS2_PLACEMENT_3D('',#381,#312,#313);
#277=AXIS2_PLACEMENT_3D('',#491,#314,#315);
#278=AXIS2_PLACEMENT_3D('',#497,#319,#320);
#279=AXIS2_PLACEMENT_3D('',#503,#324,#325);
#280=AXIS2_PLACEMENT_3D('',#505,#326,#327);
#281=AXIS2_PLACEMENT_3D('',#507,#329,#330);
#282=AXIS2_PLACEMENT_3D('',#509,#331,#332);
#283=AXIS2_PLACEMENT_3D('',#512,#334,#335);
#284=AXIS2_PLACEMENT_3D('',#513,#336,#337);
#285=AXIS2_PLACEMENT_3D('',#514,#338,#339);
#286=AXIS2_PLACEMENT_3D('',#516,#340,#341);
#287=AXIS2_PLACEMENT_3D('',#519,#343,#344);
#288=AXIS2_PLACEMENT_3D('',#520,#345,#346);
#289=AXIS2_PLACEMENT_3D('',#522,#347,#348);
#290=AXIS2_PLACEMENT_3D('',#525,#350,#351);
#291=AXIS2_PLACEMENT_3D('',#526,#352,#353);
#292=AXIS2_PLACEMENT_3D('',#527,#354,#355);
#293=AXIS2_PLACEMENT_3D('',#529,#356,#357);
#294=AXIS2_PLACEMENT_3D('',#531,#358,#359);
#295=AXIS2_PLACEMENT_3D('',#533,#361,#362);
#296=AXIS2_PLACEMENT_3D('',#536,#365,#366);
#297=AXIS2_PLACEMENT_3D('',#537,#367,#368);
#298=DIRECTION('axis',(0.,0.,1.));
#299=DIRECTION('refdir',(1.,0.,0.));
#300=DIRECTION('center_axis',(0.,0.,-1.));
#301=DIRECTION('ref_axis',(-1.,0.,0.));
#302=DIRECTION('center_axis',(0.,0.,-1.));
#303=DIRECTION('ref_axis',(-1.,0.,0.));
#304=DIRECTION('',(0.,0.,-1.));
#305=DIRECTION('center_axis',(0.,0.,1.));
#306=DIRECTION('ref_axis',(-1.,0.,0.));
#307=DIRECTION('center_axis',(0.,0.,-1.));
#308=DIRECTION('ref_axis',(1.,0.,0.));
#309=DIRECTION('center_axis',(0.,0.,-1.));
#310=DIRECTION('ref_axis',(1.,0.,0.));
#311=DIRECTION('',(0.,0.,-1.));
#312=DIRECTION('center_axis',(0.,0.,1.));
#313=DIRECTION('ref_axis',(1.,0.,0.));
#314=DIRECTION('center_axis',(1.,-5.41572207134223E-17,0.));
#315=DIRECTION('ref_axis',(5.41572207134223E-17,1.,0.));
#316=DIRECTION('',(5.41572207134223E-17,1.,0.));
#317=DIRECTION('',(0.,0.,-1.));
#318=DIRECTION('',(5.41572207134223E-17,1.,0.));
#319=DIRECTION('center_axis',(1.,-5.41572207134223E-17,0.));
#320=DIRECTION('ref_axis',(5.41572207134223E-17,1.,0.));
#321=DIRECTION('',(5.41572207134223E-17,1.,0.));
#322=DIRECTION('',(0.,0.,1.));
#323=DIRECTION('',(5.41572207134223E-17,1.,0.));
#324=DIRECTION('center_axis',(1.,0.,0.));
#325=DIRECTION('ref_axis',(0.,1.,0.));
#326=DIRECTION('center_axis',(1.,0.,0.));
#327=DIRECTION('ref_axis',(0.,1.,0.));
#328=DIRECTION('',(-1.,0.,0.));
#329=DIRECTION('center_axis',(1.,0.,0.));
#330=DIRECTION('ref_axis',(0.,1.,0.));
#331=DIRECTION('center_axis',(-1.,0.,0.));
#332=DIRECTION('ref_axis',(0.,1.,0.));
#333=DIRECTION('',(-1.,0.,0.));
#334=DIRECTION('center_axis',(1.,-5.41572207134223E-17,0.));
#335=DIRECTION('ref_axis',(0.,1.,0.));
#336=DIRECTION('center_axis',(1.,0.,0.));
#337=DIRECTION('ref_axis',(0.,1.,0.));
#338=DIRECTION('center_axis',(0.,0.,1.));
#339=DIRECTION('ref_axis',(-1.,0.,0.));
#340=DIRECTION('center_axis',(0.,0.,-1.));
#341=DIRECTION('ref_axis',(-1.,0.,0.));
#342=DIRECTION('',(0.,0.,-1.));
#343=DIRECTION('center_axis',(0.,0.,-1.));
#344=DIRECTION('ref_axis',(-1.,0.,0.));
#345=DIRECTION('center_axis',(0.,0.,1.));
#346=DIRECTION('ref_axis',(0.519999332264529,0.854166666666667,0.));
#347=DIRECTION('center_axis',(0.,0.,-1.));
#348=DIRECTION('ref_axis',(0.519999332264529,0.854166666666667,0.));
#349=DIRECTION('',(0.,0.,1.));
#350=DIRECTION('center_axis',(0.,0.,-1.));
#351=DIRECTION('ref_axis',(0.519999332264529,0.854166666666667,0.));
#352=DIRECTION('center_axis',(1.,-5.41572207134223E-17,0.));
#353=DIRECTION('ref_axis',(5.41572207134223E-17,1.,0.));
#354=DIRECTION('center_axis',(0.,0.,1.));
#355=DIRECTION('ref_axis',(-0.519999332264529,-0.854166666666667,0.));
#356=DIRECTION('center_axis',(0.,0.,-1.));
#357=DIRECTION('ref_axis',(-0.519999332264529,-0.854166666666667,0.));
#358=DIRECTION('center_axis',(0.,0.,-1.));
#359=DIRECTION('ref_axis',(-0.519999332264529,-0.854166666666667,0.));
#360=DIRECTION('',(0.,0.,-1.));
#361=DIRECTION('center_axis',(-1.,1.62471662140267E-16,0.));
#362=DIRECTION('ref_axis',(-1.62471662140267E-16,-1.,0.));
#363=DIRECTION('',(-1.62471662140267E-16,-1.,0.));
#364=DIRECTION('',(-1.62471662140267E-16,-1.,0.));
#365=DIRECTION('center_axis',(0.,0.,1.));
#366=DIRECTION('ref_axis',(-1.,0.,0.));
#367=DIRECTION('center_axis',(0.,0.,1.));
#368=DIRECTION('ref_axis',(-1.,0.,0.));
#369=CARTESIAN_POINT('',(0.,0.,0.));
#370=CARTESIAN_POINT('Origin',(3.98986399474665E-15,-8.99999986588951,10.6));
#371=CARTESIAN_POINT('',(2.2,-8.99999986588951,10.6));
#372=CARTESIAN_POINT('Origin',(3.98986399474665E-15,-8.99999986588951,10.6));
#373=CARTESIAN_POINT('',(2.2,-8.99999986588951,3.6));
#374=CARTESIAN_POINT('',(2.2,-8.99999986588951,10.6));
#375=CARTESIAN_POINT('Origin',(3.98986399474665E-15,-8.99999986588951,3.6));
#376=CARTESIAN_POINT('Origin',(4.30211422042248E-15,9.00000013411046,5.6));
#377=CARTESIAN_POINT('',(-2.2,9.00000013411046,10.6));
#378=CARTESIAN_POINT('Origin',(4.30211422042248E-15,9.00000013411046,10.6));
#379=CARTESIAN_POINT('',(-2.2,9.00000013411046,3.6));
#380=CARTESIAN_POINT('',(-2.2,9.00000013411046,5.6));
#381=CARTESIAN_POINT('Origin',(4.30211422042248E-15,9.00000013411046,3.6));
#382=CARTESIAN_POINT('Ctrl Pts',(6.23999198717434,-3.5,7.1));
#383=CARTESIAN_POINT('Ctrl Pts',(6.23999198717434,-3.5,8.14719277729682));
#384=CARTESIAN_POINT('Ctrl Pts',(6.23999198717435,-2.49820819365689,10.233643287998));
#385=CARTESIAN_POINT('Ctrl Pts',(6.23999198717434,0.890494242093711,11.0032392213487));
#386=CARTESIAN_POINT('Ctrl Pts',(6.23999198717435,3.61387039355354,8.83932714533164));
#387=CARTESIAN_POINT('Ctrl Pts',(6.23999198717435,3.60632221830452,5.36403789852847));
#388=CARTESIAN_POINT('Ctrl Pts',(6.23999198717434,0.892368022206755,3.18749397073501));
#389=CARTESIAN_POINT('Ctrl Pts',(6.23999198717435,-2.49718819679132,3.97237496520257));
#390=CARTESIAN_POINT('Ctrl Pts',(6.23999198717434,-3.5000000000006,6.05280722270305));
#391=CARTESIAN_POINT('Ctrl Pts',(6.23999198717434,-3.50000000000061,7.10000000000011));
#392=CARTESIAN_POINT('Ctrl Pts',(6.23999198717434,-3.45748786484953,7.1));
#393=CARTESIAN_POINT('Ctrl Pts',(6.23999198717434,-3.45748786484953,8.13478501555531));
#394=CARTESIAN_POINT('Ctrl Pts',(6.23999198717434,-2.46826478017608,10.1958251651679));
#395=CARTESIAN_POINT('Ctrl Pts',(6.23999198717434,0.879700569055936,10.9561383412898));
#396=CARTESIAN_POINT('Ctrl Pts',(6.23999198717434,3.57043623666713,8.81837899635872));
#397=CARTESIAN_POINT('Ctrl Pts',(6.23999198717435,3.56269092991859,5.38498511339254));
#398=CARTESIAN_POINT('Ctrl Pts',(6.23999198717433,0.881715626580309,3.23443379119046));
#399=CARTESIAN_POINT('Ctrl Pts',(6.23999198717434,-2.46714735388858,4.01030046251352));
#400=CARTESIAN_POINT('Ctrl Pts',(6.23999198717432,-3.45748786485009,6.06521498444456));
#401=CARTESIAN_POINT('Ctrl Pts',(6.23999198717432,-3.4574878648501,7.10000000000011));
#402=CARTESIAN_POINT('Ctrl Pts',(6.2675628599593,-3.33800066406154,7.1));
#403=CARTESIAN_POINT('Ctrl Pts',(6.2675628599593,-3.33800066406154,8.09867632588934));
#404=CARTESIAN_POINT('Ctrl Pts',(6.26756285995927,-2.38251745684614,10.0885644890521));
#405=CARTESIAN_POINT('Ctrl Pts',(6.26756285995929,0.849273878386975,10.8225295583598));
#406=CARTESIAN_POINT('Ctrl Pts',(6.26756285995928,3.44653161431226,8.75879483817268));
#407=CARTESIAN_POINT('Ctrl Pts',(6.2675628599593,3.43937596308924,5.44440848546333));
#408=CARTESIAN_POINT('Ctrl Pts',(6.26756285995926,0.851036420239907,3.36867343495077));
#409=CARTESIAN_POINT('Ctrl Pts',(6.26756285995929,-2.38156107947689,4.11714824083728));
#410=CARTESIAN_POINT('Ctrl Pts',(6.26756285995922,-3.33800066406197,6.10132367411057));
#411=CARTESIAN_POINT('Ctrl Pts',(6.26756285995922,-3.33800066406198,7.10000000000011));
#412=CARTESIAN_POINT('Ctrl Pts',(6.44207989615113,-3.12641295612514,7.1));
#413=CARTESIAN_POINT('Ctrl Pts',(6.44207989615113,-3.12641295612514,8.03552816224752));
#414=CARTESIAN_POINT('Ctrl Pts',(6.4420798961511,-2.2316952959998,9.89924843460671));
#415=CARTESIAN_POINT('Ctrl Pts',(6.44207989615111,0.795451732225902,10.586721669675));
#416=CARTESIAN_POINT('Ctrl Pts',(6.4420798961511,3.22829434311409,8.65373679719952));
#417=CARTESIAN_POINT('Ctrl Pts',(6.44207989615113,3.22144823613515,5.5492833935319));
#418=CARTESIAN_POINT('Ctrl Pts',(6.44207989615108,0.797184358028767,3.60490248823038));
#419=CARTESIAN_POINT('Ctrl Pts',(6.44207989615112,-2.23074477320101,4.30619218388094));
#420=CARTESIAN_POINT('Ctrl Pts',(6.44207989615105,-3.1264129561253,6.1644718377524));
#421=CARTESIAN_POINT('Ctrl Pts',(6.44207989615105,-3.12641295612531,7.10000000000011));
#422=CARTESIAN_POINT('Ctrl Pts',(6.62698201180753,-3.01520191992085,7.1));
#423=CARTESIAN_POINT('Ctrl Pts',(6.62698201180753,-3.01520191992085,8.00208897189643));
#424=CARTESIAN_POINT('Ctrl Pts',(6.62698201180752,-2.15210365342238,9.79954897373974));
#425=CARTESIAN_POINT('Ctrl Pts',(6.62698201180753,0.767144705960535,10.4625342021387));
#426=CARTESIAN_POINT('Ctrl Pts',(6.62698201180752,3.11322099367749,8.59837600988487));
#427=CARTESIAN_POINT('Ctrl Pts',(6.62698201180753,3.10676764421887,5.60451611172217));
#428=CARTESIAN_POINT('Ctrl Pts',(6.62698201180751,0.768730941098053,3.72952927590947));
#429=CARTESIAN_POINT('Ctrl Pts',(6.62698201180753,-2.15124368589557,4.40560486224381));
#430=CARTESIAN_POINT('Ctrl Pts',(6.6269820118075,-3.01520191992087,6.19791102810351));
#431=CARTESIAN_POINT('Ctrl Pts',(6.6269820118075,-3.01520191992088,7.10000000000012));
#432=CARTESIAN_POINT('Ctrl Pts',(6.70810788581149,-3.,7.1));
#433=CARTESIAN_POINT('Ctrl Pts',(6.70810788581149,-3.,7.99767928618368));
#434=CARTESIAN_POINT('Ctrl Pts',(6.70810788581149,-2.14143114535776,9.78604688970674));
#435=CARTESIAN_POINT('Ctrl Pts',(6.70810788581149,0.763286963603226,10.4457183683309));
#436=CARTESIAN_POINT('Ctrl Pts',(6.70810788581149,3.09772960419508,8.59090071630764));
#437=CARTESIAN_POINT('Ctrl Pts',(6.70810788581149,3.09118055926705,5.61199455650761));
#438=CARTESIAN_POINT('Ctrl Pts',(6.70810788581148,0.764938032736596,3.74626363934391));
#439=CARTESIAN_POINT('Ctrl Pts',(6.70810788581149,-2.14052675477287,4.41916109130054));
#440=CARTESIAN_POINT('Ctrl Pts',(6.70810788581148,-3.,6.20232071381625));
#441=CARTESIAN_POINT('Ctrl Pts',(6.70810788581148,-3.00000000000001,7.10000000000012));
#442=CARTESIAN_POINT('Ctrl Pts',(6.73999198717435,-3.,7.1));
#443=CARTESIAN_POINT('Ctrl Pts',(6.73999198717435,-3.,7.99759380911155));
#444=CARTESIAN_POINT('Ctrl Pts',(6.73999198717435,-2.14132130884868,9.785979961141));
#445=CARTESIAN_POINT('Ctrl Pts',(6.73999198717434,0.763280778937421,10.4456336182988));
#446=CARTESIAN_POINT('Ctrl Pts',(6.73999198717435,3.09760319447438,8.59085183885564));
#447=CARTESIAN_POINT('Ctrl Pts',(6.73999198717434,3.09113332997526,5.61203248445298));
#448=CARTESIAN_POINT('Ctrl Pts',(6.73999198717434,0.764886876177278,3.74642340348732));
#449=CARTESIAN_POINT('Ctrl Pts',(6.73999198717435,-2.14044702582111,4.41917854160228));
#450=CARTESIAN_POINT('Ctrl Pts',(6.73999198717435,-3.,6.20240619088836));
#451=CARTESIAN_POINT('Ctrl Pts',(6.73999198717435,-3.00000000000001,7.10000000000012));
#452=CARTESIAN_POINT('',(6.23999198717434,-3.50000000000061,7.10000000000011));
#453=CARTESIAN_POINT('',(6.73999198717435,-3.,7.1));
#454=CARTESIAN_POINT('Ctrl Pts',(6.23999198717434,-3.5,7.1));
#455=CARTESIAN_POINT('Ctrl Pts',(6.23999198717434,-3.45748786484953,7.1));
#456=CARTESIAN_POINT('Ctrl Pts',(6.2675628599593,-3.33800066406154,7.1));
#457=CARTESIAN_POINT('Ctrl Pts',(6.44207989615113,-3.12641295612514,7.1));
#458=CARTESIAN_POINT('Ctrl Pts',(6.62698201180753,-3.01520191992085,7.1));
#459=CARTESIAN_POINT('Ctrl Pts',(6.70810788581149,-3.,7.1));
#460=CARTESIAN_POINT('Ctrl Pts',(6.73999198717435,-3.,7.1));
#461=CARTESIAN_POINT('Ctrl Pts',(6.73999198717435,-3.,7.1));
#462=CARTESIAN_POINT('Ctrl Pts',(6.73999198717435,-3.,7.99759380911155));
#463=CARTESIAN_POINT('Ctrl Pts',(6.73999198717435,-2.14132130884868,9.785979961141));
#464=CARTESIAN_POINT('Ctrl Pts',(6.73999198717434,0.763280778937421,10.4456336182988));
#465=CARTESIAN_POINT('Ctrl Pts',(6.73999198717435,3.09760319447438,8.59085183885564));
#466=CARTESIAN_POINT('Ctrl Pts',(6.73999198717434,3.09113332997526,5.61203248445298));
#467=CARTESIAN_POINT('Ctrl Pts',(6.73999198717434,0.764886876177278,3.74642340348732));
#468=CARTESIAN_POINT('Ctrl Pts',(6.73999198717435,-2.14044702582111,4.41917854160228));
#469=CARTESIAN_POINT('Ctrl Pts',(6.73999198717435,-3.,6.20240619088836));
#470=CARTESIAN_POINT('Ctrl Pts',(6.73999198717435,-3.00000000000001,7.10000000000012));
#471=CARTESIAN_POINT('',(6.23999198717434,-1.43780585007414E-8,3.59999999999993));
#472=CARTESIAN_POINT('Ctrl Pts',(6.23999198717434,-3.50000000000061,7.10000000000011));
#473=CARTESIAN_POINT('Ctrl Pts',(6.23999198717434,-3.5000000000006,6.05280722270305));
#474=CARTESIAN_POINT('Ctrl Pts',(6.23999198717435,-2.62253966474,4.23242898192922));
#475=CARTESIAN_POINT('Ctrl Pts',(6.23999198717434,-0.782771113185013,3.60426536762958));
#476=CARTESIAN_POINT('Ctrl Pts',(6.23999198717434,0.00238548261573213,3.59802213640997));
#477=CARTESIAN_POINT('',(6.23999198717434,-4.3820568701447E-9,10.6000000000001));
#478=CARTESIAN_POINT('Ctrl Pts',(6.23999198717434,0.00238548261573213,3.59802213640997));
#479=CARTESIAN_POINT('Ctrl Pts',(6.23999198717434,0.264104327136135,3.59594105950174));
#480=CARTESIAN_POINT('Ctrl Pts',(6.23999198717434,1.57085658467718,3.73162996346682));
#481=CARTESIAN_POINT('Ctrl Pts',(6.23999198717435,3.60632221830452,5.36403789852847));
#482=CARTESIAN_POINT('Ctrl Pts',(6.23999198717435,3.61387039355354,8.83932714533164));
#483=CARTESIAN_POINT('Ctrl Pts',(6.23999198717435,1.57133829633975,10.4622611893286));
#484=CARTESIAN_POINT('Ctrl Pts',(6.23999198717435,0.263336201414261,10.5999568526032));
#485=CARTESIAN_POINT('Ctrl Pts',(6.23999198717435,0.00144943218364679,10.5984319152016));
#486=CARTESIAN_POINT('Ctrl Pts',(6.23999198717435,0.00144943218364679,10.5984319152016));
#487=CARTESIAN_POINT('Ctrl Pts',(6.23999198717435,-0.78421095112003,10.5938571025566));
#488=CARTESIAN_POINT('Ctrl Pts',(6.23999198717435,-2.62343216041113,9.97283699298529));
#489=CARTESIAN_POINT('Ctrl Pts',(6.23999198717434,-3.5,8.14719277729682));
#490=CARTESIAN_POINT('Ctrl Pts',(6.23999198717434,-3.5,7.1));
#491=CARTESIAN_POINT('Origin',(6.23999198717434,-10.25,3.6));
#492=CARTESIAN_POINT('',(6.23999198717252,12.5324578594998,3.6));
#493=CARTESIAN_POINT('',(6.23999198717434,-10.25,3.6));
#494=CARTESIAN_POINT('',(6.23999198717252,12.5324578594998,10.6));
#495=CARTESIAN_POINT('',(6.23999198717435,12.5324578594943,3.6));
#496=CARTESIAN_POINT('',(6.23999198717434,-10.25,10.6));
#497=CARTESIAN_POINT('Origin',(6.23999198717434,-10.25,3.6));
#498=CARTESIAN_POINT('',(6.23999198717252,-12.5324578594998,10.6));
#499=CARTESIAN_POINT('',(6.23999198717434,-10.25,10.6));
#500=CARTESIAN_POINT('',(6.23999198717252,-12.5324578594998,3.6));
#501=CARTESIAN_POINT('',(6.23999198717434,-12.5324578594943,3.6));
#502=CARTESIAN_POINT('',(6.23999198717434,-10.25,3.6));
#503=CARTESIAN_POINT('Origin',(6.23999198717434,-2.22044604925031E-15,7.1));
#504=CARTESIAN_POINT('',(41.2399919871743,-3.,7.1));
#505=CARTESIAN_POINT('Origin',(41.2399919871743,-2.22044604925031E-15,7.1));
#506=CARTESIAN_POINT('',(6.23999198717434,-3.,7.1));
#507=CARTESIAN_POINT('Origin',(6.23999198717434,-2.22044604925031E-15,7.1));
#508=CARTESIAN_POINT('',(41.2399919871743,-1.355,7.1));
#509=CARTESIAN_POINT('Origin',(41.2399919871743,-2.22044604925031E-15,7.1));
#510=CARTESIAN_POINT('',(6.23999198717434,-1.355,7.1));
#511=CARTESIAN_POINT('',(6.23999198717434,-1.355,7.1));
#512=CARTESIAN_POINT('Origin',(6.23999198717434,-2.22044604925031E-15,7.1));
#513=CARTESIAN_POINT('Origin',(41.2399919871743,-2.22044604925031E-15,7.1));
#514=CARTESIAN_POINT('Origin',(0.,0.,3.6));
#515=CARTESIAN_POINT('',(5.50000007450581,6.73555748655374E-16,10.6));
#516=CARTESIAN_POINT('Origin',(0.,0.,10.6));
#517=CARTESIAN_POINT('',(5.50000007450581,6.73555748655374E-16,3.6));
#518=CARTESIAN_POINT('',(5.50000007450581,6.73555748655374E-16,3.6));
#519=CARTESIAN_POINT('Origin',(0.,0.,3.6));
#520=CARTESIAN_POINT('Origin',(0.,0.,3.6));
#521=CARTESIAN_POINT('',(-6.23999198717251,12.5324578594998,3.6));
#522=CARTESIAN_POINT('Origin',(0.,0.,3.6));
#523=CARTESIAN_POINT('',(-6.23999198717251,12.5324578594998,10.6));
#524=CARTESIAN_POINT('',(-6.23999198717434,12.5324578594943,3.6));
#525=CARTESIAN_POINT('Origin',(0.,0.,10.6));
#526=CARTESIAN_POINT('Origin',(6.23999198717434,-10.25,3.6));
#527=CARTESIAN_POINT('Origin',(0.,0.,3.6));
#528=CARTESIAN_POINT('',(-6.23999198717252,-12.5324578594998,3.6));
#529=CARTESIAN_POINT('Origin',(0.,0.,3.6));
#530=CARTESIAN_POINT('',(-6.23999198717252,-12.5324578594998,10.6));
#531=CARTESIAN_POINT('Origin',(0.,0.,10.6));
#532=CARTESIAN_POINT('',(-6.23999198717435,-12.5324578594943,3.6));
#533=CARTESIAN_POINT('Origin',(-6.23999198717434,10.25,3.6));
#534=CARTESIAN_POINT('',(-6.23999198717434,10.25,3.6));
#535=CARTESIAN_POINT('',(-6.23999198717434,10.25,10.6));
#536=CARTESIAN_POINT('Origin',(0.,0.,10.6));
#537=CARTESIAN_POINT('Origin',(0.,0.,3.6));
#538=UNCERTAINTY_MEASURE_WITH_UNIT(LENGTH_MEASURE(0.01),#542,
'DISTANCE_ACCURACY_VALUE',
'Maximum model space distance between geometric entities at asserted c
onnectivities');
#539=UNCERTAINTY_MEASURE_WITH_UNIT(LENGTH_MEASURE(0.01),#542,
'DISTANCE_ACCURACY_VALUE',
'Maximum model space distance between geometric entities at asserted c
onnectivities');
#540=(
GEOMETRIC_REPRESENTATION_CONTEXT(3)
GLOBAL_UNCERTAINTY_ASSIGNED_CONTEXT((#538))
GLOBAL_UNIT_ASSIGNED_CONTEXT((#542,#544,#545))
REPRESENTATION_CONTEXT('','3D')
);
#541=(
GEOMETRIC_REPRESENTATION_CONTEXT(3)
GLOBAL_UNCERTAINTY_ASSIGNED_CONTEXT((#539))
GLOBAL_UNIT_ASSIGNED_CONTEXT((#542,#544,#545))
REPRESENTATION_CONTEXT('','3D')
);
#542=(
LENGTH_UNIT()
NAMED_UNIT(*)
SI_UNIT(.MILLI.,.METRE.)
);
#543=(
LENGTH_UNIT()
NAMED_UNIT(*)
SI_UNIT($,.METRE.)
);
#544=(
NAMED_UNIT(*)
PLANE_ANGLE_UNIT()
SI_UNIT($,.RADIAN.)
);
#545=(
NAMED_UNIT(*)
SI_UNIT($,.STERADIAN.)
SOLID_ANGLE_UNIT()
);
#546=SHAPE_DEFINITION_REPRESENTATION(#547,#548);
#547=PRODUCT_DEFINITION_SHAPE('',$,#550);
#548=SHAPE_REPRESENTATION('',(#270),#540);
#549=PRODUCT_DEFINITION_CONTEXT('part definition',#554,'design');
#550=PRODUCT_DEFINITION('Holder','Holder',#551,#549);
#551=PRODUCT_DEFINITION_FORMATION('',$,#556);
#552=PRODUCT_RELATED_PRODUCT_CATEGORY('Holder','Holder',(#556));
#553=APPLICATION_PROTOCOL_DEFINITION('international standard',
'automotive_design',2009,#554);
#554=APPLICATION_CONTEXT(
'Core Data for Automotive Mechanical Design Process');
#555=PRODUCT_CONTEXT('part definition',#554,'mechanical');
#556=PRODUCT('Holder','Holder',$,(#555));
#557=PRESENTATION_STYLE_ASSIGNMENT((#558));
#558=SURFACE_STYLE_USAGE(.BOTH.,#559);
#559=SURFACE_SIDE_STYLE('',(#560));
#560=SURFACE_STYLE_FILL_AREA(#561);
#561=FILL_AREA_STYLE('Plastic - Glossy (Grey)',(#562));
#562=FILL_AREA_STYLE_COLOUR('Plastic - Glossy (Grey)',#563);
#563=COLOUR_RGB('Plastic - Glossy (Grey)',0.701960784313725,0.701960784313725,
0.701960784313725);
ENDSEC;
END-ISO-10303-21;
