ISO-10303-21;
HEADER;
/* Generated by software containing ST-Developer
 * from STEP Tools, Inc. (www.steptools.com) 
 */

FILE_DESCRIPTION(
/* description */ (''),
/* implementation_level */ '2;1');

FILE_NAME(
/* name */ 'HolderV3.step',
/* time_stamp */ '2026-03-13T17:34:15+01:00',
/* author */ (''),
/* organization */ (''),
/* preprocessor_version */ 'ST-DEVELOPER v20.1',
/* originating_system */ 'Autodesk Translation Framework v14.24.0.0',
/* authorisation */ '');

FILE_SCHEMA (('AUTOMOTIVE_DESIGN { 1 0 10303 214 3 1 1 }'));
ENDSEC;

DATA;
#10=MECHANICAL_DESIGN_GEOMETRIC_PRESENTATION_REPRESENTATION('',(#13),#430);
#11=SHAPE_REPRESENTATION_RELATIONSHIP('SRR','None',#437,#12);
#12=ADVANCED_BREP_SHAPE_REPRESENTATION('',(#14),#429);
#13=STYLED_ITEM('',(#446),#14);
#14=MANIFOLD_SOLID_BREP('Body1',#240);
#15=FACE_BOUND('',#79,.T.);
#16=FACE_BOUND('',#82,.T.);
#17=FACE_BOUND('',#91,.T.);
#18=FACE_BOUND('',#92,.T.);
#19=FACE_BOUND('',#93,.T.);
#20=FACE_BOUND('',#95,.T.);
#21=FACE_BOUND('',#96,.T.);
#22=FACE_BOUND('',#97,.T.);
#23=PLANE('',#261);
#24=PLANE('',#265);
#25=PLANE('',#278);
#26=PLANE('',#282);
#27=PLANE('',#283);
#28=PLANE('',#284);
#29=LINE('',#374,#42);
#30=LINE('',#378,#43);
#31=LINE('',#380,#44);
#32=LINE('',#382,#45);
#33=LINE('',#383,#46);
#34=LINE('',#388,#47);
#35=LINE('',#395,#48);
#36=LINE('',#401,#49);
#37=LINE('',#407,#50);
#38=LINE('',#413,#51);
#39=LINE('',#421,#52);
#40=LINE('',#423,#53);
#41=LINE('',#424,#54);
#42=VECTOR('',#301,3.);
#43=VECTOR('',#304,10.);
#44=VECTOR('',#305,10.);
#45=VECTOR('',#306,10.);
#46=VECTOR('',#307,10.);
#47=VECTOR('',#312,1.355);
#48=VECTOR('',#321,2.2);
#49=VECTOR('',#328,2.2);
#50=VECTOR('',#335,5.50000007450581);
#51=VECTOR('',#342,10.);
#52=VECTOR('',#353,10.);
#53=VECTOR('',#356,10.);
#54=VECTOR('',#357,10.);
#55=CYLINDRICAL_SURFACE('',#259,3.);
#56=CYLINDRICAL_SURFACE('',#262,1.355);
#57=CYLINDRICAL_SURFACE('',#266,2.2);
#58=CYLINDRICAL_SURFACE('',#269,2.2);
#59=CYLINDRICAL_SURFACE('',#272,5.50000007450581);
#60=CYLINDRICAL_SURFACE('',#275,16.);
#61=CYLINDRICAL_SURFACE('',#279,16.);
#62=FACE_OUTER_BOUND('',#76,.T.);
#63=FACE_OUTER_BOUND('',#77,.T.);
#64=FACE_OUTER_BOUND('',#78,.T.);
#65=FACE_OUTER_BOUND('',#80,.T.);
#66=FACE_OUTER_BOUND('',#81,.T.);
#67=FACE_OUTER_BOUND('',#83,.T.);
#68=FACE_OUTER_BOUND('',#84,.T.);
#69=FACE_OUTER_BOUND('',#85,.T.);
#70=FACE_OUTER_BOUND('',#86,.T.);
#71=FACE_OUTER_BOUND('',#87,.T.);
#72=FACE_OUTER_BOUND('',#88,.T.);
#73=FACE_OUTER_BOUND('',#89,.T.);
#74=FACE_OUTER_BOUND('',#90,.T.);
#75=FACE_OUTER_BOUND('',#94,.T.);
#76=EDGE_LOOP('',(#165,#166,#167,#168,#169));
#77=EDGE_LOOP('',(#170,#171,#172,#173,#174));
#78=EDGE_LOOP('',(#175,#176,#177,#178));
#79=EDGE_LOOP('',(#179));
#80=EDGE_LOOP('',(#180,#181,#182,#183));
#81=EDGE_LOOP('',(#184));
#82=EDGE_LOOP('',(#185));
#83=EDGE_LOOP('',(#186,#187,#188,#189));
#84=EDGE_LOOP('',(#190,#191,#192,#193));
#85=EDGE_LOOP('',(#194,#195,#196,#197));
#86=EDGE_LOOP('',(#198,#199,#200,#201));
#87=EDGE_LOOP('',(#202));
#88=EDGE_LOOP('',(#203,#204,#205,#206));
#89=EDGE_LOOP('',(#207,#208,#209,#210));
#90=EDGE_LOOP('',(#211,#212,#213,#214));
#91=EDGE_LOOP('',(#215));
#92=EDGE_LOOP('',(#216));
#93=EDGE_LOOP('',(#217));
#94=EDGE_LOOP('',(#218,#219,#220,#221));
#95=EDGE_LOOP('',(#222));
#96=EDGE_LOOP('',(#223));
#97=EDGE_LOOP('',(#224));
#98=CIRCLE('',#255,3.);
#99=CIRCLE('',#256,0.3);
#100=CIRCLE('',#257,3.3);
#101=CIRCLE('',#258,3.);
#102=CIRCLE('',#260,3.);
#103=CIRCLE('',#263,1.355);
#104=CIRCLE('',#264,1.355);
#105=CIRCLE('',#267,2.2);
#106=CIRCLE('',#268,2.2);
#107=CIRCLE('',#270,2.2);
#108=CIRCLE('',#271,2.2);
#109=CIRCLE('',#273,5.50000007450581);
#110=CIRCLE('',#274,5.50000007450581);
#111=CIRCLE('',#276,16.);
#112=CIRCLE('',#277,16.);
#113=CIRCLE('',#280,16.);
#114=CIRCLE('',#281,16.);
#115=VERTEX_POINT('',#364);
#116=VERTEX_POINT('',#365);
#117=VERTEX_POINT('',#367);
#118=VERTEX_POINT('',#372);
#119=VERTEX_POINT('',#376);
#120=VERTEX_POINT('',#377);
#121=VERTEX_POINT('',#379);
#122=VERTEX_POINT('',#381);
#123=VERTEX_POINT('',#385);
#124=VERTEX_POINT('',#387);
#125=VERTEX_POINT('',#392);
#126=VERTEX_POINT('',#394);
#127=VERTEX_POINT('',#398);
#128=VERTEX_POINT('',#400);
#129=VERTEX_POINT('',#404);
#130=VERTEX_POINT('',#406);
#131=VERTEX_POINT('',#410);
#132=VERTEX_POINT('',#412);
#133=VERTEX_POINT('',#417);
#134=VERTEX_POINT('',#419);
#135=EDGE_CURVE('',#115,#116,#98,.T.);
#136=EDGE_CURVE('',#116,#117,#99,.T.);
#137=EDGE_CURVE('',#117,#117,#100,.T.);
#138=EDGE_CURVE('',#116,#115,#101,.T.);
#139=EDGE_CURVE('',#118,#118,#102,.T.);
#140=EDGE_CURVE('',#118,#115,#29,.T.);
#141=EDGE_CURVE('',#119,#120,#30,.T.);
#142=EDGE_CURVE('',#120,#121,#31,.F.);
#143=EDGE_CURVE('',#122,#121,#32,.T.);
#144=EDGE_CURVE('',#119,#122,#33,.T.);
#145=EDGE_CURVE('',#123,#123,#103,.T.);
#146=EDGE_CURVE('',#123,#124,#34,.T.);
#147=EDGE_CURVE('',#124,#124,#104,.T.);
#148=EDGE_CURVE('',#125,#125,#105,.T.);
#149=EDGE_CURVE('',#125,#126,#35,.T.);
#150=EDGE_CURVE('',#126,#126,#106,.T.);
#151=EDGE_CURVE('',#127,#127,#107,.T.);
#152=EDGE_CURVE('',#127,#128,#36,.T.);
#153=EDGE_CURVE('',#128,#128,#108,.T.);
#154=EDGE_CURVE('',#129,#129,#109,.T.);
#155=EDGE_CURVE('',#129,#130,#37,.T.);
#156=EDGE_CURVE('',#130,#130,#110,.T.);
#157=EDGE_CURVE('',#120,#131,#111,.F.);
#158=EDGE_CURVE('',#131,#132,#38,.T.);
#159=EDGE_CURVE('',#121,#132,#112,.F.);
#160=EDGE_CURVE('',#133,#119,#113,.F.);
#161=EDGE_CURVE('',#134,#122,#114,.F.);
#162=EDGE_CURVE('',#133,#134,#39,.F.);
#163=EDGE_CURVE('',#131,#133,#40,.T.);
#164=EDGE_CURVE('',#132,#134,#41,.T.);
#165=ORIENTED_EDGE('',*,*,#135,.T.);
#166=ORIENTED_EDGE('',*,*,#136,.T.);
#167=ORIENTED_EDGE('',*,*,#137,.T.);
#168=ORIENTED_EDGE('',*,*,#136,.F.);
#169=ORIENTED_EDGE('',*,*,#138,.T.);
#170=ORIENTED_EDGE('',*,*,#139,.F.);
#171=ORIENTED_EDGE('',*,*,#140,.T.);
#172=ORIENTED_EDGE('',*,*,#138,.F.);
#173=ORIENTED_EDGE('',*,*,#135,.F.);
#174=ORIENTED_EDGE('',*,*,#140,.F.);
#175=ORIENTED_EDGE('',*,*,#141,.T.);
#176=ORIENTED_EDGE('',*,*,#142,.T.);
#177=ORIENTED_EDGE('',*,*,#143,.F.);
#178=ORIENTED_EDGE('',*,*,#144,.F.);
#179=ORIENTED_EDGE('',*,*,#137,.F.);
#180=ORIENTED_EDGE('',*,*,#145,.F.);
#181=ORIENTED_EDGE('',*,*,#146,.T.);
#182=ORIENTED_EDGE('',*,*,#147,.F.);
#183=ORIENTED_EDGE('',*,*,#146,.F.);
#184=ORIENTED_EDGE('',*,*,#139,.T.);
#185=ORIENTED_EDGE('',*,*,#145,.T.);
#186=ORIENTED_EDGE('',*,*,#148,.F.);
#187=ORIENTED_EDGE('',*,*,#149,.T.);
#188=ORIENTED_EDGE('',*,*,#150,.F.);
#189=ORIENTED_EDGE('',*,*,#149,.F.);
#190=ORIENTED_EDGE('',*,*,#151,.F.);
#191=ORIENTED_EDGE('',*,*,#152,.T.);
#192=ORIENTED_EDGE('',*,*,#153,.F.);
#193=ORIENTED_EDGE('',*,*,#152,.F.);
#194=ORIENTED_EDGE('',*,*,#154,.F.);
#195=ORIENTED_EDGE('',*,*,#155,.T.);
#196=ORIENTED_EDGE('',*,*,#156,.T.);
#197=ORIENTED_EDGE('',*,*,#155,.F.);
#198=ORIENTED_EDGE('',*,*,#157,.T.);
#199=ORIENTED_EDGE('',*,*,#158,.T.);
#200=ORIENTED_EDGE('',*,*,#159,.F.);
#201=ORIENTED_EDGE('',*,*,#142,.F.);
#202=ORIENTED_EDGE('',*,*,#147,.T.);
#203=ORIENTED_EDGE('',*,*,#160,.T.);
#204=ORIENTED_EDGE('',*,*,#144,.T.);
#205=ORIENTED_EDGE('',*,*,#161,.F.);
#206=ORIENTED_EDGE('',*,*,#162,.F.);
#207=ORIENTED_EDGE('',*,*,#163,.T.);
#208=ORIENTED_EDGE('',*,*,#162,.T.);
#209=ORIENTED_EDGE('',*,*,#164,.F.);
#210=ORIENTED_EDGE('',*,*,#158,.F.);
#211=ORIENTED_EDGE('',*,*,#164,.T.);
#212=ORIENTED_EDGE('',*,*,#161,.T.);
#213=ORIENTED_EDGE('',*,*,#143,.T.);
#214=ORIENTED_EDGE('',*,*,#159,.T.);
#215=ORIENTED_EDGE('',*,*,#148,.T.);
#216=ORIENTED_EDGE('',*,*,#151,.T.);
#217=ORIENTED_EDGE('',*,*,#154,.T.);
#218=ORIENTED_EDGE('',*,*,#163,.F.);
#219=ORIENTED_EDGE('',*,*,#157,.F.);
#220=ORIENTED_EDGE('',*,*,#141,.F.);
#221=ORIENTED_EDGE('',*,*,#160,.F.);
#222=ORIENTED_EDGE('',*,*,#150,.T.);
#223=ORIENTED_EDGE('',*,*,#153,.T.);
#224=ORIENTED_EDGE('',*,*,#156,.F.);
#225=TOROIDAL_SURFACE('',#254,3.3,0.3);
#226=ADVANCED_FACE('',(#62),#225,.F.);
#227=ADVANCED_FACE('',(#63),#55,.T.);
#228=ADVANCED_FACE('',(#64,#15),#23,.T.);
#229=ADVANCED_FACE('',(#65),#56,.F.);
#230=ADVANCED_FACE('',(#66,#16),#24,.T.);
#231=ADVANCED_FACE('',(#67),#57,.F.);
#232=ADVANCED_FACE('',(#68),#58,.F.);
#233=ADVANCED_FACE('',(#69),#59,.F.);
#234=ADVANCED_FACE('',(#70),#60,.T.);
#235=ADVANCED_FACE('',(#71),#25,.T.);
#236=ADVANCED_FACE('',(#72),#61,.T.);
#237=ADVANCED_FACE('',(#73),#26,.T.);
#238=ADVANCED_FACE('',(#74,#17,#18,#19),#27,.T.);
#239=ADVANCED_FACE('',(#75,#20,#21,#22),#28,.F.);
#240=CLOSED_SHELL('',(#226,#227,#228,#229,#230,#231,#232,#233,#234,#235,
#236,#237,#238,#239));
#241=DERIVED_UNIT_ELEMENT(#243,1.);
#242=DERIVED_UNIT_ELEMENT(#432,-3.);
#243=(
MASS_UNIT()
NAMED_UNIT(*)
SI_UNIT(.KILO.,.GRAM.)
);
#244=DERIVED_UNIT((#241,#242));
#245=MEASURE_REPRESENTATION_ITEM('density measure',
POSITIVE_RATIO_MEASURE(1290.),#244);
#246=PROPERTY_DEFINITION_REPRESENTATION(#251,#248);
#247=PROPERTY_DEFINITION_REPRESENTATION(#252,#249);
#248=REPRESENTATION('material name',(#250),#429);
#249=REPRESENTATION('density',(#245),#429);
#250=DESCRIPTIVE_REPRESENTATION_ITEM('Plastic','Plastic');
#251=PROPERTY_DEFINITION('material property','material name',#439);
#252=PROPERTY_DEFINITION('material property','density of part',#439);
#253=AXIS2_PLACEMENT_3D('',#362,#285,#286);
#254=AXIS2_PLACEMENT_3D('',#363,#287,#288);
#255=AXIS2_PLACEMENT_3D('',#366,#289,#290);
#256=AXIS2_PLACEMENT_3D('',#368,#291,#292);
#257=AXIS2_PLACEMENT_3D('',#369,#293,#294);
#258=AXIS2_PLACEMENT_3D('',#370,#295,#296);
#259=AXIS2_PLACEMENT_3D('',#371,#297,#298);
#260=AXIS2_PLACEMENT_3D('',#373,#299,#300);
#261=AXIS2_PLACEMENT_3D('',#375,#302,#303);
#262=AXIS2_PLACEMENT_3D('',#384,#308,#309);
#263=AXIS2_PLACEMENT_3D('',#386,#310,#311);
#264=AXIS2_PLACEMENT_3D('',#389,#313,#314);
#265=AXIS2_PLACEMENT_3D('',#390,#315,#316);
#266=AXIS2_PLACEMENT_3D('',#391,#317,#318);
#267=AXIS2_PLACEMENT_3D('',#393,#319,#320);
#268=AXIS2_PLACEMENT_3D('',#396,#322,#323);
#269=AXIS2_PLACEMENT_3D('',#397,#324,#325);
#270=AXIS2_PLACEMENT_3D('',#399,#326,#327);
#271=AXIS2_PLACEMENT_3D('',#402,#329,#330);
#272=AXIS2_PLACEMENT_3D('',#403,#331,#332);
#273=AXIS2_PLACEMENT_3D('',#405,#333,#334);
#274=AXIS2_PLACEMENT_3D('',#408,#336,#337);
#275=AXIS2_PLACEMENT_3D('',#409,#338,#339);
#276=AXIS2_PLACEMENT_3D('',#411,#340,#341);
#277=AXIS2_PLACEMENT_3D('',#414,#343,#344);
#278=AXIS2_PLACEMENT_3D('',#415,#345,#346);
#279=AXIS2_PLACEMENT_3D('',#416,#347,#348);
#280=AXIS2_PLACEMENT_3D('',#418,#349,#350);
#281=AXIS2_PLACEMENT_3D('',#420,#351,#352);
#282=AXIS2_PLACEMENT_3D('',#422,#354,#355);
#283=AXIS2_PLACEMENT_3D('',#425,#358,#359);
#284=AXIS2_PLACEMENT_3D('',#426,#360,#361);
#285=DIRECTION('axis',(0.,0.,1.));
#286=DIRECTION('refdir',(1.,0.,0.));
#287=DIRECTION('center_axis',(-1.,5.41572207134223E-17,0.));
#288=DIRECTION('ref_axis',(0.,0.,1.));
#289=DIRECTION('center_axis',(-1.,5.41572207134223E-17,0.));
#290=DIRECTION('ref_axis',(5.78241158658936E-17,1.,0.));
#291=DIRECTION('center_axis',(-5.41572207134223E-17,-1.,0.));
#292=DIRECTION('ref_axis',(0.,0.,-1.));
#293=DIRECTION('center_axis',(1.,-5.41572207134223E-17,0.));
#294=DIRECTION('ref_axis',(5.41572207134223E-17,1.,0.));
#295=DIRECTION('center_axis',(-1.,5.41572207134223E-17,0.));
#296=DIRECTION('ref_axis',(5.78241158658936E-17,1.,0.));
#297=DIRECTION('center_axis',(1.,0.,0.));
#298=DIRECTION('ref_axis',(0.,1.,0.));
#299=DIRECTION('center_axis',(1.,0.,0.));
#300=DIRECTION('ref_axis',(0.,1.,0.));
#301=DIRECTION('',(-1.,0.,0.));
#302=DIRECTION('center_axis',(1.,-5.41572207134223E-17,0.));
#303=DIRECTION('ref_axis',(5.41572207134223E-17,1.,0.));
#304=DIRECTION('',(5.41572207134223E-17,1.,0.));
#305=DIRECTION('',(0.,0.,-1.));
#306=DIRECTION('',(5.41572207134223E-17,1.,0.));
#307=DIRECTION('',(0.,0.,1.));
#308=DIRECTION('center_axis',(1.,0.,0.));
#309=DIRECTION('ref_axis',(0.,1.,0.));
#310=DIRECTION('center_axis',(-1.,0.,0.));
#311=DIRECTION('ref_axis',(0.,1.,0.));
#312=DIRECTION('',(-1.,0.,0.));
#313=DIRECTION('center_axis',(1.,-5.41572207134223E-17,0.));
#314=DIRECTION('ref_axis',(0.,1.,0.));
#315=DIRECTION('center_axis',(1.,0.,0.));
#316=DIRECTION('ref_axis',(0.,1.,0.));
#317=DIRECTION('center_axis',(0.,0.,-1.));
#318=DIRECTION('ref_axis',(-1.,0.,0.));
#319=DIRECTION('center_axis',(0.,0.,-1.));
#320=DIRECTION('ref_axis',(-1.,0.,0.));
#321=DIRECTION('',(0.,0.,-1.));
#322=DIRECTION('center_axis',(0.,0.,1.));
#323=DIRECTION('ref_axis',(-1.,0.,0.));
#324=DIRECTION('center_axis',(0.,0.,-1.));
#325=DIRECTION('ref_axis',(1.,0.,0.));
#326=DIRECTION('center_axis',(0.,0.,-1.));
#327=DIRECTION('ref_axis',(1.,0.,0.));
#328=DIRECTION('',(0.,0.,-1.));
#329=DIRECTION('center_axis',(0.,0.,1.));
#330=DIRECTION('ref_axis',(1.,0.,0.));
#331=DIRECTION('center_axis',(0.,0.,1.));
#332=DIRECTION('ref_axis',(-1.,0.,0.));
#333=DIRECTION('center_axis',(0.,0.,-1.));
#334=DIRECTION('ref_axis',(-1.,0.,0.));
#335=DIRECTION('',(0.,0.,-1.));
#336=DIRECTION('center_axis',(0.,0.,-1.));
#337=DIRECTION('ref_axis',(-1.,0.,0.));
#338=DIRECTION('center_axis',(0.,0.,1.));
#339=DIRECTION('ref_axis',(0.519999332264529,0.854166666666667,0.));
#340=DIRECTION('center_axis',(0.,0.,-1.));
#341=DIRECTION('ref_axis',(0.519999332264529,0.854166666666667,0.));
#342=DIRECTION('',(0.,0.,1.));
#343=DIRECTION('center_axis',(0.,0.,-1.));
#344=DIRECTION('ref_axis',(0.519999332264529,0.854166666666667,0.));
#345=DIRECTION('center_axis',(1.,-5.41572207134223E-17,0.));
#346=DIRECTION('ref_axis',(5.41572207134223E-17,1.,0.));
#347=DIRECTION('center_axis',(0.,0.,1.));
#348=DIRECTION('ref_axis',(-0.519999332264529,-0.854166666666667,0.));
#349=DIRECTION('center_axis',(0.,0.,-1.));
#350=DIRECTION('ref_axis',(-0.519999332264529,-0.854166666666667,0.));
#351=DIRECTION('center_axis',(0.,0.,-1.));
#352=DIRECTION('ref_axis',(-0.519999332264529,-0.854166666666667,0.));
#353=DIRECTION('',(0.,0.,-1.));
#354=DIRECTION('center_axis',(-1.,1.62471662140267E-16,0.));
#355=DIRECTION('ref_axis',(-1.62471662140267E-16,-1.,0.));
#356=DIRECTION('',(-1.62471662140267E-16,-1.,0.));
#357=DIRECTION('',(-1.62471662140267E-16,-1.,0.));
#358=DIRECTION('center_axis',(0.,0.,1.));
#359=DIRECTION('ref_axis',(-1.,0.,0.));
#360=DIRECTION('center_axis',(0.,0.,1.));
#361=DIRECTION('ref_axis',(-1.,0.,0.));
#362=CARTESIAN_POINT('',(0.,0.,0.));
#363=CARTESIAN_POINT('Origin',(6.53999198717434,-10.0182697827923,7.1));
#364=CARTESIAN_POINT('',(6.53999198717434,-13.0182697827923,7.1));
#365=CARTESIAN_POINT('',(6.53999198717434,-10.0182697827923,4.1));
#366=CARTESIAN_POINT('Origin',(6.53999198717434,-10.0182697827923,7.1));
#367=CARTESIAN_POINT('',(6.23999198717434,-10.0182697827923,3.8));
#368=CARTESIAN_POINT('Origin',(6.53999198717434,-10.0182697827923,3.8));
#369=CARTESIAN_POINT('Origin',(6.23999198717434,-10.0182697827923,7.1));
#370=CARTESIAN_POINT('Origin',(6.53999198717434,-10.0182697827923,7.1));
#371=CARTESIAN_POINT('Origin',(6.23999198717434,-10.0182697827923,7.1));
#372=CARTESIAN_POINT('',(41.7399919871743,-13.0182697827923,7.1));
#373=CARTESIAN_POINT('Origin',(41.7399919871743,-10.0182697827923,7.1));
#374=CARTESIAN_POINT('',(6.23999198717434,-13.0182697827923,7.1));
#375=CARTESIAN_POINT('Origin',(6.23999198717434,-10.25,3.6));
#376=CARTESIAN_POINT('',(6.23999198717434,-14.7330410981576,3.6));
#377=CARTESIAN_POINT('',(6.23999198717434,14.7330410981576,3.6));
#378=CARTESIAN_POINT('',(6.23999198717434,-10.25,3.6));
#379=CARTESIAN_POINT('',(6.23999198717434,14.7330410981576,10.6));
#380=CARTESIAN_POINT('',(6.23999198717435,14.7330410981576,3.6));
#381=CARTESIAN_POINT('',(6.23999198717434,-14.7330410981576,10.6));
#382=CARTESIAN_POINT('',(6.23999198717434,-10.25,10.6));
#383=CARTESIAN_POINT('',(6.23999198717434,-14.7330410981576,3.6));
#384=CARTESIAN_POINT('Origin',(6.23999198717434,-10.0182697827923,7.1));
#385=CARTESIAN_POINT('',(41.7399919871743,-11.3732697827923,7.1));
#386=CARTESIAN_POINT('Origin',(41.7399919871743,-10.0182697827923,7.1));
#387=CARTESIAN_POINT('',(6.23999198717434,-11.3732697827923,7.1));
#388=CARTESIAN_POINT('',(6.23999198717434,-11.3732697827923,7.1));
#389=CARTESIAN_POINT('Origin',(6.23999198717434,-10.0182697827923,7.1));
#390=CARTESIAN_POINT('Origin',(41.7399919871743,-10.0182697827923,7.1));
#391=CARTESIAN_POINT('Origin',(3.98986399474665E-15,-8.99999986588951,10.6));
#392=CARTESIAN_POINT('',(2.2,-8.99999986588951,10.6));
#393=CARTESIAN_POINT('Origin',(3.98986399474665E-15,-8.99999986588951,10.6));
#394=CARTESIAN_POINT('',(2.2,-8.99999986588951,3.6));
#395=CARTESIAN_POINT('',(2.2,-8.99999986588951,10.6));
#396=CARTESIAN_POINT('Origin',(3.98986399474665E-15,-8.99999986588951,3.6));
#397=CARTESIAN_POINT('Origin',(4.30211422042248E-15,9.00000013411046,5.6));
#398=CARTESIAN_POINT('',(-2.2,9.00000013411046,10.6));
#399=CARTESIAN_POINT('Origin',(4.30211422042248E-15,9.00000013411046,10.6));
#400=CARTESIAN_POINT('',(-2.2,9.00000013411046,3.6));
#401=CARTESIAN_POINT('',(-2.2,9.00000013411046,5.6));
#402=CARTESIAN_POINT('Origin',(4.30211422042248E-15,9.00000013411046,3.6));
#403=CARTESIAN_POINT('Origin',(0.,0.,3.6));
#404=CARTESIAN_POINT('',(5.50000007450581,6.73555748655374E-16,10.6));
#405=CARTESIAN_POINT('Origin',(0.,0.,10.6));
#406=CARTESIAN_POINT('',(5.50000007450581,6.73555748655374E-16,3.6));
#407=CARTESIAN_POINT('',(5.50000007450581,6.73555748655374E-16,3.6));
#408=CARTESIAN_POINT('Origin',(0.,0.,3.6));
#409=CARTESIAN_POINT('Origin',(0.,0.,3.6));
#410=CARTESIAN_POINT('',(-6.23999198717434,14.7330410981576,3.6));
#411=CARTESIAN_POINT('Origin',(0.,0.,3.6));
#412=CARTESIAN_POINT('',(-6.23999198717434,14.7330410981576,10.6));
#413=CARTESIAN_POINT('',(-6.23999198717434,14.7330410981576,3.6));
#414=CARTESIAN_POINT('Origin',(0.,0.,10.6));
#415=CARTESIAN_POINT('Origin',(6.23999198717434,-10.25,3.6));
#416=CARTESIAN_POINT('Origin',(0.,0.,3.6));
#417=CARTESIAN_POINT('',(-6.23999198717435,-14.7330410981576,3.6));
#418=CARTESIAN_POINT('Origin',(0.,0.,3.6));
#419=CARTESIAN_POINT('',(-6.23999198717435,-14.7330410981576,10.6));
#420=CARTESIAN_POINT('Origin',(0.,0.,10.6));
#421=CARTESIAN_POINT('',(-6.23999198717435,-14.7330410981576,3.6));
#422=CARTESIAN_POINT('Origin',(-6.23999198717434,10.25,3.6));
#423=CARTESIAN_POINT('',(-6.23999198717434,10.25,3.6));
#424=CARTESIAN_POINT('',(-6.23999198717434,10.25,10.6));
#425=CARTESIAN_POINT('Origin',(0.,0.,10.6));
#426=CARTESIAN_POINT('Origin',(0.,0.,3.6));
#427=UNCERTAINTY_MEASURE_WITH_UNIT(LENGTH_MEASURE(0.01),#431,
'DISTANCE_ACCURACY_VALUE',
'Maximum model space distance between geometric entities at asserted c
onnectivities');
#428=UNCERTAINTY_MEASURE_WITH_UNIT(LENGTH_MEASURE(0.01),#431,
'DISTANCE_ACCURACY_VALUE',
'Maximum model space distance between geometric entities at asserted c
onnectivities');
#429=(
GEOMETRIC_REPRESENTATION_CONTEXT(3)
GLOBAL_UNCERTAINTY_ASSIGNED_CONTEXT((#427))
GLOBAL_UNIT_ASSIGNED_CONTEXT((#431,#433,#434))
REPRESENTATION_CONTEXT('','3D')
);
#430=(
GEOMETRIC_REPRESENTATION_CONTEXT(3)
GLOBAL_UNCERTAINTY_ASSIGNED_CONTEXT((#428))
GLOBAL_UNIT_ASSIGNED_CONTEXT((#431,#433,#434))
REPRESENTATION_CONTEXT('','3D')
);
#431=(
LENGTH_UNIT()
NAMED_UNIT(*)
SI_UNIT(.MILLI.,.METRE.)
);
#432=(
LENGTH_UNIT()
NAMED_UNIT(*)
SI_UNIT($,.METRE.)
);
#433=(
NAMED_UNIT(*)
PLANE_ANGLE_UNIT()
SI_UNIT($,.RADIAN.)
);
#434=(
NAMED_UNIT(*)
SI_UNIT($,.STERADIAN.)
SOLID_ANGLE_UNIT()
);
#435=SHAPE_DEFINITION_REPRESENTATION(#436,#437);
#436=PRODUCT_DEFINITION_SHAPE('',$,#439);
#437=SHAPE_REPRESENTATION('',(#253),#429);
#438=PRODUCT_DEFINITION_CONTEXT('part definition',#443,'design');
#439=PRODUCT_DEFINITION('Holder','Holder',#440,#438);
#440=PRODUCT_DEFINITION_FORMATION('',$,#445);
#441=PRODUCT_RELATED_PRODUCT_CATEGORY('Holder','Holder',(#445));
#442=APPLICATION_PROTOCOL_DEFINITION('international standard',
'automotive_design',2009,#443);
#443=APPLICATION_CONTEXT(
'Core Data for Automotive Mechanical Design Process');
#444=PRODUCT_CONTEXT('part definition',#443,'mechanical');
#445=PRODUCT('Holder','Holder',$,(#444));
#446=PRESENTATION_STYLE_ASSIGNMENT((#447));
#447=SURFACE_STYLE_USAGE(.BOTH.,#448);
#448=SURFACE_SIDE_STYLE('',(#449));
#449=SURFACE_STYLE_FILL_AREA(#450);
#450=FILL_AREA_STYLE('Plastic - Glossy (Grey)',(#451));
#451=FILL_AREA_STYLE_COLOUR('Plastic - Glossy (Grey)',#452);
#452=COLOUR_RGB('Plastic - Glossy (Grey)',0.701960784313725,0.701960784313725,
0.701960784313725);
ENDSEC;
END-ISO-10303-21;
