ISO-10303-21;
HEADER;
/* Generated by software containing ST-Developer
 * from STEP Tools, Inc. (www.steptools.com) 
 */

FILE_DESCRIPTION(
/* description */ (''),
/* implementation_level */ '2;1');

FILE_NAME(
/* name */ 'LockV2.step',
/* time_stamp */ '2026-03-13T15:52:40+01:00',
/* author */ (''),
/* organization */ (''),
/* preprocessor_version */ 'ST-DEVELOPER v20.1',
/* originating_system */ 'Autodesk Translation Framework v14.24.0.0',
/* authorisation */ '');

FILE_SCHEMA (('AUTOMOTIVE_DESIGN { 1 0 10303 214 3 1 1 }'));
ENDSEC;

DATA;
#10=MECHANICAL_DESIGN_GEOMETRIC_PRESENTATION_REPRESENTATION('',(#13),#977);
#11=SHAPE_REPRESENTATION_RELATIONSHIP('SRR','None',#984,#12);
#12=ADVANCED_BREP_SHAPE_REPRESENTATION('',(#14),#976);
#13=STYLED_ITEM('',(#993),#14);
#14=MANIFOLD_SOLID_BREP('Body1',#587);
#15=CYLINDRICAL_SURFACE('',#611,4.);
#16=CYLINDRICAL_SURFACE('',#626,2.5);
#17=CYLINDRICAL_SURFACE('',#629,2.5);
#18=CYLINDRICAL_SURFACE('',#632,2.5);
#19=CYLINDRICAL_SURFACE('',#635,2.5);
#20=CYLINDRICAL_SURFACE('',#641,3.1);
#21=FACE_BOUND('',#212,.T.);
#22=FACE_BOUND('',#240,.T.);
#23=LINE('',#819,#89);
#24=LINE('',#821,#90);
#25=LINE('',#823,#91);
#26=LINE('',#825,#92);
#27=LINE('',#829,#93);
#28=LINE('',#831,#94);
#29=LINE('',#833,#95);
#30=LINE('',#835,#96);
#31=LINE('',#837,#97);
#32=LINE('',#841,#98);
#33=LINE('',#843,#99);
#34=LINE('',#845,#100);
#35=LINE('',#847,#101);
#36=LINE('',#849,#102);
#37=LINE('',#853,#103);
#38=LINE('',#855,#104);
#39=LINE('',#857,#105);
#40=LINE('',#859,#106);
#41=LINE('',#861,#107);
#42=LINE('',#864,#108);
#43=LINE('',#868,#109);
#44=LINE('',#872,#110);
#45=LINE('',#873,#111);
#46=LINE('',#874,#112);
#47=LINE('',#877,#113);
#48=LINE('',#878,#114);
#49=LINE('',#881,#115);
#50=LINE('',#882,#116);
#51=LINE('',#885,#117);
#52=LINE('',#887,#118);
#53=LINE('',#888,#119);
#54=LINE('',#891,#120);
#55=LINE('',#892,#121);
#56=LINE('',#895,#122);
#57=LINE('',#896,#123);
#58=LINE('',#900,#124);
#59=LINE('',#901,#125);
#60=LINE('',#902,#126);
#61=LINE('',#905,#127);
#62=LINE('',#906,#128);
#63=LINE('',#909,#129);
#64=LINE('',#911,#130);
#65=LINE('',#912,#131);
#66=LINE('',#915,#132);
#67=LINE('',#916,#133);
#68=LINE('',#920,#134);
#69=LINE('',#921,#135);
#70=LINE('',#922,#136);
#71=LINE('',#924,#137);
#72=LINE('',#927,#138);
#73=LINE('',#928,#139);
#74=LINE('',#933,#140);
#75=LINE('',#934,#141);
#76=LINE('',#936,#142);
#77=LINE('',#939,#143);
#78=LINE('',#942,#144);
#79=LINE('',#947,#145);
#80=LINE('',#948,#146);
#81=LINE('',#950,#147);
#82=LINE('',#953,#148);
#83=LINE('',#956,#149);
#84=LINE('',#958,#150);
#85=LINE('',#960,#151);
#86=LINE('',#962,#152);
#87=LINE('',#964,#153);
#88=LINE('',#969,#154);
#89=VECTOR('',#661,10.);
#90=VECTOR('',#662,10.);
#91=VECTOR('',#663,10.);
#92=VECTOR('',#664,10.);
#93=VECTOR('',#667,10.);
#94=VECTOR('',#668,10.);
#95=VECTOR('',#669,10.);
#96=VECTOR('',#670,10.);
#97=VECTOR('',#671,10.);
#98=VECTOR('',#674,10.);
#99=VECTOR('',#675,10.);
#100=VECTOR('',#676,10.);
#101=VECTOR('',#677,10.);
#102=VECTOR('',#678,10.);
#103=VECTOR('',#681,10.);
#104=VECTOR('',#682,10.);
#105=VECTOR('',#683,10.);
#106=VECTOR('',#684,10.);
#107=VECTOR('',#685,10.);
#108=VECTOR('',#688,10.);
#109=VECTOR('',#693,4.);
#110=VECTOR('',#696,10.);
#111=VECTOR('',#697,10.);
#112=VECTOR('',#698,10.);
#113=VECTOR('',#701,10.);
#114=VECTOR('',#702,10.);
#115=VECTOR('',#705,10.);
#116=VECTOR('',#706,10.);
#117=VECTOR('',#709,10.);
#118=VECTOR('',#710,10.);
#119=VECTOR('',#711,10.);
#120=VECTOR('',#714,10.);
#121=VECTOR('',#715,10.);
#122=VECTOR('',#718,10.);
#123=VECTOR('',#719,10.);
#124=VECTOR('',#722,10.);
#125=VECTOR('',#723,10.);
#126=VECTOR('',#724,10.);
#127=VECTOR('',#727,10.);
#128=VECTOR('',#728,10.);
#129=VECTOR('',#731,10.);
#130=VECTOR('',#732,10.);
#131=VECTOR('',#733,10.);
#132=VECTOR('',#736,10.);
#133=VECTOR('',#737,10.);
#134=VECTOR('',#740,10.);
#135=VECTOR('',#741,10.);
#136=VECTOR('',#742,10.);
#137=VECTOR('',#745,10.);
#138=VECTOR('',#748,10.);
#139=VECTOR('',#749,10.);
#140=VECTOR('',#754,10.);
#141=VECTOR('',#755,10.);
#142=VECTOR('',#758,10.);
#143=VECTOR('',#761,10.);
#144=VECTOR('',#766,10.);
#145=VECTOR('',#771,10.);
#146=VECTOR('',#772,10.);
#147=VECTOR('',#775,10.);
#148=VECTOR('',#778,10.);
#149=VECTOR('',#781,10.);
#150=VECTOR('',#784,10.);
#151=VECTOR('',#787,10.);
#152=VECTOR('',#790,10.);
#153=VECTOR('',#793,10.);
#154=VECTOR('',#798,3.1);
#155=PLANE('',#606);
#156=PLANE('',#613);
#157=PLANE('',#614);
#158=PLANE('',#615);
#159=PLANE('',#616);
#160=PLANE('',#617);
#161=PLANE('',#618);
#162=PLANE('',#619);
#163=PLANE('',#620);
#164=PLANE('',#621);
#165=PLANE('',#622);
#166=PLANE('',#623);
#167=PLANE('',#624);
#168=PLANE('',#625);
#169=PLANE('',#628);
#170=PLANE('',#631);
#171=PLANE('',#634);
#172=PLANE('',#637);
#173=PLANE('',#638);
#174=PLANE('',#639);
#175=PLANE('',#640);
#176=PLANE('',#644);
#177=PLANE('',#645);
#178=PLANE('',#646);
#179=FACE_OUTER_BOUND('',#210,.T.);
#180=FACE_OUTER_BOUND('',#211,.T.);
#181=FACE_OUTER_BOUND('',#213,.T.);
#182=FACE_OUTER_BOUND('',#214,.T.);
#183=FACE_OUTER_BOUND('',#215,.T.);
#184=FACE_OUTER_BOUND('',#216,.T.);
#185=FACE_OUTER_BOUND('',#217,.T.);
#186=FACE_OUTER_BOUND('',#218,.T.);
#187=FACE_OUTER_BOUND('',#219,.T.);
#188=FACE_OUTER_BOUND('',#220,.T.);
#189=FACE_OUTER_BOUND('',#221,.T.);
#190=FACE_OUTER_BOUND('',#222,.T.);
#191=FACE_OUTER_BOUND('',#223,.T.);
#192=FACE_OUTER_BOUND('',#224,.T.);
#193=FACE_OUTER_BOUND('',#225,.T.);
#194=FACE_OUTER_BOUND('',#226,.T.);
#195=FACE_OUTER_BOUND('',#227,.T.);
#196=FACE_OUTER_BOUND('',#228,.T.);
#197=FACE_OUTER_BOUND('',#229,.T.);
#198=FACE_OUTER_BOUND('',#230,.T.);
#199=FACE_OUTER_BOUND('',#231,.T.);
#200=FACE_OUTER_BOUND('',#232,.T.);
#201=FACE_OUTER_BOUND('',#233,.T.);
#202=FACE_OUTER_BOUND('',#234,.T.);
#203=FACE_OUTER_BOUND('',#235,.T.);
#204=FACE_OUTER_BOUND('',#236,.T.);
#205=FACE_OUTER_BOUND('',#237,.T.);
#206=FACE_OUTER_BOUND('',#238,.T.);
#207=FACE_OUTER_BOUND('',#239,.T.);
#208=FACE_OUTER_BOUND('',#241,.T.);
#209=FACE_OUTER_BOUND('',#242,.T.);
#210=EDGE_LOOP('',(#393,#394,#395,#396,#397));
#211=EDGE_LOOP('',(#398,#399,#400,#401,#402,#403,#404,#405,#406,#407,#408,
#409,#410,#411,#412,#413,#414,#415,#416,#417,#418,#419,#420,#421));
#212=EDGE_LOOP('',(#422));
#213=EDGE_LOOP('',(#423,#424,#425,#426,#427));
#214=EDGE_LOOP('',(#428,#429,#430,#431));
#215=EDGE_LOOP('',(#432,#433,#434,#435));
#216=EDGE_LOOP('',(#436,#437,#438,#439));
#217=EDGE_LOOP('',(#440,#441,#442,#443));
#218=EDGE_LOOP('',(#444,#445,#446,#447));
#219=EDGE_LOOP('',(#448,#449,#450,#451));
#220=EDGE_LOOP('',(#452,#453,#454,#455));
#221=EDGE_LOOP('',(#456,#457,#458,#459));
#222=EDGE_LOOP('',(#460,#461,#462,#463));
#223=EDGE_LOOP('',(#464,#465,#466,#467));
#224=EDGE_LOOP('',(#468,#469,#470,#471));
#225=EDGE_LOOP('',(#472,#473,#474,#475));
#226=EDGE_LOOP('',(#476,#477,#478,#479));
#227=EDGE_LOOP('',(#480,#481,#482,#483));
#228=EDGE_LOOP('',(#484,#485,#486,#487));
#229=EDGE_LOOP('',(#488,#489,#490,#491));
#230=EDGE_LOOP('',(#492,#493,#494,#495));
#231=EDGE_LOOP('',(#496,#497,#498,#499));
#232=EDGE_LOOP('',(#500,#501,#502,#503));
#233=EDGE_LOOP('',(#504,#505,#506,#507));
#234=EDGE_LOOP('',(#508,#509,#510,#511));
#235=EDGE_LOOP('',(#512,#513,#514,#515));
#236=EDGE_LOOP('',(#516,#517,#518,#519));
#237=EDGE_LOOP('',(#520,#521,#522,#523));
#238=EDGE_LOOP('',(#524,#525,#526,#527));
#239=EDGE_LOOP('',(#528));
#240=EDGE_LOOP('',(#529));
#241=EDGE_LOOP('',(#530,#531,#532,#533,#534,#535,#536,#537,#538,#539,#540,
#541,#542,#543,#544,#545,#546,#547,#548,#549,#550,#551,#552,#553));
#242=EDGE_LOOP('',(#554));
#243=CIRCLE('',#602,4.);
#244=CIRCLE('',#603,0.35);
#245=CIRCLE('',#604,4.35);
#246=CIRCLE('',#605,4.);
#247=CIRCLE('',#607,2.5);
#248=CIRCLE('',#608,2.5);
#249=CIRCLE('',#609,2.5);
#250=CIRCLE('',#610,2.5);
#251=CIRCLE('',#612,4.);
#252=CIRCLE('',#627,2.5);
#253=CIRCLE('',#630,2.5);
#254=CIRCLE('',#633,2.5);
#255=CIRCLE('',#636,2.5);
#256=CIRCLE('',#642,3.1);
#257=CIRCLE('',#643,3.1);
#258=VERTEX_POINT('',#809);
#259=VERTEX_POINT('',#810);
#260=VERTEX_POINT('',#812);
#261=VERTEX_POINT('',#817);
#262=VERTEX_POINT('',#818);
#263=VERTEX_POINT('',#820);
#264=VERTEX_POINT('',#822);
#265=VERTEX_POINT('',#824);
#266=VERTEX_POINT('',#826);
#267=VERTEX_POINT('',#828);
#268=VERTEX_POINT('',#830);
#269=VERTEX_POINT('',#832);
#270=VERTEX_POINT('',#834);
#271=VERTEX_POINT('',#836);
#272=VERTEX_POINT('',#838);
#273=VERTEX_POINT('',#840);
#274=VERTEX_POINT('',#842);
#275=VERTEX_POINT('',#844);
#276=VERTEX_POINT('',#846);
#277=VERTEX_POINT('',#848);
#278=VERTEX_POINT('',#850);
#279=VERTEX_POINT('',#852);
#280=VERTEX_POINT('',#854);
#281=VERTEX_POINT('',#856);
#282=VERTEX_POINT('',#858);
#283=VERTEX_POINT('',#860);
#284=VERTEX_POINT('',#862);
#285=VERTEX_POINT('',#866);
#286=VERTEX_POINT('',#870);
#287=VERTEX_POINT('',#871);
#288=VERTEX_POINT('',#876);
#289=VERTEX_POINT('',#880);
#290=VERTEX_POINT('',#884);
#291=VERTEX_POINT('',#886);
#292=VERTEX_POINT('',#890);
#293=VERTEX_POINT('',#894);
#294=VERTEX_POINT('',#898);
#295=VERTEX_POINT('',#899);
#296=VERTEX_POINT('',#904);
#297=VERTEX_POINT('',#908);
#298=VERTEX_POINT('',#910);
#299=VERTEX_POINT('',#914);
#300=VERTEX_POINT('',#918);
#301=VERTEX_POINT('',#919);
#302=VERTEX_POINT('',#926);
#303=VERTEX_POINT('',#930);
#304=VERTEX_POINT('',#931);
#305=VERTEX_POINT('',#938);
#306=VERTEX_POINT('',#944);
#307=VERTEX_POINT('',#945);
#308=VERTEX_POINT('',#952);
#309=VERTEX_POINT('',#954);
#310=VERTEX_POINT('',#966);
#311=VERTEX_POINT('',#968);
#312=EDGE_CURVE('',#258,#259,#243,.T.);
#313=EDGE_CURVE('',#259,#260,#244,.T.);
#314=EDGE_CURVE('',#260,#260,#245,.T.);
#315=EDGE_CURVE('',#259,#258,#246,.T.);
#316=EDGE_CURVE('',#261,#262,#23,.T.);
#317=EDGE_CURVE('',#263,#261,#24,.T.);
#318=EDGE_CURVE('',#264,#263,#25,.T.);
#319=EDGE_CURVE('',#265,#264,#26,.T.);
#320=EDGE_CURVE('',#266,#265,#247,.T.);
#321=EDGE_CURVE('',#266,#267,#27,.T.);
#322=EDGE_CURVE('',#268,#267,#28,.T.);
#323=EDGE_CURVE('',#268,#269,#29,.T.);
#324=EDGE_CURVE('',#270,#269,#30,.T.);
#325=EDGE_CURVE('',#270,#271,#31,.T.);
#326=EDGE_CURVE('',#272,#271,#248,.T.);
#327=EDGE_CURVE('',#273,#272,#32,.T.);
#328=EDGE_CURVE('',#274,#273,#33,.T.);
#329=EDGE_CURVE('',#274,#275,#34,.T.);
#330=EDGE_CURVE('',#276,#275,#35,.T.);
#331=EDGE_CURVE('',#276,#277,#36,.T.);
#332=EDGE_CURVE('',#278,#277,#249,.T.);
#333=EDGE_CURVE('',#278,#279,#37,.T.);
#334=EDGE_CURVE('',#280,#279,#38,.T.);
#335=EDGE_CURVE('',#280,#281,#39,.T.);
#336=EDGE_CURVE('',#282,#281,#40,.T.);
#337=EDGE_CURVE('',#282,#283,#41,.T.);
#338=EDGE_CURVE('',#284,#283,#250,.T.);
#339=EDGE_CURVE('',#284,#262,#42,.T.);
#340=EDGE_CURVE('',#285,#285,#251,.T.);
#341=EDGE_CURVE('',#285,#258,#43,.T.);
#342=EDGE_CURVE('',#286,#287,#44,.T.);
#343=EDGE_CURVE('',#287,#261,#45,.T.);
#344=EDGE_CURVE('',#262,#286,#46,.T.);
#345=EDGE_CURVE('',#288,#287,#47,.T.);
#346=EDGE_CURVE('',#263,#288,#48,.T.);
#347=EDGE_CURVE('',#288,#289,#49,.T.);
#348=EDGE_CURVE('',#289,#264,#50,.T.);
#349=EDGE_CURVE('',#267,#290,#51,.T.);
#350=EDGE_CURVE('',#290,#291,#52,.T.);
#351=EDGE_CURVE('',#291,#268,#53,.T.);
#352=EDGE_CURVE('',#292,#291,#54,.T.);
#353=EDGE_CURVE('',#269,#292,#55,.T.);
#354=EDGE_CURVE('',#292,#293,#56,.T.);
#355=EDGE_CURVE('',#293,#270,#57,.T.);
#356=EDGE_CURVE('',#294,#295,#58,.T.);
#357=EDGE_CURVE('',#295,#274,#59,.T.);
#358=EDGE_CURVE('',#273,#294,#60,.T.);
#359=EDGE_CURVE('',#296,#272,#61,.T.);
#360=EDGE_CURVE('',#294,#296,#62,.T.);
#361=EDGE_CURVE('',#281,#297,#63,.T.);
#362=EDGE_CURVE('',#297,#298,#64,.T.);
#363=EDGE_CURVE('',#298,#282,#65,.T.);
#364=EDGE_CURVE('',#299,#280,#66,.T.);
#365=EDGE_CURVE('',#297,#299,#67,.T.);
#366=EDGE_CURVE('',#300,#301,#68,.T.);
#367=EDGE_CURVE('',#301,#276,#69,.T.);
#368=EDGE_CURVE('',#275,#300,#70,.T.);
#369=EDGE_CURVE('',#300,#295,#71,.T.);
#370=EDGE_CURVE('',#279,#302,#72,.T.);
#371=EDGE_CURVE('',#302,#299,#73,.T.);
#372=EDGE_CURVE('',#303,#304,#252,.T.);
#373=EDGE_CURVE('',#304,#266,#74,.T.);
#374=EDGE_CURVE('',#265,#303,#75,.T.);
#375=EDGE_CURVE('',#290,#304,#76,.T.);
#376=EDGE_CURVE('',#271,#305,#77,.T.);
#377=EDGE_CURVE('',#305,#296,#253,.T.);
#378=EDGE_CURVE('',#305,#293,#78,.T.);
#379=EDGE_CURVE('',#306,#307,#254,.T.);
#380=EDGE_CURVE('',#307,#278,#79,.T.);
#381=EDGE_CURVE('',#277,#306,#80,.T.);
#382=EDGE_CURVE('',#302,#307,#81,.T.);
#383=EDGE_CURVE('',#283,#308,#82,.T.);
#384=EDGE_CURVE('',#308,#309,#255,.T.);
#385=EDGE_CURVE('',#309,#284,#83,.T.);
#386=EDGE_CURVE('',#308,#298,#84,.T.);
#387=EDGE_CURVE('',#303,#289,#85,.T.);
#388=EDGE_CURVE('',#286,#309,#86,.T.);
#389=EDGE_CURVE('',#306,#301,#87,.T.);
#390=EDGE_CURVE('',#310,#310,#256,.T.);
#391=EDGE_CURVE('',#310,#311,#88,.T.);
#392=EDGE_CURVE('',#311,#311,#257,.T.);
#393=ORIENTED_EDGE('',*,*,#312,.T.);
#394=ORIENTED_EDGE('',*,*,#313,.T.);
#395=ORIENTED_EDGE('',*,*,#314,.T.);
#396=ORIENTED_EDGE('',*,*,#313,.F.);
#397=ORIENTED_EDGE('',*,*,#315,.T.);
#398=ORIENTED_EDGE('',*,*,#316,.F.);
#399=ORIENTED_EDGE('',*,*,#317,.F.);
#400=ORIENTED_EDGE('',*,*,#318,.F.);
#401=ORIENTED_EDGE('',*,*,#319,.F.);
#402=ORIENTED_EDGE('',*,*,#320,.F.);
#403=ORIENTED_EDGE('',*,*,#321,.T.);
#404=ORIENTED_EDGE('',*,*,#322,.F.);
#405=ORIENTED_EDGE('',*,*,#323,.T.);
#406=ORIENTED_EDGE('',*,*,#324,.F.);
#407=ORIENTED_EDGE('',*,*,#325,.T.);
#408=ORIENTED_EDGE('',*,*,#326,.F.);
#409=ORIENTED_EDGE('',*,*,#327,.F.);
#410=ORIENTED_EDGE('',*,*,#328,.F.);
#411=ORIENTED_EDGE('',*,*,#329,.T.);
#412=ORIENTED_EDGE('',*,*,#330,.F.);
#413=ORIENTED_EDGE('',*,*,#331,.T.);
#414=ORIENTED_EDGE('',*,*,#332,.F.);
#415=ORIENTED_EDGE('',*,*,#333,.T.);
#416=ORIENTED_EDGE('',*,*,#334,.F.);
#417=ORIENTED_EDGE('',*,*,#335,.T.);
#418=ORIENTED_EDGE('',*,*,#336,.F.);
#419=ORIENTED_EDGE('',*,*,#337,.T.);
#420=ORIENTED_EDGE('',*,*,#338,.F.);
#421=ORIENTED_EDGE('',*,*,#339,.T.);
#422=ORIENTED_EDGE('',*,*,#314,.F.);
#423=ORIENTED_EDGE('',*,*,#340,.F.);
#424=ORIENTED_EDGE('',*,*,#341,.T.);
#425=ORIENTED_EDGE('',*,*,#315,.F.);
#426=ORIENTED_EDGE('',*,*,#312,.F.);
#427=ORIENTED_EDGE('',*,*,#341,.F.);
#428=ORIENTED_EDGE('',*,*,#342,.T.);
#429=ORIENTED_EDGE('',*,*,#343,.T.);
#430=ORIENTED_EDGE('',*,*,#316,.T.);
#431=ORIENTED_EDGE('',*,*,#344,.T.);
#432=ORIENTED_EDGE('',*,*,#343,.F.);
#433=ORIENTED_EDGE('',*,*,#345,.F.);
#434=ORIENTED_EDGE('',*,*,#346,.F.);
#435=ORIENTED_EDGE('',*,*,#317,.T.);
#436=ORIENTED_EDGE('',*,*,#347,.T.);
#437=ORIENTED_EDGE('',*,*,#348,.T.);
#438=ORIENTED_EDGE('',*,*,#318,.T.);
#439=ORIENTED_EDGE('',*,*,#346,.T.);
#440=ORIENTED_EDGE('',*,*,#322,.T.);
#441=ORIENTED_EDGE('',*,*,#349,.T.);
#442=ORIENTED_EDGE('',*,*,#350,.T.);
#443=ORIENTED_EDGE('',*,*,#351,.T.);
#444=ORIENTED_EDGE('',*,*,#351,.F.);
#445=ORIENTED_EDGE('',*,*,#352,.F.);
#446=ORIENTED_EDGE('',*,*,#353,.F.);
#447=ORIENTED_EDGE('',*,*,#323,.F.);
#448=ORIENTED_EDGE('',*,*,#324,.T.);
#449=ORIENTED_EDGE('',*,*,#353,.T.);
#450=ORIENTED_EDGE('',*,*,#354,.T.);
#451=ORIENTED_EDGE('',*,*,#355,.T.);
#452=ORIENTED_EDGE('',*,*,#356,.T.);
#453=ORIENTED_EDGE('',*,*,#357,.T.);
#454=ORIENTED_EDGE('',*,*,#328,.T.);
#455=ORIENTED_EDGE('',*,*,#358,.T.);
#456=ORIENTED_EDGE('',*,*,#358,.F.);
#457=ORIENTED_EDGE('',*,*,#327,.T.);
#458=ORIENTED_EDGE('',*,*,#359,.F.);
#459=ORIENTED_EDGE('',*,*,#360,.F.);
#460=ORIENTED_EDGE('',*,*,#336,.T.);
#461=ORIENTED_EDGE('',*,*,#361,.T.);
#462=ORIENTED_EDGE('',*,*,#362,.T.);
#463=ORIENTED_EDGE('',*,*,#363,.T.);
#464=ORIENTED_EDGE('',*,*,#361,.F.);
#465=ORIENTED_EDGE('',*,*,#335,.F.);
#466=ORIENTED_EDGE('',*,*,#364,.F.);
#467=ORIENTED_EDGE('',*,*,#365,.F.);
#468=ORIENTED_EDGE('',*,*,#366,.T.);
#469=ORIENTED_EDGE('',*,*,#367,.T.);
#470=ORIENTED_EDGE('',*,*,#330,.T.);
#471=ORIENTED_EDGE('',*,*,#368,.T.);
#472=ORIENTED_EDGE('',*,*,#357,.F.);
#473=ORIENTED_EDGE('',*,*,#369,.F.);
#474=ORIENTED_EDGE('',*,*,#368,.F.);
#475=ORIENTED_EDGE('',*,*,#329,.F.);
#476=ORIENTED_EDGE('',*,*,#334,.T.);
#477=ORIENTED_EDGE('',*,*,#370,.T.);
#478=ORIENTED_EDGE('',*,*,#371,.T.);
#479=ORIENTED_EDGE('',*,*,#364,.T.);
#480=ORIENTED_EDGE('',*,*,#372,.T.);
#481=ORIENTED_EDGE('',*,*,#373,.T.);
#482=ORIENTED_EDGE('',*,*,#320,.T.);
#483=ORIENTED_EDGE('',*,*,#374,.T.);
#484=ORIENTED_EDGE('',*,*,#349,.F.);
#485=ORIENTED_EDGE('',*,*,#321,.F.);
#486=ORIENTED_EDGE('',*,*,#373,.F.);
#487=ORIENTED_EDGE('',*,*,#375,.F.);
#488=ORIENTED_EDGE('',*,*,#326,.T.);
#489=ORIENTED_EDGE('',*,*,#376,.T.);
#490=ORIENTED_EDGE('',*,*,#377,.T.);
#491=ORIENTED_EDGE('',*,*,#359,.T.);
#492=ORIENTED_EDGE('',*,*,#355,.F.);
#493=ORIENTED_EDGE('',*,*,#378,.F.);
#494=ORIENTED_EDGE('',*,*,#376,.F.);
#495=ORIENTED_EDGE('',*,*,#325,.F.);
#496=ORIENTED_EDGE('',*,*,#379,.T.);
#497=ORIENTED_EDGE('',*,*,#380,.T.);
#498=ORIENTED_EDGE('',*,*,#332,.T.);
#499=ORIENTED_EDGE('',*,*,#381,.T.);
#500=ORIENTED_EDGE('',*,*,#370,.F.);
#501=ORIENTED_EDGE('',*,*,#333,.F.);
#502=ORIENTED_EDGE('',*,*,#380,.F.);
#503=ORIENTED_EDGE('',*,*,#382,.F.);
#504=ORIENTED_EDGE('',*,*,#338,.T.);
#505=ORIENTED_EDGE('',*,*,#383,.T.);
#506=ORIENTED_EDGE('',*,*,#384,.T.);
#507=ORIENTED_EDGE('',*,*,#385,.T.);
#508=ORIENTED_EDGE('',*,*,#363,.F.);
#509=ORIENTED_EDGE('',*,*,#386,.F.);
#510=ORIENTED_EDGE('',*,*,#383,.F.);
#511=ORIENTED_EDGE('',*,*,#337,.F.);
#512=ORIENTED_EDGE('',*,*,#348,.F.);
#513=ORIENTED_EDGE('',*,*,#387,.F.);
#514=ORIENTED_EDGE('',*,*,#374,.F.);
#515=ORIENTED_EDGE('',*,*,#319,.T.);
#516=ORIENTED_EDGE('',*,*,#344,.F.);
#517=ORIENTED_EDGE('',*,*,#339,.F.);
#518=ORIENTED_EDGE('',*,*,#385,.F.);
#519=ORIENTED_EDGE('',*,*,#388,.F.);
#520=ORIENTED_EDGE('',*,*,#367,.F.);
#521=ORIENTED_EDGE('',*,*,#389,.F.);
#522=ORIENTED_EDGE('',*,*,#381,.F.);
#523=ORIENTED_EDGE('',*,*,#331,.F.);
#524=ORIENTED_EDGE('',*,*,#390,.F.);
#525=ORIENTED_EDGE('',*,*,#391,.T.);
#526=ORIENTED_EDGE('',*,*,#392,.F.);
#527=ORIENTED_EDGE('',*,*,#391,.F.);
#528=ORIENTED_EDGE('',*,*,#340,.T.);
#529=ORIENTED_EDGE('',*,*,#390,.T.);
#530=ORIENTED_EDGE('',*,*,#342,.F.);
#531=ORIENTED_EDGE('',*,*,#388,.T.);
#532=ORIENTED_EDGE('',*,*,#384,.F.);
#533=ORIENTED_EDGE('',*,*,#386,.T.);
#534=ORIENTED_EDGE('',*,*,#362,.F.);
#535=ORIENTED_EDGE('',*,*,#365,.T.);
#536=ORIENTED_EDGE('',*,*,#371,.F.);
#537=ORIENTED_EDGE('',*,*,#382,.T.);
#538=ORIENTED_EDGE('',*,*,#379,.F.);
#539=ORIENTED_EDGE('',*,*,#389,.T.);
#540=ORIENTED_EDGE('',*,*,#366,.F.);
#541=ORIENTED_EDGE('',*,*,#369,.T.);
#542=ORIENTED_EDGE('',*,*,#356,.F.);
#543=ORIENTED_EDGE('',*,*,#360,.T.);
#544=ORIENTED_EDGE('',*,*,#377,.F.);
#545=ORIENTED_EDGE('',*,*,#378,.T.);
#546=ORIENTED_EDGE('',*,*,#354,.F.);
#547=ORIENTED_EDGE('',*,*,#352,.T.);
#548=ORIENTED_EDGE('',*,*,#350,.F.);
#549=ORIENTED_EDGE('',*,*,#375,.T.);
#550=ORIENTED_EDGE('',*,*,#372,.F.);
#551=ORIENTED_EDGE('',*,*,#387,.T.);
#552=ORIENTED_EDGE('',*,*,#347,.F.);
#553=ORIENTED_EDGE('',*,*,#345,.T.);
#554=ORIENTED_EDGE('',*,*,#392,.T.);
#555=TOROIDAL_SURFACE('',#601,4.35,0.35);
#556=ADVANCED_FACE('',(#179),#555,.F.);
#557=ADVANCED_FACE('',(#180,#21),#155,.F.);
#558=ADVANCED_FACE('',(#181),#15,.T.);
#559=ADVANCED_FACE('',(#182),#156,.T.);
#560=ADVANCED_FACE('',(#183),#157,.T.);
#561=ADVANCED_FACE('',(#184),#158,.T.);
#562=ADVANCED_FACE('',(#185),#159,.T.);
#563=ADVANCED_FACE('',(#186),#160,.T.);
#564=ADVANCED_FACE('',(#187),#161,.T.);
#565=ADVANCED_FACE('',(#188),#162,.T.);
#566=ADVANCED_FACE('',(#189),#163,.T.);
#567=ADVANCED_FACE('',(#190),#164,.T.);
#568=ADVANCED_FACE('',(#191),#165,.T.);
#569=ADVANCED_FACE('',(#192),#166,.T.);
#570=ADVANCED_FACE('',(#193),#167,.T.);
#571=ADVANCED_FACE('',(#194),#168,.T.);
#572=ADVANCED_FACE('',(#195),#16,.F.);
#573=ADVANCED_FACE('',(#196),#169,.T.);
#574=ADVANCED_FACE('',(#197),#17,.F.);
#575=ADVANCED_FACE('',(#198),#170,.T.);
#576=ADVANCED_FACE('',(#199),#18,.F.);
#577=ADVANCED_FACE('',(#200),#171,.T.);
#578=ADVANCED_FACE('',(#201),#19,.F.);
#579=ADVANCED_FACE('',(#202),#172,.T.);
#580=ADVANCED_FACE('',(#203),#173,.T.);
#581=ADVANCED_FACE('',(#204),#174,.T.);
#582=ADVANCED_FACE('',(#205),#175,.T.);
#583=ADVANCED_FACE('',(#206),#20,.F.);
#584=ADVANCED_FACE('',(#207,#22),#176,.F.);
#585=ADVANCED_FACE('',(#208),#177,.T.);
#586=ADVANCED_FACE('',(#209),#178,.F.);
#587=CLOSED_SHELL('',(#556,#557,#558,#559,#560,#561,#562,#563,#564,#565,
#566,#567,#568,#569,#570,#571,#572,#573,#574,#575,#576,#577,#578,#579,#580,
#581,#582,#583,#584,#585,#586));
#588=DERIVED_UNIT_ELEMENT(#590,1.);
#589=DERIVED_UNIT_ELEMENT(#979,-3.);
#590=(
MASS_UNIT()
NAMED_UNIT(*)
SI_UNIT(.KILO.,.GRAM.)
);
#591=DERIVED_UNIT((#588,#589));
#592=MEASURE_REPRESENTATION_ITEM('density measure',
POSITIVE_RATIO_MEASURE(1290.),#591);
#593=PROPERTY_DEFINITION_REPRESENTATION(#598,#595);
#594=PROPERTY_DEFINITION_REPRESENTATION(#599,#596);
#595=REPRESENTATION('material name',(#597),#976);
#596=REPRESENTATION('density',(#592),#976);
#597=DESCRIPTIVE_REPRESENTATION_ITEM('Plastic','Plastic');
#598=PROPERTY_DEFINITION('material property','material name',#986);
#599=PROPERTY_DEFINITION('material property','density of part',#986);
#600=AXIS2_PLACEMENT_3D('',#807,#647,#648);
#601=AXIS2_PLACEMENT_3D('',#808,#649,#650);
#602=AXIS2_PLACEMENT_3D('',#811,#651,#652);
#603=AXIS2_PLACEMENT_3D('',#813,#653,#654);
#604=AXIS2_PLACEMENT_3D('',#814,#655,#656);
#605=AXIS2_PLACEMENT_3D('',#815,#657,#658);
#606=AXIS2_PLACEMENT_3D('',#816,#659,#660);
#607=AXIS2_PLACEMENT_3D('',#827,#665,#666);
#608=AXIS2_PLACEMENT_3D('',#839,#672,#673);
#609=AXIS2_PLACEMENT_3D('',#851,#679,#680);
#610=AXIS2_PLACEMENT_3D('',#863,#686,#687);
#611=AXIS2_PLACEMENT_3D('',#865,#689,#690);
#612=AXIS2_PLACEMENT_3D('',#867,#691,#692);
#613=AXIS2_PLACEMENT_3D('',#869,#694,#695);
#614=AXIS2_PLACEMENT_3D('',#875,#699,#700);
#615=AXIS2_PLACEMENT_3D('',#879,#703,#704);
#616=AXIS2_PLACEMENT_3D('',#883,#707,#708);
#617=AXIS2_PLACEMENT_3D('',#889,#712,#713);
#618=AXIS2_PLACEMENT_3D('',#893,#716,#717);
#619=AXIS2_PLACEMENT_3D('',#897,#720,#721);
#620=AXIS2_PLACEMENT_3D('',#903,#725,#726);
#621=AXIS2_PLACEMENT_3D('',#907,#729,#730);
#622=AXIS2_PLACEMENT_3D('',#913,#734,#735);
#623=AXIS2_PLACEMENT_3D('',#917,#738,#739);
#624=AXIS2_PLACEMENT_3D('',#923,#743,#744);
#625=AXIS2_PLACEMENT_3D('',#925,#746,#747);
#626=AXIS2_PLACEMENT_3D('',#929,#750,#751);
#627=AXIS2_PLACEMENT_3D('',#932,#752,#753);
#628=AXIS2_PLACEMENT_3D('',#935,#756,#757);
#629=AXIS2_PLACEMENT_3D('',#937,#759,#760);
#630=AXIS2_PLACEMENT_3D('',#940,#762,#763);
#631=AXIS2_PLACEMENT_3D('',#941,#764,#765);
#632=AXIS2_PLACEMENT_3D('',#943,#767,#768);
#633=AXIS2_PLACEMENT_3D('',#946,#769,#770);
#634=AXIS2_PLACEMENT_3D('',#949,#773,#774);
#635=AXIS2_PLACEMENT_3D('',#951,#776,#777);
#636=AXIS2_PLACEMENT_3D('',#955,#779,#780);
#637=AXIS2_PLACEMENT_3D('',#957,#782,#783);
#638=AXIS2_PLACEMENT_3D('',#959,#785,#786);
#639=AXIS2_PLACEMENT_3D('',#961,#788,#789);
#640=AXIS2_PLACEMENT_3D('',#963,#791,#792);
#641=AXIS2_PLACEMENT_3D('',#965,#794,#795);
#642=AXIS2_PLACEMENT_3D('',#967,#796,#797);
#643=AXIS2_PLACEMENT_3D('',#970,#799,#800);
#644=AXIS2_PLACEMENT_3D('',#971,#801,#802);
#645=AXIS2_PLACEMENT_3D('',#972,#803,#804);
#646=AXIS2_PLACEMENT_3D('',#973,#805,#806);
#647=DIRECTION('axis',(0.,0.,1.));
#648=DIRECTION('refdir',(1.,0.,0.));
#649=DIRECTION('center_axis',(1.,0.,0.));
#650=DIRECTION('ref_axis',(0.,0.,-1.));
#651=DIRECTION('center_axis',(1.,0.,0.));
#652=DIRECTION('ref_axis',(0.,-0.484122918275888,0.875000000000022));
#653=DIRECTION('center_axis',(0.,-1.,-1.22464679914735E-16));
#654=DIRECTION('ref_axis',(0.,-1.22464679914735E-16,1.));
#655=DIRECTION('center_axis',(-1.,0.,0.));
#656=DIRECTION('ref_axis',(0.,-0.484122918275888,0.875000000000022));
#657=DIRECTION('center_axis',(1.,0.,0.));
#658=DIRECTION('ref_axis',(0.,-0.484122918275888,0.875000000000022));
#659=DIRECTION('center_axis',(1.,0.,0.));
#660=DIRECTION('ref_axis',(0.,1.,0.));
#661=DIRECTION('',(0.,-0.707106781186544,0.707106781186551));
#662=DIRECTION('',(0.,0.,1.));
#663=DIRECTION('',(0.,0.707106781186498,0.707106781186598));
#664=DIRECTION('',(0.,1.,-7.20291036498895E-15));
#665=DIRECTION('center_axis',(-1.,0.,0.));
#666=DIRECTION('ref_axis',(0.,-0.707106781186545,0.70710678118655));
#667=DIRECTION('',(0.,0.,-1.));
#668=DIRECTION('',(0.,0.707106781186548,0.707106781186548));
#669=DIRECTION('',(0.,-1.,0.));
#670=DIRECTION('',(0.,0.707106781186548,-0.707106781186548));
#671=DIRECTION('',(0.,0.,1.));
#672=DIRECTION('center_axis',(-1.,0.,0.));
#673=DIRECTION('ref_axis',(0.,0.70710678118655,0.707106781186545));
#674=DIRECTION('',(0.,1.,-7.20291036498895E-15));
#675=DIRECTION('',(0.,0.707106781186545,-0.70710678118655));
#676=DIRECTION('',(0.,0.,1.));
#677=DIRECTION('',(0.,-0.707106781186464,-0.707106781186632));
#678=DIRECTION('',(0.,1.,-1.21312174346203E-14));
#679=DIRECTION('center_axis',(-1.,0.,0.));
#680=DIRECTION('ref_axis',(0.,0.707106781186543,-0.707106781186552));
#681=DIRECTION('',(0.,0.,1.));
#682=DIRECTION('',(0.,-0.707106781186547,-0.707106781186548));
#683=DIRECTION('',(0.,1.,0.));
#684=DIRECTION('',(0.,-0.707106781186547,0.707106781186548));
#685=DIRECTION('',(0.,0.,-1.));
#686=DIRECTION('center_axis',(-1.,0.,0.));
#687=DIRECTION('ref_axis',(0.,-0.707106781186552,-0.707106781186543));
#688=DIRECTION('',(0.,1.,-1.21312174346203E-14));
#689=DIRECTION('center_axis',(-1.,0.,0.));
#690=DIRECTION('ref_axis',(0.,1.,0.));
#691=DIRECTION('center_axis',(-1.,0.,0.));
#692=DIRECTION('ref_axis',(0.,1.,0.));
#693=DIRECTION('',(1.,0.,0.));
#694=DIRECTION('center_axis',(0.,0.707106781186551,0.707106781186544));
#695=DIRECTION('ref_axis',(1.,0.,0.));
#696=DIRECTION('',(0.,0.707106781186544,-0.707106781186551));
#697=DIRECTION('',(-1.,0.,0.));
#698=DIRECTION('',(1.,0.,0.));
#699=DIRECTION('center_axis',(0.,1.,0.));
#700=DIRECTION('ref_axis',(0.,0.,1.));
#701=DIRECTION('',(0.,0.,1.));
#702=DIRECTION('',(1.,0.,0.));
#703=DIRECTION('center_axis',(0.,0.707106781186598,-0.707106781186498));
#704=DIRECTION('ref_axis',(-1.,0.,0.));
#705=DIRECTION('',(0.,-0.707106781186498,-0.707106781186598));
#706=DIRECTION('',(-1.,0.,0.));
#707=DIRECTION('center_axis',(0.,0.707106781186548,-0.707106781186548));
#708=DIRECTION('ref_axis',(-1.,0.,0.));
#709=DIRECTION('',(1.,0.,0.));
#710=DIRECTION('',(0.,-0.707106781186548,-0.707106781186548));
#711=DIRECTION('',(-1.,0.,0.));
#712=DIRECTION('center_axis',(0.,0.,-1.));
#713=DIRECTION('ref_axis',(0.,-1.,0.));
#714=DIRECTION('',(0.,1.,0.));
#715=DIRECTION('',(1.,0.,0.));
#716=DIRECTION('center_axis',(0.,-0.707106781186548,-0.707106781186548));
#717=DIRECTION('ref_axis',(-1.,0.,0.));
#718=DIRECTION('',(0.,-0.707106781186548,0.707106781186548));
#719=DIRECTION('',(-1.,0.,0.));
#720=DIRECTION('center_axis',(0.,-0.70710678118655,-0.707106781186545));
#721=DIRECTION('ref_axis',(-1.,0.,0.));
#722=DIRECTION('',(0.,-0.707106781186545,0.70710678118655));
#723=DIRECTION('',(-1.,0.,0.));
#724=DIRECTION('',(1.,0.,0.));
#725=DIRECTION('center_axis',(0.,-7.20291036498895E-15,-1.));
#726=DIRECTION('ref_axis',(0.,1.,-7.20291036498895E-15));
#727=DIRECTION('',(-1.,0.,0.));
#728=DIRECTION('',(0.,1.,-7.20291036498895E-15));
#729=DIRECTION('center_axis',(0.,0.707106781186548,0.707106781186547));
#730=DIRECTION('ref_axis',(1.,0.,0.));
#731=DIRECTION('',(1.,0.,0.));
#732=DIRECTION('',(0.,0.707106781186547,-0.707106781186548));
#733=DIRECTION('',(-1.,0.,0.));
#734=DIRECTION('center_axis',(0.,0.,1.));
#735=DIRECTION('ref_axis',(0.,1.,0.));
#736=DIRECTION('',(-1.,0.,0.));
#737=DIRECTION('',(0.,-1.,0.));
#738=DIRECTION('center_axis',(0.,-0.707106781186632,0.707106781186464));
#739=DIRECTION('ref_axis',(1.,0.,0.));
#740=DIRECTION('',(0.,0.707106781186464,0.707106781186632));
#741=DIRECTION('',(-1.,0.,0.));
#742=DIRECTION('',(1.,0.,0.));
#743=DIRECTION('center_axis',(0.,-1.,0.));
#744=DIRECTION('ref_axis',(0.,0.,-1.));
#745=DIRECTION('',(0.,0.,-1.));
#746=DIRECTION('center_axis',(0.,-0.707106781186548,0.707106781186547));
#747=DIRECTION('ref_axis',(1.,0.,0.));
#748=DIRECTION('',(1.,0.,0.));
#749=DIRECTION('',(0.,0.707106781186547,0.707106781186548));
#750=DIRECTION('center_axis',(-1.,0.,0.));
#751=DIRECTION('ref_axis',(0.,-0.707106781186545,0.70710678118655));
#752=DIRECTION('center_axis',(1.,0.,0.));
#753=DIRECTION('ref_axis',(0.,-0.707106781186545,0.70710678118655));
#754=DIRECTION('',(-1.,0.,0.));
#755=DIRECTION('',(1.,0.,0.));
#756=DIRECTION('center_axis',(0.,1.,0.));
#757=DIRECTION('ref_axis',(0.,0.,-1.));
#758=DIRECTION('',(0.,0.,1.));
#759=DIRECTION('center_axis',(1.,0.,0.));
#760=DIRECTION('ref_axis',(0.,0.70710678118655,0.707106781186545));
#761=DIRECTION('',(1.,0.,0.));
#762=DIRECTION('center_axis',(1.,0.,0.));
#763=DIRECTION('ref_axis',(0.,0.70710678118655,0.707106781186545));
#764=DIRECTION('center_axis',(0.,-1.,0.));
#765=DIRECTION('ref_axis',(0.,0.,1.));
#766=DIRECTION('',(0.,0.,-1.));
#767=DIRECTION('center_axis',(-1.,0.,0.));
#768=DIRECTION('ref_axis',(0.,0.707106781186543,-0.707106781186552));
#769=DIRECTION('center_axis',(1.,0.,0.));
#770=DIRECTION('ref_axis',(0.,0.707106781186543,-0.707106781186552));
#771=DIRECTION('',(-1.,0.,0.));
#772=DIRECTION('',(1.,0.,0.));
#773=DIRECTION('center_axis',(0.,-1.,0.));
#774=DIRECTION('ref_axis',(0.,0.,1.));
#775=DIRECTION('',(0.,0.,-1.));
#776=DIRECTION('center_axis',(1.,0.,0.));
#777=DIRECTION('ref_axis',(0.,-0.707106781186552,-0.707106781186543));
#778=DIRECTION('',(1.,0.,0.));
#779=DIRECTION('center_axis',(1.,0.,0.));
#780=DIRECTION('ref_axis',(0.,-0.707106781186552,-0.707106781186543));
#781=DIRECTION('',(-1.,0.,0.));
#782=DIRECTION('center_axis',(0.,1.,0.));
#783=DIRECTION('ref_axis',(0.,0.,-1.));
#784=DIRECTION('',(0.,0.,1.));
#785=DIRECTION('center_axis',(0.,-7.20291036498895E-15,-1.));
#786=DIRECTION('ref_axis',(0.,1.,-7.20291036498895E-15));
#787=DIRECTION('',(0.,1.,-7.20291036498895E-15));
#788=DIRECTION('center_axis',(0.,1.21312174346203E-14,1.));
#789=DIRECTION('ref_axis',(0.,-1.,1.21312174346203E-14));
#790=DIRECTION('',(0.,-1.,1.21312174346203E-14));
#791=DIRECTION('center_axis',(0.,1.21312174346203E-14,1.));
#792=DIRECTION('ref_axis',(0.,-1.,1.21312174346203E-14));
#793=DIRECTION('',(0.,-1.,1.21312174346203E-14));
#794=DIRECTION('center_axis',(-1.,0.,0.));
#795=DIRECTION('ref_axis',(0.,1.,0.));
#796=DIRECTION('center_axis',(1.,0.,0.));
#797=DIRECTION('ref_axis',(0.,1.,0.));
#798=DIRECTION('',(1.,0.,0.));
#799=DIRECTION('center_axis',(-1.,0.,0.));
#800=DIRECTION('ref_axis',(0.,1.,0.));
#801=DIRECTION('center_axis',(1.,0.,0.));
#802=DIRECTION('ref_axis',(0.,1.,0.));
#803=DIRECTION('center_axis',(1.,0.,0.));
#804=DIRECTION('ref_axis',(0.,0.,-1.));
#805=DIRECTION('center_axis',(1.,0.,0.));
#806=DIRECTION('ref_axis',(0.,1.,0.));
#807=CARTESIAN_POINT('',(0.,0.,0.));
#808=CARTESIAN_POINT('Origin',(40.8899919871743,-2.22044604925031E-15,7.1));
#809=CARTESIAN_POINT('',(40.8899919871743,-4.,7.1));
#810=CARTESIAN_POINT('',(40.8899919871743,-2.71030476890925E-15,11.1));
#811=CARTESIAN_POINT('Origin',(40.8899919871743,-2.22044604925031E-15,7.1));
#812=CARTESIAN_POINT('',(41.2399919871743,-2.75316740687941E-15,11.45));
#813=CARTESIAN_POINT('Origin',(40.8899919871743,-2.75316740687941E-15,11.45));
#814=CARTESIAN_POINT('Origin',(41.2399919871743,-2.22044604925031E-15,7.1));
#815=CARTESIAN_POINT('Origin',(40.8899919871743,-2.22044604925031E-15,7.1));
#816=CARTESIAN_POINT('Origin',(41.2399919871743,-2.22044604925031E-15,7.10000000000003));
#817=CARTESIAN_POINT('',(41.2399919871743,10.25,9.6));
#818=CARTESIAN_POINT('',(41.2399919871743,9.25,10.6));
#819=CARTESIAN_POINT('',(41.2399919871743,8.06250000000002,11.7875));
#820=CARTESIAN_POINT('',(41.2399919871743,10.25,4.6));
#821=CARTESIAN_POINT('',(41.2399919871743,10.25,3.6));
#822=CARTESIAN_POINT('',(41.2399919871743,9.25,3.59999999999986));
#823=CARTESIAN_POINT('',(41.2399919871743,8.06250000000037,2.41250000000006));
#824=CARTESIAN_POINT('',(41.2399919871743,6.50000000000001,3.59999999999988));
#825=CARTESIAN_POINT('',(41.2399919871743,-10.25,3.6));
#826=CARTESIAN_POINT('',(41.2399919871743,4.,1.09999999999988));
#827=CARTESIAN_POINT('Origin',(41.2399919871743,6.5,1.09999999999988));
#828=CARTESIAN_POINT('',(41.2399919871743,4.,-2.15));
#829=CARTESIAN_POINT('',(41.2399919871743,4.,-3.15));
#830=CARTESIAN_POINT('',(41.2399919871743,3.,-3.15));
#831=CARTESIAN_POINT('',(41.2399919871743,5.0625,-1.08749999999999));
#832=CARTESIAN_POINT('',(41.2399919871743,-3.,-3.15));
#833=CARTESIAN_POINT('',(41.2399919871743,-4.,-3.15));
#834=CARTESIAN_POINT('',(41.2399919871743,-4.,-2.15));
#835=CARTESIAN_POINT('',(41.2399919871743,-5.06250000000001,-1.08749999999999));
#836=CARTESIAN_POINT('',(41.2399919871743,-4.,1.09999999999997));
#837=CARTESIAN_POINT('',(41.2399919871743,-4.,17.35));
#838=CARTESIAN_POINT('',(41.2399919871743,-6.49999999999998,3.59999999999997));
#839=CARTESIAN_POINT('Origin',(41.2399919871743,-6.5,1.09999999999997));
#840=CARTESIAN_POINT('',(41.2399919871743,-9.25,3.59999999999999));
#841=CARTESIAN_POINT('',(41.2399919871743,-10.25,3.6));
#842=CARTESIAN_POINT('',(41.2399919871743,-10.25,4.6));
#843=CARTESIAN_POINT('',(41.2399919871743,-8.06250000000002,2.41250000000001));
#844=CARTESIAN_POINT('',(41.2399919871743,-10.25,9.6));
#845=CARTESIAN_POINT('',(41.2399919871743,-10.25,3.6));
#846=CARTESIAN_POINT('',(41.2399919871743,-9.25,10.6000000000002));
#847=CARTESIAN_POINT('',(41.2399919871743,-8.0625000000006,11.7874999999999));
#848=CARTESIAN_POINT('',(41.2399919871743,-6.50000000000003,10.6000000000002));
#849=CARTESIAN_POINT('',(41.2399919871743,-4.3820568701447E-9,10.6000000000001));
#850=CARTESIAN_POINT('',(41.2399919871743,-4.,13.1000000000002));
#851=CARTESIAN_POINT('Origin',(41.2399919871743,-6.5,13.1000000000002));
#852=CARTESIAN_POINT('',(41.2399919871743,-4.,16.35));
#853=CARTESIAN_POINT('',(41.2399919871743,-4.,17.35));
#854=CARTESIAN_POINT('',(41.2399919871743,-3.,17.35));
#855=CARTESIAN_POINT('',(41.2399919871743,-5.0625,15.2875));
#856=CARTESIAN_POINT('',(41.2399919871743,3.,17.35));
#857=CARTESIAN_POINT('',(41.2399919871743,4.,17.35));
#858=CARTESIAN_POINT('',(41.2399919871743,4.,16.35));
#859=CARTESIAN_POINT('',(41.2399919871743,5.06249999999999,15.2875));
#860=CARTESIAN_POINT('',(41.2399919871743,4.,13.1));
#861=CARTESIAN_POINT('',(41.2399919871743,4.,-3.15));
#862=CARTESIAN_POINT('',(41.2399919871743,6.49999999999997,10.6));
#863=CARTESIAN_POINT('Origin',(41.2399919871743,6.5,13.1));
#864=CARTESIAN_POINT('',(41.2399919871743,-4.3820568701447E-9,10.6000000000001));
#865=CARTESIAN_POINT('Origin',(41.2399919871743,-2.22044604925031E-15,7.1));
#866=CARTESIAN_POINT('',(34.2399919871743,-4.,7.1));
#867=CARTESIAN_POINT('Origin',(34.2399919871743,-2.22044604925031E-15,7.1));
#868=CARTESIAN_POINT('',(41.2399919871743,-4.,7.1));
#869=CARTESIAN_POINT('Origin',(41.2399919871743,9.75,10.1));
#870=CARTESIAN_POINT('',(46.2399919871743,9.25,10.6));
#871=CARTESIAN_POINT('',(46.2399919871743,10.25,9.6));
#872=CARTESIAN_POINT('',(46.2399919871743,8.06250000000002,11.7875));
#873=CARTESIAN_POINT('',(41.2399919871743,10.25,9.6));
#874=CARTESIAN_POINT('',(41.2399919871743,9.25,10.6));
#875=CARTESIAN_POINT('Origin',(41.2399919871743,10.25,3.6));
#876=CARTESIAN_POINT('',(46.2399919871743,10.25,4.6));
#877=CARTESIAN_POINT('',(46.2399919871743,10.25,3.6));
#878=CARTESIAN_POINT('',(41.2399919871743,10.25,4.6));
#879=CARTESIAN_POINT('Origin',(41.2399919871743,9.75,4.09999999999993));
#880=CARTESIAN_POINT('',(46.2399919871743,9.25,3.59999999999986));
#881=CARTESIAN_POINT('',(46.2399919871743,8.06250000000037,2.41250000000006));
#882=CARTESIAN_POINT('',(41.2399919871743,9.25,3.59999999999986));
#883=CARTESIAN_POINT('Origin',(46.2399919871743,3.5,-2.65));
#884=CARTESIAN_POINT('',(46.2399919871743,4.,-2.15));
#885=CARTESIAN_POINT('',(46.2399919871743,4.,-2.15));
#886=CARTESIAN_POINT('',(46.2399919871743,3.,-3.15));
#887=CARTESIAN_POINT('',(46.2399919871743,5.0625,-1.08749999999999));
#888=CARTESIAN_POINT('',(46.2399919871743,3.,-3.15));
#889=CARTESIAN_POINT('Origin',(46.2399919871743,4.,-3.15));
#890=CARTESIAN_POINT('',(46.2399919871743,-3.,-3.15));
#891=CARTESIAN_POINT('',(46.2399919871743,-4.,-3.15));
#892=CARTESIAN_POINT('',(46.2399919871743,-3.,-3.15));
#893=CARTESIAN_POINT('Origin',(46.2399919871743,-3.5,-2.65));
#894=CARTESIAN_POINT('',(46.2399919871743,-4.,-2.15));
#895=CARTESIAN_POINT('',(46.2399919871743,-5.06250000000001,-1.08749999999999));
#896=CARTESIAN_POINT('',(46.2399919871743,-4.,-2.15));
#897=CARTESIAN_POINT('Origin',(41.2399919871743,-9.75,4.1));
#898=CARTESIAN_POINT('',(46.2399919871743,-9.25,3.59999999999999));
#899=CARTESIAN_POINT('',(46.2399919871743,-10.25,4.6));
#900=CARTESIAN_POINT('',(46.2399919871743,-8.06250000000002,2.41250000000001));
#901=CARTESIAN_POINT('',(41.2399919871743,-10.25,4.6));
#902=CARTESIAN_POINT('',(41.2399919871743,-9.25,3.59999999999999));
#903=CARTESIAN_POINT('Origin',(41.2399919871743,-10.25,3.6));
#904=CARTESIAN_POINT('',(46.2399919871743,-6.49999999999998,3.59999999999997));
#905=CARTESIAN_POINT('',(43.7399919871743,-6.49999999999998,3.59999999999997));
#906=CARTESIAN_POINT('',(46.2399919871743,-10.25,3.6));
#907=CARTESIAN_POINT('Origin',(46.2399919871743,3.5,16.85));
#908=CARTESIAN_POINT('',(46.2399919871743,3.,17.35));
#909=CARTESIAN_POINT('',(46.2399919871743,3.,17.35));
#910=CARTESIAN_POINT('',(46.2399919871743,4.,16.35));
#911=CARTESIAN_POINT('',(46.2399919871743,5.06249999999999,15.2875));
#912=CARTESIAN_POINT('',(46.2399919871743,4.,16.35));
#913=CARTESIAN_POINT('Origin',(46.2399919871743,-4.,17.35));
#914=CARTESIAN_POINT('',(46.2399919871743,-3.,17.35));
#915=CARTESIAN_POINT('',(46.2399919871743,-3.,17.35));
#916=CARTESIAN_POINT('',(46.2399919871743,4.,17.35));
#917=CARTESIAN_POINT('Origin',(41.2399919871743,-9.75,10.1000000000001));
#918=CARTESIAN_POINT('',(46.2399919871743,-10.25,9.6));
#919=CARTESIAN_POINT('',(46.2399919871743,-9.25,10.6000000000002));
#920=CARTESIAN_POINT('',(46.2399919871743,-8.0625000000006,11.7874999999999));
#921=CARTESIAN_POINT('',(41.2399919871743,-9.25,10.6000000000002));
#922=CARTESIAN_POINT('',(41.2399919871743,-10.25,9.6));
#923=CARTESIAN_POINT('Origin',(41.2399919871743,-10.25,10.6));
#924=CARTESIAN_POINT('',(46.2399919871743,-10.25,3.6));
#925=CARTESIAN_POINT('Origin',(46.2399919871743,-3.5,16.85));
#926=CARTESIAN_POINT('',(46.2399919871743,-4.,16.35));
#927=CARTESIAN_POINT('',(46.2399919871743,-4.,16.35));
#928=CARTESIAN_POINT('',(46.2399919871743,-5.0625,15.2875));
#929=CARTESIAN_POINT('Origin',(43.7399919871743,6.5,1.09999999999988));
#930=CARTESIAN_POINT('',(46.2399919871743,6.50000000000001,3.59999999999988));
#931=CARTESIAN_POINT('',(46.2399919871743,4.,1.09999999999988));
#932=CARTESIAN_POINT('Origin',(46.2399919871743,6.5,1.09999999999988));
#933=CARTESIAN_POINT('',(43.7399919871743,4.,1.09999999999988));
#934=CARTESIAN_POINT('',(43.7399919871743,6.50000000000001,3.59999999999988));
#935=CARTESIAN_POINT('Origin',(46.2399919871743,4.,3.6));
#936=CARTESIAN_POINT('',(46.2399919871743,4.,-3.15));
#937=CARTESIAN_POINT('Origin',(43.7399919871743,-6.5,1.09999999999997));
#938=CARTESIAN_POINT('',(46.2399919871743,-4.,1.09999999999997));
#939=CARTESIAN_POINT('',(43.7399919871743,-4.,1.09999999999997));
#940=CARTESIAN_POINT('Origin',(46.2399919871743,-6.5,1.09999999999997));
#941=CARTESIAN_POINT('Origin',(46.2399919871743,-4.,-3.15));
#942=CARTESIAN_POINT('',(46.2399919871743,-4.,17.35));
#943=CARTESIAN_POINT('Origin',(43.7399919871743,-6.5,13.1000000000002));
#944=CARTESIAN_POINT('',(46.2399919871743,-6.50000000000003,10.6000000000002));
#945=CARTESIAN_POINT('',(46.2399919871743,-4.,13.1000000000002));
#946=CARTESIAN_POINT('Origin',(46.2399919871743,-6.5,13.1000000000002));
#947=CARTESIAN_POINT('',(43.7399919871743,-4.,13.1000000000002));
#948=CARTESIAN_POINT('',(43.7399919871743,-6.50000000000003,10.6000000000002));
#949=CARTESIAN_POINT('Origin',(46.2399919871743,-4.,10.6));
#950=CARTESIAN_POINT('',(46.2399919871743,-4.,17.35));
#951=CARTESIAN_POINT('Origin',(43.7399919871743,6.5,13.1));
#952=CARTESIAN_POINT('',(46.2399919871743,4.,13.1));
#953=CARTESIAN_POINT('',(43.7399919871743,4.,13.1));
#954=CARTESIAN_POINT('',(46.2399919871743,6.49999999999997,10.6));
#955=CARTESIAN_POINT('Origin',(46.2399919871743,6.5,13.1));
#956=CARTESIAN_POINT('',(43.7399919871743,6.49999999999997,10.6));
#957=CARTESIAN_POINT('Origin',(46.2399919871743,4.,17.35));
#958=CARTESIAN_POINT('',(46.2399919871743,4.,-3.15));
#959=CARTESIAN_POINT('Origin',(41.2399919871743,-10.25,3.6));
#960=CARTESIAN_POINT('',(46.2399919871743,-10.25,3.6));
#961=CARTESIAN_POINT('Origin',(41.2399919871743,10.25,10.6));
#962=CARTESIAN_POINT('',(46.2399919871743,-4.3820568701447E-9,10.6000000000001));
#963=CARTESIAN_POINT('Origin',(41.2399919871743,10.25,10.6));
#964=CARTESIAN_POINT('',(46.2399919871743,-4.3820568701447E-9,10.6000000000001));
#965=CARTESIAN_POINT('Origin',(41.2399919871743,-2.22044604925031E-15,7.1));
#966=CARTESIAN_POINT('',(34.2399919871743,-3.1,7.1));
#967=CARTESIAN_POINT('Origin',(34.2399919871743,-2.22044604925031E-15,7.1));
#968=CARTESIAN_POINT('',(41.2399919871743,-3.1,7.1));
#969=CARTESIAN_POINT('',(41.2399919871743,-3.1,7.1));
#970=CARTESIAN_POINT('Origin',(41.2399919871743,-2.22044604925031E-15,7.1));
#971=CARTESIAN_POINT('Origin',(34.2399919871743,-2.22044604925031E-15,7.1));
#972=CARTESIAN_POINT('Origin',(46.2399919871743,-2.22044604925031E-15,7.10000000000003));
#973=CARTESIAN_POINT('Origin',(41.2399919871743,-2.22044604925031E-15,7.10000000000003));
#974=UNCERTAINTY_MEASURE_WITH_UNIT(LENGTH_MEASURE(0.01),#978,
'DISTANCE_ACCURACY_VALUE',
'Maximum model space distance between geometric entities at asserted c
onnectivities');
#975=UNCERTAINTY_MEASURE_WITH_UNIT(LENGTH_MEASURE(0.01),#978,
'DISTANCE_ACCURACY_VALUE',
'Maximum model space distance between geometric entities at asserted c
onnectivities');
#976=(
GEOMETRIC_REPRESENTATION_CONTEXT(3)
GLOBAL_UNCERTAINTY_ASSIGNED_CONTEXT((#974))
GLOBAL_UNIT_ASSIGNED_CONTEXT((#978,#980,#981))
REPRESENTATION_CONTEXT('','3D')
);
#977=(
GEOMETRIC_REPRESENTATION_CONTEXT(3)
GLOBAL_UNCERTAINTY_ASSIGNED_CONTEXT((#975))
GLOBAL_UNIT_ASSIGNED_CONTEXT((#978,#980,#981))
REPRESENTATION_CONTEXT('','3D')
);
#978=(
LENGTH_UNIT()
NAMED_UNIT(*)
SI_UNIT(.MILLI.,.METRE.)
);
#979=(
LENGTH_UNIT()
NAMED_UNIT(*)
SI_UNIT($,.METRE.)
);
#980=(
NAMED_UNIT(*)
PLANE_ANGLE_UNIT()
SI_UNIT($,.RADIAN.)
);
#981=(
NAMED_UNIT(*)
SI_UNIT($,.STERADIAN.)
SOLID_ANGLE_UNIT()
);
#982=SHAPE_DEFINITION_REPRESENTATION(#983,#984);
#983=PRODUCT_DEFINITION_SHAPE('',$,#986);
#984=SHAPE_REPRESENTATION('',(#600),#976);
#985=PRODUCT_DEFINITION_CONTEXT('part definition',#990,'design');
#986=PRODUCT_DEFINITION('Lock','Lock',#987,#985);
#987=PRODUCT_DEFINITION_FORMATION('',$,#992);
#988=PRODUCT_RELATED_PRODUCT_CATEGORY('Lock','Lock',(#992));
#989=APPLICATION_PROTOCOL_DEFINITION('international standard',
'automotive_design',2009,#990);
#990=APPLICATION_CONTEXT(
'Core Data for Automotive Mechanical Design Process');
#991=PRODUCT_CONTEXT('part definition',#990,'mechanical');
#992=PRODUCT('Lock','Lock',$,(#991));
#993=PRESENTATION_STYLE_ASSIGNMENT((#994));
#994=SURFACE_STYLE_USAGE(.BOTH.,#995);
#995=SURFACE_SIDE_STYLE('',(#996));
#996=SURFACE_STYLE_FILL_AREA(#997);
#997=FILL_AREA_STYLE('Plastic - Glossy (Grey)',(#998));
#998=FILL_AREA_STYLE_COLOUR('Plastic - Glossy (Grey)',#999);
#999=COLOUR_RGB('Plastic - Glossy (Grey)',0.701960784313725,0.701960784313725,
0.701960784313725);
ENDSEC;
END-ISO-10303-21;
