ISO-10303-21;
HEADER;
/* Generated by software containing ST-Developer
 * from STEP Tools, Inc. (www.steptools.com) 
 */

FILE_DESCRIPTION(
/* description */ (''),
/* implementation_level */ '2;1');

FILE_NAME(
/* name */ 'Lock.step',
/* time_stamp */ '2026-03-13T15:47:12+01:00',
/* author */ (''),
/* organization */ (''),
/* preprocessor_version */ 'ST-DEVELOPER v20.1',
/* originating_system */ 'Autodesk Translation Framework v14.24.0.0',
/* authorisation */ '');

FILE_SCHEMA (('AUTOMOTIVE_DESIGN { 1 0 10303 214 3 1 1 }'));
ENDSEC;

DATA;
#10=MECHANICAL_DESIGN_GEOMETRIC_PRESENTATION_REPRESENTATION('',(#13),#1233);
#11=SHAPE_REPRESENTATION_RELATIONSHIP('SRR','None',#1240,#12);
#12=ADVANCED_BREP_SHAPE_REPRESENTATION('',(#14),#1232);
#13=STYLED_ITEM('',(#1249),#14);
#14=MANIFOLD_SOLID_BREP('Body1',#671);
#15=B_SPLINE_CURVE_WITH_KNOTS('',3,(#1101,#1102,#1103,#1104,#1105,#1106),
 .UNSPECIFIED.,.F.,.F.,(4,2,4),(-0.000665395135598988,0.,0.168750213999986),
 .UNSPECIFIED.);
#16=B_SPLINE_CURVE_WITH_KNOTS('',3,(#1137,#1138,#1139,#1140,#1141,#1142),
 .UNSPECIFIED.,.F.,.F.,(4,2,4),(0.339591025110273,0.508341239113302,0.509006634245846),
 .UNSPECIFIED.);
#17=B_SPLINE_CURVE_WITH_KNOTS('',3,(#1175,#1176,#1177,#1178,#1179,#1180),
 .UNSPECIFIED.,.F.,.F.,(4,2,4),(-0.000665395132544032,0.,0.168750214003029),
 .UNSPECIFIED.);
#18=B_SPLINE_CURVE_WITH_KNOTS('',3,(#1211,#1212,#1213,#1214,#1215,#1216),
 .UNSPECIFIED.,.F.,.F.,(4,2,4),(0.339591025107224,0.50834123910721,0.509006634242809),
 .UNSPECIFIED.);
#19=B_SPLINE_SURFACE_WITH_KNOTS('',3,3,((#1077,#1078,#1079,#1080,#1081,
#1082),(#1083,#1084,#1085,#1086,#1087,#1088),(#1089,#1090,#1091,#1092,#1093,
#1094),(#1095,#1096,#1097,#1098,#1099,#1100)),.UNSPECIFIED.,.F.,.F.,.F.,
(4,4),(4,2,4),(0.,1.),(-0.000665395135598988,0.,0.168750213999986),
 .UNSPECIFIED.);
#20=B_SPLINE_SURFACE_WITH_KNOTS('',3,3,((#1107,#1108,#1109,#1110,#1111,
#1112),(#1113,#1114,#1115,#1116,#1117,#1118),(#1119,#1120,#1121,#1122,#1123,
#1124),(#1125,#1126,#1127,#1128,#1129,#1130),(#1131,#1132,#1133,#1134,#1135,
#1136)),.UNSPECIFIED.,.F.,.F.,.F.,(4,1,4),(4,2,4),(0.,0.5,1.),(0.339591025110273,
0.508341239113302,0.509006634245846),.UNSPECIFIED.);
#21=B_SPLINE_SURFACE_WITH_KNOTS('',3,3,((#1151,#1152,#1153,#1154,#1155,
#1156),(#1157,#1158,#1159,#1160,#1161,#1162),(#1163,#1164,#1165,#1166,#1167,
#1168),(#1169,#1170,#1171,#1172,#1173,#1174)),.UNSPECIFIED.,.F.,.F.,.F.,
(4,4),(4,2,4),(0.,1.),(-0.000665395132544032,0.,0.168750214003029),
 .UNSPECIFIED.);
#22=B_SPLINE_SURFACE_WITH_KNOTS('',3,3,((#1181,#1182,#1183,#1184,#1185,
#1186),(#1187,#1188,#1189,#1190,#1191,#1192),(#1193,#1194,#1195,#1196,#1197,
#1198),(#1199,#1200,#1201,#1202,#1203,#1204),(#1205,#1206,#1207,#1208,#1209,
#1210)),.UNSPECIFIED.,.F.,.F.,.F.,(4,1,4),(4,2,4),(0.,0.5,1.),(0.339591025107224,
0.50834123910721,0.509006634242809),.UNSPECIFIED.);
#23=TOROIDAL_SURFACE('',#720,3.85,0.35);
#24=TOROIDAL_SURFACE('',#724,3.85,0.35);
#25=CYLINDRICAL_SURFACE('',#705,2.5);
#26=CYLINDRICAL_SURFACE('',#708,2.5);
#27=CYLINDRICAL_SURFACE('',#711,2.5);
#28=CYLINDRICAL_SURFACE('',#714,2.5);
#29=CYLINDRICAL_SURFACE('',#729,3.1);
#30=CYLINDRICAL_SURFACE('',#732,3.5);
#31=FACE_BOUND('',#91,.T.);
#32=FACE_BOUND('',#124,.T.);
#33=CIRCLE('',#687,2.5);
#34=CIRCLE('',#688,2.5);
#35=CIRCLE('',#689,2.5);
#36=CIRCLE('',#690,2.5);
#37=CIRCLE('',#691,3.85);
#38=CIRCLE('',#692,3.85);
#39=CIRCLE('',#706,2.5);
#40=CIRCLE('',#709,2.5);
#41=CIRCLE('',#712,2.5);
#42=CIRCLE('',#715,2.5);
#43=CIRCLE('',#721,0.350000000000001);
#44=CIRCLE('',#722,3.5);
#45=CIRCLE('',#723,0.349999999999999);
#46=CIRCLE('',#725,0.350000000000001);
#47=CIRCLE('',#726,3.5);
#48=CIRCLE('',#727,3.5);
#49=CIRCLE('',#728,0.349999999999999);
#50=CIRCLE('',#730,3.1);
#51=CIRCLE('',#731,3.1);
#52=CIRCLE('',#733,3.5);
#53=FACE_OUTER_BOUND('',#89,.T.);
#54=FACE_OUTER_BOUND('',#90,.T.);
#55=FACE_OUTER_BOUND('',#92,.T.);
#56=FACE_OUTER_BOUND('',#93,.T.);
#57=FACE_OUTER_BOUND('',#94,.T.);
#58=FACE_OUTER_BOUND('',#95,.T.);
#59=FACE_OUTER_BOUND('',#96,.T.);
#60=FACE_OUTER_BOUND('',#97,.T.);
#61=FACE_OUTER_BOUND('',#98,.T.);
#62=FACE_OUTER_BOUND('',#99,.T.);
#63=FACE_OUTER_BOUND('',#100,.T.);
#64=FACE_OUTER_BOUND('',#101,.T.);
#65=FACE_OUTER_BOUND('',#102,.T.);
#66=FACE_OUTER_BOUND('',#103,.T.);
#67=FACE_OUTER_BOUND('',#104,.T.);
#68=FACE_OUTER_BOUND('',#105,.T.);
#69=FACE_OUTER_BOUND('',#106,.T.);
#70=FACE_OUTER_BOUND('',#107,.T.);
#71=FACE_OUTER_BOUND('',#108,.T.);
#72=FACE_OUTER_BOUND('',#109,.T.);
#73=FACE_OUTER_BOUND('',#110,.T.);
#74=FACE_OUTER_BOUND('',#111,.T.);
#75=FACE_OUTER_BOUND('',#112,.T.);
#76=FACE_OUTER_BOUND('',#113,.T.);
#77=FACE_OUTER_BOUND('',#114,.T.);
#78=FACE_OUTER_BOUND('',#115,.T.);
#79=FACE_OUTER_BOUND('',#116,.T.);
#80=FACE_OUTER_BOUND('',#117,.T.);
#81=FACE_OUTER_BOUND('',#118,.T.);
#82=FACE_OUTER_BOUND('',#119,.T.);
#83=FACE_OUTER_BOUND('',#120,.T.);
#84=FACE_OUTER_BOUND('',#121,.T.);
#85=FACE_OUTER_BOUND('',#122,.T.);
#86=FACE_OUTER_BOUND('',#123,.T.);
#87=FACE_OUTER_BOUND('',#125,.T.);
#88=FACE_OUTER_BOUND('',#126,.T.);
#89=EDGE_LOOP('',(#423,#424,#425,#426));
#90=EDGE_LOOP('',(#427,#428,#429,#430,#431,#432,#433,#434,#435,#436,#437,
#438,#439,#440,#441,#442,#443,#444,#445,#446,#447,#448,#449,#450));
#91=EDGE_LOOP('',(#451,#452,#453,#454,#455,#456));
#92=EDGE_LOOP('',(#457,#458,#459,#460));
#93=EDGE_LOOP('',(#461,#462,#463,#464));
#94=EDGE_LOOP('',(#465,#466,#467,#468));
#95=EDGE_LOOP('',(#469,#470,#471,#472));
#96=EDGE_LOOP('',(#473,#474,#475,#476));
#97=EDGE_LOOP('',(#477,#478,#479,#480));
#98=EDGE_LOOP('',(#481,#482,#483,#484));
#99=EDGE_LOOP('',(#485,#486,#487,#488));
#100=EDGE_LOOP('',(#489,#490,#491,#492));
#101=EDGE_LOOP('',(#493,#494,#495,#496));
#102=EDGE_LOOP('',(#497,#498,#499,#500));
#103=EDGE_LOOP('',(#501,#502,#503,#504));
#104=EDGE_LOOP('',(#505,#506,#507,#508));
#105=EDGE_LOOP('',(#509,#510,#511,#512));
#106=EDGE_LOOP('',(#513,#514,#515,#516));
#107=EDGE_LOOP('',(#517,#518,#519,#520));
#108=EDGE_LOOP('',(#521,#522,#523,#524));
#109=EDGE_LOOP('',(#525,#526,#527,#528));
#110=EDGE_LOOP('',(#529,#530,#531,#532));
#111=EDGE_LOOP('',(#533,#534,#535,#536));
#112=EDGE_LOOP('',(#537,#538,#539,#540));
#113=EDGE_LOOP('',(#541,#542,#543,#544));
#114=EDGE_LOOP('',(#545,#546,#547,#548));
#115=EDGE_LOOP('',(#549,#550,#551,#552));
#116=EDGE_LOOP('',(#553,#554,#555));
#117=EDGE_LOOP('',(#556,#557,#558));
#118=EDGE_LOOP('',(#559,#560,#561,#562,#563));
#119=EDGE_LOOP('',(#564,#565,#566));
#120=EDGE_LOOP('',(#567,#568,#569));
#121=EDGE_LOOP('',(#570,#571,#572,#573));
#122=EDGE_LOOP('',(#574,#575,#576,#577,#578,#579,#580,#581,#582,#583));
#123=EDGE_LOOP('',(#584));
#124=EDGE_LOOP('',(#585));
#125=EDGE_LOOP('',(#586,#587,#588,#589,#590,#591,#592,#593,#594,#595,#596,
#597,#598,#599,#600,#601,#602,#603,#604,#605,#606,#607,#608,#609));
#126=EDGE_LOOP('',(#610));
#127=LINE('',#917,#197);
#128=LINE('',#919,#198);
#129=LINE('',#921,#199);
#130=LINE('',#922,#200);
#131=LINE('',#925,#201);
#132=LINE('',#927,#202);
#133=LINE('',#929,#203);
#134=LINE('',#933,#204);
#135=LINE('',#935,#205);
#136=LINE('',#937,#206);
#137=LINE('',#939,#207);
#138=LINE('',#941,#208);
#139=LINE('',#945,#209);
#140=LINE('',#947,#210);
#141=LINE('',#949,#211);
#142=LINE('',#951,#212);
#143=LINE('',#953,#213);
#144=LINE('',#957,#214);
#145=LINE('',#959,#215);
#146=LINE('',#961,#216);
#147=LINE('',#963,#217);
#148=LINE('',#965,#218);
#149=LINE('',#968,#219);
#150=LINE('',#971,#220);
#151=LINE('',#973,#221);
#152=LINE('',#977,#222);
#153=LINE('',#979,#223);
#154=LINE('',#983,#224);
#155=LINE('',#984,#225);
#156=LINE('',#987,#226);
#157=LINE('',#988,#227);
#158=LINE('',#991,#228);
#159=LINE('',#993,#229);
#160=LINE('',#994,#230);
#161=LINE('',#997,#231);
#162=LINE('',#998,#232);
#163=LINE('',#1001,#233);
#164=LINE('',#1002,#234);
#165=LINE('',#1006,#235);
#166=LINE('',#1007,#236);
#167=LINE('',#1008,#237);
#168=LINE('',#1011,#238);
#169=LINE('',#1012,#239);
#170=LINE('',#1015,#240);
#171=LINE('',#1017,#241);
#172=LINE('',#1018,#242);
#173=LINE('',#1021,#243);
#174=LINE('',#1022,#244);
#175=LINE('',#1026,#245);
#176=LINE('',#1027,#246);
#177=LINE('',#1028,#247);
#178=LINE('',#1030,#248);
#179=LINE('',#1033,#249);
#180=LINE('',#1034,#250);
#181=LINE('',#1039,#251);
#182=LINE('',#1040,#252);
#183=LINE('',#1042,#253);
#184=LINE('',#1045,#254);
#185=LINE('',#1048,#255);
#186=LINE('',#1053,#256);
#187=LINE('',#1054,#257);
#188=LINE('',#1056,#258);
#189=LINE('',#1059,#259);
#190=LINE('',#1062,#260);
#191=LINE('',#1064,#261);
#192=LINE('',#1066,#262);
#193=LINE('',#1068,#263);
#194=LINE('',#1070,#264);
#195=LINE('',#1221,#265);
#196=LINE('',#1226,#266);
#197=VECTOR('',#741,10.);
#198=VECTOR('',#742,10.);
#199=VECTOR('',#743,10.);
#200=VECTOR('',#744,10.);
#201=VECTOR('',#747,10.);
#202=VECTOR('',#748,10.);
#203=VECTOR('',#749,10.);
#204=VECTOR('',#752,10.);
#205=VECTOR('',#753,10.);
#206=VECTOR('',#754,10.);
#207=VECTOR('',#755,10.);
#208=VECTOR('',#756,10.);
#209=VECTOR('',#759,10.);
#210=VECTOR('',#760,10.);
#211=VECTOR('',#761,10.);
#212=VECTOR('',#762,10.);
#213=VECTOR('',#763,10.);
#214=VECTOR('',#766,10.);
#215=VECTOR('',#767,10.);
#216=VECTOR('',#768,10.);
#217=VECTOR('',#769,10.);
#218=VECTOR('',#770,10.);
#219=VECTOR('',#773,10.);
#220=VECTOR('',#774,10.);
#221=VECTOR('',#775,10.);
#222=VECTOR('',#778,10.);
#223=VECTOR('',#779,10.);
#224=VECTOR('',#784,10.);
#225=VECTOR('',#785,10.);
#226=VECTOR('',#788,10.);
#227=VECTOR('',#789,10.);
#228=VECTOR('',#792,10.);
#229=VECTOR('',#793,10.);
#230=VECTOR('',#794,10.);
#231=VECTOR('',#797,10.);
#232=VECTOR('',#798,10.);
#233=VECTOR('',#801,10.);
#234=VECTOR('',#802,10.);
#235=VECTOR('',#805,10.);
#236=VECTOR('',#806,10.);
#237=VECTOR('',#807,10.);
#238=VECTOR('',#810,10.);
#239=VECTOR('',#811,10.);
#240=VECTOR('',#814,10.);
#241=VECTOR('',#815,10.);
#242=VECTOR('',#816,10.);
#243=VECTOR('',#819,10.);
#244=VECTOR('',#820,10.);
#245=VECTOR('',#823,10.);
#246=VECTOR('',#824,10.);
#247=VECTOR('',#825,10.);
#248=VECTOR('',#828,10.);
#249=VECTOR('',#831,10.);
#250=VECTOR('',#832,10.);
#251=VECTOR('',#837,10.);
#252=VECTOR('',#838,10.);
#253=VECTOR('',#841,10.);
#254=VECTOR('',#844,10.);
#255=VECTOR('',#849,10.);
#256=VECTOR('',#854,10.);
#257=VECTOR('',#855,10.);
#258=VECTOR('',#858,10.);
#259=VECTOR('',#861,10.);
#260=VECTOR('',#864,10.);
#261=VECTOR('',#867,10.);
#262=VECTOR('',#870,10.);
#263=VECTOR('',#873,10.);
#264=VECTOR('',#876,10.);
#265=VECTOR('',#899,3.1);
#266=VECTOR('',#906,3.5);
#267=VERTEX_POINT('',#915);
#268=VERTEX_POINT('',#916);
#269=VERTEX_POINT('',#918);
#270=VERTEX_POINT('',#920);
#271=VERTEX_POINT('',#924);
#272=VERTEX_POINT('',#926);
#273=VERTEX_POINT('',#928);
#274=VERTEX_POINT('',#930);
#275=VERTEX_POINT('',#932);
#276=VERTEX_POINT('',#934);
#277=VERTEX_POINT('',#936);
#278=VERTEX_POINT('',#938);
#279=VERTEX_POINT('',#940);
#280=VERTEX_POINT('',#942);
#281=VERTEX_POINT('',#944);
#282=VERTEX_POINT('',#946);
#283=VERTEX_POINT('',#948);
#284=VERTEX_POINT('',#950);
#285=VERTEX_POINT('',#952);
#286=VERTEX_POINT('',#954);
#287=VERTEX_POINT('',#956);
#288=VERTEX_POINT('',#958);
#289=VERTEX_POINT('',#960);
#290=VERTEX_POINT('',#962);
#291=VERTEX_POINT('',#964);
#292=VERTEX_POINT('',#966);
#293=VERTEX_POINT('',#969);
#294=VERTEX_POINT('',#970);
#295=VERTEX_POINT('',#972);
#296=VERTEX_POINT('',#974);
#297=VERTEX_POINT('',#976);
#298=VERTEX_POINT('',#978);
#299=VERTEX_POINT('',#982);
#300=VERTEX_POINT('',#986);
#301=VERTEX_POINT('',#990);
#302=VERTEX_POINT('',#992);
#303=VERTEX_POINT('',#996);
#304=VERTEX_POINT('',#1000);
#305=VERTEX_POINT('',#1004);
#306=VERTEX_POINT('',#1005);
#307=VERTEX_POINT('',#1010);
#308=VERTEX_POINT('',#1014);
#309=VERTEX_POINT('',#1016);
#310=VERTEX_POINT('',#1020);
#311=VERTEX_POINT('',#1024);
#312=VERTEX_POINT('',#1025);
#313=VERTEX_POINT('',#1032);
#314=VERTEX_POINT('',#1036);
#315=VERTEX_POINT('',#1037);
#316=VERTEX_POINT('',#1044);
#317=VERTEX_POINT('',#1050);
#318=VERTEX_POINT('',#1051);
#319=VERTEX_POINT('',#1058);
#320=VERTEX_POINT('',#1060);
#321=VERTEX_POINT('',#1072);
#322=VERTEX_POINT('',#1074);
#323=VERTEX_POINT('',#1144);
#324=VERTEX_POINT('',#1146);
#325=VERTEX_POINT('',#1148);
#326=VERTEX_POINT('',#1218);
#327=VERTEX_POINT('',#1220);
#328=VERTEX_POINT('',#1224);
#329=EDGE_CURVE('',#267,#268,#127,.T.);
#330=EDGE_CURVE('',#268,#269,#128,.T.);
#331=EDGE_CURVE('',#269,#270,#129,.T.);
#332=EDGE_CURVE('',#270,#267,#130,.T.);
#333=EDGE_CURVE('',#271,#269,#131,.T.);
#334=EDGE_CURVE('',#272,#271,#132,.T.);
#335=EDGE_CURVE('',#273,#272,#133,.T.);
#336=EDGE_CURVE('',#274,#273,#33,.T.);
#337=EDGE_CURVE('',#274,#275,#134,.T.);
#338=EDGE_CURVE('',#276,#275,#135,.T.);
#339=EDGE_CURVE('',#276,#277,#136,.T.);
#340=EDGE_CURVE('',#278,#277,#137,.T.);
#341=EDGE_CURVE('',#278,#279,#138,.T.);
#342=EDGE_CURVE('',#280,#279,#34,.T.);
#343=EDGE_CURVE('',#281,#280,#139,.T.);
#344=EDGE_CURVE('',#282,#281,#140,.T.);
#345=EDGE_CURVE('',#282,#283,#141,.T.);
#346=EDGE_CURVE('',#284,#283,#142,.T.);
#347=EDGE_CURVE('',#284,#285,#143,.T.);
#348=EDGE_CURVE('',#286,#285,#35,.T.);
#349=EDGE_CURVE('',#286,#287,#144,.T.);
#350=EDGE_CURVE('',#288,#287,#145,.T.);
#351=EDGE_CURVE('',#288,#289,#146,.T.);
#352=EDGE_CURVE('',#290,#289,#147,.T.);
#353=EDGE_CURVE('',#290,#291,#148,.T.);
#354=EDGE_CURVE('',#292,#291,#36,.T.);
#355=EDGE_CURVE('',#292,#270,#149,.T.);
#356=EDGE_CURVE('',#293,#294,#150,.T.);
#357=EDGE_CURVE('',#294,#295,#151,.T.);
#358=EDGE_CURVE('',#296,#295,#37,.T.);
#359=EDGE_CURVE('',#297,#296,#152,.T.);
#360=EDGE_CURVE('',#298,#297,#153,.T.);
#361=EDGE_CURVE('',#293,#298,#38,.T.);
#362=EDGE_CURVE('',#299,#268,#154,.T.);
#363=EDGE_CURVE('',#271,#299,#155,.T.);
#364=EDGE_CURVE('',#299,#300,#156,.T.);
#365=EDGE_CURVE('',#300,#272,#157,.T.);
#366=EDGE_CURVE('',#275,#301,#158,.T.);
#367=EDGE_CURVE('',#301,#302,#159,.T.);
#368=EDGE_CURVE('',#302,#276,#160,.T.);
#369=EDGE_CURVE('',#303,#302,#161,.T.);
#370=EDGE_CURVE('',#277,#303,#162,.T.);
#371=EDGE_CURVE('',#303,#304,#163,.T.);
#372=EDGE_CURVE('',#304,#278,#164,.T.);
#373=EDGE_CURVE('',#305,#306,#165,.T.);
#374=EDGE_CURVE('',#306,#282,#166,.T.);
#375=EDGE_CURVE('',#281,#305,#167,.T.);
#376=EDGE_CURVE('',#307,#280,#168,.T.);
#377=EDGE_CURVE('',#305,#307,#169,.T.);
#378=EDGE_CURVE('',#289,#308,#170,.T.);
#379=EDGE_CURVE('',#308,#309,#171,.T.);
#380=EDGE_CURVE('',#309,#290,#172,.T.);
#381=EDGE_CURVE('',#310,#288,#173,.T.);
#382=EDGE_CURVE('',#308,#310,#174,.T.);
#383=EDGE_CURVE('',#311,#312,#175,.T.);
#384=EDGE_CURVE('',#312,#284,#176,.T.);
#385=EDGE_CURVE('',#283,#311,#177,.T.);
#386=EDGE_CURVE('',#311,#306,#178,.T.);
#387=EDGE_CURVE('',#287,#313,#179,.T.);
#388=EDGE_CURVE('',#313,#310,#180,.T.);
#389=EDGE_CURVE('',#314,#315,#39,.T.);
#390=EDGE_CURVE('',#315,#274,#181,.T.);
#391=EDGE_CURVE('',#273,#314,#182,.T.);
#392=EDGE_CURVE('',#301,#315,#183,.T.);
#393=EDGE_CURVE('',#279,#316,#184,.T.);
#394=EDGE_CURVE('',#316,#307,#40,.T.);
#395=EDGE_CURVE('',#316,#304,#185,.T.);
#396=EDGE_CURVE('',#317,#318,#41,.T.);
#397=EDGE_CURVE('',#318,#286,#186,.T.);
#398=EDGE_CURVE('',#285,#317,#187,.T.);
#399=EDGE_CURVE('',#313,#318,#188,.T.);
#400=EDGE_CURVE('',#291,#319,#189,.T.);
#401=EDGE_CURVE('',#319,#320,#42,.T.);
#402=EDGE_CURVE('',#320,#292,#190,.T.);
#403=EDGE_CURVE('',#319,#309,#191,.T.);
#404=EDGE_CURVE('',#314,#300,#192,.T.);
#405=EDGE_CURVE('',#267,#320,#193,.T.);
#406=EDGE_CURVE('',#317,#312,#194,.T.);
#407=EDGE_CURVE('',#295,#321,#43,.T.);
#408=EDGE_CURVE('',#321,#322,#44,.T.);
#409=EDGE_CURVE('',#322,#296,#45,.T.);
#410=EDGE_CURVE('',#294,#321,#15,.T.);
#411=EDGE_CURVE('',#322,#297,#16,.T.);
#412=EDGE_CURVE('',#298,#323,#46,.T.);
#413=EDGE_CURVE('',#323,#324,#47,.T.);
#414=EDGE_CURVE('',#324,#325,#48,.T.);
#415=EDGE_CURVE('',#325,#293,#49,.T.);
#416=EDGE_CURVE('',#297,#323,#17,.T.);
#417=EDGE_CURVE('',#325,#294,#18,.T.);
#418=EDGE_CURVE('',#326,#326,#50,.T.);
#419=EDGE_CURVE('',#326,#327,#195,.T.);
#420=EDGE_CURVE('',#327,#327,#51,.T.);
#421=EDGE_CURVE('',#328,#328,#52,.T.);
#422=EDGE_CURVE('',#328,#324,#196,.T.);
#423=ORIENTED_EDGE('',*,*,#329,.T.);
#424=ORIENTED_EDGE('',*,*,#330,.T.);
#425=ORIENTED_EDGE('',*,*,#331,.T.);
#426=ORIENTED_EDGE('',*,*,#332,.T.);
#427=ORIENTED_EDGE('',*,*,#331,.F.);
#428=ORIENTED_EDGE('',*,*,#333,.F.);
#429=ORIENTED_EDGE('',*,*,#334,.F.);
#430=ORIENTED_EDGE('',*,*,#335,.F.);
#431=ORIENTED_EDGE('',*,*,#336,.F.);
#432=ORIENTED_EDGE('',*,*,#337,.T.);
#433=ORIENTED_EDGE('',*,*,#338,.F.);
#434=ORIENTED_EDGE('',*,*,#339,.T.);
#435=ORIENTED_EDGE('',*,*,#340,.F.);
#436=ORIENTED_EDGE('',*,*,#341,.T.);
#437=ORIENTED_EDGE('',*,*,#342,.F.);
#438=ORIENTED_EDGE('',*,*,#343,.F.);
#439=ORIENTED_EDGE('',*,*,#344,.F.);
#440=ORIENTED_EDGE('',*,*,#345,.T.);
#441=ORIENTED_EDGE('',*,*,#346,.F.);
#442=ORIENTED_EDGE('',*,*,#347,.T.);
#443=ORIENTED_EDGE('',*,*,#348,.F.);
#444=ORIENTED_EDGE('',*,*,#349,.T.);
#445=ORIENTED_EDGE('',*,*,#350,.F.);
#446=ORIENTED_EDGE('',*,*,#351,.T.);
#447=ORIENTED_EDGE('',*,*,#352,.F.);
#448=ORIENTED_EDGE('',*,*,#353,.T.);
#449=ORIENTED_EDGE('',*,*,#354,.F.);
#450=ORIENTED_EDGE('',*,*,#355,.T.);
#451=ORIENTED_EDGE('',*,*,#356,.T.);
#452=ORIENTED_EDGE('',*,*,#357,.T.);
#453=ORIENTED_EDGE('',*,*,#358,.F.);
#454=ORIENTED_EDGE('',*,*,#359,.F.);
#455=ORIENTED_EDGE('',*,*,#360,.F.);
#456=ORIENTED_EDGE('',*,*,#361,.F.);
#457=ORIENTED_EDGE('',*,*,#330,.F.);
#458=ORIENTED_EDGE('',*,*,#362,.F.);
#459=ORIENTED_EDGE('',*,*,#363,.F.);
#460=ORIENTED_EDGE('',*,*,#333,.T.);
#461=ORIENTED_EDGE('',*,*,#364,.T.);
#462=ORIENTED_EDGE('',*,*,#365,.T.);
#463=ORIENTED_EDGE('',*,*,#334,.T.);
#464=ORIENTED_EDGE('',*,*,#363,.T.);
#465=ORIENTED_EDGE('',*,*,#338,.T.);
#466=ORIENTED_EDGE('',*,*,#366,.T.);
#467=ORIENTED_EDGE('',*,*,#367,.T.);
#468=ORIENTED_EDGE('',*,*,#368,.T.);
#469=ORIENTED_EDGE('',*,*,#368,.F.);
#470=ORIENTED_EDGE('',*,*,#369,.F.);
#471=ORIENTED_EDGE('',*,*,#370,.F.);
#472=ORIENTED_EDGE('',*,*,#339,.F.);
#473=ORIENTED_EDGE('',*,*,#340,.T.);
#474=ORIENTED_EDGE('',*,*,#370,.T.);
#475=ORIENTED_EDGE('',*,*,#371,.T.);
#476=ORIENTED_EDGE('',*,*,#372,.T.);
#477=ORIENTED_EDGE('',*,*,#373,.T.);
#478=ORIENTED_EDGE('',*,*,#374,.T.);
#479=ORIENTED_EDGE('',*,*,#344,.T.);
#480=ORIENTED_EDGE('',*,*,#375,.T.);
#481=ORIENTED_EDGE('',*,*,#375,.F.);
#482=ORIENTED_EDGE('',*,*,#343,.T.);
#483=ORIENTED_EDGE('',*,*,#376,.F.);
#484=ORIENTED_EDGE('',*,*,#377,.F.);
#485=ORIENTED_EDGE('',*,*,#352,.T.);
#486=ORIENTED_EDGE('',*,*,#378,.T.);
#487=ORIENTED_EDGE('',*,*,#379,.T.);
#488=ORIENTED_EDGE('',*,*,#380,.T.);
#489=ORIENTED_EDGE('',*,*,#378,.F.);
#490=ORIENTED_EDGE('',*,*,#351,.F.);
#491=ORIENTED_EDGE('',*,*,#381,.F.);
#492=ORIENTED_EDGE('',*,*,#382,.F.);
#493=ORIENTED_EDGE('',*,*,#383,.T.);
#494=ORIENTED_EDGE('',*,*,#384,.T.);
#495=ORIENTED_EDGE('',*,*,#346,.T.);
#496=ORIENTED_EDGE('',*,*,#385,.T.);
#497=ORIENTED_EDGE('',*,*,#374,.F.);
#498=ORIENTED_EDGE('',*,*,#386,.F.);
#499=ORIENTED_EDGE('',*,*,#385,.F.);
#500=ORIENTED_EDGE('',*,*,#345,.F.);
#501=ORIENTED_EDGE('',*,*,#350,.T.);
#502=ORIENTED_EDGE('',*,*,#387,.T.);
#503=ORIENTED_EDGE('',*,*,#388,.T.);
#504=ORIENTED_EDGE('',*,*,#381,.T.);
#505=ORIENTED_EDGE('',*,*,#389,.T.);
#506=ORIENTED_EDGE('',*,*,#390,.T.);
#507=ORIENTED_EDGE('',*,*,#336,.T.);
#508=ORIENTED_EDGE('',*,*,#391,.T.);
#509=ORIENTED_EDGE('',*,*,#366,.F.);
#510=ORIENTED_EDGE('',*,*,#337,.F.);
#511=ORIENTED_EDGE('',*,*,#390,.F.);
#512=ORIENTED_EDGE('',*,*,#392,.F.);
#513=ORIENTED_EDGE('',*,*,#342,.T.);
#514=ORIENTED_EDGE('',*,*,#393,.T.);
#515=ORIENTED_EDGE('',*,*,#394,.T.);
#516=ORIENTED_EDGE('',*,*,#376,.T.);
#517=ORIENTED_EDGE('',*,*,#372,.F.);
#518=ORIENTED_EDGE('',*,*,#395,.F.);
#519=ORIENTED_EDGE('',*,*,#393,.F.);
#520=ORIENTED_EDGE('',*,*,#341,.F.);
#521=ORIENTED_EDGE('',*,*,#396,.T.);
#522=ORIENTED_EDGE('',*,*,#397,.T.);
#523=ORIENTED_EDGE('',*,*,#348,.T.);
#524=ORIENTED_EDGE('',*,*,#398,.T.);
#525=ORIENTED_EDGE('',*,*,#387,.F.);
#526=ORIENTED_EDGE('',*,*,#349,.F.);
#527=ORIENTED_EDGE('',*,*,#397,.F.);
#528=ORIENTED_EDGE('',*,*,#399,.F.);
#529=ORIENTED_EDGE('',*,*,#354,.T.);
#530=ORIENTED_EDGE('',*,*,#400,.T.);
#531=ORIENTED_EDGE('',*,*,#401,.T.);
#532=ORIENTED_EDGE('',*,*,#402,.T.);
#533=ORIENTED_EDGE('',*,*,#380,.F.);
#534=ORIENTED_EDGE('',*,*,#403,.F.);
#535=ORIENTED_EDGE('',*,*,#400,.F.);
#536=ORIENTED_EDGE('',*,*,#353,.F.);
#537=ORIENTED_EDGE('',*,*,#365,.F.);
#538=ORIENTED_EDGE('',*,*,#404,.F.);
#539=ORIENTED_EDGE('',*,*,#391,.F.);
#540=ORIENTED_EDGE('',*,*,#335,.T.);
#541=ORIENTED_EDGE('',*,*,#332,.F.);
#542=ORIENTED_EDGE('',*,*,#355,.F.);
#543=ORIENTED_EDGE('',*,*,#402,.F.);
#544=ORIENTED_EDGE('',*,*,#405,.F.);
#545=ORIENTED_EDGE('',*,*,#384,.F.);
#546=ORIENTED_EDGE('',*,*,#406,.F.);
#547=ORIENTED_EDGE('',*,*,#398,.F.);
#548=ORIENTED_EDGE('',*,*,#347,.F.);
#549=ORIENTED_EDGE('',*,*,#407,.T.);
#550=ORIENTED_EDGE('',*,*,#408,.T.);
#551=ORIENTED_EDGE('',*,*,#409,.T.);
#552=ORIENTED_EDGE('',*,*,#358,.T.);
#553=ORIENTED_EDGE('',*,*,#407,.F.);
#554=ORIENTED_EDGE('',*,*,#357,.F.);
#555=ORIENTED_EDGE('',*,*,#410,.T.);
#556=ORIENTED_EDGE('',*,*,#409,.F.);
#557=ORIENTED_EDGE('',*,*,#411,.T.);
#558=ORIENTED_EDGE('',*,*,#359,.T.);
#559=ORIENTED_EDGE('',*,*,#412,.T.);
#560=ORIENTED_EDGE('',*,*,#413,.T.);
#561=ORIENTED_EDGE('',*,*,#414,.T.);
#562=ORIENTED_EDGE('',*,*,#415,.T.);
#563=ORIENTED_EDGE('',*,*,#361,.T.);
#564=ORIENTED_EDGE('',*,*,#412,.F.);
#565=ORIENTED_EDGE('',*,*,#360,.T.);
#566=ORIENTED_EDGE('',*,*,#416,.T.);
#567=ORIENTED_EDGE('',*,*,#415,.F.);
#568=ORIENTED_EDGE('',*,*,#417,.T.);
#569=ORIENTED_EDGE('',*,*,#356,.F.);
#570=ORIENTED_EDGE('',*,*,#418,.F.);
#571=ORIENTED_EDGE('',*,*,#419,.T.);
#572=ORIENTED_EDGE('',*,*,#420,.F.);
#573=ORIENTED_EDGE('',*,*,#419,.F.);
#574=ORIENTED_EDGE('',*,*,#421,.F.);
#575=ORIENTED_EDGE('',*,*,#422,.T.);
#576=ORIENTED_EDGE('',*,*,#413,.F.);
#577=ORIENTED_EDGE('',*,*,#416,.F.);
#578=ORIENTED_EDGE('',*,*,#411,.F.);
#579=ORIENTED_EDGE('',*,*,#408,.F.);
#580=ORIENTED_EDGE('',*,*,#410,.F.);
#581=ORIENTED_EDGE('',*,*,#417,.F.);
#582=ORIENTED_EDGE('',*,*,#414,.F.);
#583=ORIENTED_EDGE('',*,*,#422,.F.);
#584=ORIENTED_EDGE('',*,*,#421,.T.);
#585=ORIENTED_EDGE('',*,*,#418,.T.);
#586=ORIENTED_EDGE('',*,*,#329,.F.);
#587=ORIENTED_EDGE('',*,*,#405,.T.);
#588=ORIENTED_EDGE('',*,*,#401,.F.);
#589=ORIENTED_EDGE('',*,*,#403,.T.);
#590=ORIENTED_EDGE('',*,*,#379,.F.);
#591=ORIENTED_EDGE('',*,*,#382,.T.);
#592=ORIENTED_EDGE('',*,*,#388,.F.);
#593=ORIENTED_EDGE('',*,*,#399,.T.);
#594=ORIENTED_EDGE('',*,*,#396,.F.);
#595=ORIENTED_EDGE('',*,*,#406,.T.);
#596=ORIENTED_EDGE('',*,*,#383,.F.);
#597=ORIENTED_EDGE('',*,*,#386,.T.);
#598=ORIENTED_EDGE('',*,*,#373,.F.);
#599=ORIENTED_EDGE('',*,*,#377,.T.);
#600=ORIENTED_EDGE('',*,*,#394,.F.);
#601=ORIENTED_EDGE('',*,*,#395,.T.);
#602=ORIENTED_EDGE('',*,*,#371,.F.);
#603=ORIENTED_EDGE('',*,*,#369,.T.);
#604=ORIENTED_EDGE('',*,*,#367,.F.);
#605=ORIENTED_EDGE('',*,*,#392,.T.);
#606=ORIENTED_EDGE('',*,*,#389,.F.);
#607=ORIENTED_EDGE('',*,*,#404,.T.);
#608=ORIENTED_EDGE('',*,*,#364,.F.);
#609=ORIENTED_EDGE('',*,*,#362,.T.);
#610=ORIENTED_EDGE('',*,*,#420,.T.);
#611=PLANE('',#685);
#612=PLANE('',#686);
#613=PLANE('',#693);
#614=PLANE('',#694);
#615=PLANE('',#695);
#616=PLANE('',#696);
#617=PLANE('',#697);
#618=PLANE('',#698);
#619=PLANE('',#699);
#620=PLANE('',#700);
#621=PLANE('',#701);
#622=PLANE('',#702);
#623=PLANE('',#703);
#624=PLANE('',#704);
#625=PLANE('',#707);
#626=PLANE('',#710);
#627=PLANE('',#713);
#628=PLANE('',#716);
#629=PLANE('',#717);
#630=PLANE('',#718);
#631=PLANE('',#719);
#632=PLANE('',#734);
#633=PLANE('',#735);
#634=PLANE('',#736);
#635=ADVANCED_FACE('',(#53),#611,.T.);
#636=ADVANCED_FACE('',(#54,#31),#612,.F.);
#637=ADVANCED_FACE('',(#55),#613,.T.);
#638=ADVANCED_FACE('',(#56),#614,.T.);
#639=ADVANCED_FACE('',(#57),#615,.T.);
#640=ADVANCED_FACE('',(#58),#616,.T.);
#641=ADVANCED_FACE('',(#59),#617,.T.);
#642=ADVANCED_FACE('',(#60),#618,.T.);
#643=ADVANCED_FACE('',(#61),#619,.T.);
#644=ADVANCED_FACE('',(#62),#620,.T.);
#645=ADVANCED_FACE('',(#63),#621,.T.);
#646=ADVANCED_FACE('',(#64),#622,.T.);
#647=ADVANCED_FACE('',(#65),#623,.T.);
#648=ADVANCED_FACE('',(#66),#624,.T.);
#649=ADVANCED_FACE('',(#67),#25,.F.);
#650=ADVANCED_FACE('',(#68),#625,.T.);
#651=ADVANCED_FACE('',(#69),#26,.F.);
#652=ADVANCED_FACE('',(#70),#626,.T.);
#653=ADVANCED_FACE('',(#71),#27,.F.);
#654=ADVANCED_FACE('',(#72),#627,.T.);
#655=ADVANCED_FACE('',(#73),#28,.F.);
#656=ADVANCED_FACE('',(#74),#628,.T.);
#657=ADVANCED_FACE('',(#75),#629,.T.);
#658=ADVANCED_FACE('',(#76),#630,.T.);
#659=ADVANCED_FACE('',(#77),#631,.T.);
#660=ADVANCED_FACE('',(#78),#23,.F.);
#661=ADVANCED_FACE('',(#79),#19,.T.);
#662=ADVANCED_FACE('',(#80),#20,.T.);
#663=ADVANCED_FACE('',(#81),#24,.F.);
#664=ADVANCED_FACE('',(#82),#21,.T.);
#665=ADVANCED_FACE('',(#83),#22,.T.);
#666=ADVANCED_FACE('',(#84),#29,.F.);
#667=ADVANCED_FACE('',(#85),#30,.T.);
#668=ADVANCED_FACE('',(#86,#32),#632,.F.);
#669=ADVANCED_FACE('',(#87),#633,.T.);
#670=ADVANCED_FACE('',(#88),#634,.F.);
#671=CLOSED_SHELL('',(#635,#636,#637,#638,#639,#640,#641,#642,#643,#644,
#645,#646,#647,#648,#649,#650,#651,#652,#653,#654,#655,#656,#657,#658,#659,
#660,#661,#662,#663,#664,#665,#666,#667,#668,#669,#670));
#672=DERIVED_UNIT_ELEMENT(#674,1.);
#673=DERIVED_UNIT_ELEMENT(#1235,-3.);
#674=(
MASS_UNIT()
NAMED_UNIT(*)
SI_UNIT(.KILO.,.GRAM.)
);
#675=DERIVED_UNIT((#672,#673));
#676=MEASURE_REPRESENTATION_ITEM('density measure',
POSITIVE_RATIO_MEASURE(1290.),#675);
#677=PROPERTY_DEFINITION_REPRESENTATION(#682,#679);
#678=PROPERTY_DEFINITION_REPRESENTATION(#683,#680);
#679=REPRESENTATION('material name',(#681),#1232);
#680=REPRESENTATION('density',(#676),#1232);
#681=DESCRIPTIVE_REPRESENTATION_ITEM('Plastic','Plastic');
#682=PROPERTY_DEFINITION('material property','material name',#1242);
#683=PROPERTY_DEFINITION('material property','density of part',#1242);
#684=AXIS2_PLACEMENT_3D('',#913,#737,#738);
#685=AXIS2_PLACEMENT_3D('',#914,#739,#740);
#686=AXIS2_PLACEMENT_3D('',#923,#745,#746);
#687=AXIS2_PLACEMENT_3D('',#931,#750,#751);
#688=AXIS2_PLACEMENT_3D('',#943,#757,#758);
#689=AXIS2_PLACEMENT_3D('',#955,#764,#765);
#690=AXIS2_PLACEMENT_3D('',#967,#771,#772);
#691=AXIS2_PLACEMENT_3D('',#975,#776,#777);
#692=AXIS2_PLACEMENT_3D('',#980,#780,#781);
#693=AXIS2_PLACEMENT_3D('',#981,#782,#783);
#694=AXIS2_PLACEMENT_3D('',#985,#786,#787);
#695=AXIS2_PLACEMENT_3D('',#989,#790,#791);
#696=AXIS2_PLACEMENT_3D('',#995,#795,#796);
#697=AXIS2_PLACEMENT_3D('',#999,#799,#800);
#698=AXIS2_PLACEMENT_3D('',#1003,#803,#804);
#699=AXIS2_PLACEMENT_3D('',#1009,#808,#809);
#700=AXIS2_PLACEMENT_3D('',#1013,#812,#813);
#701=AXIS2_PLACEMENT_3D('',#1019,#817,#818);
#702=AXIS2_PLACEMENT_3D('',#1023,#821,#822);
#703=AXIS2_PLACEMENT_3D('',#1029,#826,#827);
#704=AXIS2_PLACEMENT_3D('',#1031,#829,#830);
#705=AXIS2_PLACEMENT_3D('',#1035,#833,#834);
#706=AXIS2_PLACEMENT_3D('',#1038,#835,#836);
#707=AXIS2_PLACEMENT_3D('',#1041,#839,#840);
#708=AXIS2_PLACEMENT_3D('',#1043,#842,#843);
#709=AXIS2_PLACEMENT_3D('',#1046,#845,#846);
#710=AXIS2_PLACEMENT_3D('',#1047,#847,#848);
#711=AXIS2_PLACEMENT_3D('',#1049,#850,#851);
#712=AXIS2_PLACEMENT_3D('',#1052,#852,#853);
#713=AXIS2_PLACEMENT_3D('',#1055,#856,#857);
#714=AXIS2_PLACEMENT_3D('',#1057,#859,#860);
#715=AXIS2_PLACEMENT_3D('',#1061,#862,#863);
#716=AXIS2_PLACEMENT_3D('',#1063,#865,#866);
#717=AXIS2_PLACEMENT_3D('',#1065,#868,#869);
#718=AXIS2_PLACEMENT_3D('',#1067,#871,#872);
#719=AXIS2_PLACEMENT_3D('',#1069,#874,#875);
#720=AXIS2_PLACEMENT_3D('',#1071,#877,#878);
#721=AXIS2_PLACEMENT_3D('',#1073,#879,#880);
#722=AXIS2_PLACEMENT_3D('',#1075,#881,#882);
#723=AXIS2_PLACEMENT_3D('',#1076,#883,#884);
#724=AXIS2_PLACEMENT_3D('',#1143,#885,#886);
#725=AXIS2_PLACEMENT_3D('',#1145,#887,#888);
#726=AXIS2_PLACEMENT_3D('',#1147,#889,#890);
#727=AXIS2_PLACEMENT_3D('',#1149,#891,#892);
#728=AXIS2_PLACEMENT_3D('',#1150,#893,#894);
#729=AXIS2_PLACEMENT_3D('',#1217,#895,#896);
#730=AXIS2_PLACEMENT_3D('',#1219,#897,#898);
#731=AXIS2_PLACEMENT_3D('',#1222,#900,#901);
#732=AXIS2_PLACEMENT_3D('',#1223,#902,#903);
#733=AXIS2_PLACEMENT_3D('',#1225,#904,#905);
#734=AXIS2_PLACEMENT_3D('',#1227,#907,#908);
#735=AXIS2_PLACEMENT_3D('',#1228,#909,#910);
#736=AXIS2_PLACEMENT_3D('',#1229,#911,#912);
#737=DIRECTION('axis',(0.,0.,1.));
#738=DIRECTION('refdir',(1.,0.,0.));
#739=DIRECTION('center_axis',(0.,0.707106781186551,0.707106781186544));
#740=DIRECTION('ref_axis',(1.,0.,0.));
#741=DIRECTION('',(0.,0.707106781186544,-0.707106781186551));
#742=DIRECTION('',(-1.,0.,0.));
#743=DIRECTION('',(0.,-0.707106781186544,0.707106781186551));
#744=DIRECTION('',(1.,0.,0.));
#745=DIRECTION('center_axis',(1.,0.,0.));
#746=DIRECTION('ref_axis',(0.,1.,0.));
#747=DIRECTION('',(0.,0.,1.));
#748=DIRECTION('',(0.,0.707106781186498,0.707106781186598));
#749=DIRECTION('',(0.,1.,-7.20291036498895E-15));
#750=DIRECTION('center_axis',(-1.,0.,0.));
#751=DIRECTION('ref_axis',(0.,-0.707106781186545,0.70710678118655));
#752=DIRECTION('',(0.,0.,-1.));
#753=DIRECTION('',(0.,0.707106781186548,0.707106781186548));
#754=DIRECTION('',(0.,-1.,0.));
#755=DIRECTION('',(0.,0.707106781186548,-0.707106781186548));
#756=DIRECTION('',(0.,0.,1.));
#757=DIRECTION('center_axis',(-1.,0.,0.));
#758=DIRECTION('ref_axis',(0.,0.70710678118655,0.707106781186545));
#759=DIRECTION('',(0.,1.,-7.20291036498895E-15));
#760=DIRECTION('',(0.,0.707106781186545,-0.70710678118655));
#761=DIRECTION('',(0.,0.,1.));
#762=DIRECTION('',(0.,-0.707106781186464,-0.707106781186632));
#763=DIRECTION('',(0.,1.,-1.21312174346203E-14));
#764=DIRECTION('center_axis',(-1.,0.,0.));
#765=DIRECTION('ref_axis',(0.,0.707106781186543,-0.707106781186552));
#766=DIRECTION('',(0.,0.,1.));
#767=DIRECTION('',(0.,-0.707106781186547,-0.707106781186548));
#768=DIRECTION('',(0.,1.,0.));
#769=DIRECTION('',(0.,-0.707106781186547,0.707106781186548));
#770=DIRECTION('',(0.,0.,-1.));
#771=DIRECTION('center_axis',(-1.,0.,0.));
#772=DIRECTION('ref_axis',(0.,-0.707106781186552,-0.707106781186543));
#773=DIRECTION('',(0.,1.,-1.21312174346203E-14));
#774=DIRECTION('',(0.,1.,-7.20291036498895E-15));
#775=DIRECTION('',(0.,1.,-7.20291036498895E-15));
#776=DIRECTION('center_axis',(-1.,0.,0.));
#777=DIRECTION('ref_axis',(0.,1.,-9.51619735392991E-15));
#778=DIRECTION('',(0.,1.,-1.21312174346203E-14));
#779=DIRECTION('',(0.,1.,-1.21312174346203E-14));
#780=DIRECTION('center_axis',(-1.,0.,0.));
#781=DIRECTION('ref_axis',(0.,-1.,9.51619735392991E-15));
#782=DIRECTION('center_axis',(0.,1.,0.));
#783=DIRECTION('ref_axis',(0.,0.,1.));
#784=DIRECTION('',(0.,0.,1.));
#785=DIRECTION('',(1.,0.,0.));
#786=DIRECTION('center_axis',(0.,0.707106781186598,-0.707106781186498));
#787=DIRECTION('ref_axis',(-1.,0.,0.));
#788=DIRECTION('',(0.,-0.707106781186498,-0.707106781186598));
#789=DIRECTION('',(-1.,0.,0.));
#790=DIRECTION('center_axis',(0.,0.707106781186548,-0.707106781186548));
#791=DIRECTION('ref_axis',(-1.,0.,0.));
#792=DIRECTION('',(1.,0.,0.));
#793=DIRECTION('',(0.,-0.707106781186548,-0.707106781186548));
#794=DIRECTION('',(-1.,0.,0.));
#795=DIRECTION('center_axis',(0.,0.,-1.));
#796=DIRECTION('ref_axis',(0.,-1.,0.));
#797=DIRECTION('',(0.,1.,0.));
#798=DIRECTION('',(1.,0.,0.));
#799=DIRECTION('center_axis',(0.,-0.707106781186548,-0.707106781186548));
#800=DIRECTION('ref_axis',(-1.,0.,0.));
#801=DIRECTION('',(0.,-0.707106781186548,0.707106781186548));
#802=DIRECTION('',(-1.,0.,0.));
#803=DIRECTION('center_axis',(0.,-0.70710678118655,-0.707106781186545));
#804=DIRECTION('ref_axis',(-1.,0.,0.));
#805=DIRECTION('',(0.,-0.707106781186545,0.70710678118655));
#806=DIRECTION('',(-1.,0.,0.));
#807=DIRECTION('',(1.,0.,0.));
#808=DIRECTION('center_axis',(0.,-7.20291036498895E-15,-1.));
#809=DIRECTION('ref_axis',(0.,1.,-7.20291036498895E-15));
#810=DIRECTION('',(-1.,0.,0.));
#811=DIRECTION('',(0.,1.,-7.20291036498895E-15));
#812=DIRECTION('center_axis',(0.,0.707106781186548,0.707106781186547));
#813=DIRECTION('ref_axis',(1.,0.,0.));
#814=DIRECTION('',(1.,0.,0.));
#815=DIRECTION('',(0.,0.707106781186547,-0.707106781186548));
#816=DIRECTION('',(-1.,0.,0.));
#817=DIRECTION('center_axis',(0.,0.,1.));
#818=DIRECTION('ref_axis',(0.,1.,0.));
#819=DIRECTION('',(-1.,0.,0.));
#820=DIRECTION('',(0.,-1.,0.));
#821=DIRECTION('center_axis',(0.,-0.707106781186632,0.707106781186464));
#822=DIRECTION('ref_axis',(1.,0.,0.));
#823=DIRECTION('',(0.,0.707106781186464,0.707106781186632));
#824=DIRECTION('',(-1.,0.,0.));
#825=DIRECTION('',(1.,0.,0.));
#826=DIRECTION('center_axis',(0.,-1.,0.));
#827=DIRECTION('ref_axis',(0.,0.,-1.));
#828=DIRECTION('',(0.,0.,-1.));
#829=DIRECTION('center_axis',(0.,-0.707106781186548,0.707106781186547));
#830=DIRECTION('ref_axis',(1.,0.,0.));
#831=DIRECTION('',(1.,0.,0.));
#832=DIRECTION('',(0.,0.707106781186547,0.707106781186548));
#833=DIRECTION('center_axis',(-1.,0.,0.));
#834=DIRECTION('ref_axis',(0.,-0.707106781186545,0.70710678118655));
#835=DIRECTION('center_axis',(1.,0.,0.));
#836=DIRECTION('ref_axis',(0.,-0.707106781186545,0.70710678118655));
#837=DIRECTION('',(-1.,0.,0.));
#838=DIRECTION('',(1.,0.,0.));
#839=DIRECTION('center_axis',(0.,1.,0.));
#840=DIRECTION('ref_axis',(0.,0.,-1.));
#841=DIRECTION('',(0.,0.,1.));
#842=DIRECTION('center_axis',(1.,0.,0.));
#843=DIRECTION('ref_axis',(0.,0.70710678118655,0.707106781186545));
#844=DIRECTION('',(1.,0.,0.));
#845=DIRECTION('center_axis',(1.,0.,0.));
#846=DIRECTION('ref_axis',(0.,0.70710678118655,0.707106781186545));
#847=DIRECTION('center_axis',(0.,-1.,0.));
#848=DIRECTION('ref_axis',(0.,0.,1.));
#849=DIRECTION('',(0.,0.,-1.));
#850=DIRECTION('center_axis',(-1.,0.,0.));
#851=DIRECTION('ref_axis',(0.,0.707106781186543,-0.707106781186552));
#852=DIRECTION('center_axis',(1.,0.,0.));
#853=DIRECTION('ref_axis',(0.,0.707106781186543,-0.707106781186552));
#854=DIRECTION('',(-1.,0.,0.));
#855=DIRECTION('',(1.,0.,0.));
#856=DIRECTION('center_axis',(0.,-1.,0.));
#857=DIRECTION('ref_axis',(0.,0.,1.));
#858=DIRECTION('',(0.,0.,-1.));
#859=DIRECTION('center_axis',(1.,0.,0.));
#860=DIRECTION('ref_axis',(0.,-0.707106781186552,-0.707106781186543));
#861=DIRECTION('',(1.,0.,0.));
#862=DIRECTION('center_axis',(1.,0.,0.));
#863=DIRECTION('ref_axis',(0.,-0.707106781186552,-0.707106781186543));
#864=DIRECTION('',(-1.,0.,0.));
#865=DIRECTION('center_axis',(0.,1.,0.));
#866=DIRECTION('ref_axis',(0.,0.,-1.));
#867=DIRECTION('',(0.,0.,1.));
#868=DIRECTION('center_axis',(0.,-7.20291036498895E-15,-1.));
#869=DIRECTION('ref_axis',(0.,1.,-7.20291036498895E-15));
#870=DIRECTION('',(0.,1.,-7.20291036498895E-15));
#871=DIRECTION('center_axis',(0.,1.21312174346203E-14,1.));
#872=DIRECTION('ref_axis',(0.,-1.,1.21312174346203E-14));
#873=DIRECTION('',(0.,-1.,1.21312174346203E-14));
#874=DIRECTION('center_axis',(0.,1.21312174346203E-14,1.));
#875=DIRECTION('ref_axis',(0.,-1.,1.21312174346203E-14));
#876=DIRECTION('',(0.,-1.,1.21312174346203E-14));
#877=DIRECTION('center_axis',(1.,0.,0.));
#878=DIRECTION('ref_axis',(0.,0.,-1.));
#879=DIRECTION('center_axis',(6.60737798522984E-16,-0.909090909090932,-0.416597790450481));
#880=DIRECTION('ref_axis',(1.,0.,1.58603289232165E-15));
#881=DIRECTION('center_axis',(1.,0.,0.));
#882=DIRECTION('ref_axis',(0.,1.,-9.51619735392991E-15));
#883=DIRECTION('center_axis',(-1.44184808392881E-15,-0.909090909090936,
0.416597790450473));
#884=DIRECTION('ref_axis',(0.,-0.416597790450473,-0.909090909090936));
#885=DIRECTION('center_axis',(1.,0.,0.));
#886=DIRECTION('ref_axis',(0.,0.,-1.));
#887=DIRECTION('center_axis',(0.,0.909090909090948,0.416597790450447));
#888=DIRECTION('ref_axis',(1.,0.,0.));
#889=DIRECTION('center_axis',(1.,0.,0.));
#890=DIRECTION('ref_axis',(0.,-1.,9.51619735392991E-15));
#891=DIRECTION('center_axis',(1.,0.,0.));
#892=DIRECTION('ref_axis',(0.,-1.,9.51619735392991E-15));
#893=DIRECTION('center_axis',(0.,0.909090909090925,-0.416597790450497));
#894=DIRECTION('ref_axis',(0.,0.416597790450497,0.909090909090925));
#895=DIRECTION('center_axis',(-1.,0.,0.));
#896=DIRECTION('ref_axis',(0.,1.,0.));
#897=DIRECTION('center_axis',(1.,0.,0.));
#898=DIRECTION('ref_axis',(0.,1.,0.));
#899=DIRECTION('',(1.,0.,0.));
#900=DIRECTION('center_axis',(-1.,0.,0.));
#901=DIRECTION('ref_axis',(0.,1.,0.));
#902=DIRECTION('center_axis',(-1.,0.,0.));
#903=DIRECTION('ref_axis',(0.,1.,0.));
#904=DIRECTION('center_axis',(-1.,0.,0.));
#905=DIRECTION('ref_axis',(0.,1.,0.));
#906=DIRECTION('',(1.,0.,0.));
#907=DIRECTION('center_axis',(1.,0.,0.));
#908=DIRECTION('ref_axis',(0.,1.,0.));
#909=DIRECTION('center_axis',(1.,0.,0.));
#910=DIRECTION('ref_axis',(0.,0.,-1.));
#911=DIRECTION('center_axis',(1.,0.,0.));
#912=DIRECTION('ref_axis',(0.,1.,0.));
#913=CARTESIAN_POINT('',(0.,0.,0.));
#914=CARTESIAN_POINT('Origin',(41.2399919871743,9.75,10.1));
#915=CARTESIAN_POINT('',(46.2399919871743,9.25,10.6));
#916=CARTESIAN_POINT('',(46.2399919871743,10.25,9.6));
#917=CARTESIAN_POINT('',(46.2399919871743,8.06250000000002,11.7875));
#918=CARTESIAN_POINT('',(41.2399919871743,10.25,9.6));
#919=CARTESIAN_POINT('',(41.2399919871743,10.25,9.6));
#920=CARTESIAN_POINT('',(41.2399919871743,9.25,10.6));
#921=CARTESIAN_POINT('',(41.2399919871743,8.06250000000002,11.7875));
#922=CARTESIAN_POINT('',(41.2399919871743,9.25,10.6));
#923=CARTESIAN_POINT('Origin',(41.2399919871743,-2.22044604925031E-15,7.10000000000003));
#924=CARTESIAN_POINT('',(41.2399919871743,10.25,4.6));
#925=CARTESIAN_POINT('',(41.2399919871743,10.25,3.6));
#926=CARTESIAN_POINT('',(41.2399919871743,9.25,3.59999999999986));
#927=CARTESIAN_POINT('',(41.2399919871743,8.06250000000037,2.41250000000006));
#928=CARTESIAN_POINT('',(41.2399919871743,6.50000000000001,3.59999999999988));
#929=CARTESIAN_POINT('',(41.2399919871743,-10.25,3.6));
#930=CARTESIAN_POINT('',(41.2399919871743,4.,1.09999999999988));
#931=CARTESIAN_POINT('Origin',(41.2399919871743,6.5,1.09999999999988));
#932=CARTESIAN_POINT('',(41.2399919871743,4.,-2.15));
#933=CARTESIAN_POINT('',(41.2399919871743,4.,-3.15));
#934=CARTESIAN_POINT('',(41.2399919871743,3.,-3.15));
#935=CARTESIAN_POINT('',(41.2399919871743,5.0625,-1.08749999999999));
#936=CARTESIAN_POINT('',(41.2399919871743,-3.,-3.15));
#937=CARTESIAN_POINT('',(41.2399919871743,-4.,-3.15));
#938=CARTESIAN_POINT('',(41.2399919871743,-4.,-2.15));
#939=CARTESIAN_POINT('',(41.2399919871743,-5.06250000000001,-1.08749999999999));
#940=CARTESIAN_POINT('',(41.2399919871743,-4.,1.09999999999997));
#941=CARTESIAN_POINT('',(41.2399919871743,-4.,17.35));
#942=CARTESIAN_POINT('',(41.2399919871743,-6.49999999999998,3.59999999999997));
#943=CARTESIAN_POINT('Origin',(41.2399919871743,-6.5,1.09999999999997));
#944=CARTESIAN_POINT('',(41.2399919871743,-9.25,3.59999999999999));
#945=CARTESIAN_POINT('',(41.2399919871743,-10.25,3.6));
#946=CARTESIAN_POINT('',(41.2399919871743,-10.25,4.6));
#947=CARTESIAN_POINT('',(41.2399919871743,-8.06250000000002,2.41250000000001));
#948=CARTESIAN_POINT('',(41.2399919871743,-10.25,9.6));
#949=CARTESIAN_POINT('',(41.2399919871743,-10.25,3.6));
#950=CARTESIAN_POINT('',(41.2399919871743,-9.25,10.6000000000002));
#951=CARTESIAN_POINT('',(41.2399919871743,-8.0625000000006,11.7874999999999));
#952=CARTESIAN_POINT('',(41.2399919871743,-6.50000000000003,10.6000000000002));
#953=CARTESIAN_POINT('',(41.2399919871743,-4.3820568701447E-9,10.6000000000001));
#954=CARTESIAN_POINT('',(41.2399919871743,-4.,13.1000000000002));
#955=CARTESIAN_POINT('Origin',(41.2399919871743,-6.5,13.1000000000002));
#956=CARTESIAN_POINT('',(41.2399919871743,-4.,16.35));
#957=CARTESIAN_POINT('',(41.2399919871743,-4.,17.35));
#958=CARTESIAN_POINT('',(41.2399919871743,-3.,17.35));
#959=CARTESIAN_POINT('',(41.2399919871743,-5.0625,15.2875));
#960=CARTESIAN_POINT('',(41.2399919871743,3.,17.35));
#961=CARTESIAN_POINT('',(41.2399919871743,4.,17.35));
#962=CARTESIAN_POINT('',(41.2399919871743,4.,16.35));
#963=CARTESIAN_POINT('',(41.2399919871743,5.06249999999999,15.2875));
#964=CARTESIAN_POINT('',(41.2399919871743,4.,13.1));
#965=CARTESIAN_POINT('',(41.2399919871743,4.,-3.15));
#966=CARTESIAN_POINT('',(41.2399919871743,6.49999999999997,10.6));
#967=CARTESIAN_POINT('Origin',(41.2399919871743,6.5,13.1));
#968=CARTESIAN_POINT('',(41.2399919871743,-4.3820568701447E-9,10.6000000000001));
#969=CARTESIAN_POINT('',(41.2399919871743,-1.60390149323441,3.59999999999994));
#970=CARTESIAN_POINT('',(41.2399919871743,-2.77555756156289E-14,3.59999999999993));
#971=CARTESIAN_POINT('',(41.2399919871743,-10.25,3.6));
#972=CARTESIAN_POINT('',(41.2399919871743,1.60390149323436,3.59999999999991));
#973=CARTESIAN_POINT('',(41.2399919871743,-10.25,3.6));
#974=CARTESIAN_POINT('',(41.2399919871743,1.60390149323431,10.6000000000001));
#975=CARTESIAN_POINT('Origin',(41.2399919871743,-2.22044604925031E-15,7.1));
#976=CARTESIAN_POINT('',(41.2399919871743,3.99680288865056E-14,10.6000000000001));
#977=CARTESIAN_POINT('',(41.2399919871743,-4.3820568701447E-9,10.6000000000001));
#978=CARTESIAN_POINT('',(41.2399919871743,-1.60390149323423,10.6000000000001));
#979=CARTESIAN_POINT('',(41.2399919871743,-4.3820568701447E-9,10.6000000000001));
#980=CARTESIAN_POINT('Origin',(41.2399919871743,-2.22044604925031E-15,7.1));
#981=CARTESIAN_POINT('Origin',(41.2399919871743,10.25,3.6));
#982=CARTESIAN_POINT('',(46.2399919871743,10.25,4.6));
#983=CARTESIAN_POINT('',(46.2399919871743,10.25,3.6));
#984=CARTESIAN_POINT('',(41.2399919871743,10.25,4.6));
#985=CARTESIAN_POINT('Origin',(41.2399919871743,9.75,4.09999999999993));
#986=CARTESIAN_POINT('',(46.2399919871743,9.25,3.59999999999986));
#987=CARTESIAN_POINT('',(46.2399919871743,8.06250000000037,2.41250000000006));
#988=CARTESIAN_POINT('',(41.2399919871743,9.25,3.59999999999986));
#989=CARTESIAN_POINT('Origin',(46.2399919871743,3.5,-2.65));
#990=CARTESIAN_POINT('',(46.2399919871743,4.,-2.15));
#991=CARTESIAN_POINT('',(46.2399919871743,4.,-2.15));
#992=CARTESIAN_POINT('',(46.2399919871743,3.,-3.15));
#993=CARTESIAN_POINT('',(46.2399919871743,5.0625,-1.08749999999999));
#994=CARTESIAN_POINT('',(46.2399919871743,3.,-3.15));
#995=CARTESIAN_POINT('Origin',(46.2399919871743,4.,-3.15));
#996=CARTESIAN_POINT('',(46.2399919871743,-3.,-3.15));
#997=CARTESIAN_POINT('',(46.2399919871743,-4.,-3.15));
#998=CARTESIAN_POINT('',(46.2399919871743,-3.,-3.15));
#999=CARTESIAN_POINT('Origin',(46.2399919871743,-3.5,-2.65));
#1000=CARTESIAN_POINT('',(46.2399919871743,-4.,-2.15));
#1001=CARTESIAN_POINT('',(46.2399919871743,-5.06250000000001,-1.08749999999999));
#1002=CARTESIAN_POINT('',(46.2399919871743,-4.,-2.15));
#1003=CARTESIAN_POINT('Origin',(41.2399919871743,-9.75,4.1));
#1004=CARTESIAN_POINT('',(46.2399919871743,-9.25,3.59999999999999));
#1005=CARTESIAN_POINT('',(46.2399919871743,-10.25,4.6));
#1006=CARTESIAN_POINT('',(46.2399919871743,-8.06250000000002,2.41250000000001));
#1007=CARTESIAN_POINT('',(41.2399919871743,-10.25,4.6));
#1008=CARTESIAN_POINT('',(41.2399919871743,-9.25,3.59999999999999));
#1009=CARTESIAN_POINT('Origin',(41.2399919871743,-10.25,3.6));
#1010=CARTESIAN_POINT('',(46.2399919871743,-6.49999999999998,3.59999999999997));
#1011=CARTESIAN_POINT('',(43.7399919871743,-6.49999999999998,3.59999999999997));
#1012=CARTESIAN_POINT('',(46.2399919871743,-10.25,3.6));
#1013=CARTESIAN_POINT('Origin',(46.2399919871743,3.5,16.85));
#1014=CARTESIAN_POINT('',(46.2399919871743,3.,17.35));
#1015=CARTESIAN_POINT('',(46.2399919871743,3.,17.35));
#1016=CARTESIAN_POINT('',(46.2399919871743,4.,16.35));
#1017=CARTESIAN_POINT('',(46.2399919871743,5.06249999999999,15.2875));
#1018=CARTESIAN_POINT('',(46.2399919871743,4.,16.35));
#1019=CARTESIAN_POINT('Origin',(46.2399919871743,-4.,17.35));
#1020=CARTESIAN_POINT('',(46.2399919871743,-3.,17.35));
#1021=CARTESIAN_POINT('',(46.2399919871743,-3.,17.35));
#1022=CARTESIAN_POINT('',(46.2399919871743,4.,17.35));
#1023=CARTESIAN_POINT('Origin',(41.2399919871743,-9.75,10.1000000000001));
#1024=CARTESIAN_POINT('',(46.2399919871743,-10.25,9.6));
#1025=CARTESIAN_POINT('',(46.2399919871743,-9.25,10.6000000000002));
#1026=CARTESIAN_POINT('',(46.2399919871743,-8.0625000000006,11.7874999999999));
#1027=CARTESIAN_POINT('',(41.2399919871743,-9.25,10.6000000000002));
#1028=CARTESIAN_POINT('',(41.2399919871743,-10.25,9.6));
#1029=CARTESIAN_POINT('Origin',(41.2399919871743,-10.25,10.6));
#1030=CARTESIAN_POINT('',(46.2399919871743,-10.25,3.6));
#1031=CARTESIAN_POINT('Origin',(46.2399919871743,-3.5,16.85));
#1032=CARTESIAN_POINT('',(46.2399919871743,-4.,16.35));
#1033=CARTESIAN_POINT('',(46.2399919871743,-4.,16.35));
#1034=CARTESIAN_POINT('',(46.2399919871743,-5.0625,15.2875));
#1035=CARTESIAN_POINT('Origin',(43.7399919871743,6.5,1.09999999999988));
#1036=CARTESIAN_POINT('',(46.2399919871743,6.50000000000001,3.59999999999988));
#1037=CARTESIAN_POINT('',(46.2399919871743,4.,1.09999999999988));
#1038=CARTESIAN_POINT('Origin',(46.2399919871743,6.5,1.09999999999988));
#1039=CARTESIAN_POINT('',(43.7399919871743,4.,1.09999999999988));
#1040=CARTESIAN_POINT('',(43.7399919871743,6.50000000000001,3.59999999999988));
#1041=CARTESIAN_POINT('Origin',(46.2399919871743,4.,3.6));
#1042=CARTESIAN_POINT('',(46.2399919871743,4.,-3.15));
#1043=CARTESIAN_POINT('Origin',(43.7399919871743,-6.5,1.09999999999997));
#1044=CARTESIAN_POINT('',(46.2399919871743,-4.,1.09999999999997));
#1045=CARTESIAN_POINT('',(43.7399919871743,-4.,1.09999999999997));
#1046=CARTESIAN_POINT('Origin',(46.2399919871743,-6.5,1.09999999999997));
#1047=CARTESIAN_POINT('Origin',(46.2399919871743,-4.,-3.15));
#1048=CARTESIAN_POINT('',(46.2399919871743,-4.,17.35));
#1049=CARTESIAN_POINT('Origin',(43.7399919871743,-6.5,13.1000000000002));
#1050=CARTESIAN_POINT('',(46.2399919871743,-6.50000000000003,10.6000000000002));
#1051=CARTESIAN_POINT('',(46.2399919871743,-4.,13.1000000000002));
#1052=CARTESIAN_POINT('Origin',(46.2399919871743,-6.5,13.1000000000002));
#1053=CARTESIAN_POINT('',(43.7399919871743,-4.,13.1000000000002));
#1054=CARTESIAN_POINT('',(43.7399919871743,-6.50000000000003,10.6000000000002));
#1055=CARTESIAN_POINT('Origin',(46.2399919871743,-4.,10.6));
#1056=CARTESIAN_POINT('',(46.2399919871743,-4.,17.35));
#1057=CARTESIAN_POINT('Origin',(43.7399919871743,6.5,13.1));
#1058=CARTESIAN_POINT('',(46.2399919871743,4.,13.1));
#1059=CARTESIAN_POINT('',(43.7399919871743,4.,13.1));
#1060=CARTESIAN_POINT('',(46.2399919871743,6.49999999999997,10.6));
#1061=CARTESIAN_POINT('Origin',(46.2399919871743,6.5,13.1));
#1062=CARTESIAN_POINT('',(43.7399919871743,6.49999999999997,10.6));
#1063=CARTESIAN_POINT('Origin',(46.2399919871743,4.,17.35));
#1064=CARTESIAN_POINT('',(46.2399919871743,4.,-3.15));
#1065=CARTESIAN_POINT('Origin',(41.2399919871743,-10.25,3.6));
#1066=CARTESIAN_POINT('',(46.2399919871743,-10.25,3.6));
#1067=CARTESIAN_POINT('Origin',(41.2399919871743,10.25,10.6));
#1068=CARTESIAN_POINT('',(46.2399919871743,-4.3820568701447E-9,10.6000000000001));
#1069=CARTESIAN_POINT('Origin',(41.2399919871743,10.25,10.6));
#1070=CARTESIAN_POINT('',(46.2399919871743,-4.3820568701447E-9,10.6000000000001));
#1071=CARTESIAN_POINT('Origin',(40.8899919871743,-2.22044604925031E-15,
7.1));
#1072=CARTESIAN_POINT('',(40.8899919871743,1.45809226657669,3.91818181818174));
#1073=CARTESIAN_POINT('Origin',(40.8899919871743,1.60390149323436,3.59999999999991));
#1074=CARTESIAN_POINT('',(40.8899919871743,1.45809226657665,10.2818181818183));
#1075=CARTESIAN_POINT('Origin',(40.8899919871743,-2.22044604925031E-15,
7.1));
#1076=CARTESIAN_POINT('Origin',(40.8899919871743,1.60390149323431,10.6000000000001));
#1077=CARTESIAN_POINT('Ctrl Pts',(41.2399919871743,-2.66453525910038E-14,
3.59999999999993));
#1078=CARTESIAN_POINT('Ctrl Pts',(41.2399919871743,0.0021235564810425,3.59999999999993));
#1079=CARTESIAN_POINT('Ctrl Pts',(41.2399919871744,0.00424868296251704,
3.59999999999993));
#1080=CARTESIAN_POINT('Ctrl Pts',(41.239991987174,0.544366106324369,3.60000000000001));
#1081=CARTESIAN_POINT('Ctrl Pts',(41.2399919871743,1.09253720838587,3.59999999999992));
#1082=CARTESIAN_POINT('Ctrl Pts',(41.2399919871743,1.60390149323436,3.59999999999991));
#1083=CARTESIAN_POINT('Ctrl Pts',(41.2399919871743,-2.66517352587095E-14,
3.59999999999993));
#1084=CARTESIAN_POINT('Ctrl Pts',(41.2398097771274,0.00194424569022443,
3.59963926400872));
#1085=CARTESIAN_POINT('Ctrl Pts',(41.2395353229636,0.00422864577786065,
3.60034301074573));
#1086=CARTESIAN_POINT('Ctrl Pts',(41.1861780668654,0.525294264729707,3.5918500622463));
#1087=CARTESIAN_POINT('Ctrl Pts',(41.1280434976183,1.06566396091319,3.70078310654651));
#1088=CARTESIAN_POINT('Ctrl Pts',(41.2399919871743,1.52755596068547,3.76659961041756));
#1089=CARTESIAN_POINT('Ctrl Pts',(41.2399919871743,-2.66581179264153E-14,
3.59999999999993));
#1090=CARTESIAN_POINT('Ctrl Pts',(41.2395364392689,0.00184749663252481,
3.59985335031043));
#1091=CARTESIAN_POINT('Ctrl Pts',(41.2391551187213,0.00413040911199712,
3.60014086184452));
#1092=CARTESIAN_POINT('Ctrl Pts',(41.1336541454758,0.508125485007866,3.59733038797574));
#1093=CARTESIAN_POINT('Ctrl Pts',(41.0001903487745,1.03407383376416,3.7210549027227));
#1094=CARTESIAN_POINT('Ctrl Pts',(41.0732515586337,1.45809226657669,3.91818181818174));
#1095=CARTESIAN_POINT('Ctrl Pts',(41.2399919871743,-2.6664500594121E-14,
3.59999999999993));
#1096=CARTESIAN_POINT('Ctrl Pts',(41.2393517107828,0.00193050587735141,
3.59999999999993));
#1097=CARTESIAN_POINT('Ctrl Pts',(41.2387014169813,0.00386243905682899,
3.60000196401333));
#1098=CARTESIAN_POINT('Ctrl Pts',(41.0792974888334,0.494878278476767,3.60068553942385));
#1099=CARTESIAN_POINT('Ctrl Pts',(40.8899919871743,0.993215643987192,3.70514858699859));
#1100=CARTESIAN_POINT('Ctrl Pts',(40.8899919871743,1.45809226657669,3.91818181818174));
#1101=CARTESIAN_POINT('Ctrl Pts',(41.2399919871743,-2.6664500594121E-14,
3.59999999999993));
#1102=CARTESIAN_POINT('Ctrl Pts',(41.2393517107828,0.00193050587735141,
3.59999999999993));
#1103=CARTESIAN_POINT('Ctrl Pts',(41.2387014169813,0.00386243905682899,
3.60000196401333));
#1104=CARTESIAN_POINT('Ctrl Pts',(41.0792974888334,0.494878278476767,3.60068553942385));
#1105=CARTESIAN_POINT('Ctrl Pts',(40.8899919871743,0.993215643987192,3.70514858699859));
#1106=CARTESIAN_POINT('Ctrl Pts',(40.8899919871743,1.45809226657669,3.91818181818174));
#1107=CARTESIAN_POINT('Ctrl Pts',(41.2399919871743,1.60390149323431,10.6000000000001));
#1108=CARTESIAN_POINT('Ctrl Pts',(41.2399919871743,1.09253720837661,10.6000000000001));
#1109=CARTESIAN_POINT('Ctrl Pts',(41.2399919871736,0.544580492974486,10.6000000000002));
#1110=CARTESIAN_POINT('Ctrl Pts',(41.2399919871743,0.00424807585407254,
10.6000000000001));
#1111=CARTESIAN_POINT('Ctrl Pts',(41.2399919871743,0.00212355647907701,
10.6000000000001));
#1112=CARTESIAN_POINT('Ctrl Pts',(41.2399919871743,4.07873174505184E-14,
10.6000000000001));
#1113=CARTESIAN_POINT('Ctrl Pts',(41.2399919871743,1.56572872695987,10.5167001947913));
#1114=CARTESIAN_POINT('Ctrl Pts',(41.1829595999572,1.08149410407146,10.5432145261145));
#1115=CARTESIAN_POINT('Ctrl Pts',(41.212700143373,0.535738901444712,10.6016121261046));
#1116=CARTESIAN_POINT('Ctrl Pts',(41.2397783022476,0.0041853511389176,10.5999941152641));
#1117=CARTESIAN_POINT('Ctrl Pts',(41.2398852744398,0.00209138137667926,
10.6000000000001));
#1118=CARTESIAN_POINT('Ctrl Pts',(41.2399919871743,4.07866248967898E-14,
10.6000000000001));
#1119=CARTESIAN_POINT('Ctrl Pts',(41.1640966807479,1.48971008353947,10.3508139149332));
#1120=CARTESIAN_POINT('Ctrl Pts',(41.0597595654451,1.05817722901757,10.4800289513875));
#1121=CARTESIAN_POINT('Ctrl Pts',(41.1596812030148,0.518110163883243,10.6019078728423));
#1122=CARTESIAN_POINT('Ctrl Pts',(41.2393466231224,0.00405974467541754,
10.5999912243347));
#1123=CARTESIAN_POINT('Ctrl Pts',(41.2396718489708,0.00202703117188378,
10.6000000000001));
#1124=CARTESIAN_POINT('Ctrl Pts',(41.2399919871743,4.07852397893326E-14,
10.6000000000001));
#1125=CARTESIAN_POINT('Ctrl Pts',(40.981621772904,1.45809226657664,10.2818181818183));
#1126=CARTESIAN_POINT('Ctrl Pts',(40.9457675759189,1.01707299439132,10.4851919386902));
#1127=CARTESIAN_POINT('Ctrl Pts',(41.1052957936628,0.502592127872148,10.6000288179451));
#1128=CARTESIAN_POINT('Ctrl Pts',(41.2389186999024,0.00392828901106286,
10.5999959390547));
#1129=CARTESIAN_POINT('Ctrl Pts',(41.2394584235017,0.0019626809670883,10.6000000000001));
#1130=CARTESIAN_POINT('Ctrl Pts',(41.2399919871743,4.07838546818754E-14,
10.6000000000001));
#1131=CARTESIAN_POINT('Ctrl Pts',(40.8899919871743,1.45809226657664,10.2818181818183));
#1132=CARTESIAN_POINT('Ctrl Pts',(40.8899919871743,0.993215643978796,10.4948514130052));
#1133=CARTESIAN_POINT('Ctrl Pts',(41.0780669930974,0.495073175432033,10.5992535848974));
#1134=CARTESIAN_POINT('Ctrl Pts',(41.2387048451925,0.00386188714006405,
10.5999982084794));
#1135=CARTESIAN_POINT('Ctrl Pts',(41.2393517107672,0.00193050586469056,
10.6000000000001));
#1136=CARTESIAN_POINT('Ctrl Pts',(41.2399919871743,4.07831621281469E-14,
10.6000000000001));
#1137=CARTESIAN_POINT('Ctrl Pts',(40.8899919871743,1.45809226657664,10.2818181818183));
#1138=CARTESIAN_POINT('Ctrl Pts',(40.8899919871743,0.993215643978796,10.4948514130052));
#1139=CARTESIAN_POINT('Ctrl Pts',(41.0780669930974,0.495073175432033,10.5992535848974));
#1140=CARTESIAN_POINT('Ctrl Pts',(41.2387048451925,0.00386188714006405,
10.5999982084794));
#1141=CARTESIAN_POINT('Ctrl Pts',(41.2393517107672,0.00193050586469056,
10.6000000000001));
#1142=CARTESIAN_POINT('Ctrl Pts',(41.2399919871743,4.07831621281469E-14,
10.6000000000001));
#1143=CARTESIAN_POINT('Origin',(40.8899919871743,-2.22044604925031E-15,
7.1));
#1144=CARTESIAN_POINT('',(40.8899919871743,-1.45809226657657,10.2818181818183));
#1145=CARTESIAN_POINT('Origin',(40.8899919871743,-1.60390149323423,10.6000000000001));
#1146=CARTESIAN_POINT('',(40.8899919871743,-3.5,7.1));
#1147=CARTESIAN_POINT('Origin',(40.8899919871743,-2.22044604925031E-15,
7.1));
#1148=CARTESIAN_POINT('',(40.8899919871743,-1.45809226657674,3.91818181818176));
#1149=CARTESIAN_POINT('Origin',(40.8899919871743,-2.22044604925031E-15,
7.1));
#1150=CARTESIAN_POINT('Origin',(40.8899919871743,-1.60390149323441,3.59999999999994));
#1151=CARTESIAN_POINT('Ctrl Pts',(41.2399919871743,4.07873174505184E-14,
10.6000000000001));
#1152=CARTESIAN_POINT('Ctrl Pts',(41.2399919871743,-0.00212355647887929,
10.6000000000001));
#1153=CARTESIAN_POINT('Ctrl Pts',(41.2399919871744,-0.00424867834888532,
10.6000000000001));
#1154=CARTESIAN_POINT('Ctrl Pts',(41.2399919871735,-0.544367793362306,10.6000000000002));
#1155=CARTESIAN_POINT('Ctrl Pts',(41.2399919871743,-1.09253720837645,10.6000000000001));
#1156=CARTESIAN_POINT('Ctrl Pts',(41.2399919871743,-1.60390149323423,10.6000000000001));
#1157=CARTESIAN_POINT('Ctrl Pts',(41.2399919871743,4.07873174505184E-14,
10.6000000000001));
#1158=CARTESIAN_POINT('Ctrl Pts',(41.2398097771227,-0.00194424568485896,
10.6003607359913));
#1159=CARTESIAN_POINT('Ctrl Pts',(41.2395353229624,-0.00422864116487138,
10.5996569892544));
#1160=CARTESIAN_POINT('Ctrl Pts',(41.1861780668696,-0.525295951767928,10.6081499377568));
#1161=CARTESIAN_POINT('Ctrl Pts',(41.1280434976152,-1.06566396090464,10.4992168934553));
#1162=CARTESIAN_POINT('Ctrl Pts',(41.2399919871743,-1.52755596068535,10.4334003895825));
#1163=CARTESIAN_POINT('Ctrl Pts',(41.2399919871743,4.07873174505184E-14,
10.6000000000001));
#1164=CARTESIAN_POINT('Ctrl Pts',(41.2395364392581,-0.00184749662292911,
10.6001466496896));
#1165=CARTESIAN_POINT('Ctrl Pts',(41.239155136785,-0.00413040491706031,
10.5998591396237));
#1166=CARTESIAN_POINT('Ctrl Pts',(41.1336474996402,-0.508127018679208,10.6026690724609));
#1167=CARTESIAN_POINT('Ctrl Pts',(41.0001903487742,-1.03407383375613,10.4789450972811));
#1168=CARTESIAN_POINT('Ctrl Pts',(41.0732515586337,-1.45809226657657,10.2818181818183));
#1169=CARTESIAN_POINT('Ctrl Pts',(41.2399919871743,4.07873174505184E-14,
10.6000000000001));
#1170=CARTESIAN_POINT('Ctrl Pts',(41.2393517107672,-0.00193050586450709,
10.6000000000001));
#1171=CARTESIAN_POINT('Ctrl Pts',(41.2387014350438,-0.00386243486261043,
10.5999980374549));
#1172=CARTESIAN_POINT('Ctrl Pts',(41.0792908430023,-0.494879812148653,10.5993139210124));
#1173=CARTESIAN_POINT('Ctrl Pts',(40.8899919871743,-0.99321564397866,10.4948514130053));
#1174=CARTESIAN_POINT('Ctrl Pts',(40.8899919871743,-1.45809226657657,10.2818181818183));
#1175=CARTESIAN_POINT('Ctrl Pts',(41.2399919871743,4.07873174505184E-14,
10.6000000000001));
#1176=CARTESIAN_POINT('Ctrl Pts',(41.2393517107672,-0.00193050586450709,
10.6000000000001));
#1177=CARTESIAN_POINT('Ctrl Pts',(41.2387014350438,-0.00386243486261043,
10.5999980374549));
#1178=CARTESIAN_POINT('Ctrl Pts',(41.0792908430023,-0.494879812148653,10.5993139210124));
#1179=CARTESIAN_POINT('Ctrl Pts',(40.8899919871743,-0.99321564397866,10.4948514130053));
#1180=CARTESIAN_POINT('Ctrl Pts',(40.8899919871743,-1.45809226657657,10.2818181818183));
#1181=CARTESIAN_POINT('Ctrl Pts',(41.2399919871743,-1.60390149323441,3.59999999999994));
#1182=CARTESIAN_POINT('Ctrl Pts',(41.2399919871743,-1.09253720838569,3.59999999999993));
#1183=CARTESIAN_POINT('Ctrl Pts',(41.2399919871756,-0.544579716075943,3.59999999999996));
#1184=CARTESIAN_POINT('Ctrl Pts',(41.2399919871743,-0.00424807798987355,
3.59999999999993));
#1185=CARTESIAN_POINT('Ctrl Pts',(41.2399919871743,-0.00212355648116311,
3.59999999999993));
#1186=CARTESIAN_POINT('Ctrl Pts',(41.2399919871743,-2.66453525910038E-14,
3.59999999999993));
#1187=CARTESIAN_POINT('Ctrl Pts',(41.2399919871743,-1.56572872695996,3.68329980520876));
#1188=CARTESIAN_POINT('Ctrl Pts',(41.1829595999582,-1.08149410408006,3.65678547388601));
#1189=CARTESIAN_POINT('Ctrl Pts',(41.2127005488663,-0.535737277558005,3.59838541407367));
#1190=CARTESIAN_POINT('Ctrl Pts',(41.239778301147,-0.00418535557601637,
3.60000589141943));
#1191=CARTESIAN_POINT('Ctrl Pts',(41.2398852744424,-0.0020913813805459,
3.59999999999993));
#1192=CARTESIAN_POINT('Ctrl Pts',(41.2399919871743,-2.66453525910038E-14,
3.59999999999993));
#1193=CARTESIAN_POINT('Ctrl Pts',(41.1641069446546,-1.48970580761869,3.84919541589112));
#1194=CARTESIAN_POINT('Ctrl Pts',(41.0597698293537,-1.05817295310439,3.71998037943909));
#1195=CARTESIAN_POINT('Ctrl Pts',(41.1596845626908,-0.518106582599519,3.59808949488326));
#1196=CARTESIAN_POINT('Ctrl Pts',(41.2393466140872,-0.00405975439292661,
3.60000878290068));
#1197=CARTESIAN_POINT('Ctrl Pts',(41.2396718489786,-0.00202703117931148,
3.59999999999993));
#1198=CARTESIAN_POINT('Ctrl Pts',(41.2399919871743,-2.66453525910038E-14,
3.59999999999993));
#1199=CARTESIAN_POINT('Ctrl Pts',(40.981621772904,-1.45809226657674,3.91818181818176));
#1200=CARTESIAN_POINT('Ctrl Pts',(40.9457675759195,-1.01707299439929,3.71480806131349));
#1201=CARTESIAN_POINT('Ctrl Pts',(41.1052987906808,-0.502590238422063,3.59997020557716));
#1202=CARTESIAN_POINT('Ctrl Pts',(41.2389186917623,-0.00392829416822609,
3.60000406359948));
#1203=CARTESIAN_POINT('Ctrl Pts',(41.2394584235147,-0.00196268097807706,
3.59999999999993));
#1204=CARTESIAN_POINT('Ctrl Pts',(41.2399919871743,-2.66453525910038E-14,
3.59999999999993));
#1205=CARTESIAN_POINT('Ctrl Pts',(40.8899919871743,-1.45809226657674,3.91818181818176));
#1206=CARTESIAN_POINT('Ctrl Pts',(40.8899919871743,-0.993215643987247,3.70514858699861));
#1207=CARTESIAN_POINT('Ctrl Pts',(41.0780701806146,-0.495072469159973,3.60074616761516));
#1208=CARTESIAN_POINT('Ctrl Pts',(41.238704836535,-0.00386188908169334,
3.60000179219381));
#1209=CARTESIAN_POINT('Ctrl Pts',(41.2393517107828,-0.00193050587745985,
3.59999999999993));
#1210=CARTESIAN_POINT('Ctrl Pts',(41.2399919871743,-2.66453525910038E-14,
3.59999999999993));
#1211=CARTESIAN_POINT('Ctrl Pts',(40.8899919871743,-1.45809226657674,3.91818181818176));
#1212=CARTESIAN_POINT('Ctrl Pts',(40.8899919871743,-0.993215643987247,3.70514858699861));
#1213=CARTESIAN_POINT('Ctrl Pts',(41.0780701806146,-0.495072469159973,3.60074616761516));
#1214=CARTESIAN_POINT('Ctrl Pts',(41.238704836535,-0.00386188908169334,
3.60000179219381));
#1215=CARTESIAN_POINT('Ctrl Pts',(41.2393517107828,-0.00193050587745985,
3.59999999999993));
#1216=CARTESIAN_POINT('Ctrl Pts',(41.2399919871743,-2.66453525910038E-14,
3.59999999999993));
#1217=CARTESIAN_POINT('Origin',(41.2399919871743,-2.22044604925031E-15,
7.1));
#1218=CARTESIAN_POINT('',(34.2399919871743,-3.1,7.1));
#1219=CARTESIAN_POINT('Origin',(34.2399919871743,-2.22044604925031E-15,
7.1));
#1220=CARTESIAN_POINT('',(41.2399919871743,-3.1,7.1));
#1221=CARTESIAN_POINT('',(41.2399919871743,-3.1,7.1));
#1222=CARTESIAN_POINT('Origin',(41.2399919871743,-2.22044604925031E-15,
7.1));
#1223=CARTESIAN_POINT('Origin',(41.2399919871743,-2.22044604925031E-15,
7.1));
#1224=CARTESIAN_POINT('',(34.2399919871743,-3.5,7.1));
#1225=CARTESIAN_POINT('Origin',(34.2399919871743,-2.22044604925031E-15,
7.1));
#1226=CARTESIAN_POINT('',(41.2399919871743,-3.5,7.1));
#1227=CARTESIAN_POINT('Origin',(34.2399919871743,-2.22044604925031E-15,
7.1));
#1228=CARTESIAN_POINT('Origin',(46.2399919871743,-2.22044604925031E-15,
7.10000000000003));
#1229=CARTESIAN_POINT('Origin',(41.2399919871743,-2.22044604925031E-15,
7.10000000000003));
#1230=UNCERTAINTY_MEASURE_WITH_UNIT(LENGTH_MEASURE(0.01),#1234,
'DISTANCE_ACCURACY_VALUE',
'Maximum model space distance between geometric entities at asserted c
onnectivities');
#1231=UNCERTAINTY_MEASURE_WITH_UNIT(LENGTH_MEASURE(0.01),#1234,
'DISTANCE_ACCURACY_VALUE',
'Maximum model space distance between geometric entities at asserted c
onnectivities');
#1232=(
GEOMETRIC_REPRESENTATION_CONTEXT(3)
GLOBAL_UNCERTAINTY_ASSIGNED_CONTEXT((#1230))
GLOBAL_UNIT_ASSIGNED_CONTEXT((#1234,#1236,#1237))
REPRESENTATION_CONTEXT('','3D')
);
#1233=(
GEOMETRIC_REPRESENTATION_CONTEXT(3)
GLOBAL_UNCERTAINTY_ASSIGNED_CONTEXT((#1231))
GLOBAL_UNIT_ASSIGNED_CONTEXT((#1234,#1236,#1237))
REPRESENTATION_CONTEXT('','3D')
);
#1234=(
LENGTH_UNIT()
NAMED_UNIT(*)
SI_UNIT(.MILLI.,.METRE.)
);
#1235=(
LENGTH_UNIT()
NAMED_UNIT(*)
SI_UNIT($,.METRE.)
);
#1236=(
NAMED_UNIT(*)
PLANE_ANGLE_UNIT()
SI_UNIT($,.RADIAN.)
);
#1237=(
NAMED_UNIT(*)
SI_UNIT($,.STERADIAN.)
SOLID_ANGLE_UNIT()
);
#1238=SHAPE_DEFINITION_REPRESENTATION(#1239,#1240);
#1239=PRODUCT_DEFINITION_SHAPE('',$,#1242);
#1240=SHAPE_REPRESENTATION('',(#684),#1232);
#1241=PRODUCT_DEFINITION_CONTEXT('part definition',#1246,'design');
#1242=PRODUCT_DEFINITION('Lock','Lock',#1243,#1241);
#1243=PRODUCT_DEFINITION_FORMATION('',$,#1248);
#1244=PRODUCT_RELATED_PRODUCT_CATEGORY('Lock','Lock',(#1248));
#1245=APPLICATION_PROTOCOL_DEFINITION('international standard',
'automotive_design',2009,#1246);
#1246=APPLICATION_CONTEXT(
'Core Data for Automotive Mechanical Design Process');
#1247=PRODUCT_CONTEXT('part definition',#1246,'mechanical');
#1248=PRODUCT('Lock','Lock',$,(#1247));
#1249=PRESENTATION_STYLE_ASSIGNMENT((#1250));
#1250=SURFACE_STYLE_USAGE(.BOTH.,#1251);
#1251=SURFACE_SIDE_STYLE('',(#1252));
#1252=SURFACE_STYLE_FILL_AREA(#1253);
#1253=FILL_AREA_STYLE('Plastic - Glossy (Grey)',(#1254));
#1254=FILL_AREA_STYLE_COLOUR('Plastic - Glossy (Grey)',#1255);
#1255=COLOUR_RGB('Plastic - Glossy (Grey)',0.701960784313725,0.701960784313725,
0.701960784313725);
ENDSEC;
END-ISO-10303-21;
