ISO-10303-21;
HEADER;
/* Generated by software containing ST-Developer
 * from STEP Tools, Inc. (www.steptools.com) 
 */

FILE_DESCRIPTION(
/* description */ (''),
/* implementation_level */ '2;1');

FILE_NAME(
/* name */ 'LockV4.step',
/* time_stamp */ '2026-03-13T16:03:18+01:00',
/* author */ (''),
/* organization */ (''),
/* preprocessor_version */ 'ST-DEVELOPER v20.1',
/* originating_system */ 'Autodesk Translation Framework v14.24.0.0',
/* authorisation */ '');

FILE_SCHEMA (('AUTOMOTIVE_DESIGN { 1 0 10303 214 3 1 1 }'));
ENDSEC;

DATA;
#10=MECHANICAL_DESIGN_GEOMETRIC_PRESENTATION_REPRESENTATION('',(#13),#1013);
#11=SHAPE_REPRESENTATION_RELATIONSHIP('SRR','None',#1020,#12);
#12=ADVANCED_BREP_SHAPE_REPRESENTATION('',(#14),#1012);
#13=STYLED_ITEM('',(#1029),#14);
#14=MANIFOLD_SOLID_BREP('Body1',#605);
#15=FACE_BOUND('',#214,.T.);
#16=FACE_BOUND('',#217,.T.);
#17=PLANE('',#627);
#18=PLANE('',#632);
#19=PLANE('',#637);
#20=PLANE('',#638);
#21=PLANE('',#639);
#22=PLANE('',#640);
#23=PLANE('',#641);
#24=PLANE('',#642);
#25=PLANE('',#643);
#26=PLANE('',#644);
#27=PLANE('',#645);
#28=PLANE('',#646);
#29=PLANE('',#647);
#30=PLANE('',#648);
#31=PLANE('',#649);
#32=PLANE('',#652);
#33=PLANE('',#655);
#34=PLANE('',#658);
#35=PLANE('',#661);
#36=PLANE('',#662);
#37=PLANE('',#663);
#38=PLANE('',#664);
#39=PLANE('',#667);
#40=PLANE('',#668);
#41=LINE('',#848,#107);
#42=LINE('',#862,#108);
#43=LINE('',#864,#109);
#44=LINE('',#866,#110);
#45=LINE('',#868,#111);
#46=LINE('',#872,#112);
#47=LINE('',#874,#113);
#48=LINE('',#876,#114);
#49=LINE('',#878,#115);
#50=LINE('',#880,#116);
#51=LINE('',#884,#117);
#52=LINE('',#886,#118);
#53=LINE('',#888,#119);
#54=LINE('',#890,#120);
#55=LINE('',#892,#121);
#56=LINE('',#896,#122);
#57=LINE('',#898,#123);
#58=LINE('',#900,#124);
#59=LINE('',#902,#125);
#60=LINE('',#904,#126);
#61=LINE('',#907,#127);
#62=LINE('',#911,#128);
#63=LINE('',#912,#129);
#64=LINE('',#913,#130);
#65=LINE('',#916,#131);
#66=LINE('',#917,#132);
#67=LINE('',#920,#133);
#68=LINE('',#921,#134);
#69=LINE('',#924,#135);
#70=LINE('',#926,#136);
#71=LINE('',#927,#137);
#72=LINE('',#930,#138);
#73=LINE('',#931,#139);
#74=LINE('',#934,#140);
#75=LINE('',#935,#141);
#76=LINE('',#939,#142);
#77=LINE('',#940,#143);
#78=LINE('',#941,#144);
#79=LINE('',#944,#145);
#80=LINE('',#945,#146);
#81=LINE('',#948,#147);
#82=LINE('',#950,#148);
#83=LINE('',#951,#149);
#84=LINE('',#954,#150);
#85=LINE('',#955,#151);
#86=LINE('',#959,#152);
#87=LINE('',#960,#153);
#88=LINE('',#961,#154);
#89=LINE('',#963,#155);
#90=LINE('',#966,#156);
#91=LINE('',#967,#157);
#92=LINE('',#972,#158);
#93=LINE('',#973,#159);
#94=LINE('',#975,#160);
#95=LINE('',#978,#161);
#96=LINE('',#981,#162);
#97=LINE('',#986,#163);
#98=LINE('',#987,#164);
#99=LINE('',#989,#165);
#100=LINE('',#992,#166);
#101=LINE('',#995,#167);
#102=LINE('',#997,#168);
#103=LINE('',#999,#169);
#104=LINE('',#1001,#170);
#105=LINE('',#1003,#171);
#106=LINE('',#1006,#172);
#107=VECTOR('',#683,4.5);
#108=VECTOR('',#700,10.);
#109=VECTOR('',#701,10.);
#110=VECTOR('',#702,10.);
#111=VECTOR('',#703,10.);
#112=VECTOR('',#706,10.);
#113=VECTOR('',#707,10.);
#114=VECTOR('',#708,10.);
#115=VECTOR('',#709,10.);
#116=VECTOR('',#710,10.);
#117=VECTOR('',#713,10.);
#118=VECTOR('',#714,10.);
#119=VECTOR('',#715,10.);
#120=VECTOR('',#716,10.);
#121=VECTOR('',#717,10.);
#122=VECTOR('',#720,10.);
#123=VECTOR('',#721,10.);
#124=VECTOR('',#722,10.);
#125=VECTOR('',#723,10.);
#126=VECTOR('',#724,10.);
#127=VECTOR('',#727,10.);
#128=VECTOR('',#730,10.);
#129=VECTOR('',#731,10.);
#130=VECTOR('',#732,10.);
#131=VECTOR('',#735,10.);
#132=VECTOR('',#736,10.);
#133=VECTOR('',#739,10.);
#134=VECTOR('',#740,10.);
#135=VECTOR('',#743,10.);
#136=VECTOR('',#744,10.);
#137=VECTOR('',#745,10.);
#138=VECTOR('',#748,10.);
#139=VECTOR('',#749,10.);
#140=VECTOR('',#752,10.);
#141=VECTOR('',#753,10.);
#142=VECTOR('',#756,10.);
#143=VECTOR('',#757,10.);
#144=VECTOR('',#758,10.);
#145=VECTOR('',#761,10.);
#146=VECTOR('',#762,10.);
#147=VECTOR('',#765,10.);
#148=VECTOR('',#766,10.);
#149=VECTOR('',#767,10.);
#150=VECTOR('',#770,10.);
#151=VECTOR('',#771,10.);
#152=VECTOR('',#774,10.);
#153=VECTOR('',#775,10.);
#154=VECTOR('',#776,10.);
#155=VECTOR('',#779,10.);
#156=VECTOR('',#782,10.);
#157=VECTOR('',#783,10.);
#158=VECTOR('',#788,10.);
#159=VECTOR('',#789,10.);
#160=VECTOR('',#792,10.);
#161=VECTOR('',#795,10.);
#162=VECTOR('',#800,10.);
#163=VECTOR('',#805,10.);
#164=VECTOR('',#806,10.);
#165=VECTOR('',#809,10.);
#166=VECTOR('',#812,10.);
#167=VECTOR('',#815,10.);
#168=VECTOR('',#818,10.);
#169=VECTOR('',#821,10.);
#170=VECTOR('',#824,10.);
#171=VECTOR('',#827,10.);
#172=VECTOR('',#830,3.05);
#173=CYLINDRICAL_SURFACE('',#624,4.5);
#174=CYLINDRICAL_SURFACE('',#650,2.5);
#175=CYLINDRICAL_SURFACE('',#653,2.5);
#176=CYLINDRICAL_SURFACE('',#656,2.5);
#177=CYLINDRICAL_SURFACE('',#659,2.5);
#178=CYLINDRICAL_SURFACE('',#665,3.05);
#179=FACE_OUTER_BOUND('',#211,.T.);
#180=FACE_OUTER_BOUND('',#212,.T.);
#181=FACE_OUTER_BOUND('',#213,.T.);
#182=FACE_OUTER_BOUND('',#215,.T.);
#183=FACE_OUTER_BOUND('',#216,.T.);
#184=FACE_OUTER_BOUND('',#218,.T.);
#185=FACE_OUTER_BOUND('',#219,.T.);
#186=FACE_OUTER_BOUND('',#220,.T.);
#187=FACE_OUTER_BOUND('',#221,.T.);
#188=FACE_OUTER_BOUND('',#222,.T.);
#189=FACE_OUTER_BOUND('',#223,.T.);
#190=FACE_OUTER_BOUND('',#224,.T.);
#191=FACE_OUTER_BOUND('',#225,.T.);
#192=FACE_OUTER_BOUND('',#226,.T.);
#193=FACE_OUTER_BOUND('',#227,.T.);
#194=FACE_OUTER_BOUND('',#228,.T.);
#195=FACE_OUTER_BOUND('',#229,.T.);
#196=FACE_OUTER_BOUND('',#230,.T.);
#197=FACE_OUTER_BOUND('',#231,.T.);
#198=FACE_OUTER_BOUND('',#232,.T.);
#199=FACE_OUTER_BOUND('',#233,.T.);
#200=FACE_OUTER_BOUND('',#234,.T.);
#201=FACE_OUTER_BOUND('',#235,.T.);
#202=FACE_OUTER_BOUND('',#236,.T.);
#203=FACE_OUTER_BOUND('',#237,.T.);
#204=FACE_OUTER_BOUND('',#238,.T.);
#205=FACE_OUTER_BOUND('',#239,.T.);
#206=FACE_OUTER_BOUND('',#240,.T.);
#207=FACE_OUTER_BOUND('',#241,.T.);
#208=FACE_OUTER_BOUND('',#242,.T.);
#209=FACE_OUTER_BOUND('',#243,.T.);
#210=FACE_OUTER_BOUND('',#244,.T.);
#211=EDGE_LOOP('',(#403,#404,#405,#406,#407));
#212=EDGE_LOOP('',(#408,#409,#410,#411,#412,#413));
#213=EDGE_LOOP('',(#414));
#214=EDGE_LOOP('',(#415));
#215=EDGE_LOOP('',(#416,#417,#418,#419,#420));
#216=EDGE_LOOP('',(#421,#422,#423,#424,#425,#426,#427,#428,#429,#430,#431,
#432,#433,#434,#435,#436,#437,#438,#439,#440,#441,#442,#443,#444));
#217=EDGE_LOOP('',(#445));
#218=EDGE_LOOP('',(#446,#447,#448,#449));
#219=EDGE_LOOP('',(#450,#451,#452,#453));
#220=EDGE_LOOP('',(#454,#455,#456,#457));
#221=EDGE_LOOP('',(#458,#459,#460,#461));
#222=EDGE_LOOP('',(#462,#463,#464,#465));
#223=EDGE_LOOP('',(#466,#467,#468,#469));
#224=EDGE_LOOP('',(#470,#471,#472,#473));
#225=EDGE_LOOP('',(#474,#475,#476,#477));
#226=EDGE_LOOP('',(#478,#479,#480,#481));
#227=EDGE_LOOP('',(#482,#483,#484,#485));
#228=EDGE_LOOP('',(#486,#487,#488,#489));
#229=EDGE_LOOP('',(#490,#491,#492,#493));
#230=EDGE_LOOP('',(#494,#495,#496,#497));
#231=EDGE_LOOP('',(#498,#499,#500,#501));
#232=EDGE_LOOP('',(#502,#503,#504,#505));
#233=EDGE_LOOP('',(#506,#507,#508,#509));
#234=EDGE_LOOP('',(#510,#511,#512,#513));
#235=EDGE_LOOP('',(#514,#515,#516,#517));
#236=EDGE_LOOP('',(#518,#519,#520,#521));
#237=EDGE_LOOP('',(#522,#523,#524,#525));
#238=EDGE_LOOP('',(#526,#527,#528,#529));
#239=EDGE_LOOP('',(#530,#531,#532,#533));
#240=EDGE_LOOP('',(#534,#535,#536,#537));
#241=EDGE_LOOP('',(#538,#539,#540,#541));
#242=EDGE_LOOP('',(#542,#543,#544,#545));
#243=EDGE_LOOP('',(#546,#547,#548,#549,#550,#551,#552,#553,#554,#555,#556,
#557,#558,#559,#560,#561,#562,#563,#564,#565,#566,#567,#568,#569));
#244=EDGE_LOOP('',(#570));
#245=CIRCLE('',#620,4.);
#246=CIRCLE('',#621,0.5);
#247=CIRCLE('',#622,4.5);
#248=CIRCLE('',#623,4.5);
#249=CIRCLE('',#625,4.5);
#250=CIRCLE('',#626,4.5);
#251=CIRCLE('',#628,3.05);
#252=CIRCLE('',#630,0.35);
#253=CIRCLE('',#631,4.85);
#254=CIRCLE('',#633,2.5);
#255=CIRCLE('',#634,2.5);
#256=CIRCLE('',#635,2.5);
#257=CIRCLE('',#636,2.5);
#258=CIRCLE('',#651,2.5);
#259=CIRCLE('',#654,2.5);
#260=CIRCLE('',#657,2.5);
#261=CIRCLE('',#660,2.5);
#262=CIRCLE('',#666,3.05);
#263=VERTEX_POINT('',#839);
#264=VERTEX_POINT('',#841);
#265=VERTEX_POINT('',#843);
#266=VERTEX_POINT('',#847);
#267=VERTEX_POINT('',#849);
#268=VERTEX_POINT('',#853);
#269=VERTEX_POINT('',#856);
#270=VERTEX_POINT('',#860);
#271=VERTEX_POINT('',#861);
#272=VERTEX_POINT('',#863);
#273=VERTEX_POINT('',#865);
#274=VERTEX_POINT('',#867);
#275=VERTEX_POINT('',#869);
#276=VERTEX_POINT('',#871);
#277=VERTEX_POINT('',#873);
#278=VERTEX_POINT('',#875);
#279=VERTEX_POINT('',#877);
#280=VERTEX_POINT('',#879);
#281=VERTEX_POINT('',#881);
#282=VERTEX_POINT('',#883);
#283=VERTEX_POINT('',#885);
#284=VERTEX_POINT('',#887);
#285=VERTEX_POINT('',#889);
#286=VERTEX_POINT('',#891);
#287=VERTEX_POINT('',#893);
#288=VERTEX_POINT('',#895);
#289=VERTEX_POINT('',#897);
#290=VERTEX_POINT('',#899);
#291=VERTEX_POINT('',#901);
#292=VERTEX_POINT('',#903);
#293=VERTEX_POINT('',#905);
#294=VERTEX_POINT('',#909);
#295=VERTEX_POINT('',#910);
#296=VERTEX_POINT('',#915);
#297=VERTEX_POINT('',#919);
#298=VERTEX_POINT('',#923);
#299=VERTEX_POINT('',#925);
#300=VERTEX_POINT('',#929);
#301=VERTEX_POINT('',#933);
#302=VERTEX_POINT('',#937);
#303=VERTEX_POINT('',#938);
#304=VERTEX_POINT('',#943);
#305=VERTEX_POINT('',#947);
#306=VERTEX_POINT('',#949);
#307=VERTEX_POINT('',#953);
#308=VERTEX_POINT('',#957);
#309=VERTEX_POINT('',#958);
#310=VERTEX_POINT('',#965);
#311=VERTEX_POINT('',#969);
#312=VERTEX_POINT('',#970);
#313=VERTEX_POINT('',#977);
#314=VERTEX_POINT('',#983);
#315=VERTEX_POINT('',#984);
#316=VERTEX_POINT('',#991);
#317=VERTEX_POINT('',#993);
#318=VERTEX_POINT('',#1005);
#319=EDGE_CURVE('',#263,#263,#245,.T.);
#320=EDGE_CURVE('',#263,#264,#246,.T.);
#321=EDGE_CURVE('',#264,#265,#247,.T.);
#322=EDGE_CURVE('',#265,#264,#248,.T.);
#323=EDGE_CURVE('',#265,#266,#41,.T.);
#324=EDGE_CURVE('',#267,#266,#249,.T.);
#325=EDGE_CURVE('',#266,#267,#250,.T.);
#326=EDGE_CURVE('',#268,#268,#251,.T.);
#327=EDGE_CURVE('',#267,#269,#252,.T.);
#328=EDGE_CURVE('',#269,#269,#253,.T.);
#329=EDGE_CURVE('',#270,#271,#42,.T.);
#330=EDGE_CURVE('',#272,#270,#43,.T.);
#331=EDGE_CURVE('',#273,#272,#44,.T.);
#332=EDGE_CURVE('',#274,#273,#45,.T.);
#333=EDGE_CURVE('',#275,#274,#254,.T.);
#334=EDGE_CURVE('',#275,#276,#46,.T.);
#335=EDGE_CURVE('',#277,#276,#47,.T.);
#336=EDGE_CURVE('',#277,#278,#48,.T.);
#337=EDGE_CURVE('',#279,#278,#49,.T.);
#338=EDGE_CURVE('',#279,#280,#50,.T.);
#339=EDGE_CURVE('',#281,#280,#255,.T.);
#340=EDGE_CURVE('',#282,#281,#51,.T.);
#341=EDGE_CURVE('',#283,#282,#52,.T.);
#342=EDGE_CURVE('',#283,#284,#53,.T.);
#343=EDGE_CURVE('',#285,#284,#54,.T.);
#344=EDGE_CURVE('',#285,#286,#55,.T.);
#345=EDGE_CURVE('',#287,#286,#256,.T.);
#346=EDGE_CURVE('',#287,#288,#56,.T.);
#347=EDGE_CURVE('',#289,#288,#57,.T.);
#348=EDGE_CURVE('',#289,#290,#58,.T.);
#349=EDGE_CURVE('',#291,#290,#59,.T.);
#350=EDGE_CURVE('',#291,#292,#60,.T.);
#351=EDGE_CURVE('',#293,#292,#257,.T.);
#352=EDGE_CURVE('',#293,#271,#61,.T.);
#353=EDGE_CURVE('',#294,#295,#62,.T.);
#354=EDGE_CURVE('',#295,#270,#63,.T.);
#355=EDGE_CURVE('',#271,#294,#64,.T.);
#356=EDGE_CURVE('',#296,#295,#65,.T.);
#357=EDGE_CURVE('',#272,#296,#66,.T.);
#358=EDGE_CURVE('',#296,#297,#67,.T.);
#359=EDGE_CURVE('',#297,#273,#68,.T.);
#360=EDGE_CURVE('',#276,#298,#69,.T.);
#361=EDGE_CURVE('',#298,#299,#70,.T.);
#362=EDGE_CURVE('',#299,#277,#71,.T.);
#363=EDGE_CURVE('',#300,#299,#72,.T.);
#364=EDGE_CURVE('',#278,#300,#73,.T.);
#365=EDGE_CURVE('',#300,#301,#74,.T.);
#366=EDGE_CURVE('',#301,#279,#75,.T.);
#367=EDGE_CURVE('',#302,#303,#76,.T.);
#368=EDGE_CURVE('',#303,#283,#77,.T.);
#369=EDGE_CURVE('',#282,#302,#78,.T.);
#370=EDGE_CURVE('',#304,#281,#79,.T.);
#371=EDGE_CURVE('',#302,#304,#80,.T.);
#372=EDGE_CURVE('',#290,#305,#81,.T.);
#373=EDGE_CURVE('',#305,#306,#82,.T.);
#374=EDGE_CURVE('',#306,#291,#83,.T.);
#375=EDGE_CURVE('',#307,#289,#84,.T.);
#376=EDGE_CURVE('',#305,#307,#85,.T.);
#377=EDGE_CURVE('',#308,#309,#86,.T.);
#378=EDGE_CURVE('',#309,#285,#87,.T.);
#379=EDGE_CURVE('',#284,#308,#88,.T.);
#380=EDGE_CURVE('',#308,#303,#89,.T.);
#381=EDGE_CURVE('',#288,#310,#90,.T.);
#382=EDGE_CURVE('',#310,#307,#91,.T.);
#383=EDGE_CURVE('',#311,#312,#258,.T.);
#384=EDGE_CURVE('',#312,#275,#92,.T.);
#385=EDGE_CURVE('',#274,#311,#93,.T.);
#386=EDGE_CURVE('',#298,#312,#94,.T.);
#387=EDGE_CURVE('',#280,#313,#95,.T.);
#388=EDGE_CURVE('',#313,#304,#259,.T.);
#389=EDGE_CURVE('',#313,#301,#96,.T.);
#390=EDGE_CURVE('',#314,#315,#260,.T.);
#391=EDGE_CURVE('',#315,#287,#97,.T.);
#392=EDGE_CURVE('',#286,#314,#98,.T.);
#393=EDGE_CURVE('',#310,#315,#99,.T.);
#394=EDGE_CURVE('',#292,#316,#100,.T.);
#395=EDGE_CURVE('',#316,#317,#261,.T.);
#396=EDGE_CURVE('',#317,#293,#101,.T.);
#397=EDGE_CURVE('',#316,#306,#102,.T.);
#398=EDGE_CURVE('',#311,#297,#103,.T.);
#399=EDGE_CURVE('',#294,#317,#104,.T.);
#400=EDGE_CURVE('',#314,#309,#105,.T.);
#401=EDGE_CURVE('',#268,#318,#106,.T.);
#402=EDGE_CURVE('',#318,#318,#262,.T.);
#403=ORIENTED_EDGE('',*,*,#319,.T.);
#404=ORIENTED_EDGE('',*,*,#320,.T.);
#405=ORIENTED_EDGE('',*,*,#321,.T.);
#406=ORIENTED_EDGE('',*,*,#322,.T.);
#407=ORIENTED_EDGE('',*,*,#320,.F.);
#408=ORIENTED_EDGE('',*,*,#322,.F.);
#409=ORIENTED_EDGE('',*,*,#323,.T.);
#410=ORIENTED_EDGE('',*,*,#324,.F.);
#411=ORIENTED_EDGE('',*,*,#325,.F.);
#412=ORIENTED_EDGE('',*,*,#323,.F.);
#413=ORIENTED_EDGE('',*,*,#321,.F.);
#414=ORIENTED_EDGE('',*,*,#319,.F.);
#415=ORIENTED_EDGE('',*,*,#326,.T.);
#416=ORIENTED_EDGE('',*,*,#325,.T.);
#417=ORIENTED_EDGE('',*,*,#327,.T.);
#418=ORIENTED_EDGE('',*,*,#328,.T.);
#419=ORIENTED_EDGE('',*,*,#327,.F.);
#420=ORIENTED_EDGE('',*,*,#324,.T.);
#421=ORIENTED_EDGE('',*,*,#329,.F.);
#422=ORIENTED_EDGE('',*,*,#330,.F.);
#423=ORIENTED_EDGE('',*,*,#331,.F.);
#424=ORIENTED_EDGE('',*,*,#332,.F.);
#425=ORIENTED_EDGE('',*,*,#333,.F.);
#426=ORIENTED_EDGE('',*,*,#334,.T.);
#427=ORIENTED_EDGE('',*,*,#335,.F.);
#428=ORIENTED_EDGE('',*,*,#336,.T.);
#429=ORIENTED_EDGE('',*,*,#337,.F.);
#430=ORIENTED_EDGE('',*,*,#338,.T.);
#431=ORIENTED_EDGE('',*,*,#339,.F.);
#432=ORIENTED_EDGE('',*,*,#340,.F.);
#433=ORIENTED_EDGE('',*,*,#341,.F.);
#434=ORIENTED_EDGE('',*,*,#342,.T.);
#435=ORIENTED_EDGE('',*,*,#343,.F.);
#436=ORIENTED_EDGE('',*,*,#344,.T.);
#437=ORIENTED_EDGE('',*,*,#345,.F.);
#438=ORIENTED_EDGE('',*,*,#346,.T.);
#439=ORIENTED_EDGE('',*,*,#347,.F.);
#440=ORIENTED_EDGE('',*,*,#348,.T.);
#441=ORIENTED_EDGE('',*,*,#349,.F.);
#442=ORIENTED_EDGE('',*,*,#350,.T.);
#443=ORIENTED_EDGE('',*,*,#351,.F.);
#444=ORIENTED_EDGE('',*,*,#352,.T.);
#445=ORIENTED_EDGE('',*,*,#328,.F.);
#446=ORIENTED_EDGE('',*,*,#353,.T.);
#447=ORIENTED_EDGE('',*,*,#354,.T.);
#448=ORIENTED_EDGE('',*,*,#329,.T.);
#449=ORIENTED_EDGE('',*,*,#355,.T.);
#450=ORIENTED_EDGE('',*,*,#354,.F.);
#451=ORIENTED_EDGE('',*,*,#356,.F.);
#452=ORIENTED_EDGE('',*,*,#357,.F.);
#453=ORIENTED_EDGE('',*,*,#330,.T.);
#454=ORIENTED_EDGE('',*,*,#358,.T.);
#455=ORIENTED_EDGE('',*,*,#359,.T.);
#456=ORIENTED_EDGE('',*,*,#331,.T.);
#457=ORIENTED_EDGE('',*,*,#357,.T.);
#458=ORIENTED_EDGE('',*,*,#335,.T.);
#459=ORIENTED_EDGE('',*,*,#360,.T.);
#460=ORIENTED_EDGE('',*,*,#361,.T.);
#461=ORIENTED_EDGE('',*,*,#362,.T.);
#462=ORIENTED_EDGE('',*,*,#362,.F.);
#463=ORIENTED_EDGE('',*,*,#363,.F.);
#464=ORIENTED_EDGE('',*,*,#364,.F.);
#465=ORIENTED_EDGE('',*,*,#336,.F.);
#466=ORIENTED_EDGE('',*,*,#337,.T.);
#467=ORIENTED_EDGE('',*,*,#364,.T.);
#468=ORIENTED_EDGE('',*,*,#365,.T.);
#469=ORIENTED_EDGE('',*,*,#366,.T.);
#470=ORIENTED_EDGE('',*,*,#367,.T.);
#471=ORIENTED_EDGE('',*,*,#368,.T.);
#472=ORIENTED_EDGE('',*,*,#341,.T.);
#473=ORIENTED_EDGE('',*,*,#369,.T.);
#474=ORIENTED_EDGE('',*,*,#369,.F.);
#475=ORIENTED_EDGE('',*,*,#340,.T.);
#476=ORIENTED_EDGE('',*,*,#370,.F.);
#477=ORIENTED_EDGE('',*,*,#371,.F.);
#478=ORIENTED_EDGE('',*,*,#349,.T.);
#479=ORIENTED_EDGE('',*,*,#372,.T.);
#480=ORIENTED_EDGE('',*,*,#373,.T.);
#481=ORIENTED_EDGE('',*,*,#374,.T.);
#482=ORIENTED_EDGE('',*,*,#372,.F.);
#483=ORIENTED_EDGE('',*,*,#348,.F.);
#484=ORIENTED_EDGE('',*,*,#375,.F.);
#485=ORIENTED_EDGE('',*,*,#376,.F.);
#486=ORIENTED_EDGE('',*,*,#377,.T.);
#487=ORIENTED_EDGE('',*,*,#378,.T.);
#488=ORIENTED_EDGE('',*,*,#343,.T.);
#489=ORIENTED_EDGE('',*,*,#379,.T.);
#490=ORIENTED_EDGE('',*,*,#368,.F.);
#491=ORIENTED_EDGE('',*,*,#380,.F.);
#492=ORIENTED_EDGE('',*,*,#379,.F.);
#493=ORIENTED_EDGE('',*,*,#342,.F.);
#494=ORIENTED_EDGE('',*,*,#347,.T.);
#495=ORIENTED_EDGE('',*,*,#381,.T.);
#496=ORIENTED_EDGE('',*,*,#382,.T.);
#497=ORIENTED_EDGE('',*,*,#375,.T.);
#498=ORIENTED_EDGE('',*,*,#383,.T.);
#499=ORIENTED_EDGE('',*,*,#384,.T.);
#500=ORIENTED_EDGE('',*,*,#333,.T.);
#501=ORIENTED_EDGE('',*,*,#385,.T.);
#502=ORIENTED_EDGE('',*,*,#360,.F.);
#503=ORIENTED_EDGE('',*,*,#334,.F.);
#504=ORIENTED_EDGE('',*,*,#384,.F.);
#505=ORIENTED_EDGE('',*,*,#386,.F.);
#506=ORIENTED_EDGE('',*,*,#339,.T.);
#507=ORIENTED_EDGE('',*,*,#387,.T.);
#508=ORIENTED_EDGE('',*,*,#388,.T.);
#509=ORIENTED_EDGE('',*,*,#370,.T.);
#510=ORIENTED_EDGE('',*,*,#366,.F.);
#511=ORIENTED_EDGE('',*,*,#389,.F.);
#512=ORIENTED_EDGE('',*,*,#387,.F.);
#513=ORIENTED_EDGE('',*,*,#338,.F.);
#514=ORIENTED_EDGE('',*,*,#390,.T.);
#515=ORIENTED_EDGE('',*,*,#391,.T.);
#516=ORIENTED_EDGE('',*,*,#345,.T.);
#517=ORIENTED_EDGE('',*,*,#392,.T.);
#518=ORIENTED_EDGE('',*,*,#381,.F.);
#519=ORIENTED_EDGE('',*,*,#346,.F.);
#520=ORIENTED_EDGE('',*,*,#391,.F.);
#521=ORIENTED_EDGE('',*,*,#393,.F.);
#522=ORIENTED_EDGE('',*,*,#351,.T.);
#523=ORIENTED_EDGE('',*,*,#394,.T.);
#524=ORIENTED_EDGE('',*,*,#395,.T.);
#525=ORIENTED_EDGE('',*,*,#396,.T.);
#526=ORIENTED_EDGE('',*,*,#374,.F.);
#527=ORIENTED_EDGE('',*,*,#397,.F.);
#528=ORIENTED_EDGE('',*,*,#394,.F.);
#529=ORIENTED_EDGE('',*,*,#350,.F.);
#530=ORIENTED_EDGE('',*,*,#359,.F.);
#531=ORIENTED_EDGE('',*,*,#398,.F.);
#532=ORIENTED_EDGE('',*,*,#385,.F.);
#533=ORIENTED_EDGE('',*,*,#332,.T.);
#534=ORIENTED_EDGE('',*,*,#355,.F.);
#535=ORIENTED_EDGE('',*,*,#352,.F.);
#536=ORIENTED_EDGE('',*,*,#396,.F.);
#537=ORIENTED_EDGE('',*,*,#399,.F.);
#538=ORIENTED_EDGE('',*,*,#378,.F.);
#539=ORIENTED_EDGE('',*,*,#400,.F.);
#540=ORIENTED_EDGE('',*,*,#392,.F.);
#541=ORIENTED_EDGE('',*,*,#344,.F.);
#542=ORIENTED_EDGE('',*,*,#326,.F.);
#543=ORIENTED_EDGE('',*,*,#401,.T.);
#544=ORIENTED_EDGE('',*,*,#402,.F.);
#545=ORIENTED_EDGE('',*,*,#401,.F.);
#546=ORIENTED_EDGE('',*,*,#353,.F.);
#547=ORIENTED_EDGE('',*,*,#399,.T.);
#548=ORIENTED_EDGE('',*,*,#395,.F.);
#549=ORIENTED_EDGE('',*,*,#397,.T.);
#550=ORIENTED_EDGE('',*,*,#373,.F.);
#551=ORIENTED_EDGE('',*,*,#376,.T.);
#552=ORIENTED_EDGE('',*,*,#382,.F.);
#553=ORIENTED_EDGE('',*,*,#393,.T.);
#554=ORIENTED_EDGE('',*,*,#390,.F.);
#555=ORIENTED_EDGE('',*,*,#400,.T.);
#556=ORIENTED_EDGE('',*,*,#377,.F.);
#557=ORIENTED_EDGE('',*,*,#380,.T.);
#558=ORIENTED_EDGE('',*,*,#367,.F.);
#559=ORIENTED_EDGE('',*,*,#371,.T.);
#560=ORIENTED_EDGE('',*,*,#388,.F.);
#561=ORIENTED_EDGE('',*,*,#389,.T.);
#562=ORIENTED_EDGE('',*,*,#365,.F.);
#563=ORIENTED_EDGE('',*,*,#363,.T.);
#564=ORIENTED_EDGE('',*,*,#361,.F.);
#565=ORIENTED_EDGE('',*,*,#386,.T.);
#566=ORIENTED_EDGE('',*,*,#383,.F.);
#567=ORIENTED_EDGE('',*,*,#398,.T.);
#568=ORIENTED_EDGE('',*,*,#358,.F.);
#569=ORIENTED_EDGE('',*,*,#356,.T.);
#570=ORIENTED_EDGE('',*,*,#402,.T.);
#571=TOROIDAL_SURFACE('',#619,4.,0.5);
#572=TOROIDAL_SURFACE('',#629,4.85,0.35);
#573=ADVANCED_FACE('',(#179),#571,.T.);
#574=ADVANCED_FACE('',(#180),#173,.T.);
#575=ADVANCED_FACE('',(#181,#15),#17,.F.);
#576=ADVANCED_FACE('',(#182),#572,.F.);
#577=ADVANCED_FACE('',(#183,#16),#18,.F.);
#578=ADVANCED_FACE('',(#184),#19,.T.);
#579=ADVANCED_FACE('',(#185),#20,.T.);
#580=ADVANCED_FACE('',(#186),#21,.T.);
#581=ADVANCED_FACE('',(#187),#22,.T.);
#582=ADVANCED_FACE('',(#188),#23,.T.);
#583=ADVANCED_FACE('',(#189),#24,.T.);
#584=ADVANCED_FACE('',(#190),#25,.T.);
#585=ADVANCED_FACE('',(#191),#26,.T.);
#586=ADVANCED_FACE('',(#192),#27,.T.);
#587=ADVANCED_FACE('',(#193),#28,.T.);
#588=ADVANCED_FACE('',(#194),#29,.T.);
#589=ADVANCED_FACE('',(#195),#30,.T.);
#590=ADVANCED_FACE('',(#196),#31,.T.);
#591=ADVANCED_FACE('',(#197),#174,.F.);
#592=ADVANCED_FACE('',(#198),#32,.T.);
#593=ADVANCED_FACE('',(#199),#175,.F.);
#594=ADVANCED_FACE('',(#200),#33,.T.);
#595=ADVANCED_FACE('',(#201),#176,.F.);
#596=ADVANCED_FACE('',(#202),#34,.T.);
#597=ADVANCED_FACE('',(#203),#177,.F.);
#598=ADVANCED_FACE('',(#204),#35,.T.);
#599=ADVANCED_FACE('',(#205),#36,.T.);
#600=ADVANCED_FACE('',(#206),#37,.T.);
#601=ADVANCED_FACE('',(#207),#38,.T.);
#602=ADVANCED_FACE('',(#208),#178,.F.);
#603=ADVANCED_FACE('',(#209),#39,.T.);
#604=ADVANCED_FACE('',(#210),#40,.F.);
#605=CLOSED_SHELL('',(#573,#574,#575,#576,#577,#578,#579,#580,#581,#582,
#583,#584,#585,#586,#587,#588,#589,#590,#591,#592,#593,#594,#595,#596,#597,
#598,#599,#600,#601,#602,#603,#604));
#606=DERIVED_UNIT_ELEMENT(#608,1.);
#607=DERIVED_UNIT_ELEMENT(#1015,-3.);
#608=(
MASS_UNIT()
NAMED_UNIT(*)
SI_UNIT(.KILO.,.GRAM.)
);
#609=DERIVED_UNIT((#606,#607));
#610=MEASURE_REPRESENTATION_ITEM('density measure',
POSITIVE_RATIO_MEASURE(1290.),#609);
#611=PROPERTY_DEFINITION_REPRESENTATION(#616,#613);
#612=PROPERTY_DEFINITION_REPRESENTATION(#617,#614);
#613=REPRESENTATION('material name',(#615),#1012);
#614=REPRESENTATION('density',(#610),#1012);
#615=DESCRIPTIVE_REPRESENTATION_ITEM('Plastic','Plastic');
#616=PROPERTY_DEFINITION('material property','material name',#1022);
#617=PROPERTY_DEFINITION('material property','density of part',#1022);
#618=AXIS2_PLACEMENT_3D('',#837,#669,#670);
#619=AXIS2_PLACEMENT_3D('',#838,#671,#672);
#620=AXIS2_PLACEMENT_3D('',#840,#673,#674);
#621=AXIS2_PLACEMENT_3D('',#842,#675,#676);
#622=AXIS2_PLACEMENT_3D('',#844,#677,#678);
#623=AXIS2_PLACEMENT_3D('',#845,#679,#680);
#624=AXIS2_PLACEMENT_3D('',#846,#681,#682);
#625=AXIS2_PLACEMENT_3D('',#850,#684,#685);
#626=AXIS2_PLACEMENT_3D('',#851,#686,#687);
#627=AXIS2_PLACEMENT_3D('',#852,#688,#689);
#628=AXIS2_PLACEMENT_3D('',#854,#690,#691);
#629=AXIS2_PLACEMENT_3D('',#855,#692,#693);
#630=AXIS2_PLACEMENT_3D('',#857,#694,#695);
#631=AXIS2_PLACEMENT_3D('',#858,#696,#697);
#632=AXIS2_PLACEMENT_3D('',#859,#698,#699);
#633=AXIS2_PLACEMENT_3D('',#870,#704,#705);
#634=AXIS2_PLACEMENT_3D('',#882,#711,#712);
#635=AXIS2_PLACEMENT_3D('',#894,#718,#719);
#636=AXIS2_PLACEMENT_3D('',#906,#725,#726);
#637=AXIS2_PLACEMENT_3D('',#908,#728,#729);
#638=AXIS2_PLACEMENT_3D('',#914,#733,#734);
#639=AXIS2_PLACEMENT_3D('',#918,#737,#738);
#640=AXIS2_PLACEMENT_3D('',#922,#741,#742);
#641=AXIS2_PLACEMENT_3D('',#928,#746,#747);
#642=AXIS2_PLACEMENT_3D('',#932,#750,#751);
#643=AXIS2_PLACEMENT_3D('',#936,#754,#755);
#644=AXIS2_PLACEMENT_3D('',#942,#759,#760);
#645=AXIS2_PLACEMENT_3D('',#946,#763,#764);
#646=AXIS2_PLACEMENT_3D('',#952,#768,#769);
#647=AXIS2_PLACEMENT_3D('',#956,#772,#773);
#648=AXIS2_PLACEMENT_3D('',#962,#777,#778);
#649=AXIS2_PLACEMENT_3D('',#964,#780,#781);
#650=AXIS2_PLACEMENT_3D('',#968,#784,#785);
#651=AXIS2_PLACEMENT_3D('',#971,#786,#787);
#652=AXIS2_PLACEMENT_3D('',#974,#790,#791);
#653=AXIS2_PLACEMENT_3D('',#976,#793,#794);
#654=AXIS2_PLACEMENT_3D('',#979,#796,#797);
#655=AXIS2_PLACEMENT_3D('',#980,#798,#799);
#656=AXIS2_PLACEMENT_3D('',#982,#801,#802);
#657=AXIS2_PLACEMENT_3D('',#985,#803,#804);
#658=AXIS2_PLACEMENT_3D('',#988,#807,#808);
#659=AXIS2_PLACEMENT_3D('',#990,#810,#811);
#660=AXIS2_PLACEMENT_3D('',#994,#813,#814);
#661=AXIS2_PLACEMENT_3D('',#996,#816,#817);
#662=AXIS2_PLACEMENT_3D('',#998,#819,#820);
#663=AXIS2_PLACEMENT_3D('',#1000,#822,#823);
#664=AXIS2_PLACEMENT_3D('',#1002,#825,#826);
#665=AXIS2_PLACEMENT_3D('',#1004,#828,#829);
#666=AXIS2_PLACEMENT_3D('',#1007,#831,#832);
#667=AXIS2_PLACEMENT_3D('',#1008,#833,#834);
#668=AXIS2_PLACEMENT_3D('',#1009,#835,#836);
#669=DIRECTION('axis',(0.,0.,1.));
#670=DIRECTION('refdir',(1.,0.,0.));
#671=DIRECTION('center_axis',(-1.,0.,0.));
#672=DIRECTION('ref_axis',(0.,0.,1.));
#673=DIRECTION('center_axis',(1.,0.,0.));
#674=DIRECTION('ref_axis',(0.,1.,0.));
#675=DIRECTION('center_axis',(0.,-1.,1.22464679914735E-16));
#676=DIRECTION('ref_axis',(0.,-1.22464679914735E-16,-1.));
#677=DIRECTION('center_axis',(-1.,0.,0.));
#678=DIRECTION('ref_axis',(0.,1.,0.));
#679=DIRECTION('center_axis',(-1.,0.,0.));
#680=DIRECTION('ref_axis',(0.,1.,0.));
#681=DIRECTION('center_axis',(-1.,0.,0.));
#682=DIRECTION('ref_axis',(0.,1.,0.));
#683=DIRECTION('',(1.,0.,0.));
#684=DIRECTION('center_axis',(1.,0.,0.));
#685=DIRECTION('ref_axis',(0.,-0.628539361054683,0.777777777777799));
#686=DIRECTION('center_axis',(1.,0.,0.));
#687=DIRECTION('ref_axis',(0.,-0.628539361054683,0.777777777777799));
#688=DIRECTION('center_axis',(1.,0.,0.));
#689=DIRECTION('ref_axis',(0.,1.,0.));
#690=DIRECTION('center_axis',(1.,0.,0.));
#691=DIRECTION('ref_axis',(0.,1.,0.));
#692=DIRECTION('center_axis',(1.,0.,0.));
#693=DIRECTION('ref_axis',(0.,0.,-1.));
#694=DIRECTION('center_axis',(0.,-1.,-1.22464679914735E-16));
#695=DIRECTION('ref_axis',(0.,-1.22464679914735E-16,1.));
#696=DIRECTION('center_axis',(-1.,0.,0.));
#697=DIRECTION('ref_axis',(0.,-0.628539361054683,0.777777777777799));
#698=DIRECTION('center_axis',(1.,0.,0.));
#699=DIRECTION('ref_axis',(0.,1.,0.));
#700=DIRECTION('',(0.,-0.707106781186544,0.707106781186551));
#701=DIRECTION('',(0.,0.,1.));
#702=DIRECTION('',(0.,0.707106781186498,0.707106781186598));
#703=DIRECTION('',(0.,1.,-7.20291036498895E-15));
#704=DIRECTION('center_axis',(-1.,0.,0.));
#705=DIRECTION('ref_axis',(0.,-0.707106781186545,0.70710678118655));
#706=DIRECTION('',(0.,0.,-1.));
#707=DIRECTION('',(0.,0.707106781186548,0.707106781186548));
#708=DIRECTION('',(0.,-1.,0.));
#709=DIRECTION('',(0.,0.707106781186548,-0.707106781186548));
#710=DIRECTION('',(0.,0.,1.));
#711=DIRECTION('center_axis',(-1.,0.,0.));
#712=DIRECTION('ref_axis',(0.,0.70710678118655,0.707106781186545));
#713=DIRECTION('',(0.,1.,-7.20291036498895E-15));
#714=DIRECTION('',(0.,0.707106781186545,-0.70710678118655));
#715=DIRECTION('',(0.,0.,1.));
#716=DIRECTION('',(0.,-0.707106781186464,-0.707106781186632));
#717=DIRECTION('',(0.,1.,-1.21312174346203E-14));
#718=DIRECTION('center_axis',(-1.,0.,0.));
#719=DIRECTION('ref_axis',(0.,0.707106781186543,-0.707106781186552));
#720=DIRECTION('',(0.,0.,1.));
#721=DIRECTION('',(0.,-0.707106781186547,-0.707106781186548));
#722=DIRECTION('',(0.,1.,0.));
#723=DIRECTION('',(0.,-0.707106781186547,0.707106781186548));
#724=DIRECTION('',(0.,0.,-1.));
#725=DIRECTION('center_axis',(-1.,0.,0.));
#726=DIRECTION('ref_axis',(0.,-0.707106781186552,-0.707106781186543));
#727=DIRECTION('',(0.,1.,-1.21312174346203E-14));
#728=DIRECTION('center_axis',(0.,0.707106781186551,0.707106781186544));
#729=DIRECTION('ref_axis',(1.,0.,0.));
#730=DIRECTION('',(0.,0.707106781186544,-0.707106781186551));
#731=DIRECTION('',(-1.,0.,0.));
#732=DIRECTION('',(1.,0.,0.));
#733=DIRECTION('center_axis',(0.,1.,0.));
#734=DIRECTION('ref_axis',(0.,0.,1.));
#735=DIRECTION('',(0.,0.,1.));
#736=DIRECTION('',(1.,0.,0.));
#737=DIRECTION('center_axis',(0.,0.707106781186598,-0.707106781186498));
#738=DIRECTION('ref_axis',(-1.,0.,0.));
#739=DIRECTION('',(0.,-0.707106781186498,-0.707106781186598));
#740=DIRECTION('',(-1.,0.,0.));
#741=DIRECTION('center_axis',(0.,0.707106781186548,-0.707106781186548));
#742=DIRECTION('ref_axis',(-1.,0.,0.));
#743=DIRECTION('',(1.,0.,0.));
#744=DIRECTION('',(0.,-0.707106781186548,-0.707106781186548));
#745=DIRECTION('',(-1.,0.,0.));
#746=DIRECTION('center_axis',(0.,0.,-1.));
#747=DIRECTION('ref_axis',(0.,-1.,0.));
#748=DIRECTION('',(0.,1.,0.));
#749=DIRECTION('',(1.,0.,0.));
#750=DIRECTION('center_axis',(0.,-0.707106781186548,-0.707106781186548));
#751=DIRECTION('ref_axis',(-1.,0.,0.));
#752=DIRECTION('',(0.,-0.707106781186548,0.707106781186548));
#753=DIRECTION('',(-1.,0.,0.));
#754=DIRECTION('center_axis',(0.,-0.70710678118655,-0.707106781186545));
#755=DIRECTION('ref_axis',(-1.,0.,0.));
#756=DIRECTION('',(0.,-0.707106781186545,0.70710678118655));
#757=DIRECTION('',(-1.,0.,0.));
#758=DIRECTION('',(1.,0.,0.));
#759=DIRECTION('center_axis',(0.,-7.20291036498895E-15,-1.));
#760=DIRECTION('ref_axis',(0.,1.,-7.20291036498895E-15));
#761=DIRECTION('',(-1.,0.,0.));
#762=DIRECTION('',(0.,1.,-7.20291036498895E-15));
#763=DIRECTION('center_axis',(0.,0.707106781186548,0.707106781186547));
#764=DIRECTION('ref_axis',(1.,0.,0.));
#765=DIRECTION('',(1.,0.,0.));
#766=DIRECTION('',(0.,0.707106781186547,-0.707106781186548));
#767=DIRECTION('',(-1.,0.,0.));
#768=DIRECTION('center_axis',(0.,0.,1.));
#769=DIRECTION('ref_axis',(0.,1.,0.));
#770=DIRECTION('',(-1.,0.,0.));
#771=DIRECTION('',(0.,-1.,0.));
#772=DIRECTION('center_axis',(0.,-0.707106781186632,0.707106781186464));
#773=DIRECTION('ref_axis',(1.,0.,0.));
#774=DIRECTION('',(0.,0.707106781186464,0.707106781186632));
#775=DIRECTION('',(-1.,0.,0.));
#776=DIRECTION('',(1.,0.,0.));
#777=DIRECTION('center_axis',(0.,-1.,0.));
#778=DIRECTION('ref_axis',(0.,0.,-1.));
#779=DIRECTION('',(0.,0.,-1.));
#780=DIRECTION('center_axis',(0.,-0.707106781186548,0.707106781186547));
#781=DIRECTION('ref_axis',(1.,0.,0.));
#782=DIRECTION('',(1.,0.,0.));
#783=DIRECTION('',(0.,0.707106781186547,0.707106781186548));
#784=DIRECTION('center_axis',(-1.,0.,0.));
#785=DIRECTION('ref_axis',(0.,-0.707106781186545,0.70710678118655));
#786=DIRECTION('center_axis',(1.,0.,0.));
#787=DIRECTION('ref_axis',(0.,-0.707106781186545,0.70710678118655));
#788=DIRECTION('',(-1.,0.,0.));
#789=DIRECTION('',(1.,0.,0.));
#790=DIRECTION('center_axis',(0.,1.,0.));
#791=DIRECTION('ref_axis',(0.,0.,-1.));
#792=DIRECTION('',(0.,0.,1.));
#793=DIRECTION('center_axis',(1.,0.,0.));
#794=DIRECTION('ref_axis',(0.,0.70710678118655,0.707106781186545));
#795=DIRECTION('',(1.,0.,0.));
#796=DIRECTION('center_axis',(1.,0.,0.));
#797=DIRECTION('ref_axis',(0.,0.70710678118655,0.707106781186545));
#798=DIRECTION('center_axis',(0.,-1.,0.));
#799=DIRECTION('ref_axis',(0.,0.,1.));
#800=DIRECTION('',(0.,0.,-1.));
#801=DIRECTION('center_axis',(-1.,0.,0.));
#802=DIRECTION('ref_axis',(0.,0.707106781186543,-0.707106781186552));
#803=DIRECTION('center_axis',(1.,0.,0.));
#804=DIRECTION('ref_axis',(0.,0.707106781186543,-0.707106781186552));
#805=DIRECTION('',(-1.,0.,0.));
#806=DIRECTION('',(1.,0.,0.));
#807=DIRECTION('center_axis',(0.,-1.,0.));
#808=DIRECTION('ref_axis',(0.,0.,1.));
#809=DIRECTION('',(0.,0.,-1.));
#810=DIRECTION('center_axis',(1.,0.,0.));
#811=DIRECTION('ref_axis',(0.,-0.707106781186552,-0.707106781186543));
#812=DIRECTION('',(1.,0.,0.));
#813=DIRECTION('center_axis',(1.,0.,0.));
#814=DIRECTION('ref_axis',(0.,-0.707106781186552,-0.707106781186543));
#815=DIRECTION('',(-1.,0.,0.));
#816=DIRECTION('center_axis',(0.,1.,0.));
#817=DIRECTION('ref_axis',(0.,0.,-1.));
#818=DIRECTION('',(0.,0.,1.));
#819=DIRECTION('center_axis',(0.,-7.20291036498895E-15,-1.));
#820=DIRECTION('ref_axis',(0.,1.,-7.20291036498895E-15));
#821=DIRECTION('',(0.,1.,-7.20291036498895E-15));
#822=DIRECTION('center_axis',(0.,1.21312174346203E-14,1.));
#823=DIRECTION('ref_axis',(0.,-1.,1.21312174346203E-14));
#824=DIRECTION('',(0.,-1.,1.21312174346203E-14));
#825=DIRECTION('center_axis',(0.,1.21312174346203E-14,1.));
#826=DIRECTION('ref_axis',(0.,-1.,1.21312174346203E-14));
#827=DIRECTION('',(0.,-1.,1.21312174346203E-14));
#828=DIRECTION('center_axis',(-1.,0.,0.));
#829=DIRECTION('ref_axis',(0.,1.,0.));
#830=DIRECTION('',(1.,0.,0.));
#831=DIRECTION('center_axis',(-1.,0.,0.));
#832=DIRECTION('ref_axis',(0.,1.,0.));
#833=DIRECTION('center_axis',(1.,0.,0.));
#834=DIRECTION('ref_axis',(0.,0.,-1.));
#835=DIRECTION('center_axis',(1.,0.,0.));
#836=DIRECTION('ref_axis',(0.,1.,0.));
#837=CARTESIAN_POINT('',(0.,0.,0.));
#838=CARTESIAN_POINT('Origin',(34.7399919871743,-2.22044604925031E-15,7.1));
#839=CARTESIAN_POINT('',(34.2399919871743,-2.71030476890925E-15,3.1));
#840=CARTESIAN_POINT('Origin',(34.2399919871743,-2.22044604925031E-15,7.1));
#841=CARTESIAN_POINT('',(34.7399919871743,-2.77153710886662E-15,2.6));
#842=CARTESIAN_POINT('Origin',(34.7399919871743,-2.71030476890925E-15,3.1));
#843=CARTESIAN_POINT('',(34.7399919871743,-4.5,7.1));
#844=CARTESIAN_POINT('Origin',(34.7399919871743,-2.22044604925031E-15,7.1));
#845=CARTESIAN_POINT('Origin',(34.7399919871743,-2.22044604925031E-15,7.1));
#846=CARTESIAN_POINT('Origin',(41.2399919871743,-2.22044604925031E-15,7.1));
#847=CARTESIAN_POINT('',(40.8899919871743,-4.5,7.1));
#848=CARTESIAN_POINT('',(41.2399919871743,-4.5,7.1));
#849=CARTESIAN_POINT('',(40.8899919871743,-2.77153710886662E-15,11.6));
#850=CARTESIAN_POINT('Origin',(40.8899919871743,-2.22044604925031E-15,7.1));
#851=CARTESIAN_POINT('Origin',(40.8899919871743,-2.22044604925031E-15,7.1));
#852=CARTESIAN_POINT('Origin',(34.2399919871743,-2.22044604925031E-15,7.1));
#853=CARTESIAN_POINT('',(34.2399919871743,-3.05,7.1));
#854=CARTESIAN_POINT('Origin',(34.2399919871743,-2.22044604925031E-15,7.1));
#855=CARTESIAN_POINT('Origin',(40.8899919871743,-2.22044604925031E-15,7.1));
#856=CARTESIAN_POINT('',(41.2399919871743,-2.81439974683678E-15,11.95));
#857=CARTESIAN_POINT('Origin',(40.8899919871743,-2.81439974683678E-15,11.95));
#858=CARTESIAN_POINT('Origin',(41.2399919871743,-2.22044604925031E-15,7.1));
#859=CARTESIAN_POINT('Origin',(41.2399919871743,-2.22044604925031E-15,7.10000000000003));
#860=CARTESIAN_POINT('',(41.2399919871743,10.25,9.6));
#861=CARTESIAN_POINT('',(41.2399919871743,9.25,10.6));
#862=CARTESIAN_POINT('',(41.2399919871743,8.06250000000002,11.7875));
#863=CARTESIAN_POINT('',(41.2399919871743,10.25,4.6));
#864=CARTESIAN_POINT('',(41.2399919871743,10.25,3.6));
#865=CARTESIAN_POINT('',(41.2399919871743,9.25,3.59999999999986));
#866=CARTESIAN_POINT('',(41.2399919871743,8.06250000000037,2.41250000000006));
#867=CARTESIAN_POINT('',(41.2399919871743,6.50000000000001,3.59999999999988));
#868=CARTESIAN_POINT('',(41.2399919871743,-10.25,3.6));
#869=CARTESIAN_POINT('',(41.2399919871743,4.,1.09999999999988));
#870=CARTESIAN_POINT('Origin',(41.2399919871743,6.5,1.09999999999988));
#871=CARTESIAN_POINT('',(41.2399919871743,4.,-2.15));
#872=CARTESIAN_POINT('',(41.2399919871743,4.,-3.15));
#873=CARTESIAN_POINT('',(41.2399919871743,3.,-3.15));
#874=CARTESIAN_POINT('',(41.2399919871743,5.0625,-1.08749999999999));
#875=CARTESIAN_POINT('',(41.2399919871743,-3.,-3.15));
#876=CARTESIAN_POINT('',(41.2399919871743,-4.,-3.15));
#877=CARTESIAN_POINT('',(41.2399919871743,-4.,-2.15));
#878=CARTESIAN_POINT('',(41.2399919871743,-5.06250000000001,-1.08749999999999));
#879=CARTESIAN_POINT('',(41.2399919871743,-4.,1.09999999999997));
#880=CARTESIAN_POINT('',(41.2399919871743,-4.,17.35));
#881=CARTESIAN_POINT('',(41.2399919871743,-6.49999999999998,3.59999999999997));
#882=CARTESIAN_POINT('Origin',(41.2399919871743,-6.5,1.09999999999997));
#883=CARTESIAN_POINT('',(41.2399919871743,-9.25,3.59999999999999));
#884=CARTESIAN_POINT('',(41.2399919871743,-10.25,3.6));
#885=CARTESIAN_POINT('',(41.2399919871743,-10.25,4.6));
#886=CARTESIAN_POINT('',(41.2399919871743,-8.06250000000002,2.41250000000001));
#887=CARTESIAN_POINT('',(41.2399919871743,-10.25,9.6));
#888=CARTESIAN_POINT('',(41.2399919871743,-10.25,3.6));
#889=CARTESIAN_POINT('',(41.2399919871743,-9.25,10.6000000000002));
#890=CARTESIAN_POINT('',(41.2399919871743,-8.0625000000006,11.7874999999999));
#891=CARTESIAN_POINT('',(41.2399919871743,-6.50000000000003,10.6000000000002));
#892=CARTESIAN_POINT('',(41.2399919871743,-4.3820568701447E-9,10.6000000000001));
#893=CARTESIAN_POINT('',(41.2399919871743,-4.,13.1000000000002));
#894=CARTESIAN_POINT('Origin',(41.2399919871743,-6.5,13.1000000000002));
#895=CARTESIAN_POINT('',(41.2399919871743,-4.,16.35));
#896=CARTESIAN_POINT('',(41.2399919871743,-4.,17.35));
#897=CARTESIAN_POINT('',(41.2399919871743,-3.,17.35));
#898=CARTESIAN_POINT('',(41.2399919871743,-5.0625,15.2875));
#899=CARTESIAN_POINT('',(41.2399919871743,3.,17.35));
#900=CARTESIAN_POINT('',(41.2399919871743,4.,17.35));
#901=CARTESIAN_POINT('',(41.2399919871743,4.,16.35));
#902=CARTESIAN_POINT('',(41.2399919871743,5.06249999999999,15.2875));
#903=CARTESIAN_POINT('',(41.2399919871743,4.,13.1));
#904=CARTESIAN_POINT('',(41.2399919871743,4.,-3.15));
#905=CARTESIAN_POINT('',(41.2399919871743,6.49999999999997,10.6));
#906=CARTESIAN_POINT('Origin',(41.2399919871743,6.5,13.1));
#907=CARTESIAN_POINT('',(41.2399919871743,-4.3820568701447E-9,10.6000000000001));
#908=CARTESIAN_POINT('Origin',(41.2399919871743,9.75,10.1));
#909=CARTESIAN_POINT('',(46.2399919871743,9.25,10.6));
#910=CARTESIAN_POINT('',(46.2399919871743,10.25,9.6));
#911=CARTESIAN_POINT('',(46.2399919871743,8.06250000000002,11.7875));
#912=CARTESIAN_POINT('',(41.2399919871743,10.25,9.6));
#913=CARTESIAN_POINT('',(41.2399919871743,9.25,10.6));
#914=CARTESIAN_POINT('Origin',(41.2399919871743,10.25,3.6));
#915=CARTESIAN_POINT('',(46.2399919871743,10.25,4.6));
#916=CARTESIAN_POINT('',(46.2399919871743,10.25,3.6));
#917=CARTESIAN_POINT('',(41.2399919871743,10.25,4.6));
#918=CARTESIAN_POINT('Origin',(41.2399919871743,9.75,4.09999999999993));
#919=CARTESIAN_POINT('',(46.2399919871743,9.25,3.59999999999986));
#920=CARTESIAN_POINT('',(46.2399919871743,8.06250000000037,2.41250000000006));
#921=CARTESIAN_POINT('',(41.2399919871743,9.25,3.59999999999986));
#922=CARTESIAN_POINT('Origin',(46.2399919871743,3.5,-2.65));
#923=CARTESIAN_POINT('',(46.2399919871743,4.,-2.15));
#924=CARTESIAN_POINT('',(46.2399919871743,4.,-2.15));
#925=CARTESIAN_POINT('',(46.2399919871743,3.,-3.15));
#926=CARTESIAN_POINT('',(46.2399919871743,5.0625,-1.08749999999999));
#927=CARTESIAN_POINT('',(46.2399919871743,3.,-3.15));
#928=CARTESIAN_POINT('Origin',(46.2399919871743,4.,-3.15));
#929=CARTESIAN_POINT('',(46.2399919871743,-3.,-3.15));
#930=CARTESIAN_POINT('',(46.2399919871743,-4.,-3.15));
#931=CARTESIAN_POINT('',(46.2399919871743,-3.,-3.15));
#932=CARTESIAN_POINT('Origin',(46.2399919871743,-3.5,-2.65));
#933=CARTESIAN_POINT('',(46.2399919871743,-4.,-2.15));
#934=CARTESIAN_POINT('',(46.2399919871743,-5.06250000000001,-1.08749999999999));
#935=CARTESIAN_POINT('',(46.2399919871743,-4.,-2.15));
#936=CARTESIAN_POINT('Origin',(41.2399919871743,-9.75,4.1));
#937=CARTESIAN_POINT('',(46.2399919871743,-9.25,3.59999999999999));
#938=CARTESIAN_POINT('',(46.2399919871743,-10.25,4.6));
#939=CARTESIAN_POINT('',(46.2399919871743,-8.06250000000002,2.41250000000001));
#940=CARTESIAN_POINT('',(41.2399919871743,-10.25,4.6));
#941=CARTESIAN_POINT('',(41.2399919871743,-9.25,3.59999999999999));
#942=CARTESIAN_POINT('Origin',(41.2399919871743,-10.25,3.6));
#943=CARTESIAN_POINT('',(46.2399919871743,-6.49999999999998,3.59999999999997));
#944=CARTESIAN_POINT('',(43.7399919871743,-6.49999999999998,3.59999999999997));
#945=CARTESIAN_POINT('',(46.2399919871743,-10.25,3.6));
#946=CARTESIAN_POINT('Origin',(46.2399919871743,3.5,16.85));
#947=CARTESIAN_POINT('',(46.2399919871743,3.,17.35));
#948=CARTESIAN_POINT('',(46.2399919871743,3.,17.35));
#949=CARTESIAN_POINT('',(46.2399919871743,4.,16.35));
#950=CARTESIAN_POINT('',(46.2399919871743,5.06249999999999,15.2875));
#951=CARTESIAN_POINT('',(46.2399919871743,4.,16.35));
#952=CARTESIAN_POINT('Origin',(46.2399919871743,-4.,17.35));
#953=CARTESIAN_POINT('',(46.2399919871743,-3.,17.35));
#954=CARTESIAN_POINT('',(46.2399919871743,-3.,17.35));
#955=CARTESIAN_POINT('',(46.2399919871743,4.,17.35));
#956=CARTESIAN_POINT('Origin',(41.2399919871743,-9.75,10.1000000000001));
#957=CARTESIAN_POINT('',(46.2399919871743,-10.25,9.6));
#958=CARTESIAN_POINT('',(46.2399919871743,-9.25,10.6000000000002));
#959=CARTESIAN_POINT('',(46.2399919871743,-8.0625000000006,11.7874999999999));
#960=CARTESIAN_POINT('',(41.2399919871743,-9.25,10.6000000000002));
#961=CARTESIAN_POINT('',(41.2399919871743,-10.25,9.6));
#962=CARTESIAN_POINT('Origin',(41.2399919871743,-10.25,10.6));
#963=CARTESIAN_POINT('',(46.2399919871743,-10.25,3.6));
#964=CARTESIAN_POINT('Origin',(46.2399919871743,-3.5,16.85));
#965=CARTESIAN_POINT('',(46.2399919871743,-4.,16.35));
#966=CARTESIAN_POINT('',(46.2399919871743,-4.,16.35));
#967=CARTESIAN_POINT('',(46.2399919871743,-5.0625,15.2875));
#968=CARTESIAN_POINT('Origin',(43.7399919871743,6.5,1.09999999999988));
#969=CARTESIAN_POINT('',(46.2399919871743,6.50000000000001,3.59999999999988));
#970=CARTESIAN_POINT('',(46.2399919871743,4.,1.09999999999988));
#971=CARTESIAN_POINT('Origin',(46.2399919871743,6.5,1.09999999999988));
#972=CARTESIAN_POINT('',(43.7399919871743,4.,1.09999999999988));
#973=CARTESIAN_POINT('',(43.7399919871743,6.50000000000001,3.59999999999988));
#974=CARTESIAN_POINT('Origin',(46.2399919871743,4.,3.6));
#975=CARTESIAN_POINT('',(46.2399919871743,4.,-3.15));
#976=CARTESIAN_POINT('Origin',(43.7399919871743,-6.5,1.09999999999997));
#977=CARTESIAN_POINT('',(46.2399919871743,-4.,1.09999999999997));
#978=CARTESIAN_POINT('',(43.7399919871743,-4.,1.09999999999997));
#979=CARTESIAN_POINT('Origin',(46.2399919871743,-6.5,1.09999999999997));
#980=CARTESIAN_POINT('Origin',(46.2399919871743,-4.,-3.15));
#981=CARTESIAN_POINT('',(46.2399919871743,-4.,17.35));
#982=CARTESIAN_POINT('Origin',(43.7399919871743,-6.5,13.1000000000002));
#983=CARTESIAN_POINT('',(46.2399919871743,-6.50000000000003,10.6000000000002));
#984=CARTESIAN_POINT('',(46.2399919871743,-4.,13.1000000000002));
#985=CARTESIAN_POINT('Origin',(46.2399919871743,-6.5,13.1000000000002));
#986=CARTESIAN_POINT('',(43.7399919871743,-4.,13.1000000000002));
#987=CARTESIAN_POINT('',(43.7399919871743,-6.50000000000003,10.6000000000002));
#988=CARTESIAN_POINT('Origin',(46.2399919871743,-4.,10.6));
#989=CARTESIAN_POINT('',(46.2399919871743,-4.,17.35));
#990=CARTESIAN_POINT('Origin',(43.7399919871743,6.5,13.1));
#991=CARTESIAN_POINT('',(46.2399919871743,4.,13.1));
#992=CARTESIAN_POINT('',(43.7399919871743,4.,13.1));
#993=CARTESIAN_POINT('',(46.2399919871743,6.49999999999997,10.6));
#994=CARTESIAN_POINT('Origin',(46.2399919871743,6.5,13.1));
#995=CARTESIAN_POINT('',(43.7399919871743,6.49999999999997,10.6));
#996=CARTESIAN_POINT('Origin',(46.2399919871743,4.,17.35));
#997=CARTESIAN_POINT('',(46.2399919871743,4.,-3.15));
#998=CARTESIAN_POINT('Origin',(41.2399919871743,-10.25,3.6));
#999=CARTESIAN_POINT('',(46.2399919871743,-10.25,3.6));
#1000=CARTESIAN_POINT('Origin',(41.2399919871743,10.25,10.6));
#1001=CARTESIAN_POINT('',(46.2399919871743,-4.3820568701447E-9,10.6000000000001));
#1002=CARTESIAN_POINT('Origin',(41.2399919871743,10.25,10.6));
#1003=CARTESIAN_POINT('',(46.2399919871743,-4.3820568701447E-9,10.6000000000001));
#1004=CARTESIAN_POINT('Origin',(41.2399919871743,-2.22044604925031E-15,
7.1));
#1005=CARTESIAN_POINT('',(41.2399919871743,-3.05,7.1));
#1006=CARTESIAN_POINT('',(41.2399919871743,-3.05,7.1));
#1007=CARTESIAN_POINT('Origin',(41.2399919871743,-2.22044604925031E-15,
7.1));
#1008=CARTESIAN_POINT('Origin',(46.2399919871743,-2.22044604925031E-15,
7.10000000000003));
#1009=CARTESIAN_POINT('Origin',(41.2399919871743,-2.22044604925031E-15,
7.10000000000003));
#1010=UNCERTAINTY_MEASURE_WITH_UNIT(LENGTH_MEASURE(0.01),#1014,
'DISTANCE_ACCURACY_VALUE',
'Maximum model space distance between geometric entities at asserted c
onnectivities');
#1011=UNCERTAINTY_MEASURE_WITH_UNIT(LENGTH_MEASURE(0.01),#1014,
'DISTANCE_ACCURACY_VALUE',
'Maximum model space distance between geometric entities at asserted c
onnectivities');
#1012=(
GEOMETRIC_REPRESENTATION_CONTEXT(3)
GLOBAL_UNCERTAINTY_ASSIGNED_CONTEXT((#1010))
GLOBAL_UNIT_ASSIGNED_CONTEXT((#1014,#1016,#1017))
REPRESENTATION_CONTEXT('','3D')
);
#1013=(
GEOMETRIC_REPRESENTATION_CONTEXT(3)
GLOBAL_UNCERTAINTY_ASSIGNED_CONTEXT((#1011))
GLOBAL_UNIT_ASSIGNED_CONTEXT((#1014,#1016,#1017))
REPRESENTATION_CONTEXT('','3D')
);
#1014=(
LENGTH_UNIT()
NAMED_UNIT(*)
SI_UNIT(.MILLI.,.METRE.)
);
#1015=(
LENGTH_UNIT()
NAMED_UNIT(*)
SI_UNIT($,.METRE.)
);
#1016=(
NAMED_UNIT(*)
PLANE_ANGLE_UNIT()
SI_UNIT($,.RADIAN.)
);
#1017=(
NAMED_UNIT(*)
SI_UNIT($,.STERADIAN.)
SOLID_ANGLE_UNIT()
);
#1018=SHAPE_DEFINITION_REPRESENTATION(#1019,#1020);
#1019=PRODUCT_DEFINITION_SHAPE('',$,#1022);
#1020=SHAPE_REPRESENTATION('',(#618),#1012);
#1021=PRODUCT_DEFINITION_CONTEXT('part definition',#1026,'design');
#1022=PRODUCT_DEFINITION('Lock','Lock',#1023,#1021);
#1023=PRODUCT_DEFINITION_FORMATION('',$,#1028);
#1024=PRODUCT_RELATED_PRODUCT_CATEGORY('Lock','Lock',(#1028));
#1025=APPLICATION_PROTOCOL_DEFINITION('international standard',
'automotive_design',2009,#1026);
#1026=APPLICATION_CONTEXT(
'Core Data for Automotive Mechanical Design Process');
#1027=PRODUCT_CONTEXT('part definition',#1026,'mechanical');
#1028=PRODUCT('Lock','Lock',$,(#1027));
#1029=PRESENTATION_STYLE_ASSIGNMENT((#1030));
#1030=SURFACE_STYLE_USAGE(.BOTH.,#1031);
#1031=SURFACE_SIDE_STYLE('',(#1032));
#1032=SURFACE_STYLE_FILL_AREA(#1033);
#1033=FILL_AREA_STYLE('Plastic - Glossy (Grey)',(#1034));
#1034=FILL_AREA_STYLE_COLOUR('Plastic - Glossy (Grey)',#1035);
#1035=COLOUR_RGB('Plastic - Glossy (Grey)',0.701960784313725,0.701960784313725,
0.701960784313725);
ENDSEC;
END-ISO-10303-21;
