%TF.GenerationSoftware,KiCad,Pcbnew,9.0.4*%
%TF.CreationDate,2025-11-14T15:07:35+01:00*%
%TF.ProjectId,OSCARPCB,4f534341-5250-4434-922e-6b696361645f,rev?*%
%TF.SameCoordinates,Original*%
%TF.FileFunction,Legend,Top*%
%TF.FilePolarity,Positive*%
%FSLAX46Y46*%
G04 Gerber Fmt 4.6, Leading zero omitted, Abs format (unit mm)*
G04 Created by KiCad (PCBNEW 9.0.4) date 2025-11-14 15:07:35*
%MOMM*%
%LPD*%
G01*
G04 APERTURE LIST*
%ADD10C,0.150000*%
%ADD11C,0.120000*%
G04 APERTURE END LIST*
D10*
X102954819Y-132619047D02*
X101954819Y-132619047D01*
X101954819Y-132619047D02*
X101954819Y-132380952D01*
X101954819Y-132380952D02*
X102002438Y-132238095D01*
X102002438Y-132238095D02*
X102097676Y-132142857D01*
X102097676Y-132142857D02*
X102192914Y-132095238D01*
X102192914Y-132095238D02*
X102383390Y-132047619D01*
X102383390Y-132047619D02*
X102526247Y-132047619D01*
X102526247Y-132047619D02*
X102716723Y-132095238D01*
X102716723Y-132095238D02*
X102811961Y-132142857D01*
X102811961Y-132142857D02*
X102907200Y-132238095D01*
X102907200Y-132238095D02*
X102954819Y-132380952D01*
X102954819Y-132380952D02*
X102954819Y-132619047D01*
X102859580Y-131047619D02*
X102907200Y-131095238D01*
X102907200Y-131095238D02*
X102954819Y-131238095D01*
X102954819Y-131238095D02*
X102954819Y-131333333D01*
X102954819Y-131333333D02*
X102907200Y-131476190D01*
X102907200Y-131476190D02*
X102811961Y-131571428D01*
X102811961Y-131571428D02*
X102716723Y-131619047D01*
X102716723Y-131619047D02*
X102526247Y-131666666D01*
X102526247Y-131666666D02*
X102383390Y-131666666D01*
X102383390Y-131666666D02*
X102192914Y-131619047D01*
X102192914Y-131619047D02*
X102097676Y-131571428D01*
X102097676Y-131571428D02*
X102002438Y-131476190D01*
X102002438Y-131476190D02*
X101954819Y-131333333D01*
X101954819Y-131333333D02*
X101954819Y-131238095D01*
X101954819Y-131238095D02*
X102002438Y-131095238D01*
X102002438Y-131095238D02*
X102050057Y-131047619D01*
X102954819Y-129857142D02*
X101954819Y-129857142D01*
X101954819Y-129857142D02*
X102669104Y-129523809D01*
X102669104Y-129523809D02*
X101954819Y-129190476D01*
X101954819Y-129190476D02*
X102954819Y-129190476D01*
X102954819Y-128571428D02*
X102907200Y-128666666D01*
X102907200Y-128666666D02*
X102859580Y-128714285D01*
X102859580Y-128714285D02*
X102764342Y-128761904D01*
X102764342Y-128761904D02*
X102478628Y-128761904D01*
X102478628Y-128761904D02*
X102383390Y-128714285D01*
X102383390Y-128714285D02*
X102335771Y-128666666D01*
X102335771Y-128666666D02*
X102288152Y-128571428D01*
X102288152Y-128571428D02*
X102288152Y-128428571D01*
X102288152Y-128428571D02*
X102335771Y-128333333D01*
X102335771Y-128333333D02*
X102383390Y-128285714D01*
X102383390Y-128285714D02*
X102478628Y-128238095D01*
X102478628Y-128238095D02*
X102764342Y-128238095D01*
X102764342Y-128238095D02*
X102859580Y-128285714D01*
X102859580Y-128285714D02*
X102907200Y-128333333D01*
X102907200Y-128333333D02*
X102954819Y-128428571D01*
X102954819Y-128428571D02*
X102954819Y-128571428D01*
X102288152Y-127952380D02*
X102288152Y-127571428D01*
X101954819Y-127809523D02*
X102811961Y-127809523D01*
X102811961Y-127809523D02*
X102907200Y-127761904D01*
X102907200Y-127761904D02*
X102954819Y-127666666D01*
X102954819Y-127666666D02*
X102954819Y-127571428D01*
X102954819Y-127095237D02*
X102907200Y-127190475D01*
X102907200Y-127190475D02*
X102859580Y-127238094D01*
X102859580Y-127238094D02*
X102764342Y-127285713D01*
X102764342Y-127285713D02*
X102478628Y-127285713D01*
X102478628Y-127285713D02*
X102383390Y-127238094D01*
X102383390Y-127238094D02*
X102335771Y-127190475D01*
X102335771Y-127190475D02*
X102288152Y-127095237D01*
X102288152Y-127095237D02*
X102288152Y-126952380D01*
X102288152Y-126952380D02*
X102335771Y-126857142D01*
X102335771Y-126857142D02*
X102383390Y-126809523D01*
X102383390Y-126809523D02*
X102478628Y-126761904D01*
X102478628Y-126761904D02*
X102764342Y-126761904D01*
X102764342Y-126761904D02*
X102859580Y-126809523D01*
X102859580Y-126809523D02*
X102907200Y-126857142D01*
X102907200Y-126857142D02*
X102954819Y-126952380D01*
X102954819Y-126952380D02*
X102954819Y-127095237D01*
X102954819Y-126333332D02*
X102288152Y-126333332D01*
X102478628Y-126333332D02*
X102383390Y-126285713D01*
X102383390Y-126285713D02*
X102335771Y-126238094D01*
X102335771Y-126238094D02*
X102288152Y-126142856D01*
X102288152Y-126142856D02*
X102288152Y-126047618D01*
X102907200Y-125761903D02*
X102954819Y-125666665D01*
X102954819Y-125666665D02*
X102954819Y-125476189D01*
X102954819Y-125476189D02*
X102907200Y-125380951D01*
X102907200Y-125380951D02*
X102811961Y-125333332D01*
X102811961Y-125333332D02*
X102764342Y-125333332D01*
X102764342Y-125333332D02*
X102669104Y-125380951D01*
X102669104Y-125380951D02*
X102621485Y-125476189D01*
X102621485Y-125476189D02*
X102621485Y-125619046D01*
X102621485Y-125619046D02*
X102573866Y-125714284D01*
X102573866Y-125714284D02*
X102478628Y-125761903D01*
X102478628Y-125761903D02*
X102431009Y-125761903D01*
X102431009Y-125761903D02*
X102335771Y-125714284D01*
X102335771Y-125714284D02*
X102288152Y-125619046D01*
X102288152Y-125619046D02*
X102288152Y-125476189D01*
X102288152Y-125476189D02*
X102335771Y-125380951D01*
X104609580Y-91798989D02*
X104657200Y-91846608D01*
X104657200Y-91846608D02*
X104704819Y-91989465D01*
X104704819Y-91989465D02*
X104704819Y-92084703D01*
X104704819Y-92084703D02*
X104657200Y-92227560D01*
X104657200Y-92227560D02*
X104561961Y-92322798D01*
X104561961Y-92322798D02*
X104466723Y-92370417D01*
X104466723Y-92370417D02*
X104276247Y-92418036D01*
X104276247Y-92418036D02*
X104133390Y-92418036D01*
X104133390Y-92418036D02*
X103942914Y-92370417D01*
X103942914Y-92370417D02*
X103847676Y-92322798D01*
X103847676Y-92322798D02*
X103752438Y-92227560D01*
X103752438Y-92227560D02*
X103704819Y-92084703D01*
X103704819Y-92084703D02*
X103704819Y-91989465D01*
X103704819Y-91989465D02*
X103752438Y-91846608D01*
X103752438Y-91846608D02*
X103800057Y-91798989D01*
X104704819Y-90846608D02*
X104704819Y-91418036D01*
X104704819Y-91132322D02*
X103704819Y-91132322D01*
X103704819Y-91132322D02*
X103847676Y-91227560D01*
X103847676Y-91227560D02*
X103942914Y-91322798D01*
X103942914Y-91322798D02*
X103990533Y-91418036D01*
X47538095Y-86934819D02*
X47538095Y-87744342D01*
X47538095Y-87744342D02*
X47585714Y-87839580D01*
X47585714Y-87839580D02*
X47633333Y-87887200D01*
X47633333Y-87887200D02*
X47728571Y-87934819D01*
X47728571Y-87934819D02*
X47919047Y-87934819D01*
X47919047Y-87934819D02*
X48014285Y-87887200D01*
X48014285Y-87887200D02*
X48061904Y-87839580D01*
X48061904Y-87839580D02*
X48109523Y-87744342D01*
X48109523Y-87744342D02*
X48109523Y-86934819D01*
X48538095Y-87030057D02*
X48585714Y-86982438D01*
X48585714Y-86982438D02*
X48680952Y-86934819D01*
X48680952Y-86934819D02*
X48919047Y-86934819D01*
X48919047Y-86934819D02*
X49014285Y-86982438D01*
X49014285Y-86982438D02*
X49061904Y-87030057D01*
X49061904Y-87030057D02*
X49109523Y-87125295D01*
X49109523Y-87125295D02*
X49109523Y-87220533D01*
X49109523Y-87220533D02*
X49061904Y-87363390D01*
X49061904Y-87363390D02*
X48490476Y-87934819D01*
X48490476Y-87934819D02*
X49109523Y-87934819D01*
X48231009Y-119305237D02*
X48231009Y-118971904D01*
X48754819Y-118829047D02*
X48754819Y-119305237D01*
X48754819Y-119305237D02*
X47754819Y-119305237D01*
X47754819Y-119305237D02*
X47754819Y-118829047D01*
X48707200Y-118448094D02*
X48754819Y-118305237D01*
X48754819Y-118305237D02*
X48754819Y-118067142D01*
X48754819Y-118067142D02*
X48707200Y-117971904D01*
X48707200Y-117971904D02*
X48659580Y-117924285D01*
X48659580Y-117924285D02*
X48564342Y-117876666D01*
X48564342Y-117876666D02*
X48469104Y-117876666D01*
X48469104Y-117876666D02*
X48373866Y-117924285D01*
X48373866Y-117924285D02*
X48326247Y-117971904D01*
X48326247Y-117971904D02*
X48278628Y-118067142D01*
X48278628Y-118067142D02*
X48231009Y-118257618D01*
X48231009Y-118257618D02*
X48183390Y-118352856D01*
X48183390Y-118352856D02*
X48135771Y-118400475D01*
X48135771Y-118400475D02*
X48040533Y-118448094D01*
X48040533Y-118448094D02*
X47945295Y-118448094D01*
X47945295Y-118448094D02*
X47850057Y-118400475D01*
X47850057Y-118400475D02*
X47802438Y-118352856D01*
X47802438Y-118352856D02*
X47754819Y-118257618D01*
X47754819Y-118257618D02*
X47754819Y-118019523D01*
X47754819Y-118019523D02*
X47802438Y-117876666D01*
X48754819Y-117448094D02*
X47754819Y-117448094D01*
X47754819Y-117448094D02*
X47754819Y-117067142D01*
X47754819Y-117067142D02*
X47802438Y-116971904D01*
X47802438Y-116971904D02*
X47850057Y-116924285D01*
X47850057Y-116924285D02*
X47945295Y-116876666D01*
X47945295Y-116876666D02*
X48088152Y-116876666D01*
X48088152Y-116876666D02*
X48183390Y-116924285D01*
X48183390Y-116924285D02*
X48231009Y-116971904D01*
X48231009Y-116971904D02*
X48278628Y-117067142D01*
X48278628Y-117067142D02*
X48278628Y-117448094D01*
X47754819Y-116543332D02*
X47754819Y-115924285D01*
X47754819Y-115924285D02*
X48135771Y-116257618D01*
X48135771Y-116257618D02*
X48135771Y-116114761D01*
X48135771Y-116114761D02*
X48183390Y-116019523D01*
X48183390Y-116019523D02*
X48231009Y-115971904D01*
X48231009Y-115971904D02*
X48326247Y-115924285D01*
X48326247Y-115924285D02*
X48564342Y-115924285D01*
X48564342Y-115924285D02*
X48659580Y-115971904D01*
X48659580Y-115971904D02*
X48707200Y-116019523D01*
X48707200Y-116019523D02*
X48754819Y-116114761D01*
X48754819Y-116114761D02*
X48754819Y-116400475D01*
X48754819Y-116400475D02*
X48707200Y-116495713D01*
X48707200Y-116495713D02*
X48659580Y-116543332D01*
X47850057Y-115543332D02*
X47802438Y-115495713D01*
X47802438Y-115495713D02*
X47754819Y-115400475D01*
X47754819Y-115400475D02*
X47754819Y-115162380D01*
X47754819Y-115162380D02*
X47802438Y-115067142D01*
X47802438Y-115067142D02*
X47850057Y-115019523D01*
X47850057Y-115019523D02*
X47945295Y-114971904D01*
X47945295Y-114971904D02*
X48040533Y-114971904D01*
X48040533Y-114971904D02*
X48183390Y-115019523D01*
X48183390Y-115019523D02*
X48754819Y-115590951D01*
X48754819Y-115590951D02*
X48754819Y-114971904D01*
X48373866Y-114543332D02*
X48373866Y-113781428D01*
X48754819Y-113305237D02*
X47754819Y-113305237D01*
X47754819Y-113305237D02*
X47754819Y-113067142D01*
X47754819Y-113067142D02*
X47802438Y-112924285D01*
X47802438Y-112924285D02*
X47897676Y-112829047D01*
X47897676Y-112829047D02*
X47992914Y-112781428D01*
X47992914Y-112781428D02*
X48183390Y-112733809D01*
X48183390Y-112733809D02*
X48326247Y-112733809D01*
X48326247Y-112733809D02*
X48516723Y-112781428D01*
X48516723Y-112781428D02*
X48611961Y-112829047D01*
X48611961Y-112829047D02*
X48707200Y-112924285D01*
X48707200Y-112924285D02*
X48754819Y-113067142D01*
X48754819Y-113067142D02*
X48754819Y-113305237D01*
X48707200Y-111924285D02*
X48754819Y-112019523D01*
X48754819Y-112019523D02*
X48754819Y-112209999D01*
X48754819Y-112209999D02*
X48707200Y-112305237D01*
X48707200Y-112305237D02*
X48611961Y-112352856D01*
X48611961Y-112352856D02*
X48231009Y-112352856D01*
X48231009Y-112352856D02*
X48135771Y-112305237D01*
X48135771Y-112305237D02*
X48088152Y-112209999D01*
X48088152Y-112209999D02*
X48088152Y-112019523D01*
X48088152Y-112019523D02*
X48135771Y-111924285D01*
X48135771Y-111924285D02*
X48231009Y-111876666D01*
X48231009Y-111876666D02*
X48326247Y-111876666D01*
X48326247Y-111876666D02*
X48421485Y-112352856D01*
X48088152Y-111543332D02*
X48754819Y-111305237D01*
X48754819Y-111305237D02*
X48088152Y-111067142D01*
X48754819Y-110686189D02*
X47754819Y-110686189D01*
X48754819Y-110114761D02*
X48183390Y-110543332D01*
X47754819Y-110114761D02*
X48326247Y-110686189D01*
X48754819Y-109686189D02*
X48088152Y-109686189D01*
X47754819Y-109686189D02*
X47802438Y-109733808D01*
X47802438Y-109733808D02*
X47850057Y-109686189D01*
X47850057Y-109686189D02*
X47802438Y-109638570D01*
X47802438Y-109638570D02*
X47754819Y-109686189D01*
X47754819Y-109686189D02*
X47850057Y-109686189D01*
X48088152Y-109352856D02*
X48088152Y-108971904D01*
X47754819Y-109209999D02*
X48611961Y-109209999D01*
X48611961Y-109209999D02*
X48707200Y-109162380D01*
X48707200Y-109162380D02*
X48754819Y-109067142D01*
X48754819Y-109067142D02*
X48754819Y-108971904D01*
X48659580Y-108067142D02*
X48707200Y-108114761D01*
X48707200Y-108114761D02*
X48754819Y-108257618D01*
X48754819Y-108257618D02*
X48754819Y-108352856D01*
X48754819Y-108352856D02*
X48707200Y-108495713D01*
X48707200Y-108495713D02*
X48611961Y-108590951D01*
X48611961Y-108590951D02*
X48516723Y-108638570D01*
X48516723Y-108638570D02*
X48326247Y-108686189D01*
X48326247Y-108686189D02*
X48183390Y-108686189D01*
X48183390Y-108686189D02*
X47992914Y-108638570D01*
X47992914Y-108638570D02*
X47897676Y-108590951D01*
X47897676Y-108590951D02*
X47802438Y-108495713D01*
X47802438Y-108495713D02*
X47754819Y-108352856D01*
X47754819Y-108352856D02*
X47754819Y-108257618D01*
X47754819Y-108257618D02*
X47802438Y-108114761D01*
X47802438Y-108114761D02*
X47850057Y-108067142D01*
X37502017Y-119709366D02*
X37435350Y-119676033D01*
X37435350Y-119676033D02*
X37335350Y-119676033D01*
X37335350Y-119676033D02*
X37235350Y-119709366D01*
X37235350Y-119709366D02*
X37168684Y-119776033D01*
X37168684Y-119776033D02*
X37135350Y-119842700D01*
X37135350Y-119842700D02*
X37102017Y-119976033D01*
X37102017Y-119976033D02*
X37102017Y-120076033D01*
X37102017Y-120076033D02*
X37135350Y-120209366D01*
X37135350Y-120209366D02*
X37168684Y-120276033D01*
X37168684Y-120276033D02*
X37235350Y-120342700D01*
X37235350Y-120342700D02*
X37335350Y-120376033D01*
X37335350Y-120376033D02*
X37402017Y-120376033D01*
X37402017Y-120376033D02*
X37502017Y-120342700D01*
X37502017Y-120342700D02*
X37535350Y-120309366D01*
X37535350Y-120309366D02*
X37535350Y-120076033D01*
X37535350Y-120076033D02*
X37402017Y-120076033D01*
X37835350Y-120376033D02*
X37835350Y-119676033D01*
X37835350Y-119676033D02*
X38102017Y-119676033D01*
X38102017Y-119676033D02*
X38168684Y-119709366D01*
X38168684Y-119709366D02*
X38202017Y-119742700D01*
X38202017Y-119742700D02*
X38235350Y-119809366D01*
X38235350Y-119809366D02*
X38235350Y-119909366D01*
X38235350Y-119909366D02*
X38202017Y-119976033D01*
X38202017Y-119976033D02*
X38168684Y-120009366D01*
X38168684Y-120009366D02*
X38102017Y-120042700D01*
X38102017Y-120042700D02*
X37835350Y-120042700D01*
X38535350Y-120376033D02*
X38535350Y-119676033D01*
X39002017Y-119676033D02*
X39135350Y-119676033D01*
X39135350Y-119676033D02*
X39202017Y-119709366D01*
X39202017Y-119709366D02*
X39268683Y-119776033D01*
X39268683Y-119776033D02*
X39302017Y-119909366D01*
X39302017Y-119909366D02*
X39302017Y-120142700D01*
X39302017Y-120142700D02*
X39268683Y-120276033D01*
X39268683Y-120276033D02*
X39202017Y-120342700D01*
X39202017Y-120342700D02*
X39135350Y-120376033D01*
X39135350Y-120376033D02*
X39002017Y-120376033D01*
X39002017Y-120376033D02*
X38935350Y-120342700D01*
X38935350Y-120342700D02*
X38868683Y-120276033D01*
X38868683Y-120276033D02*
X38835350Y-120142700D01*
X38835350Y-120142700D02*
X38835350Y-119909366D01*
X38835350Y-119909366D02*
X38868683Y-119776033D01*
X38868683Y-119776033D02*
X38935350Y-119709366D01*
X38935350Y-119709366D02*
X39002017Y-119676033D01*
X39968683Y-120376033D02*
X39568683Y-120376033D01*
X39768683Y-120376033D02*
X39768683Y-119676033D01*
X39768683Y-119676033D02*
X39702016Y-119776033D01*
X39702016Y-119776033D02*
X39635350Y-119842700D01*
X39635350Y-119842700D02*
X39568683Y-119876033D01*
X40235350Y-119742700D02*
X40268683Y-119709366D01*
X40268683Y-119709366D02*
X40335350Y-119676033D01*
X40335350Y-119676033D02*
X40502017Y-119676033D01*
X40502017Y-119676033D02*
X40568683Y-119709366D01*
X40568683Y-119709366D02*
X40602017Y-119742700D01*
X40602017Y-119742700D02*
X40635350Y-119809366D01*
X40635350Y-119809366D02*
X40635350Y-119876033D01*
X40635350Y-119876033D02*
X40602017Y-119976033D01*
X40602017Y-119976033D02*
X40202017Y-120376033D01*
X40202017Y-120376033D02*
X40635350Y-120376033D01*
X41435350Y-119642700D02*
X40835350Y-120542700D01*
X41668683Y-120376033D02*
X41668683Y-119676033D01*
X41668683Y-119676033D02*
X41902017Y-120176033D01*
X41902017Y-120176033D02*
X42135350Y-119676033D01*
X42135350Y-119676033D02*
X42135350Y-120376033D01*
X42368683Y-119676033D02*
X42768683Y-119676033D01*
X42568683Y-120376033D02*
X42568683Y-119676033D01*
X43002016Y-120376033D02*
X43002016Y-119676033D01*
X43002016Y-119676033D02*
X43168683Y-119676033D01*
X43168683Y-119676033D02*
X43268683Y-119709366D01*
X43268683Y-119709366D02*
X43335350Y-119776033D01*
X43335350Y-119776033D02*
X43368683Y-119842700D01*
X43368683Y-119842700D02*
X43402016Y-119976033D01*
X43402016Y-119976033D02*
X43402016Y-120076033D01*
X43402016Y-120076033D02*
X43368683Y-120209366D01*
X43368683Y-120209366D02*
X43335350Y-120276033D01*
X43335350Y-120276033D02*
X43268683Y-120342700D01*
X43268683Y-120342700D02*
X43168683Y-120376033D01*
X43168683Y-120376033D02*
X43002016Y-120376033D01*
X43702016Y-120376033D02*
X43702016Y-119676033D01*
X56364649Y-91769366D02*
X56297982Y-91736033D01*
X56297982Y-91736033D02*
X56197982Y-91736033D01*
X56197982Y-91736033D02*
X56097982Y-91769366D01*
X56097982Y-91769366D02*
X56031316Y-91836033D01*
X56031316Y-91836033D02*
X55997982Y-91902700D01*
X55997982Y-91902700D02*
X55964649Y-92036033D01*
X55964649Y-92036033D02*
X55964649Y-92136033D01*
X55964649Y-92136033D02*
X55997982Y-92269366D01*
X55997982Y-92269366D02*
X56031316Y-92336033D01*
X56031316Y-92336033D02*
X56097982Y-92402700D01*
X56097982Y-92402700D02*
X56197982Y-92436033D01*
X56197982Y-92436033D02*
X56264649Y-92436033D01*
X56264649Y-92436033D02*
X56364649Y-92402700D01*
X56364649Y-92402700D02*
X56397982Y-92369366D01*
X56397982Y-92369366D02*
X56397982Y-92136033D01*
X56397982Y-92136033D02*
X56264649Y-92136033D01*
X56697982Y-92436033D02*
X56697982Y-91736033D01*
X56697982Y-91736033D02*
X56964649Y-91736033D01*
X56964649Y-91736033D02*
X57031316Y-91769366D01*
X57031316Y-91769366D02*
X57064649Y-91802700D01*
X57064649Y-91802700D02*
X57097982Y-91869366D01*
X57097982Y-91869366D02*
X57097982Y-91969366D01*
X57097982Y-91969366D02*
X57064649Y-92036033D01*
X57064649Y-92036033D02*
X57031316Y-92069366D01*
X57031316Y-92069366D02*
X56964649Y-92102700D01*
X56964649Y-92102700D02*
X56697982Y-92102700D01*
X57397982Y-92436033D02*
X57397982Y-91736033D01*
X57864649Y-91736033D02*
X57997982Y-91736033D01*
X57997982Y-91736033D02*
X58064649Y-91769366D01*
X58064649Y-91769366D02*
X58131315Y-91836033D01*
X58131315Y-91836033D02*
X58164649Y-91969366D01*
X58164649Y-91969366D02*
X58164649Y-92202700D01*
X58164649Y-92202700D02*
X58131315Y-92336033D01*
X58131315Y-92336033D02*
X58064649Y-92402700D01*
X58064649Y-92402700D02*
X57997982Y-92436033D01*
X57997982Y-92436033D02*
X57864649Y-92436033D01*
X57864649Y-92436033D02*
X57797982Y-92402700D01*
X57797982Y-92402700D02*
X57731315Y-92336033D01*
X57731315Y-92336033D02*
X57697982Y-92202700D01*
X57697982Y-92202700D02*
X57697982Y-91969366D01*
X57697982Y-91969366D02*
X57731315Y-91836033D01*
X57731315Y-91836033D02*
X57797982Y-91769366D01*
X57797982Y-91769366D02*
X57864649Y-91736033D01*
X58431315Y-91802700D02*
X58464648Y-91769366D01*
X58464648Y-91769366D02*
X58531315Y-91736033D01*
X58531315Y-91736033D02*
X58697982Y-91736033D01*
X58697982Y-91736033D02*
X58764648Y-91769366D01*
X58764648Y-91769366D02*
X58797982Y-91802700D01*
X58797982Y-91802700D02*
X58831315Y-91869366D01*
X58831315Y-91869366D02*
X58831315Y-91936033D01*
X58831315Y-91936033D02*
X58797982Y-92036033D01*
X58797982Y-92036033D02*
X58397982Y-92436033D01*
X58397982Y-92436033D02*
X58831315Y-92436033D01*
X59064649Y-91736033D02*
X59497982Y-91736033D01*
X59497982Y-91736033D02*
X59264649Y-92002700D01*
X59264649Y-92002700D02*
X59364649Y-92002700D01*
X59364649Y-92002700D02*
X59431315Y-92036033D01*
X59431315Y-92036033D02*
X59464649Y-92069366D01*
X59464649Y-92069366D02*
X59497982Y-92136033D01*
X59497982Y-92136033D02*
X59497982Y-92302700D01*
X59497982Y-92302700D02*
X59464649Y-92369366D01*
X59464649Y-92369366D02*
X59431315Y-92402700D01*
X59431315Y-92402700D02*
X59364649Y-92436033D01*
X59364649Y-92436033D02*
X59164649Y-92436033D01*
X59164649Y-92436033D02*
X59097982Y-92402700D01*
X59097982Y-92402700D02*
X59064649Y-92369366D01*
X37502017Y-104469366D02*
X37435350Y-104436033D01*
X37435350Y-104436033D02*
X37335350Y-104436033D01*
X37335350Y-104436033D02*
X37235350Y-104469366D01*
X37235350Y-104469366D02*
X37168684Y-104536033D01*
X37168684Y-104536033D02*
X37135350Y-104602700D01*
X37135350Y-104602700D02*
X37102017Y-104736033D01*
X37102017Y-104736033D02*
X37102017Y-104836033D01*
X37102017Y-104836033D02*
X37135350Y-104969366D01*
X37135350Y-104969366D02*
X37168684Y-105036033D01*
X37168684Y-105036033D02*
X37235350Y-105102700D01*
X37235350Y-105102700D02*
X37335350Y-105136033D01*
X37335350Y-105136033D02*
X37402017Y-105136033D01*
X37402017Y-105136033D02*
X37502017Y-105102700D01*
X37502017Y-105102700D02*
X37535350Y-105069366D01*
X37535350Y-105069366D02*
X37535350Y-104836033D01*
X37535350Y-104836033D02*
X37402017Y-104836033D01*
X37835350Y-105136033D02*
X37835350Y-104436033D01*
X37835350Y-104436033D02*
X38102017Y-104436033D01*
X38102017Y-104436033D02*
X38168684Y-104469366D01*
X38168684Y-104469366D02*
X38202017Y-104502700D01*
X38202017Y-104502700D02*
X38235350Y-104569366D01*
X38235350Y-104569366D02*
X38235350Y-104669366D01*
X38235350Y-104669366D02*
X38202017Y-104736033D01*
X38202017Y-104736033D02*
X38168684Y-104769366D01*
X38168684Y-104769366D02*
X38102017Y-104802700D01*
X38102017Y-104802700D02*
X37835350Y-104802700D01*
X38535350Y-105136033D02*
X38535350Y-104436033D01*
X39002017Y-104436033D02*
X39135350Y-104436033D01*
X39135350Y-104436033D02*
X39202017Y-104469366D01*
X39202017Y-104469366D02*
X39268683Y-104536033D01*
X39268683Y-104536033D02*
X39302017Y-104669366D01*
X39302017Y-104669366D02*
X39302017Y-104902700D01*
X39302017Y-104902700D02*
X39268683Y-105036033D01*
X39268683Y-105036033D02*
X39202017Y-105102700D01*
X39202017Y-105102700D02*
X39135350Y-105136033D01*
X39135350Y-105136033D02*
X39002017Y-105136033D01*
X39002017Y-105136033D02*
X38935350Y-105102700D01*
X38935350Y-105102700D02*
X38868683Y-105036033D01*
X38868683Y-105036033D02*
X38835350Y-104902700D01*
X38835350Y-104902700D02*
X38835350Y-104669366D01*
X38835350Y-104669366D02*
X38868683Y-104536033D01*
X38868683Y-104536033D02*
X38935350Y-104469366D01*
X38935350Y-104469366D02*
X39002017Y-104436033D01*
X39535350Y-104436033D02*
X39968683Y-104436033D01*
X39968683Y-104436033D02*
X39735350Y-104702700D01*
X39735350Y-104702700D02*
X39835350Y-104702700D01*
X39835350Y-104702700D02*
X39902016Y-104736033D01*
X39902016Y-104736033D02*
X39935350Y-104769366D01*
X39935350Y-104769366D02*
X39968683Y-104836033D01*
X39968683Y-104836033D02*
X39968683Y-105002700D01*
X39968683Y-105002700D02*
X39935350Y-105069366D01*
X39935350Y-105069366D02*
X39902016Y-105102700D01*
X39902016Y-105102700D02*
X39835350Y-105136033D01*
X39835350Y-105136033D02*
X39635350Y-105136033D01*
X39635350Y-105136033D02*
X39568683Y-105102700D01*
X39568683Y-105102700D02*
X39535350Y-105069366D01*
X40235350Y-104502700D02*
X40268683Y-104469366D01*
X40268683Y-104469366D02*
X40335350Y-104436033D01*
X40335350Y-104436033D02*
X40502017Y-104436033D01*
X40502017Y-104436033D02*
X40568683Y-104469366D01*
X40568683Y-104469366D02*
X40602017Y-104502700D01*
X40602017Y-104502700D02*
X40635350Y-104569366D01*
X40635350Y-104569366D02*
X40635350Y-104636033D01*
X40635350Y-104636033D02*
X40602017Y-104736033D01*
X40602017Y-104736033D02*
X40202017Y-105136033D01*
X40202017Y-105136033D02*
X40635350Y-105136033D01*
X57345601Y-89082438D02*
X57250363Y-89034819D01*
X57250363Y-89034819D02*
X57107506Y-89034819D01*
X57107506Y-89034819D02*
X56964649Y-89082438D01*
X56964649Y-89082438D02*
X56869411Y-89177676D01*
X56869411Y-89177676D02*
X56821792Y-89272914D01*
X56821792Y-89272914D02*
X56774173Y-89463390D01*
X56774173Y-89463390D02*
X56774173Y-89606247D01*
X56774173Y-89606247D02*
X56821792Y-89796723D01*
X56821792Y-89796723D02*
X56869411Y-89891961D01*
X56869411Y-89891961D02*
X56964649Y-89987200D01*
X56964649Y-89987200D02*
X57107506Y-90034819D01*
X57107506Y-90034819D02*
X57202744Y-90034819D01*
X57202744Y-90034819D02*
X57345601Y-89987200D01*
X57345601Y-89987200D02*
X57393220Y-89939580D01*
X57393220Y-89939580D02*
X57393220Y-89606247D01*
X57393220Y-89606247D02*
X57202744Y-89606247D01*
X57821792Y-90034819D02*
X57821792Y-89034819D01*
X57821792Y-89034819D02*
X58393220Y-90034819D01*
X58393220Y-90034819D02*
X58393220Y-89034819D01*
X58869411Y-90034819D02*
X58869411Y-89034819D01*
X58869411Y-89034819D02*
X59107506Y-89034819D01*
X59107506Y-89034819D02*
X59250363Y-89082438D01*
X59250363Y-89082438D02*
X59345601Y-89177676D01*
X59345601Y-89177676D02*
X59393220Y-89272914D01*
X59393220Y-89272914D02*
X59440839Y-89463390D01*
X59440839Y-89463390D02*
X59440839Y-89606247D01*
X59440839Y-89606247D02*
X59393220Y-89796723D01*
X59393220Y-89796723D02*
X59345601Y-89891961D01*
X59345601Y-89891961D02*
X59250363Y-89987200D01*
X59250363Y-89987200D02*
X59107506Y-90034819D01*
X59107506Y-90034819D02*
X58869411Y-90034819D01*
X52997983Y-96849366D02*
X52931316Y-96816033D01*
X52931316Y-96816033D02*
X52831316Y-96816033D01*
X52831316Y-96816033D02*
X52731316Y-96849366D01*
X52731316Y-96849366D02*
X52664650Y-96916033D01*
X52664650Y-96916033D02*
X52631316Y-96982700D01*
X52631316Y-96982700D02*
X52597983Y-97116033D01*
X52597983Y-97116033D02*
X52597983Y-97216033D01*
X52597983Y-97216033D02*
X52631316Y-97349366D01*
X52631316Y-97349366D02*
X52664650Y-97416033D01*
X52664650Y-97416033D02*
X52731316Y-97482700D01*
X52731316Y-97482700D02*
X52831316Y-97516033D01*
X52831316Y-97516033D02*
X52897983Y-97516033D01*
X52897983Y-97516033D02*
X52997983Y-97482700D01*
X52997983Y-97482700D02*
X53031316Y-97449366D01*
X53031316Y-97449366D02*
X53031316Y-97216033D01*
X53031316Y-97216033D02*
X52897983Y-97216033D01*
X53331316Y-97516033D02*
X53331316Y-96816033D01*
X53331316Y-96816033D02*
X53597983Y-96816033D01*
X53597983Y-96816033D02*
X53664650Y-96849366D01*
X53664650Y-96849366D02*
X53697983Y-96882700D01*
X53697983Y-96882700D02*
X53731316Y-96949366D01*
X53731316Y-96949366D02*
X53731316Y-97049366D01*
X53731316Y-97049366D02*
X53697983Y-97116033D01*
X53697983Y-97116033D02*
X53664650Y-97149366D01*
X53664650Y-97149366D02*
X53597983Y-97182700D01*
X53597983Y-97182700D02*
X53331316Y-97182700D01*
X54031316Y-97516033D02*
X54031316Y-96816033D01*
X54497983Y-96816033D02*
X54631316Y-96816033D01*
X54631316Y-96816033D02*
X54697983Y-96849366D01*
X54697983Y-96849366D02*
X54764649Y-96916033D01*
X54764649Y-96916033D02*
X54797983Y-97049366D01*
X54797983Y-97049366D02*
X54797983Y-97282700D01*
X54797983Y-97282700D02*
X54764649Y-97416033D01*
X54764649Y-97416033D02*
X54697983Y-97482700D01*
X54697983Y-97482700D02*
X54631316Y-97516033D01*
X54631316Y-97516033D02*
X54497983Y-97516033D01*
X54497983Y-97516033D02*
X54431316Y-97482700D01*
X54431316Y-97482700D02*
X54364649Y-97416033D01*
X54364649Y-97416033D02*
X54331316Y-97282700D01*
X54331316Y-97282700D02*
X54331316Y-97049366D01*
X54331316Y-97049366D02*
X54364649Y-96916033D01*
X54364649Y-96916033D02*
X54431316Y-96849366D01*
X54431316Y-96849366D02*
X54497983Y-96816033D01*
X55464649Y-97516033D02*
X55064649Y-97516033D01*
X55264649Y-97516033D02*
X55264649Y-96816033D01*
X55264649Y-96816033D02*
X55197982Y-96916033D01*
X55197982Y-96916033D02*
X55131316Y-96982700D01*
X55131316Y-96982700D02*
X55064649Y-97016033D01*
X56264649Y-96782700D02*
X55664649Y-97682700D01*
X56497982Y-96816033D02*
X56497982Y-97382700D01*
X56497982Y-97382700D02*
X56531316Y-97449366D01*
X56531316Y-97449366D02*
X56564649Y-97482700D01*
X56564649Y-97482700D02*
X56631316Y-97516033D01*
X56631316Y-97516033D02*
X56764649Y-97516033D01*
X56764649Y-97516033D02*
X56831316Y-97482700D01*
X56831316Y-97482700D02*
X56864649Y-97449366D01*
X56864649Y-97449366D02*
X56897982Y-97382700D01*
X56897982Y-97382700D02*
X56897982Y-96816033D01*
X57364649Y-96816033D02*
X57431315Y-96816033D01*
X57431315Y-96816033D02*
X57497982Y-96849366D01*
X57497982Y-96849366D02*
X57531315Y-96882700D01*
X57531315Y-96882700D02*
X57564649Y-96949366D01*
X57564649Y-96949366D02*
X57597982Y-97082700D01*
X57597982Y-97082700D02*
X57597982Y-97249366D01*
X57597982Y-97249366D02*
X57564649Y-97382700D01*
X57564649Y-97382700D02*
X57531315Y-97449366D01*
X57531315Y-97449366D02*
X57497982Y-97482700D01*
X57497982Y-97482700D02*
X57431315Y-97516033D01*
X57431315Y-97516033D02*
X57364649Y-97516033D01*
X57364649Y-97516033D02*
X57297982Y-97482700D01*
X57297982Y-97482700D02*
X57264649Y-97449366D01*
X57264649Y-97449366D02*
X57231315Y-97382700D01*
X57231315Y-97382700D02*
X57197982Y-97249366D01*
X57197982Y-97249366D02*
X57197982Y-97082700D01*
X57197982Y-97082700D02*
X57231315Y-96949366D01*
X57231315Y-96949366D02*
X57264649Y-96882700D01*
X57264649Y-96882700D02*
X57297982Y-96849366D01*
X57297982Y-96849366D02*
X57364649Y-96816033D01*
X57797982Y-96816033D02*
X58197982Y-96816033D01*
X57997982Y-97516033D02*
X57997982Y-96816033D01*
X58364649Y-96816033D02*
X58831315Y-97516033D01*
X58831315Y-96816033D02*
X58364649Y-97516033D01*
X59097982Y-97516033D02*
X59097982Y-96816033D01*
X59097982Y-96816033D02*
X59264649Y-96816033D01*
X59264649Y-96816033D02*
X59364649Y-96849366D01*
X59364649Y-96849366D02*
X59431316Y-96916033D01*
X59431316Y-96916033D02*
X59464649Y-96982700D01*
X59464649Y-96982700D02*
X59497982Y-97116033D01*
X59497982Y-97116033D02*
X59497982Y-97216033D01*
X59497982Y-97216033D02*
X59464649Y-97349366D01*
X59464649Y-97349366D02*
X59431316Y-97416033D01*
X59431316Y-97416033D02*
X59364649Y-97482700D01*
X59364649Y-97482700D02*
X59264649Y-97516033D01*
X59264649Y-97516033D02*
X59097982Y-97516033D01*
X57345601Y-104322438D02*
X57250363Y-104274819D01*
X57250363Y-104274819D02*
X57107506Y-104274819D01*
X57107506Y-104274819D02*
X56964649Y-104322438D01*
X56964649Y-104322438D02*
X56869411Y-104417676D01*
X56869411Y-104417676D02*
X56821792Y-104512914D01*
X56821792Y-104512914D02*
X56774173Y-104703390D01*
X56774173Y-104703390D02*
X56774173Y-104846247D01*
X56774173Y-104846247D02*
X56821792Y-105036723D01*
X56821792Y-105036723D02*
X56869411Y-105131961D01*
X56869411Y-105131961D02*
X56964649Y-105227200D01*
X56964649Y-105227200D02*
X57107506Y-105274819D01*
X57107506Y-105274819D02*
X57202744Y-105274819D01*
X57202744Y-105274819D02*
X57345601Y-105227200D01*
X57345601Y-105227200D02*
X57393220Y-105179580D01*
X57393220Y-105179580D02*
X57393220Y-104846247D01*
X57393220Y-104846247D02*
X57202744Y-104846247D01*
X57821792Y-105274819D02*
X57821792Y-104274819D01*
X57821792Y-104274819D02*
X58393220Y-105274819D01*
X58393220Y-105274819D02*
X58393220Y-104274819D01*
X58869411Y-105274819D02*
X58869411Y-104274819D01*
X58869411Y-104274819D02*
X59107506Y-104274819D01*
X59107506Y-104274819D02*
X59250363Y-104322438D01*
X59250363Y-104322438D02*
X59345601Y-104417676D01*
X59345601Y-104417676D02*
X59393220Y-104512914D01*
X59393220Y-104512914D02*
X59440839Y-104703390D01*
X59440839Y-104703390D02*
X59440839Y-104846247D01*
X59440839Y-104846247D02*
X59393220Y-105036723D01*
X59393220Y-105036723D02*
X59345601Y-105131961D01*
X59345601Y-105131961D02*
X59250363Y-105227200D01*
X59250363Y-105227200D02*
X59107506Y-105274819D01*
X59107506Y-105274819D02*
X58869411Y-105274819D01*
X58431315Y-130536033D02*
X58431315Y-129836033D01*
X58431315Y-129836033D02*
X58597982Y-129836033D01*
X58597982Y-129836033D02*
X58697982Y-129869366D01*
X58697982Y-129869366D02*
X58764649Y-129936033D01*
X58764649Y-129936033D02*
X58797982Y-130002700D01*
X58797982Y-130002700D02*
X58831315Y-130136033D01*
X58831315Y-130136033D02*
X58831315Y-130236033D01*
X58831315Y-130236033D02*
X58797982Y-130369366D01*
X58797982Y-130369366D02*
X58764649Y-130436033D01*
X58764649Y-130436033D02*
X58697982Y-130502700D01*
X58697982Y-130502700D02*
X58597982Y-130536033D01*
X58597982Y-130536033D02*
X58431315Y-130536033D01*
X59497982Y-130536033D02*
X59097982Y-130536033D01*
X59297982Y-130536033D02*
X59297982Y-129836033D01*
X59297982Y-129836033D02*
X59231315Y-129936033D01*
X59231315Y-129936033D02*
X59164649Y-130002700D01*
X59164649Y-130002700D02*
X59097982Y-130036033D01*
X57031316Y-112089366D02*
X56964649Y-112056033D01*
X56964649Y-112056033D02*
X56864649Y-112056033D01*
X56864649Y-112056033D02*
X56764649Y-112089366D01*
X56764649Y-112089366D02*
X56697983Y-112156033D01*
X56697983Y-112156033D02*
X56664649Y-112222700D01*
X56664649Y-112222700D02*
X56631316Y-112356033D01*
X56631316Y-112356033D02*
X56631316Y-112456033D01*
X56631316Y-112456033D02*
X56664649Y-112589366D01*
X56664649Y-112589366D02*
X56697983Y-112656033D01*
X56697983Y-112656033D02*
X56764649Y-112722700D01*
X56764649Y-112722700D02*
X56864649Y-112756033D01*
X56864649Y-112756033D02*
X56931316Y-112756033D01*
X56931316Y-112756033D02*
X57031316Y-112722700D01*
X57031316Y-112722700D02*
X57064649Y-112689366D01*
X57064649Y-112689366D02*
X57064649Y-112456033D01*
X57064649Y-112456033D02*
X56931316Y-112456033D01*
X57364649Y-112756033D02*
X57364649Y-112056033D01*
X57364649Y-112056033D02*
X57631316Y-112056033D01*
X57631316Y-112056033D02*
X57697983Y-112089366D01*
X57697983Y-112089366D02*
X57731316Y-112122700D01*
X57731316Y-112122700D02*
X57764649Y-112189366D01*
X57764649Y-112189366D02*
X57764649Y-112289366D01*
X57764649Y-112289366D02*
X57731316Y-112356033D01*
X57731316Y-112356033D02*
X57697983Y-112389366D01*
X57697983Y-112389366D02*
X57631316Y-112422700D01*
X57631316Y-112422700D02*
X57364649Y-112422700D01*
X58064649Y-112756033D02*
X58064649Y-112056033D01*
X58531316Y-112056033D02*
X58664649Y-112056033D01*
X58664649Y-112056033D02*
X58731316Y-112089366D01*
X58731316Y-112089366D02*
X58797982Y-112156033D01*
X58797982Y-112156033D02*
X58831316Y-112289366D01*
X58831316Y-112289366D02*
X58831316Y-112522700D01*
X58831316Y-112522700D02*
X58797982Y-112656033D01*
X58797982Y-112656033D02*
X58731316Y-112722700D01*
X58731316Y-112722700D02*
X58664649Y-112756033D01*
X58664649Y-112756033D02*
X58531316Y-112756033D01*
X58531316Y-112756033D02*
X58464649Y-112722700D01*
X58464649Y-112722700D02*
X58397982Y-112656033D01*
X58397982Y-112656033D02*
X58364649Y-112522700D01*
X58364649Y-112522700D02*
X58364649Y-112289366D01*
X58364649Y-112289366D02*
X58397982Y-112156033D01*
X58397982Y-112156033D02*
X58464649Y-112089366D01*
X58464649Y-112089366D02*
X58531316Y-112056033D01*
X59464649Y-112056033D02*
X59131315Y-112056033D01*
X59131315Y-112056033D02*
X59097982Y-112389366D01*
X59097982Y-112389366D02*
X59131315Y-112356033D01*
X59131315Y-112356033D02*
X59197982Y-112322700D01*
X59197982Y-112322700D02*
X59364649Y-112322700D01*
X59364649Y-112322700D02*
X59431315Y-112356033D01*
X59431315Y-112356033D02*
X59464649Y-112389366D01*
X59464649Y-112389366D02*
X59497982Y-112456033D01*
X59497982Y-112456033D02*
X59497982Y-112622700D01*
X59497982Y-112622700D02*
X59464649Y-112689366D01*
X59464649Y-112689366D02*
X59431315Y-112722700D01*
X59431315Y-112722700D02*
X59364649Y-112756033D01*
X59364649Y-112756033D02*
X59197982Y-112756033D01*
X59197982Y-112756033D02*
X59131315Y-112722700D01*
X59131315Y-112722700D02*
X59097982Y-112689366D01*
X37035350Y-94276033D02*
X37268684Y-94976033D01*
X37268684Y-94976033D02*
X37502017Y-94276033D01*
X37735350Y-94976033D02*
X37735350Y-94276033D01*
X37735350Y-94276033D02*
X38002017Y-94276033D01*
X38002017Y-94276033D02*
X38068684Y-94309366D01*
X38068684Y-94309366D02*
X38102017Y-94342700D01*
X38102017Y-94342700D02*
X38135350Y-94409366D01*
X38135350Y-94409366D02*
X38135350Y-94509366D01*
X38135350Y-94509366D02*
X38102017Y-94576033D01*
X38102017Y-94576033D02*
X38068684Y-94609366D01*
X38068684Y-94609366D02*
X38002017Y-94642700D01*
X38002017Y-94642700D02*
X37735350Y-94642700D01*
X38935350Y-94242700D02*
X38335350Y-95142700D01*
X39535350Y-94309366D02*
X39468683Y-94276033D01*
X39468683Y-94276033D02*
X39368683Y-94276033D01*
X39368683Y-94276033D02*
X39268683Y-94309366D01*
X39268683Y-94309366D02*
X39202017Y-94376033D01*
X39202017Y-94376033D02*
X39168683Y-94442700D01*
X39168683Y-94442700D02*
X39135350Y-94576033D01*
X39135350Y-94576033D02*
X39135350Y-94676033D01*
X39135350Y-94676033D02*
X39168683Y-94809366D01*
X39168683Y-94809366D02*
X39202017Y-94876033D01*
X39202017Y-94876033D02*
X39268683Y-94942700D01*
X39268683Y-94942700D02*
X39368683Y-94976033D01*
X39368683Y-94976033D02*
X39435350Y-94976033D01*
X39435350Y-94976033D02*
X39535350Y-94942700D01*
X39535350Y-94942700D02*
X39568683Y-94909366D01*
X39568683Y-94909366D02*
X39568683Y-94676033D01*
X39568683Y-94676033D02*
X39435350Y-94676033D01*
X39868683Y-94976033D02*
X39868683Y-94276033D01*
X39868683Y-94276033D02*
X40135350Y-94276033D01*
X40135350Y-94276033D02*
X40202017Y-94309366D01*
X40202017Y-94309366D02*
X40235350Y-94342700D01*
X40235350Y-94342700D02*
X40268683Y-94409366D01*
X40268683Y-94409366D02*
X40268683Y-94509366D01*
X40268683Y-94509366D02*
X40235350Y-94576033D01*
X40235350Y-94576033D02*
X40202017Y-94609366D01*
X40202017Y-94609366D02*
X40135350Y-94642700D01*
X40135350Y-94642700D02*
X39868683Y-94642700D01*
X40568683Y-94976033D02*
X40568683Y-94276033D01*
X41035350Y-94276033D02*
X41168683Y-94276033D01*
X41168683Y-94276033D02*
X41235350Y-94309366D01*
X41235350Y-94309366D02*
X41302016Y-94376033D01*
X41302016Y-94376033D02*
X41335350Y-94509366D01*
X41335350Y-94509366D02*
X41335350Y-94742700D01*
X41335350Y-94742700D02*
X41302016Y-94876033D01*
X41302016Y-94876033D02*
X41235350Y-94942700D01*
X41235350Y-94942700D02*
X41168683Y-94976033D01*
X41168683Y-94976033D02*
X41035350Y-94976033D01*
X41035350Y-94976033D02*
X40968683Y-94942700D01*
X40968683Y-94942700D02*
X40902016Y-94876033D01*
X40902016Y-94876033D02*
X40868683Y-94742700D01*
X40868683Y-94742700D02*
X40868683Y-94509366D01*
X40868683Y-94509366D02*
X40902016Y-94376033D01*
X40902016Y-94376033D02*
X40968683Y-94309366D01*
X40968683Y-94309366D02*
X41035350Y-94276033D01*
X41568683Y-94276033D02*
X42002016Y-94276033D01*
X42002016Y-94276033D02*
X41768683Y-94542700D01*
X41768683Y-94542700D02*
X41868683Y-94542700D01*
X41868683Y-94542700D02*
X41935349Y-94576033D01*
X41935349Y-94576033D02*
X41968683Y-94609366D01*
X41968683Y-94609366D02*
X42002016Y-94676033D01*
X42002016Y-94676033D02*
X42002016Y-94842700D01*
X42002016Y-94842700D02*
X41968683Y-94909366D01*
X41968683Y-94909366D02*
X41935349Y-94942700D01*
X41935349Y-94942700D02*
X41868683Y-94976033D01*
X41868683Y-94976033D02*
X41668683Y-94976033D01*
X41668683Y-94976033D02*
X41602016Y-94942700D01*
X41602016Y-94942700D02*
X41568683Y-94909366D01*
X42602016Y-94276033D02*
X42468683Y-94276033D01*
X42468683Y-94276033D02*
X42402016Y-94309366D01*
X42402016Y-94309366D02*
X42368683Y-94342700D01*
X42368683Y-94342700D02*
X42302016Y-94442700D01*
X42302016Y-94442700D02*
X42268683Y-94576033D01*
X42268683Y-94576033D02*
X42268683Y-94842700D01*
X42268683Y-94842700D02*
X42302016Y-94909366D01*
X42302016Y-94909366D02*
X42335350Y-94942700D01*
X42335350Y-94942700D02*
X42402016Y-94976033D01*
X42402016Y-94976033D02*
X42535350Y-94976033D01*
X42535350Y-94976033D02*
X42602016Y-94942700D01*
X42602016Y-94942700D02*
X42635350Y-94909366D01*
X42635350Y-94909366D02*
X42668683Y-94842700D01*
X42668683Y-94842700D02*
X42668683Y-94676033D01*
X42668683Y-94676033D02*
X42635350Y-94609366D01*
X42635350Y-94609366D02*
X42602016Y-94576033D01*
X42602016Y-94576033D02*
X42535350Y-94542700D01*
X42535350Y-94542700D02*
X42402016Y-94542700D01*
X42402016Y-94542700D02*
X42335350Y-94576033D01*
X42335350Y-94576033D02*
X42302016Y-94609366D01*
X42302016Y-94609366D02*
X42268683Y-94676033D01*
X37035350Y-96816033D02*
X37268684Y-97516033D01*
X37268684Y-97516033D02*
X37502017Y-96816033D01*
X37735350Y-97516033D02*
X37735350Y-96816033D01*
X37735350Y-96816033D02*
X38135350Y-97516033D01*
X38135350Y-97516033D02*
X38135350Y-96816033D01*
X38968683Y-96782700D02*
X38368683Y-97682700D01*
X39568683Y-96849366D02*
X39502016Y-96816033D01*
X39502016Y-96816033D02*
X39402016Y-96816033D01*
X39402016Y-96816033D02*
X39302016Y-96849366D01*
X39302016Y-96849366D02*
X39235350Y-96916033D01*
X39235350Y-96916033D02*
X39202016Y-96982700D01*
X39202016Y-96982700D02*
X39168683Y-97116033D01*
X39168683Y-97116033D02*
X39168683Y-97216033D01*
X39168683Y-97216033D02*
X39202016Y-97349366D01*
X39202016Y-97349366D02*
X39235350Y-97416033D01*
X39235350Y-97416033D02*
X39302016Y-97482700D01*
X39302016Y-97482700D02*
X39402016Y-97516033D01*
X39402016Y-97516033D02*
X39468683Y-97516033D01*
X39468683Y-97516033D02*
X39568683Y-97482700D01*
X39568683Y-97482700D02*
X39602016Y-97449366D01*
X39602016Y-97449366D02*
X39602016Y-97216033D01*
X39602016Y-97216033D02*
X39468683Y-97216033D01*
X39902016Y-97516033D02*
X39902016Y-96816033D01*
X39902016Y-96816033D02*
X40168683Y-96816033D01*
X40168683Y-96816033D02*
X40235350Y-96849366D01*
X40235350Y-96849366D02*
X40268683Y-96882700D01*
X40268683Y-96882700D02*
X40302016Y-96949366D01*
X40302016Y-96949366D02*
X40302016Y-97049366D01*
X40302016Y-97049366D02*
X40268683Y-97116033D01*
X40268683Y-97116033D02*
X40235350Y-97149366D01*
X40235350Y-97149366D02*
X40168683Y-97182700D01*
X40168683Y-97182700D02*
X39902016Y-97182700D01*
X40602016Y-97516033D02*
X40602016Y-96816033D01*
X41068683Y-96816033D02*
X41202016Y-96816033D01*
X41202016Y-96816033D02*
X41268683Y-96849366D01*
X41268683Y-96849366D02*
X41335349Y-96916033D01*
X41335349Y-96916033D02*
X41368683Y-97049366D01*
X41368683Y-97049366D02*
X41368683Y-97282700D01*
X41368683Y-97282700D02*
X41335349Y-97416033D01*
X41335349Y-97416033D02*
X41268683Y-97482700D01*
X41268683Y-97482700D02*
X41202016Y-97516033D01*
X41202016Y-97516033D02*
X41068683Y-97516033D01*
X41068683Y-97516033D02*
X41002016Y-97482700D01*
X41002016Y-97482700D02*
X40935349Y-97416033D01*
X40935349Y-97416033D02*
X40902016Y-97282700D01*
X40902016Y-97282700D02*
X40902016Y-97049366D01*
X40902016Y-97049366D02*
X40935349Y-96916033D01*
X40935349Y-96916033D02*
X41002016Y-96849366D01*
X41002016Y-96849366D02*
X41068683Y-96816033D01*
X41602016Y-96816033D02*
X42035349Y-96816033D01*
X42035349Y-96816033D02*
X41802016Y-97082700D01*
X41802016Y-97082700D02*
X41902016Y-97082700D01*
X41902016Y-97082700D02*
X41968682Y-97116033D01*
X41968682Y-97116033D02*
X42002016Y-97149366D01*
X42002016Y-97149366D02*
X42035349Y-97216033D01*
X42035349Y-97216033D02*
X42035349Y-97382700D01*
X42035349Y-97382700D02*
X42002016Y-97449366D01*
X42002016Y-97449366D02*
X41968682Y-97482700D01*
X41968682Y-97482700D02*
X41902016Y-97516033D01*
X41902016Y-97516033D02*
X41702016Y-97516033D01*
X41702016Y-97516033D02*
X41635349Y-97482700D01*
X41635349Y-97482700D02*
X41602016Y-97449366D01*
X42368683Y-97516033D02*
X42502016Y-97516033D01*
X42502016Y-97516033D02*
X42568683Y-97482700D01*
X42568683Y-97482700D02*
X42602016Y-97449366D01*
X42602016Y-97449366D02*
X42668683Y-97349366D01*
X42668683Y-97349366D02*
X42702016Y-97216033D01*
X42702016Y-97216033D02*
X42702016Y-96949366D01*
X42702016Y-96949366D02*
X42668683Y-96882700D01*
X42668683Y-96882700D02*
X42635349Y-96849366D01*
X42635349Y-96849366D02*
X42568683Y-96816033D01*
X42568683Y-96816033D02*
X42435349Y-96816033D01*
X42435349Y-96816033D02*
X42368683Y-96849366D01*
X42368683Y-96849366D02*
X42335349Y-96882700D01*
X42335349Y-96882700D02*
X42302016Y-96949366D01*
X42302016Y-96949366D02*
X42302016Y-97116033D01*
X42302016Y-97116033D02*
X42335349Y-97182700D01*
X42335349Y-97182700D02*
X42368683Y-97216033D01*
X42368683Y-97216033D02*
X42435349Y-97249366D01*
X42435349Y-97249366D02*
X42568683Y-97249366D01*
X42568683Y-97249366D02*
X42635349Y-97216033D01*
X42635349Y-97216033D02*
X42668683Y-97182700D01*
X42668683Y-97182700D02*
X42702016Y-97116033D01*
X37679289Y-135006099D02*
X37203099Y-135006099D01*
X37203099Y-135006099D02*
X37155480Y-135482289D01*
X37155480Y-135482289D02*
X37203099Y-135434670D01*
X37203099Y-135434670D02*
X37298337Y-135387051D01*
X37298337Y-135387051D02*
X37536432Y-135387051D01*
X37536432Y-135387051D02*
X37631670Y-135434670D01*
X37631670Y-135434670D02*
X37679289Y-135482289D01*
X37679289Y-135482289D02*
X37726908Y-135577527D01*
X37726908Y-135577527D02*
X37726908Y-135815622D01*
X37726908Y-135815622D02*
X37679289Y-135910860D01*
X37679289Y-135910860D02*
X37631670Y-135958480D01*
X37631670Y-135958480D02*
X37536432Y-136006099D01*
X37536432Y-136006099D02*
X37298337Y-136006099D01*
X37298337Y-136006099D02*
X37203099Y-135958480D01*
X37203099Y-135958480D02*
X37155480Y-135910860D01*
X38012623Y-135006099D02*
X38345956Y-136006099D01*
X38345956Y-136006099D02*
X38679289Y-135006099D01*
X57031316Y-122249366D02*
X56964649Y-122216033D01*
X56964649Y-122216033D02*
X56864649Y-122216033D01*
X56864649Y-122216033D02*
X56764649Y-122249366D01*
X56764649Y-122249366D02*
X56697983Y-122316033D01*
X56697983Y-122316033D02*
X56664649Y-122382700D01*
X56664649Y-122382700D02*
X56631316Y-122516033D01*
X56631316Y-122516033D02*
X56631316Y-122616033D01*
X56631316Y-122616033D02*
X56664649Y-122749366D01*
X56664649Y-122749366D02*
X56697983Y-122816033D01*
X56697983Y-122816033D02*
X56764649Y-122882700D01*
X56764649Y-122882700D02*
X56864649Y-122916033D01*
X56864649Y-122916033D02*
X56931316Y-122916033D01*
X56931316Y-122916033D02*
X57031316Y-122882700D01*
X57031316Y-122882700D02*
X57064649Y-122849366D01*
X57064649Y-122849366D02*
X57064649Y-122616033D01*
X57064649Y-122616033D02*
X56931316Y-122616033D01*
X57364649Y-122916033D02*
X57364649Y-122216033D01*
X57364649Y-122216033D02*
X57631316Y-122216033D01*
X57631316Y-122216033D02*
X57697983Y-122249366D01*
X57697983Y-122249366D02*
X57731316Y-122282700D01*
X57731316Y-122282700D02*
X57764649Y-122349366D01*
X57764649Y-122349366D02*
X57764649Y-122449366D01*
X57764649Y-122449366D02*
X57731316Y-122516033D01*
X57731316Y-122516033D02*
X57697983Y-122549366D01*
X57697983Y-122549366D02*
X57631316Y-122582700D01*
X57631316Y-122582700D02*
X57364649Y-122582700D01*
X58064649Y-122916033D02*
X58064649Y-122216033D01*
X58531316Y-122216033D02*
X58664649Y-122216033D01*
X58664649Y-122216033D02*
X58731316Y-122249366D01*
X58731316Y-122249366D02*
X58797982Y-122316033D01*
X58797982Y-122316033D02*
X58831316Y-122449366D01*
X58831316Y-122449366D02*
X58831316Y-122682700D01*
X58831316Y-122682700D02*
X58797982Y-122816033D01*
X58797982Y-122816033D02*
X58731316Y-122882700D01*
X58731316Y-122882700D02*
X58664649Y-122916033D01*
X58664649Y-122916033D02*
X58531316Y-122916033D01*
X58531316Y-122916033D02*
X58464649Y-122882700D01*
X58464649Y-122882700D02*
X58397982Y-122816033D01*
X58397982Y-122816033D02*
X58364649Y-122682700D01*
X58364649Y-122682700D02*
X58364649Y-122449366D01*
X58364649Y-122449366D02*
X58397982Y-122316033D01*
X58397982Y-122316033D02*
X58464649Y-122249366D01*
X58464649Y-122249366D02*
X58531316Y-122216033D01*
X59264649Y-122216033D02*
X59331315Y-122216033D01*
X59331315Y-122216033D02*
X59397982Y-122249366D01*
X59397982Y-122249366D02*
X59431315Y-122282700D01*
X59431315Y-122282700D02*
X59464649Y-122349366D01*
X59464649Y-122349366D02*
X59497982Y-122482700D01*
X59497982Y-122482700D02*
X59497982Y-122649366D01*
X59497982Y-122649366D02*
X59464649Y-122782700D01*
X59464649Y-122782700D02*
X59431315Y-122849366D01*
X59431315Y-122849366D02*
X59397982Y-122882700D01*
X59397982Y-122882700D02*
X59331315Y-122916033D01*
X59331315Y-122916033D02*
X59264649Y-122916033D01*
X59264649Y-122916033D02*
X59197982Y-122882700D01*
X59197982Y-122882700D02*
X59164649Y-122849366D01*
X59164649Y-122849366D02*
X59131315Y-122782700D01*
X59131315Y-122782700D02*
X59097982Y-122649366D01*
X59097982Y-122649366D02*
X59097982Y-122482700D01*
X59097982Y-122482700D02*
X59131315Y-122349366D01*
X59131315Y-122349366D02*
X59164649Y-122282700D01*
X59164649Y-122282700D02*
X59197982Y-122249366D01*
X59197982Y-122249366D02*
X59264649Y-122216033D01*
X37502017Y-114629366D02*
X37435350Y-114596033D01*
X37435350Y-114596033D02*
X37335350Y-114596033D01*
X37335350Y-114596033D02*
X37235350Y-114629366D01*
X37235350Y-114629366D02*
X37168684Y-114696033D01*
X37168684Y-114696033D02*
X37135350Y-114762700D01*
X37135350Y-114762700D02*
X37102017Y-114896033D01*
X37102017Y-114896033D02*
X37102017Y-114996033D01*
X37102017Y-114996033D02*
X37135350Y-115129366D01*
X37135350Y-115129366D02*
X37168684Y-115196033D01*
X37168684Y-115196033D02*
X37235350Y-115262700D01*
X37235350Y-115262700D02*
X37335350Y-115296033D01*
X37335350Y-115296033D02*
X37402017Y-115296033D01*
X37402017Y-115296033D02*
X37502017Y-115262700D01*
X37502017Y-115262700D02*
X37535350Y-115229366D01*
X37535350Y-115229366D02*
X37535350Y-114996033D01*
X37535350Y-114996033D02*
X37402017Y-114996033D01*
X37835350Y-115296033D02*
X37835350Y-114596033D01*
X37835350Y-114596033D02*
X38102017Y-114596033D01*
X38102017Y-114596033D02*
X38168684Y-114629366D01*
X38168684Y-114629366D02*
X38202017Y-114662700D01*
X38202017Y-114662700D02*
X38235350Y-114729366D01*
X38235350Y-114729366D02*
X38235350Y-114829366D01*
X38235350Y-114829366D02*
X38202017Y-114896033D01*
X38202017Y-114896033D02*
X38168684Y-114929366D01*
X38168684Y-114929366D02*
X38102017Y-114962700D01*
X38102017Y-114962700D02*
X37835350Y-114962700D01*
X38535350Y-115296033D02*
X38535350Y-114596033D01*
X39002017Y-114596033D02*
X39135350Y-114596033D01*
X39135350Y-114596033D02*
X39202017Y-114629366D01*
X39202017Y-114629366D02*
X39268683Y-114696033D01*
X39268683Y-114696033D02*
X39302017Y-114829366D01*
X39302017Y-114829366D02*
X39302017Y-115062700D01*
X39302017Y-115062700D02*
X39268683Y-115196033D01*
X39268683Y-115196033D02*
X39202017Y-115262700D01*
X39202017Y-115262700D02*
X39135350Y-115296033D01*
X39135350Y-115296033D02*
X39002017Y-115296033D01*
X39002017Y-115296033D02*
X38935350Y-115262700D01*
X38935350Y-115262700D02*
X38868683Y-115196033D01*
X38868683Y-115196033D02*
X38835350Y-115062700D01*
X38835350Y-115062700D02*
X38835350Y-114829366D01*
X38835350Y-114829366D02*
X38868683Y-114696033D01*
X38868683Y-114696033D02*
X38935350Y-114629366D01*
X38935350Y-114629366D02*
X39002017Y-114596033D01*
X39568683Y-114662700D02*
X39602016Y-114629366D01*
X39602016Y-114629366D02*
X39668683Y-114596033D01*
X39668683Y-114596033D02*
X39835350Y-114596033D01*
X39835350Y-114596033D02*
X39902016Y-114629366D01*
X39902016Y-114629366D02*
X39935350Y-114662700D01*
X39935350Y-114662700D02*
X39968683Y-114729366D01*
X39968683Y-114729366D02*
X39968683Y-114796033D01*
X39968683Y-114796033D02*
X39935350Y-114896033D01*
X39935350Y-114896033D02*
X39535350Y-115296033D01*
X39535350Y-115296033D02*
X39968683Y-115296033D01*
X40202017Y-114596033D02*
X40668683Y-114596033D01*
X40668683Y-114596033D02*
X40368683Y-115296033D01*
X52831316Y-99389366D02*
X52764649Y-99356033D01*
X52764649Y-99356033D02*
X52664649Y-99356033D01*
X52664649Y-99356033D02*
X52564649Y-99389366D01*
X52564649Y-99389366D02*
X52497983Y-99456033D01*
X52497983Y-99456033D02*
X52464649Y-99522700D01*
X52464649Y-99522700D02*
X52431316Y-99656033D01*
X52431316Y-99656033D02*
X52431316Y-99756033D01*
X52431316Y-99756033D02*
X52464649Y-99889366D01*
X52464649Y-99889366D02*
X52497983Y-99956033D01*
X52497983Y-99956033D02*
X52564649Y-100022700D01*
X52564649Y-100022700D02*
X52664649Y-100056033D01*
X52664649Y-100056033D02*
X52731316Y-100056033D01*
X52731316Y-100056033D02*
X52831316Y-100022700D01*
X52831316Y-100022700D02*
X52864649Y-99989366D01*
X52864649Y-99989366D02*
X52864649Y-99756033D01*
X52864649Y-99756033D02*
X52731316Y-99756033D01*
X53164649Y-100056033D02*
X53164649Y-99356033D01*
X53164649Y-99356033D02*
X53431316Y-99356033D01*
X53431316Y-99356033D02*
X53497983Y-99389366D01*
X53497983Y-99389366D02*
X53531316Y-99422700D01*
X53531316Y-99422700D02*
X53564649Y-99489366D01*
X53564649Y-99489366D02*
X53564649Y-99589366D01*
X53564649Y-99589366D02*
X53531316Y-99656033D01*
X53531316Y-99656033D02*
X53497983Y-99689366D01*
X53497983Y-99689366D02*
X53431316Y-99722700D01*
X53431316Y-99722700D02*
X53164649Y-99722700D01*
X53864649Y-100056033D02*
X53864649Y-99356033D01*
X54331316Y-99356033D02*
X54464649Y-99356033D01*
X54464649Y-99356033D02*
X54531316Y-99389366D01*
X54531316Y-99389366D02*
X54597982Y-99456033D01*
X54597982Y-99456033D02*
X54631316Y-99589366D01*
X54631316Y-99589366D02*
X54631316Y-99822700D01*
X54631316Y-99822700D02*
X54597982Y-99956033D01*
X54597982Y-99956033D02*
X54531316Y-100022700D01*
X54531316Y-100022700D02*
X54464649Y-100056033D01*
X54464649Y-100056033D02*
X54331316Y-100056033D01*
X54331316Y-100056033D02*
X54264649Y-100022700D01*
X54264649Y-100022700D02*
X54197982Y-99956033D01*
X54197982Y-99956033D02*
X54164649Y-99822700D01*
X54164649Y-99822700D02*
X54164649Y-99589366D01*
X54164649Y-99589366D02*
X54197982Y-99456033D01*
X54197982Y-99456033D02*
X54264649Y-99389366D01*
X54264649Y-99389366D02*
X54331316Y-99356033D01*
X54864649Y-99356033D02*
X55297982Y-99356033D01*
X55297982Y-99356033D02*
X55064649Y-99622700D01*
X55064649Y-99622700D02*
X55164649Y-99622700D01*
X55164649Y-99622700D02*
X55231315Y-99656033D01*
X55231315Y-99656033D02*
X55264649Y-99689366D01*
X55264649Y-99689366D02*
X55297982Y-99756033D01*
X55297982Y-99756033D02*
X55297982Y-99922700D01*
X55297982Y-99922700D02*
X55264649Y-99989366D01*
X55264649Y-99989366D02*
X55231315Y-100022700D01*
X55231315Y-100022700D02*
X55164649Y-100056033D01*
X55164649Y-100056033D02*
X54964649Y-100056033D01*
X54964649Y-100056033D02*
X54897982Y-100022700D01*
X54897982Y-100022700D02*
X54864649Y-99989366D01*
X56097982Y-99322700D02*
X55497982Y-100222700D01*
X56331315Y-99356033D02*
X56331315Y-99922700D01*
X56331315Y-99922700D02*
X56364649Y-99989366D01*
X56364649Y-99989366D02*
X56397982Y-100022700D01*
X56397982Y-100022700D02*
X56464649Y-100056033D01*
X56464649Y-100056033D02*
X56597982Y-100056033D01*
X56597982Y-100056033D02*
X56664649Y-100022700D01*
X56664649Y-100022700D02*
X56697982Y-99989366D01*
X56697982Y-99989366D02*
X56731315Y-99922700D01*
X56731315Y-99922700D02*
X56731315Y-99356033D01*
X57197982Y-99356033D02*
X57264648Y-99356033D01*
X57264648Y-99356033D02*
X57331315Y-99389366D01*
X57331315Y-99389366D02*
X57364648Y-99422700D01*
X57364648Y-99422700D02*
X57397982Y-99489366D01*
X57397982Y-99489366D02*
X57431315Y-99622700D01*
X57431315Y-99622700D02*
X57431315Y-99789366D01*
X57431315Y-99789366D02*
X57397982Y-99922700D01*
X57397982Y-99922700D02*
X57364648Y-99989366D01*
X57364648Y-99989366D02*
X57331315Y-100022700D01*
X57331315Y-100022700D02*
X57264648Y-100056033D01*
X57264648Y-100056033D02*
X57197982Y-100056033D01*
X57197982Y-100056033D02*
X57131315Y-100022700D01*
X57131315Y-100022700D02*
X57097982Y-99989366D01*
X57097982Y-99989366D02*
X57064648Y-99922700D01*
X57064648Y-99922700D02*
X57031315Y-99789366D01*
X57031315Y-99789366D02*
X57031315Y-99622700D01*
X57031315Y-99622700D02*
X57064648Y-99489366D01*
X57064648Y-99489366D02*
X57097982Y-99422700D01*
X57097982Y-99422700D02*
X57131315Y-99389366D01*
X57131315Y-99389366D02*
X57197982Y-99356033D01*
X58131315Y-100056033D02*
X57897982Y-99722700D01*
X57731315Y-100056033D02*
X57731315Y-99356033D01*
X57731315Y-99356033D02*
X57997982Y-99356033D01*
X57997982Y-99356033D02*
X58064649Y-99389366D01*
X58064649Y-99389366D02*
X58097982Y-99422700D01*
X58097982Y-99422700D02*
X58131315Y-99489366D01*
X58131315Y-99489366D02*
X58131315Y-99589366D01*
X58131315Y-99589366D02*
X58097982Y-99656033D01*
X58097982Y-99656033D02*
X58064649Y-99689366D01*
X58064649Y-99689366D02*
X57997982Y-99722700D01*
X57997982Y-99722700D02*
X57731315Y-99722700D01*
X58364649Y-99356033D02*
X58831315Y-100056033D01*
X58831315Y-99356033D02*
X58364649Y-100056033D01*
X59097982Y-100056033D02*
X59097982Y-99356033D01*
X59097982Y-99356033D02*
X59264649Y-99356033D01*
X59264649Y-99356033D02*
X59364649Y-99389366D01*
X59364649Y-99389366D02*
X59431316Y-99456033D01*
X59431316Y-99456033D02*
X59464649Y-99522700D01*
X59464649Y-99522700D02*
X59497982Y-99656033D01*
X59497982Y-99656033D02*
X59497982Y-99756033D01*
X59497982Y-99756033D02*
X59464649Y-99889366D01*
X59464649Y-99889366D02*
X59431316Y-99956033D01*
X59431316Y-99956033D02*
X59364649Y-100022700D01*
X59364649Y-100022700D02*
X59264649Y-100056033D01*
X59264649Y-100056033D02*
X59097982Y-100056033D01*
X37135350Y-130536033D02*
X37135350Y-129836033D01*
X37135350Y-129836033D02*
X37302017Y-129836033D01*
X37302017Y-129836033D02*
X37402017Y-129869366D01*
X37402017Y-129869366D02*
X37468684Y-129936033D01*
X37468684Y-129936033D02*
X37502017Y-130002700D01*
X37502017Y-130002700D02*
X37535350Y-130136033D01*
X37535350Y-130136033D02*
X37535350Y-130236033D01*
X37535350Y-130236033D02*
X37502017Y-130369366D01*
X37502017Y-130369366D02*
X37468684Y-130436033D01*
X37468684Y-130436033D02*
X37402017Y-130502700D01*
X37402017Y-130502700D02*
X37302017Y-130536033D01*
X37302017Y-130536033D02*
X37135350Y-130536033D01*
X37768684Y-129836033D02*
X38202017Y-129836033D01*
X38202017Y-129836033D02*
X37968684Y-130102700D01*
X37968684Y-130102700D02*
X38068684Y-130102700D01*
X38068684Y-130102700D02*
X38135350Y-130136033D01*
X38135350Y-130136033D02*
X38168684Y-130169366D01*
X38168684Y-130169366D02*
X38202017Y-130236033D01*
X38202017Y-130236033D02*
X38202017Y-130402700D01*
X38202017Y-130402700D02*
X38168684Y-130469366D01*
X38168684Y-130469366D02*
X38135350Y-130502700D01*
X38135350Y-130502700D02*
X38068684Y-130536033D01*
X38068684Y-130536033D02*
X37868684Y-130536033D01*
X37868684Y-130536033D02*
X37802017Y-130502700D01*
X37802017Y-130502700D02*
X37768684Y-130469366D01*
X37502017Y-107009366D02*
X37435350Y-106976033D01*
X37435350Y-106976033D02*
X37335350Y-106976033D01*
X37335350Y-106976033D02*
X37235350Y-107009366D01*
X37235350Y-107009366D02*
X37168684Y-107076033D01*
X37168684Y-107076033D02*
X37135350Y-107142700D01*
X37135350Y-107142700D02*
X37102017Y-107276033D01*
X37102017Y-107276033D02*
X37102017Y-107376033D01*
X37102017Y-107376033D02*
X37135350Y-107509366D01*
X37135350Y-107509366D02*
X37168684Y-107576033D01*
X37168684Y-107576033D02*
X37235350Y-107642700D01*
X37235350Y-107642700D02*
X37335350Y-107676033D01*
X37335350Y-107676033D02*
X37402017Y-107676033D01*
X37402017Y-107676033D02*
X37502017Y-107642700D01*
X37502017Y-107642700D02*
X37535350Y-107609366D01*
X37535350Y-107609366D02*
X37535350Y-107376033D01*
X37535350Y-107376033D02*
X37402017Y-107376033D01*
X37835350Y-107676033D02*
X37835350Y-106976033D01*
X37835350Y-106976033D02*
X38102017Y-106976033D01*
X38102017Y-106976033D02*
X38168684Y-107009366D01*
X38168684Y-107009366D02*
X38202017Y-107042700D01*
X38202017Y-107042700D02*
X38235350Y-107109366D01*
X38235350Y-107109366D02*
X38235350Y-107209366D01*
X38235350Y-107209366D02*
X38202017Y-107276033D01*
X38202017Y-107276033D02*
X38168684Y-107309366D01*
X38168684Y-107309366D02*
X38102017Y-107342700D01*
X38102017Y-107342700D02*
X37835350Y-107342700D01*
X38535350Y-107676033D02*
X38535350Y-106976033D01*
X39002017Y-106976033D02*
X39135350Y-106976033D01*
X39135350Y-106976033D02*
X39202017Y-107009366D01*
X39202017Y-107009366D02*
X39268683Y-107076033D01*
X39268683Y-107076033D02*
X39302017Y-107209366D01*
X39302017Y-107209366D02*
X39302017Y-107442700D01*
X39302017Y-107442700D02*
X39268683Y-107576033D01*
X39268683Y-107576033D02*
X39202017Y-107642700D01*
X39202017Y-107642700D02*
X39135350Y-107676033D01*
X39135350Y-107676033D02*
X39002017Y-107676033D01*
X39002017Y-107676033D02*
X38935350Y-107642700D01*
X38935350Y-107642700D02*
X38868683Y-107576033D01*
X38868683Y-107576033D02*
X38835350Y-107442700D01*
X38835350Y-107442700D02*
X38835350Y-107209366D01*
X38835350Y-107209366D02*
X38868683Y-107076033D01*
X38868683Y-107076033D02*
X38935350Y-107009366D01*
X38935350Y-107009366D02*
X39002017Y-106976033D01*
X39535350Y-106976033D02*
X39968683Y-106976033D01*
X39968683Y-106976033D02*
X39735350Y-107242700D01*
X39735350Y-107242700D02*
X39835350Y-107242700D01*
X39835350Y-107242700D02*
X39902016Y-107276033D01*
X39902016Y-107276033D02*
X39935350Y-107309366D01*
X39935350Y-107309366D02*
X39968683Y-107376033D01*
X39968683Y-107376033D02*
X39968683Y-107542700D01*
X39968683Y-107542700D02*
X39935350Y-107609366D01*
X39935350Y-107609366D02*
X39902016Y-107642700D01*
X39902016Y-107642700D02*
X39835350Y-107676033D01*
X39835350Y-107676033D02*
X39635350Y-107676033D01*
X39635350Y-107676033D02*
X39568683Y-107642700D01*
X39568683Y-107642700D02*
X39535350Y-107609366D01*
X40202017Y-106976033D02*
X40635350Y-106976033D01*
X40635350Y-106976033D02*
X40402017Y-107242700D01*
X40402017Y-107242700D02*
X40502017Y-107242700D01*
X40502017Y-107242700D02*
X40568683Y-107276033D01*
X40568683Y-107276033D02*
X40602017Y-107309366D01*
X40602017Y-107309366D02*
X40635350Y-107376033D01*
X40635350Y-107376033D02*
X40635350Y-107542700D01*
X40635350Y-107542700D02*
X40602017Y-107609366D01*
X40602017Y-107609366D02*
X40568683Y-107642700D01*
X40568683Y-107642700D02*
X40502017Y-107676033D01*
X40502017Y-107676033D02*
X40302017Y-107676033D01*
X40302017Y-107676033D02*
X40235350Y-107642700D01*
X40235350Y-107642700D02*
X40202017Y-107609366D01*
X37135350Y-127996033D02*
X37135350Y-127296033D01*
X37135350Y-127296033D02*
X37302017Y-127296033D01*
X37302017Y-127296033D02*
X37402017Y-127329366D01*
X37402017Y-127329366D02*
X37468684Y-127396033D01*
X37468684Y-127396033D02*
X37502017Y-127462700D01*
X37502017Y-127462700D02*
X37535350Y-127596033D01*
X37535350Y-127596033D02*
X37535350Y-127696033D01*
X37535350Y-127696033D02*
X37502017Y-127829366D01*
X37502017Y-127829366D02*
X37468684Y-127896033D01*
X37468684Y-127896033D02*
X37402017Y-127962700D01*
X37402017Y-127962700D02*
X37302017Y-127996033D01*
X37302017Y-127996033D02*
X37135350Y-127996033D01*
X37802017Y-127362700D02*
X37835350Y-127329366D01*
X37835350Y-127329366D02*
X37902017Y-127296033D01*
X37902017Y-127296033D02*
X38068684Y-127296033D01*
X38068684Y-127296033D02*
X38135350Y-127329366D01*
X38135350Y-127329366D02*
X38168684Y-127362700D01*
X38168684Y-127362700D02*
X38202017Y-127429366D01*
X38202017Y-127429366D02*
X38202017Y-127496033D01*
X38202017Y-127496033D02*
X38168684Y-127596033D01*
X38168684Y-127596033D02*
X37768684Y-127996033D01*
X37768684Y-127996033D02*
X38202017Y-127996033D01*
X57031316Y-119709366D02*
X56964649Y-119676033D01*
X56964649Y-119676033D02*
X56864649Y-119676033D01*
X56864649Y-119676033D02*
X56764649Y-119709366D01*
X56764649Y-119709366D02*
X56697983Y-119776033D01*
X56697983Y-119776033D02*
X56664649Y-119842700D01*
X56664649Y-119842700D02*
X56631316Y-119976033D01*
X56631316Y-119976033D02*
X56631316Y-120076033D01*
X56631316Y-120076033D02*
X56664649Y-120209366D01*
X56664649Y-120209366D02*
X56697983Y-120276033D01*
X56697983Y-120276033D02*
X56764649Y-120342700D01*
X56764649Y-120342700D02*
X56864649Y-120376033D01*
X56864649Y-120376033D02*
X56931316Y-120376033D01*
X56931316Y-120376033D02*
X57031316Y-120342700D01*
X57031316Y-120342700D02*
X57064649Y-120309366D01*
X57064649Y-120309366D02*
X57064649Y-120076033D01*
X57064649Y-120076033D02*
X56931316Y-120076033D01*
X57364649Y-120376033D02*
X57364649Y-119676033D01*
X57364649Y-119676033D02*
X57631316Y-119676033D01*
X57631316Y-119676033D02*
X57697983Y-119709366D01*
X57697983Y-119709366D02*
X57731316Y-119742700D01*
X57731316Y-119742700D02*
X57764649Y-119809366D01*
X57764649Y-119809366D02*
X57764649Y-119909366D01*
X57764649Y-119909366D02*
X57731316Y-119976033D01*
X57731316Y-119976033D02*
X57697983Y-120009366D01*
X57697983Y-120009366D02*
X57631316Y-120042700D01*
X57631316Y-120042700D02*
X57364649Y-120042700D01*
X58064649Y-120376033D02*
X58064649Y-119676033D01*
X58531316Y-119676033D02*
X58664649Y-119676033D01*
X58664649Y-119676033D02*
X58731316Y-119709366D01*
X58731316Y-119709366D02*
X58797982Y-119776033D01*
X58797982Y-119776033D02*
X58831316Y-119909366D01*
X58831316Y-119909366D02*
X58831316Y-120142700D01*
X58831316Y-120142700D02*
X58797982Y-120276033D01*
X58797982Y-120276033D02*
X58731316Y-120342700D01*
X58731316Y-120342700D02*
X58664649Y-120376033D01*
X58664649Y-120376033D02*
X58531316Y-120376033D01*
X58531316Y-120376033D02*
X58464649Y-120342700D01*
X58464649Y-120342700D02*
X58397982Y-120276033D01*
X58397982Y-120276033D02*
X58364649Y-120142700D01*
X58364649Y-120142700D02*
X58364649Y-119909366D01*
X58364649Y-119909366D02*
X58397982Y-119776033D01*
X58397982Y-119776033D02*
X58464649Y-119709366D01*
X58464649Y-119709366D02*
X58531316Y-119676033D01*
X59431315Y-119909366D02*
X59431315Y-120376033D01*
X59264649Y-119642700D02*
X59097982Y-120142700D01*
X59097982Y-120142700D02*
X59531315Y-120142700D01*
X57031316Y-124789366D02*
X56964649Y-124756033D01*
X56964649Y-124756033D02*
X56864649Y-124756033D01*
X56864649Y-124756033D02*
X56764649Y-124789366D01*
X56764649Y-124789366D02*
X56697983Y-124856033D01*
X56697983Y-124856033D02*
X56664649Y-124922700D01*
X56664649Y-124922700D02*
X56631316Y-125056033D01*
X56631316Y-125056033D02*
X56631316Y-125156033D01*
X56631316Y-125156033D02*
X56664649Y-125289366D01*
X56664649Y-125289366D02*
X56697983Y-125356033D01*
X56697983Y-125356033D02*
X56764649Y-125422700D01*
X56764649Y-125422700D02*
X56864649Y-125456033D01*
X56864649Y-125456033D02*
X56931316Y-125456033D01*
X56931316Y-125456033D02*
X57031316Y-125422700D01*
X57031316Y-125422700D02*
X57064649Y-125389366D01*
X57064649Y-125389366D02*
X57064649Y-125156033D01*
X57064649Y-125156033D02*
X56931316Y-125156033D01*
X57364649Y-125456033D02*
X57364649Y-124756033D01*
X57364649Y-124756033D02*
X57631316Y-124756033D01*
X57631316Y-124756033D02*
X57697983Y-124789366D01*
X57697983Y-124789366D02*
X57731316Y-124822700D01*
X57731316Y-124822700D02*
X57764649Y-124889366D01*
X57764649Y-124889366D02*
X57764649Y-124989366D01*
X57764649Y-124989366D02*
X57731316Y-125056033D01*
X57731316Y-125056033D02*
X57697983Y-125089366D01*
X57697983Y-125089366D02*
X57631316Y-125122700D01*
X57631316Y-125122700D02*
X57364649Y-125122700D01*
X58064649Y-125456033D02*
X58064649Y-124756033D01*
X58531316Y-124756033D02*
X58664649Y-124756033D01*
X58664649Y-124756033D02*
X58731316Y-124789366D01*
X58731316Y-124789366D02*
X58797982Y-124856033D01*
X58797982Y-124856033D02*
X58831316Y-124989366D01*
X58831316Y-124989366D02*
X58831316Y-125222700D01*
X58831316Y-125222700D02*
X58797982Y-125356033D01*
X58797982Y-125356033D02*
X58731316Y-125422700D01*
X58731316Y-125422700D02*
X58664649Y-125456033D01*
X58664649Y-125456033D02*
X58531316Y-125456033D01*
X58531316Y-125456033D02*
X58464649Y-125422700D01*
X58464649Y-125422700D02*
X58397982Y-125356033D01*
X58397982Y-125356033D02*
X58364649Y-125222700D01*
X58364649Y-125222700D02*
X58364649Y-124989366D01*
X58364649Y-124989366D02*
X58397982Y-124856033D01*
X58397982Y-124856033D02*
X58464649Y-124789366D01*
X58464649Y-124789366D02*
X58531316Y-124756033D01*
X59097982Y-124822700D02*
X59131315Y-124789366D01*
X59131315Y-124789366D02*
X59197982Y-124756033D01*
X59197982Y-124756033D02*
X59364649Y-124756033D01*
X59364649Y-124756033D02*
X59431315Y-124789366D01*
X59431315Y-124789366D02*
X59464649Y-124822700D01*
X59464649Y-124822700D02*
X59497982Y-124889366D01*
X59497982Y-124889366D02*
X59497982Y-124956033D01*
X59497982Y-124956033D02*
X59464649Y-125056033D01*
X59464649Y-125056033D02*
X59064649Y-125456033D01*
X59064649Y-125456033D02*
X59497982Y-125456033D01*
X56364649Y-107009366D02*
X56297982Y-106976033D01*
X56297982Y-106976033D02*
X56197982Y-106976033D01*
X56197982Y-106976033D02*
X56097982Y-107009366D01*
X56097982Y-107009366D02*
X56031316Y-107076033D01*
X56031316Y-107076033D02*
X55997982Y-107142700D01*
X55997982Y-107142700D02*
X55964649Y-107276033D01*
X55964649Y-107276033D02*
X55964649Y-107376033D01*
X55964649Y-107376033D02*
X55997982Y-107509366D01*
X55997982Y-107509366D02*
X56031316Y-107576033D01*
X56031316Y-107576033D02*
X56097982Y-107642700D01*
X56097982Y-107642700D02*
X56197982Y-107676033D01*
X56197982Y-107676033D02*
X56264649Y-107676033D01*
X56264649Y-107676033D02*
X56364649Y-107642700D01*
X56364649Y-107642700D02*
X56397982Y-107609366D01*
X56397982Y-107609366D02*
X56397982Y-107376033D01*
X56397982Y-107376033D02*
X56264649Y-107376033D01*
X56697982Y-107676033D02*
X56697982Y-106976033D01*
X56697982Y-106976033D02*
X56964649Y-106976033D01*
X56964649Y-106976033D02*
X57031316Y-107009366D01*
X57031316Y-107009366D02*
X57064649Y-107042700D01*
X57064649Y-107042700D02*
X57097982Y-107109366D01*
X57097982Y-107109366D02*
X57097982Y-107209366D01*
X57097982Y-107209366D02*
X57064649Y-107276033D01*
X57064649Y-107276033D02*
X57031316Y-107309366D01*
X57031316Y-107309366D02*
X56964649Y-107342700D01*
X56964649Y-107342700D02*
X56697982Y-107342700D01*
X57397982Y-107676033D02*
X57397982Y-106976033D01*
X57864649Y-106976033D02*
X57997982Y-106976033D01*
X57997982Y-106976033D02*
X58064649Y-107009366D01*
X58064649Y-107009366D02*
X58131315Y-107076033D01*
X58131315Y-107076033D02*
X58164649Y-107209366D01*
X58164649Y-107209366D02*
X58164649Y-107442700D01*
X58164649Y-107442700D02*
X58131315Y-107576033D01*
X58131315Y-107576033D02*
X58064649Y-107642700D01*
X58064649Y-107642700D02*
X57997982Y-107676033D01*
X57997982Y-107676033D02*
X57864649Y-107676033D01*
X57864649Y-107676033D02*
X57797982Y-107642700D01*
X57797982Y-107642700D02*
X57731315Y-107576033D01*
X57731315Y-107576033D02*
X57697982Y-107442700D01*
X57697982Y-107442700D02*
X57697982Y-107209366D01*
X57697982Y-107209366D02*
X57731315Y-107076033D01*
X57731315Y-107076033D02*
X57797982Y-107009366D01*
X57797982Y-107009366D02*
X57864649Y-106976033D01*
X58831315Y-107676033D02*
X58431315Y-107676033D01*
X58631315Y-107676033D02*
X58631315Y-106976033D01*
X58631315Y-106976033D02*
X58564648Y-107076033D01*
X58564648Y-107076033D02*
X58497982Y-107142700D01*
X58497982Y-107142700D02*
X58431315Y-107176033D01*
X59164649Y-107676033D02*
X59297982Y-107676033D01*
X59297982Y-107676033D02*
X59364649Y-107642700D01*
X59364649Y-107642700D02*
X59397982Y-107609366D01*
X59397982Y-107609366D02*
X59464649Y-107509366D01*
X59464649Y-107509366D02*
X59497982Y-107376033D01*
X59497982Y-107376033D02*
X59497982Y-107109366D01*
X59497982Y-107109366D02*
X59464649Y-107042700D01*
X59464649Y-107042700D02*
X59431315Y-107009366D01*
X59431315Y-107009366D02*
X59364649Y-106976033D01*
X59364649Y-106976033D02*
X59231315Y-106976033D01*
X59231315Y-106976033D02*
X59164649Y-107009366D01*
X59164649Y-107009366D02*
X59131315Y-107042700D01*
X59131315Y-107042700D02*
X59097982Y-107109366D01*
X59097982Y-107109366D02*
X59097982Y-107276033D01*
X59097982Y-107276033D02*
X59131315Y-107342700D01*
X59131315Y-107342700D02*
X59164649Y-107376033D01*
X59164649Y-107376033D02*
X59231315Y-107409366D01*
X59231315Y-107409366D02*
X59364649Y-107409366D01*
X59364649Y-107409366D02*
X59431315Y-107376033D01*
X59431315Y-107376033D02*
X59464649Y-107342700D01*
X59464649Y-107342700D02*
X59497982Y-107276033D01*
X37502017Y-112089366D02*
X37435350Y-112056033D01*
X37435350Y-112056033D02*
X37335350Y-112056033D01*
X37335350Y-112056033D02*
X37235350Y-112089366D01*
X37235350Y-112089366D02*
X37168684Y-112156033D01*
X37168684Y-112156033D02*
X37135350Y-112222700D01*
X37135350Y-112222700D02*
X37102017Y-112356033D01*
X37102017Y-112356033D02*
X37102017Y-112456033D01*
X37102017Y-112456033D02*
X37135350Y-112589366D01*
X37135350Y-112589366D02*
X37168684Y-112656033D01*
X37168684Y-112656033D02*
X37235350Y-112722700D01*
X37235350Y-112722700D02*
X37335350Y-112756033D01*
X37335350Y-112756033D02*
X37402017Y-112756033D01*
X37402017Y-112756033D02*
X37502017Y-112722700D01*
X37502017Y-112722700D02*
X37535350Y-112689366D01*
X37535350Y-112689366D02*
X37535350Y-112456033D01*
X37535350Y-112456033D02*
X37402017Y-112456033D01*
X37835350Y-112756033D02*
X37835350Y-112056033D01*
X37835350Y-112056033D02*
X38102017Y-112056033D01*
X38102017Y-112056033D02*
X38168684Y-112089366D01*
X38168684Y-112089366D02*
X38202017Y-112122700D01*
X38202017Y-112122700D02*
X38235350Y-112189366D01*
X38235350Y-112189366D02*
X38235350Y-112289366D01*
X38235350Y-112289366D02*
X38202017Y-112356033D01*
X38202017Y-112356033D02*
X38168684Y-112389366D01*
X38168684Y-112389366D02*
X38102017Y-112422700D01*
X38102017Y-112422700D02*
X37835350Y-112422700D01*
X38535350Y-112756033D02*
X38535350Y-112056033D01*
X39002017Y-112056033D02*
X39135350Y-112056033D01*
X39135350Y-112056033D02*
X39202017Y-112089366D01*
X39202017Y-112089366D02*
X39268683Y-112156033D01*
X39268683Y-112156033D02*
X39302017Y-112289366D01*
X39302017Y-112289366D02*
X39302017Y-112522700D01*
X39302017Y-112522700D02*
X39268683Y-112656033D01*
X39268683Y-112656033D02*
X39202017Y-112722700D01*
X39202017Y-112722700D02*
X39135350Y-112756033D01*
X39135350Y-112756033D02*
X39002017Y-112756033D01*
X39002017Y-112756033D02*
X38935350Y-112722700D01*
X38935350Y-112722700D02*
X38868683Y-112656033D01*
X38868683Y-112656033D02*
X38835350Y-112522700D01*
X38835350Y-112522700D02*
X38835350Y-112289366D01*
X38835350Y-112289366D02*
X38868683Y-112156033D01*
X38868683Y-112156033D02*
X38935350Y-112089366D01*
X38935350Y-112089366D02*
X39002017Y-112056033D01*
X39568683Y-112122700D02*
X39602016Y-112089366D01*
X39602016Y-112089366D02*
X39668683Y-112056033D01*
X39668683Y-112056033D02*
X39835350Y-112056033D01*
X39835350Y-112056033D02*
X39902016Y-112089366D01*
X39902016Y-112089366D02*
X39935350Y-112122700D01*
X39935350Y-112122700D02*
X39968683Y-112189366D01*
X39968683Y-112189366D02*
X39968683Y-112256033D01*
X39968683Y-112256033D02*
X39935350Y-112356033D01*
X39935350Y-112356033D02*
X39535350Y-112756033D01*
X39535350Y-112756033D02*
X39968683Y-112756033D01*
X40568683Y-112056033D02*
X40435350Y-112056033D01*
X40435350Y-112056033D02*
X40368683Y-112089366D01*
X40368683Y-112089366D02*
X40335350Y-112122700D01*
X40335350Y-112122700D02*
X40268683Y-112222700D01*
X40268683Y-112222700D02*
X40235350Y-112356033D01*
X40235350Y-112356033D02*
X40235350Y-112622700D01*
X40235350Y-112622700D02*
X40268683Y-112689366D01*
X40268683Y-112689366D02*
X40302017Y-112722700D01*
X40302017Y-112722700D02*
X40368683Y-112756033D01*
X40368683Y-112756033D02*
X40502017Y-112756033D01*
X40502017Y-112756033D02*
X40568683Y-112722700D01*
X40568683Y-112722700D02*
X40602017Y-112689366D01*
X40602017Y-112689366D02*
X40635350Y-112622700D01*
X40635350Y-112622700D02*
X40635350Y-112456033D01*
X40635350Y-112456033D02*
X40602017Y-112389366D01*
X40602017Y-112389366D02*
X40568683Y-112356033D01*
X40568683Y-112356033D02*
X40502017Y-112322700D01*
X40502017Y-112322700D02*
X40368683Y-112322700D01*
X40368683Y-112322700D02*
X40302017Y-112356033D01*
X40302017Y-112356033D02*
X40268683Y-112389366D01*
X40268683Y-112389366D02*
X40235350Y-112456033D01*
X37502017Y-117169366D02*
X37435350Y-117136033D01*
X37435350Y-117136033D02*
X37335350Y-117136033D01*
X37335350Y-117136033D02*
X37235350Y-117169366D01*
X37235350Y-117169366D02*
X37168684Y-117236033D01*
X37168684Y-117236033D02*
X37135350Y-117302700D01*
X37135350Y-117302700D02*
X37102017Y-117436033D01*
X37102017Y-117436033D02*
X37102017Y-117536033D01*
X37102017Y-117536033D02*
X37135350Y-117669366D01*
X37135350Y-117669366D02*
X37168684Y-117736033D01*
X37168684Y-117736033D02*
X37235350Y-117802700D01*
X37235350Y-117802700D02*
X37335350Y-117836033D01*
X37335350Y-117836033D02*
X37402017Y-117836033D01*
X37402017Y-117836033D02*
X37502017Y-117802700D01*
X37502017Y-117802700D02*
X37535350Y-117769366D01*
X37535350Y-117769366D02*
X37535350Y-117536033D01*
X37535350Y-117536033D02*
X37402017Y-117536033D01*
X37835350Y-117836033D02*
X37835350Y-117136033D01*
X37835350Y-117136033D02*
X38102017Y-117136033D01*
X38102017Y-117136033D02*
X38168684Y-117169366D01*
X38168684Y-117169366D02*
X38202017Y-117202700D01*
X38202017Y-117202700D02*
X38235350Y-117269366D01*
X38235350Y-117269366D02*
X38235350Y-117369366D01*
X38235350Y-117369366D02*
X38202017Y-117436033D01*
X38202017Y-117436033D02*
X38168684Y-117469366D01*
X38168684Y-117469366D02*
X38102017Y-117502700D01*
X38102017Y-117502700D02*
X37835350Y-117502700D01*
X38535350Y-117836033D02*
X38535350Y-117136033D01*
X39002017Y-117136033D02*
X39135350Y-117136033D01*
X39135350Y-117136033D02*
X39202017Y-117169366D01*
X39202017Y-117169366D02*
X39268683Y-117236033D01*
X39268683Y-117236033D02*
X39302017Y-117369366D01*
X39302017Y-117369366D02*
X39302017Y-117602700D01*
X39302017Y-117602700D02*
X39268683Y-117736033D01*
X39268683Y-117736033D02*
X39202017Y-117802700D01*
X39202017Y-117802700D02*
X39135350Y-117836033D01*
X39135350Y-117836033D02*
X39002017Y-117836033D01*
X39002017Y-117836033D02*
X38935350Y-117802700D01*
X38935350Y-117802700D02*
X38868683Y-117736033D01*
X38868683Y-117736033D02*
X38835350Y-117602700D01*
X38835350Y-117602700D02*
X38835350Y-117369366D01*
X38835350Y-117369366D02*
X38868683Y-117236033D01*
X38868683Y-117236033D02*
X38935350Y-117169366D01*
X38935350Y-117169366D02*
X39002017Y-117136033D01*
X39968683Y-117836033D02*
X39568683Y-117836033D01*
X39768683Y-117836033D02*
X39768683Y-117136033D01*
X39768683Y-117136033D02*
X39702016Y-117236033D01*
X39702016Y-117236033D02*
X39635350Y-117302700D01*
X39635350Y-117302700D02*
X39568683Y-117336033D01*
X40568683Y-117369366D02*
X40568683Y-117836033D01*
X40402017Y-117102700D02*
X40235350Y-117602700D01*
X40235350Y-117602700D02*
X40668683Y-117602700D01*
X41435350Y-117102700D02*
X40835350Y-118002700D01*
X41668683Y-117836033D02*
X41668683Y-117136033D01*
X41668683Y-117136033D02*
X41902017Y-117636033D01*
X41902017Y-117636033D02*
X42135350Y-117136033D01*
X42135350Y-117136033D02*
X42135350Y-117836033D01*
X42368683Y-117136033D02*
X42768683Y-117136033D01*
X42568683Y-117836033D02*
X42568683Y-117136033D01*
X43002016Y-117836033D02*
X43002016Y-117136033D01*
X43002016Y-117136033D02*
X43235350Y-117636033D01*
X43235350Y-117636033D02*
X43468683Y-117136033D01*
X43468683Y-117136033D02*
X43468683Y-117836033D01*
X43768683Y-117802700D02*
X43868683Y-117836033D01*
X43868683Y-117836033D02*
X44035350Y-117836033D01*
X44035350Y-117836033D02*
X44102016Y-117802700D01*
X44102016Y-117802700D02*
X44135350Y-117769366D01*
X44135350Y-117769366D02*
X44168683Y-117702700D01*
X44168683Y-117702700D02*
X44168683Y-117636033D01*
X44168683Y-117636033D02*
X44135350Y-117569366D01*
X44135350Y-117569366D02*
X44102016Y-117536033D01*
X44102016Y-117536033D02*
X44035350Y-117502700D01*
X44035350Y-117502700D02*
X43902016Y-117469366D01*
X43902016Y-117469366D02*
X43835350Y-117436033D01*
X43835350Y-117436033D02*
X43802016Y-117402700D01*
X43802016Y-117402700D02*
X43768683Y-117336033D01*
X43768683Y-117336033D02*
X43768683Y-117269366D01*
X43768683Y-117269366D02*
X43802016Y-117202700D01*
X43802016Y-117202700D02*
X43835350Y-117169366D01*
X43835350Y-117169366D02*
X43902016Y-117136033D01*
X43902016Y-117136033D02*
X44068683Y-117136033D01*
X44068683Y-117136033D02*
X44168683Y-117169366D01*
X56364649Y-114629366D02*
X56297982Y-114596033D01*
X56297982Y-114596033D02*
X56197982Y-114596033D01*
X56197982Y-114596033D02*
X56097982Y-114629366D01*
X56097982Y-114629366D02*
X56031316Y-114696033D01*
X56031316Y-114696033D02*
X55997982Y-114762700D01*
X55997982Y-114762700D02*
X55964649Y-114896033D01*
X55964649Y-114896033D02*
X55964649Y-114996033D01*
X55964649Y-114996033D02*
X55997982Y-115129366D01*
X55997982Y-115129366D02*
X56031316Y-115196033D01*
X56031316Y-115196033D02*
X56097982Y-115262700D01*
X56097982Y-115262700D02*
X56197982Y-115296033D01*
X56197982Y-115296033D02*
X56264649Y-115296033D01*
X56264649Y-115296033D02*
X56364649Y-115262700D01*
X56364649Y-115262700D02*
X56397982Y-115229366D01*
X56397982Y-115229366D02*
X56397982Y-114996033D01*
X56397982Y-114996033D02*
X56264649Y-114996033D01*
X56697982Y-115296033D02*
X56697982Y-114596033D01*
X56697982Y-114596033D02*
X56964649Y-114596033D01*
X56964649Y-114596033D02*
X57031316Y-114629366D01*
X57031316Y-114629366D02*
X57064649Y-114662700D01*
X57064649Y-114662700D02*
X57097982Y-114729366D01*
X57097982Y-114729366D02*
X57097982Y-114829366D01*
X57097982Y-114829366D02*
X57064649Y-114896033D01*
X57064649Y-114896033D02*
X57031316Y-114929366D01*
X57031316Y-114929366D02*
X56964649Y-114962700D01*
X56964649Y-114962700D02*
X56697982Y-114962700D01*
X57397982Y-115296033D02*
X57397982Y-114596033D01*
X57864649Y-114596033D02*
X57997982Y-114596033D01*
X57997982Y-114596033D02*
X58064649Y-114629366D01*
X58064649Y-114629366D02*
X58131315Y-114696033D01*
X58131315Y-114696033D02*
X58164649Y-114829366D01*
X58164649Y-114829366D02*
X58164649Y-115062700D01*
X58164649Y-115062700D02*
X58131315Y-115196033D01*
X58131315Y-115196033D02*
X58064649Y-115262700D01*
X58064649Y-115262700D02*
X57997982Y-115296033D01*
X57997982Y-115296033D02*
X57864649Y-115296033D01*
X57864649Y-115296033D02*
X57797982Y-115262700D01*
X57797982Y-115262700D02*
X57731315Y-115196033D01*
X57731315Y-115196033D02*
X57697982Y-115062700D01*
X57697982Y-115062700D02*
X57697982Y-114829366D01*
X57697982Y-114829366D02*
X57731315Y-114696033D01*
X57731315Y-114696033D02*
X57797982Y-114629366D01*
X57797982Y-114629366D02*
X57864649Y-114596033D01*
X58831315Y-115296033D02*
X58431315Y-115296033D01*
X58631315Y-115296033D02*
X58631315Y-114596033D01*
X58631315Y-114596033D02*
X58564648Y-114696033D01*
X58564648Y-114696033D02*
X58497982Y-114762700D01*
X58497982Y-114762700D02*
X58431315Y-114796033D01*
X59064649Y-114596033D02*
X59531315Y-114596033D01*
X59531315Y-114596033D02*
X59231315Y-115296033D01*
X37730588Y-122102438D02*
X37635350Y-122054819D01*
X37635350Y-122054819D02*
X37492493Y-122054819D01*
X37492493Y-122054819D02*
X37349636Y-122102438D01*
X37349636Y-122102438D02*
X37254398Y-122197676D01*
X37254398Y-122197676D02*
X37206779Y-122292914D01*
X37206779Y-122292914D02*
X37159160Y-122483390D01*
X37159160Y-122483390D02*
X37159160Y-122626247D01*
X37159160Y-122626247D02*
X37206779Y-122816723D01*
X37206779Y-122816723D02*
X37254398Y-122911961D01*
X37254398Y-122911961D02*
X37349636Y-123007200D01*
X37349636Y-123007200D02*
X37492493Y-123054819D01*
X37492493Y-123054819D02*
X37587731Y-123054819D01*
X37587731Y-123054819D02*
X37730588Y-123007200D01*
X37730588Y-123007200D02*
X37778207Y-122959580D01*
X37778207Y-122959580D02*
X37778207Y-122626247D01*
X37778207Y-122626247D02*
X37587731Y-122626247D01*
X38206779Y-123054819D02*
X38206779Y-122054819D01*
X38206779Y-122054819D02*
X38778207Y-123054819D01*
X38778207Y-123054819D02*
X38778207Y-122054819D01*
X39254398Y-123054819D02*
X39254398Y-122054819D01*
X39254398Y-122054819D02*
X39492493Y-122054819D01*
X39492493Y-122054819D02*
X39635350Y-122102438D01*
X39635350Y-122102438D02*
X39730588Y-122197676D01*
X39730588Y-122197676D02*
X39778207Y-122292914D01*
X39778207Y-122292914D02*
X39825826Y-122483390D01*
X39825826Y-122483390D02*
X39825826Y-122626247D01*
X39825826Y-122626247D02*
X39778207Y-122816723D01*
X39778207Y-122816723D02*
X39730588Y-122911961D01*
X39730588Y-122911961D02*
X39635350Y-123007200D01*
X39635350Y-123007200D02*
X39492493Y-123054819D01*
X39492493Y-123054819D02*
X39254398Y-123054819D01*
X37111541Y-89034819D02*
X37730588Y-89034819D01*
X37730588Y-89034819D02*
X37397255Y-89415771D01*
X37397255Y-89415771D02*
X37540112Y-89415771D01*
X37540112Y-89415771D02*
X37635350Y-89463390D01*
X37635350Y-89463390D02*
X37682969Y-89511009D01*
X37682969Y-89511009D02*
X37730588Y-89606247D01*
X37730588Y-89606247D02*
X37730588Y-89844342D01*
X37730588Y-89844342D02*
X37682969Y-89939580D01*
X37682969Y-89939580D02*
X37635350Y-89987200D01*
X37635350Y-89987200D02*
X37540112Y-90034819D01*
X37540112Y-90034819D02*
X37254398Y-90034819D01*
X37254398Y-90034819D02*
X37159160Y-89987200D01*
X37159160Y-89987200D02*
X37111541Y-89939580D01*
X38016303Y-89034819D02*
X38349636Y-90034819D01*
X38349636Y-90034819D02*
X38682969Y-89034819D01*
X38921065Y-89034819D02*
X39540112Y-89034819D01*
X39540112Y-89034819D02*
X39206779Y-89415771D01*
X39206779Y-89415771D02*
X39349636Y-89415771D01*
X39349636Y-89415771D02*
X39444874Y-89463390D01*
X39444874Y-89463390D02*
X39492493Y-89511009D01*
X39492493Y-89511009D02*
X39540112Y-89606247D01*
X39540112Y-89606247D02*
X39540112Y-89844342D01*
X39540112Y-89844342D02*
X39492493Y-89939580D01*
X39492493Y-89939580D02*
X39444874Y-89987200D01*
X39444874Y-89987200D02*
X39349636Y-90034819D01*
X39349636Y-90034819D02*
X39063922Y-90034819D01*
X39063922Y-90034819D02*
X38968684Y-89987200D01*
X38968684Y-89987200D02*
X38921065Y-89939580D01*
X52864650Y-127329366D02*
X52797983Y-127296033D01*
X52797983Y-127296033D02*
X52697983Y-127296033D01*
X52697983Y-127296033D02*
X52597983Y-127329366D01*
X52597983Y-127329366D02*
X52531317Y-127396033D01*
X52531317Y-127396033D02*
X52497983Y-127462700D01*
X52497983Y-127462700D02*
X52464650Y-127596033D01*
X52464650Y-127596033D02*
X52464650Y-127696033D01*
X52464650Y-127696033D02*
X52497983Y-127829366D01*
X52497983Y-127829366D02*
X52531317Y-127896033D01*
X52531317Y-127896033D02*
X52597983Y-127962700D01*
X52597983Y-127962700D02*
X52697983Y-127996033D01*
X52697983Y-127996033D02*
X52764650Y-127996033D01*
X52764650Y-127996033D02*
X52864650Y-127962700D01*
X52864650Y-127962700D02*
X52897983Y-127929366D01*
X52897983Y-127929366D02*
X52897983Y-127696033D01*
X52897983Y-127696033D02*
X52764650Y-127696033D01*
X53197983Y-127996033D02*
X53197983Y-127296033D01*
X53197983Y-127296033D02*
X53464650Y-127296033D01*
X53464650Y-127296033D02*
X53531317Y-127329366D01*
X53531317Y-127329366D02*
X53564650Y-127362700D01*
X53564650Y-127362700D02*
X53597983Y-127429366D01*
X53597983Y-127429366D02*
X53597983Y-127529366D01*
X53597983Y-127529366D02*
X53564650Y-127596033D01*
X53564650Y-127596033D02*
X53531317Y-127629366D01*
X53531317Y-127629366D02*
X53464650Y-127662700D01*
X53464650Y-127662700D02*
X53197983Y-127662700D01*
X53897983Y-127996033D02*
X53897983Y-127296033D01*
X54364650Y-127296033D02*
X54497983Y-127296033D01*
X54497983Y-127296033D02*
X54564650Y-127329366D01*
X54564650Y-127329366D02*
X54631316Y-127396033D01*
X54631316Y-127396033D02*
X54664650Y-127529366D01*
X54664650Y-127529366D02*
X54664650Y-127762700D01*
X54664650Y-127762700D02*
X54631316Y-127896033D01*
X54631316Y-127896033D02*
X54564650Y-127962700D01*
X54564650Y-127962700D02*
X54497983Y-127996033D01*
X54497983Y-127996033D02*
X54364650Y-127996033D01*
X54364650Y-127996033D02*
X54297983Y-127962700D01*
X54297983Y-127962700D02*
X54231316Y-127896033D01*
X54231316Y-127896033D02*
X54197983Y-127762700D01*
X54197983Y-127762700D02*
X54197983Y-127529366D01*
X54197983Y-127529366D02*
X54231316Y-127396033D01*
X54231316Y-127396033D02*
X54297983Y-127329366D01*
X54297983Y-127329366D02*
X54364650Y-127296033D01*
X55331316Y-127996033D02*
X54931316Y-127996033D01*
X55131316Y-127996033D02*
X55131316Y-127296033D01*
X55131316Y-127296033D02*
X55064649Y-127396033D01*
X55064649Y-127396033D02*
X54997983Y-127462700D01*
X54997983Y-127462700D02*
X54931316Y-127496033D01*
X55964650Y-127296033D02*
X55631316Y-127296033D01*
X55631316Y-127296033D02*
X55597983Y-127629366D01*
X55597983Y-127629366D02*
X55631316Y-127596033D01*
X55631316Y-127596033D02*
X55697983Y-127562700D01*
X55697983Y-127562700D02*
X55864650Y-127562700D01*
X55864650Y-127562700D02*
X55931316Y-127596033D01*
X55931316Y-127596033D02*
X55964650Y-127629366D01*
X55964650Y-127629366D02*
X55997983Y-127696033D01*
X55997983Y-127696033D02*
X55997983Y-127862700D01*
X55997983Y-127862700D02*
X55964650Y-127929366D01*
X55964650Y-127929366D02*
X55931316Y-127962700D01*
X55931316Y-127962700D02*
X55864650Y-127996033D01*
X55864650Y-127996033D02*
X55697983Y-127996033D01*
X55697983Y-127996033D02*
X55631316Y-127962700D01*
X55631316Y-127962700D02*
X55597983Y-127929366D01*
X56797983Y-127262700D02*
X56197983Y-128162700D01*
X57031316Y-127996033D02*
X57031316Y-127296033D01*
X57031316Y-127296033D02*
X57264650Y-127796033D01*
X57264650Y-127796033D02*
X57497983Y-127296033D01*
X57497983Y-127296033D02*
X57497983Y-127996033D01*
X57731316Y-127296033D02*
X58131316Y-127296033D01*
X57931316Y-127996033D02*
X57931316Y-127296033D01*
X58364649Y-127996033D02*
X58364649Y-127296033D01*
X58364649Y-127296033D02*
X58531316Y-127296033D01*
X58531316Y-127296033D02*
X58631316Y-127329366D01*
X58631316Y-127329366D02*
X58697983Y-127396033D01*
X58697983Y-127396033D02*
X58731316Y-127462700D01*
X58731316Y-127462700D02*
X58764649Y-127596033D01*
X58764649Y-127596033D02*
X58764649Y-127696033D01*
X58764649Y-127696033D02*
X58731316Y-127829366D01*
X58731316Y-127829366D02*
X58697983Y-127896033D01*
X58697983Y-127896033D02*
X58631316Y-127962700D01*
X58631316Y-127962700D02*
X58531316Y-127996033D01*
X58531316Y-127996033D02*
X58364649Y-127996033D01*
X59197983Y-127296033D02*
X59331316Y-127296033D01*
X59331316Y-127296033D02*
X59397983Y-127329366D01*
X59397983Y-127329366D02*
X59464649Y-127396033D01*
X59464649Y-127396033D02*
X59497983Y-127529366D01*
X59497983Y-127529366D02*
X59497983Y-127762700D01*
X59497983Y-127762700D02*
X59464649Y-127896033D01*
X59464649Y-127896033D02*
X59397983Y-127962700D01*
X59397983Y-127962700D02*
X59331316Y-127996033D01*
X59331316Y-127996033D02*
X59197983Y-127996033D01*
X59197983Y-127996033D02*
X59131316Y-127962700D01*
X59131316Y-127962700D02*
X59064649Y-127896033D01*
X59064649Y-127896033D02*
X59031316Y-127762700D01*
X59031316Y-127762700D02*
X59031316Y-127529366D01*
X59031316Y-127529366D02*
X59064649Y-127396033D01*
X59064649Y-127396033D02*
X59131316Y-127329366D01*
X59131316Y-127329366D02*
X59197983Y-127296033D01*
X56364649Y-109549366D02*
X56297982Y-109516033D01*
X56297982Y-109516033D02*
X56197982Y-109516033D01*
X56197982Y-109516033D02*
X56097982Y-109549366D01*
X56097982Y-109549366D02*
X56031316Y-109616033D01*
X56031316Y-109616033D02*
X55997982Y-109682700D01*
X55997982Y-109682700D02*
X55964649Y-109816033D01*
X55964649Y-109816033D02*
X55964649Y-109916033D01*
X55964649Y-109916033D02*
X55997982Y-110049366D01*
X55997982Y-110049366D02*
X56031316Y-110116033D01*
X56031316Y-110116033D02*
X56097982Y-110182700D01*
X56097982Y-110182700D02*
X56197982Y-110216033D01*
X56197982Y-110216033D02*
X56264649Y-110216033D01*
X56264649Y-110216033D02*
X56364649Y-110182700D01*
X56364649Y-110182700D02*
X56397982Y-110149366D01*
X56397982Y-110149366D02*
X56397982Y-109916033D01*
X56397982Y-109916033D02*
X56264649Y-109916033D01*
X56697982Y-110216033D02*
X56697982Y-109516033D01*
X56697982Y-109516033D02*
X56964649Y-109516033D01*
X56964649Y-109516033D02*
X57031316Y-109549366D01*
X57031316Y-109549366D02*
X57064649Y-109582700D01*
X57064649Y-109582700D02*
X57097982Y-109649366D01*
X57097982Y-109649366D02*
X57097982Y-109749366D01*
X57097982Y-109749366D02*
X57064649Y-109816033D01*
X57064649Y-109816033D02*
X57031316Y-109849366D01*
X57031316Y-109849366D02*
X56964649Y-109882700D01*
X56964649Y-109882700D02*
X56697982Y-109882700D01*
X57397982Y-110216033D02*
X57397982Y-109516033D01*
X57864649Y-109516033D02*
X57997982Y-109516033D01*
X57997982Y-109516033D02*
X58064649Y-109549366D01*
X58064649Y-109549366D02*
X58131315Y-109616033D01*
X58131315Y-109616033D02*
X58164649Y-109749366D01*
X58164649Y-109749366D02*
X58164649Y-109982700D01*
X58164649Y-109982700D02*
X58131315Y-110116033D01*
X58131315Y-110116033D02*
X58064649Y-110182700D01*
X58064649Y-110182700D02*
X57997982Y-110216033D01*
X57997982Y-110216033D02*
X57864649Y-110216033D01*
X57864649Y-110216033D02*
X57797982Y-110182700D01*
X57797982Y-110182700D02*
X57731315Y-110116033D01*
X57731315Y-110116033D02*
X57697982Y-109982700D01*
X57697982Y-109982700D02*
X57697982Y-109749366D01*
X57697982Y-109749366D02*
X57731315Y-109616033D01*
X57731315Y-109616033D02*
X57797982Y-109549366D01*
X57797982Y-109549366D02*
X57864649Y-109516033D01*
X58831315Y-110216033D02*
X58431315Y-110216033D01*
X58631315Y-110216033D02*
X58631315Y-109516033D01*
X58631315Y-109516033D02*
X58564648Y-109616033D01*
X58564648Y-109616033D02*
X58497982Y-109682700D01*
X58497982Y-109682700D02*
X58431315Y-109716033D01*
X59231315Y-109816033D02*
X59164649Y-109782700D01*
X59164649Y-109782700D02*
X59131315Y-109749366D01*
X59131315Y-109749366D02*
X59097982Y-109682700D01*
X59097982Y-109682700D02*
X59097982Y-109649366D01*
X59097982Y-109649366D02*
X59131315Y-109582700D01*
X59131315Y-109582700D02*
X59164649Y-109549366D01*
X59164649Y-109549366D02*
X59231315Y-109516033D01*
X59231315Y-109516033D02*
X59364649Y-109516033D01*
X59364649Y-109516033D02*
X59431315Y-109549366D01*
X59431315Y-109549366D02*
X59464649Y-109582700D01*
X59464649Y-109582700D02*
X59497982Y-109649366D01*
X59497982Y-109649366D02*
X59497982Y-109682700D01*
X59497982Y-109682700D02*
X59464649Y-109749366D01*
X59464649Y-109749366D02*
X59431315Y-109782700D01*
X59431315Y-109782700D02*
X59364649Y-109816033D01*
X59364649Y-109816033D02*
X59231315Y-109816033D01*
X59231315Y-109816033D02*
X59164649Y-109849366D01*
X59164649Y-109849366D02*
X59131315Y-109882700D01*
X59131315Y-109882700D02*
X59097982Y-109949366D01*
X59097982Y-109949366D02*
X59097982Y-110082700D01*
X59097982Y-110082700D02*
X59131315Y-110149366D01*
X59131315Y-110149366D02*
X59164649Y-110182700D01*
X59164649Y-110182700D02*
X59231315Y-110216033D01*
X59231315Y-110216033D02*
X59364649Y-110216033D01*
X59364649Y-110216033D02*
X59431315Y-110182700D01*
X59431315Y-110182700D02*
X59464649Y-110149366D01*
X59464649Y-110149366D02*
X59497982Y-110082700D01*
X59497982Y-110082700D02*
X59497982Y-109949366D01*
X59497982Y-109949366D02*
X59464649Y-109882700D01*
X59464649Y-109882700D02*
X59431315Y-109849366D01*
X59431315Y-109849366D02*
X59364649Y-109816033D01*
X37502017Y-109549366D02*
X37435350Y-109516033D01*
X37435350Y-109516033D02*
X37335350Y-109516033D01*
X37335350Y-109516033D02*
X37235350Y-109549366D01*
X37235350Y-109549366D02*
X37168684Y-109616033D01*
X37168684Y-109616033D02*
X37135350Y-109682700D01*
X37135350Y-109682700D02*
X37102017Y-109816033D01*
X37102017Y-109816033D02*
X37102017Y-109916033D01*
X37102017Y-109916033D02*
X37135350Y-110049366D01*
X37135350Y-110049366D02*
X37168684Y-110116033D01*
X37168684Y-110116033D02*
X37235350Y-110182700D01*
X37235350Y-110182700D02*
X37335350Y-110216033D01*
X37335350Y-110216033D02*
X37402017Y-110216033D01*
X37402017Y-110216033D02*
X37502017Y-110182700D01*
X37502017Y-110182700D02*
X37535350Y-110149366D01*
X37535350Y-110149366D02*
X37535350Y-109916033D01*
X37535350Y-109916033D02*
X37402017Y-109916033D01*
X37835350Y-110216033D02*
X37835350Y-109516033D01*
X37835350Y-109516033D02*
X38102017Y-109516033D01*
X38102017Y-109516033D02*
X38168684Y-109549366D01*
X38168684Y-109549366D02*
X38202017Y-109582700D01*
X38202017Y-109582700D02*
X38235350Y-109649366D01*
X38235350Y-109649366D02*
X38235350Y-109749366D01*
X38235350Y-109749366D02*
X38202017Y-109816033D01*
X38202017Y-109816033D02*
X38168684Y-109849366D01*
X38168684Y-109849366D02*
X38102017Y-109882700D01*
X38102017Y-109882700D02*
X37835350Y-109882700D01*
X38535350Y-110216033D02*
X38535350Y-109516033D01*
X39002017Y-109516033D02*
X39135350Y-109516033D01*
X39135350Y-109516033D02*
X39202017Y-109549366D01*
X39202017Y-109549366D02*
X39268683Y-109616033D01*
X39268683Y-109616033D02*
X39302017Y-109749366D01*
X39302017Y-109749366D02*
X39302017Y-109982700D01*
X39302017Y-109982700D02*
X39268683Y-110116033D01*
X39268683Y-110116033D02*
X39202017Y-110182700D01*
X39202017Y-110182700D02*
X39135350Y-110216033D01*
X39135350Y-110216033D02*
X39002017Y-110216033D01*
X39002017Y-110216033D02*
X38935350Y-110182700D01*
X38935350Y-110182700D02*
X38868683Y-110116033D01*
X38868683Y-110116033D02*
X38835350Y-109982700D01*
X38835350Y-109982700D02*
X38835350Y-109749366D01*
X38835350Y-109749366D02*
X38868683Y-109616033D01*
X38868683Y-109616033D02*
X38935350Y-109549366D01*
X38935350Y-109549366D02*
X39002017Y-109516033D01*
X39568683Y-109582700D02*
X39602016Y-109549366D01*
X39602016Y-109549366D02*
X39668683Y-109516033D01*
X39668683Y-109516033D02*
X39835350Y-109516033D01*
X39835350Y-109516033D02*
X39902016Y-109549366D01*
X39902016Y-109549366D02*
X39935350Y-109582700D01*
X39935350Y-109582700D02*
X39968683Y-109649366D01*
X39968683Y-109649366D02*
X39968683Y-109716033D01*
X39968683Y-109716033D02*
X39935350Y-109816033D01*
X39935350Y-109816033D02*
X39535350Y-110216033D01*
X39535350Y-110216033D02*
X39968683Y-110216033D01*
X40602017Y-109516033D02*
X40268683Y-109516033D01*
X40268683Y-109516033D02*
X40235350Y-109849366D01*
X40235350Y-109849366D02*
X40268683Y-109816033D01*
X40268683Y-109816033D02*
X40335350Y-109782700D01*
X40335350Y-109782700D02*
X40502017Y-109782700D01*
X40502017Y-109782700D02*
X40568683Y-109816033D01*
X40568683Y-109816033D02*
X40602017Y-109849366D01*
X40602017Y-109849366D02*
X40635350Y-109916033D01*
X40635350Y-109916033D02*
X40635350Y-110082700D01*
X40635350Y-110082700D02*
X40602017Y-110149366D01*
X40602017Y-110149366D02*
X40568683Y-110182700D01*
X40568683Y-110182700D02*
X40502017Y-110216033D01*
X40502017Y-110216033D02*
X40335350Y-110216033D01*
X40335350Y-110216033D02*
X40268683Y-110182700D01*
X40268683Y-110182700D02*
X40235350Y-110149366D01*
X56364649Y-94309366D02*
X56297982Y-94276033D01*
X56297982Y-94276033D02*
X56197982Y-94276033D01*
X56197982Y-94276033D02*
X56097982Y-94309366D01*
X56097982Y-94309366D02*
X56031316Y-94376033D01*
X56031316Y-94376033D02*
X55997982Y-94442700D01*
X55997982Y-94442700D02*
X55964649Y-94576033D01*
X55964649Y-94576033D02*
X55964649Y-94676033D01*
X55964649Y-94676033D02*
X55997982Y-94809366D01*
X55997982Y-94809366D02*
X56031316Y-94876033D01*
X56031316Y-94876033D02*
X56097982Y-94942700D01*
X56097982Y-94942700D02*
X56197982Y-94976033D01*
X56197982Y-94976033D02*
X56264649Y-94976033D01*
X56264649Y-94976033D02*
X56364649Y-94942700D01*
X56364649Y-94942700D02*
X56397982Y-94909366D01*
X56397982Y-94909366D02*
X56397982Y-94676033D01*
X56397982Y-94676033D02*
X56264649Y-94676033D01*
X56697982Y-94976033D02*
X56697982Y-94276033D01*
X56697982Y-94276033D02*
X56964649Y-94276033D01*
X56964649Y-94276033D02*
X57031316Y-94309366D01*
X57031316Y-94309366D02*
X57064649Y-94342700D01*
X57064649Y-94342700D02*
X57097982Y-94409366D01*
X57097982Y-94409366D02*
X57097982Y-94509366D01*
X57097982Y-94509366D02*
X57064649Y-94576033D01*
X57064649Y-94576033D02*
X57031316Y-94609366D01*
X57031316Y-94609366D02*
X56964649Y-94642700D01*
X56964649Y-94642700D02*
X56697982Y-94642700D01*
X57397982Y-94976033D02*
X57397982Y-94276033D01*
X57864649Y-94276033D02*
X57997982Y-94276033D01*
X57997982Y-94276033D02*
X58064649Y-94309366D01*
X58064649Y-94309366D02*
X58131315Y-94376033D01*
X58131315Y-94376033D02*
X58164649Y-94509366D01*
X58164649Y-94509366D02*
X58164649Y-94742700D01*
X58164649Y-94742700D02*
X58131315Y-94876033D01*
X58131315Y-94876033D02*
X58064649Y-94942700D01*
X58064649Y-94942700D02*
X57997982Y-94976033D01*
X57997982Y-94976033D02*
X57864649Y-94976033D01*
X57864649Y-94976033D02*
X57797982Y-94942700D01*
X57797982Y-94942700D02*
X57731315Y-94876033D01*
X57731315Y-94876033D02*
X57697982Y-94742700D01*
X57697982Y-94742700D02*
X57697982Y-94509366D01*
X57697982Y-94509366D02*
X57731315Y-94376033D01*
X57731315Y-94376033D02*
X57797982Y-94309366D01*
X57797982Y-94309366D02*
X57864649Y-94276033D01*
X58431315Y-94342700D02*
X58464648Y-94309366D01*
X58464648Y-94309366D02*
X58531315Y-94276033D01*
X58531315Y-94276033D02*
X58697982Y-94276033D01*
X58697982Y-94276033D02*
X58764648Y-94309366D01*
X58764648Y-94309366D02*
X58797982Y-94342700D01*
X58797982Y-94342700D02*
X58831315Y-94409366D01*
X58831315Y-94409366D02*
X58831315Y-94476033D01*
X58831315Y-94476033D02*
X58797982Y-94576033D01*
X58797982Y-94576033D02*
X58397982Y-94976033D01*
X58397982Y-94976033D02*
X58831315Y-94976033D01*
X59097982Y-94342700D02*
X59131315Y-94309366D01*
X59131315Y-94309366D02*
X59197982Y-94276033D01*
X59197982Y-94276033D02*
X59364649Y-94276033D01*
X59364649Y-94276033D02*
X59431315Y-94309366D01*
X59431315Y-94309366D02*
X59464649Y-94342700D01*
X59464649Y-94342700D02*
X59497982Y-94409366D01*
X59497982Y-94409366D02*
X59497982Y-94476033D01*
X59497982Y-94476033D02*
X59464649Y-94576033D01*
X59464649Y-94576033D02*
X59064649Y-94976033D01*
X59064649Y-94976033D02*
X59497982Y-94976033D01*
X37502017Y-101929366D02*
X37435350Y-101896033D01*
X37435350Y-101896033D02*
X37335350Y-101896033D01*
X37335350Y-101896033D02*
X37235350Y-101929366D01*
X37235350Y-101929366D02*
X37168684Y-101996033D01*
X37168684Y-101996033D02*
X37135350Y-102062700D01*
X37135350Y-102062700D02*
X37102017Y-102196033D01*
X37102017Y-102196033D02*
X37102017Y-102296033D01*
X37102017Y-102296033D02*
X37135350Y-102429366D01*
X37135350Y-102429366D02*
X37168684Y-102496033D01*
X37168684Y-102496033D02*
X37235350Y-102562700D01*
X37235350Y-102562700D02*
X37335350Y-102596033D01*
X37335350Y-102596033D02*
X37402017Y-102596033D01*
X37402017Y-102596033D02*
X37502017Y-102562700D01*
X37502017Y-102562700D02*
X37535350Y-102529366D01*
X37535350Y-102529366D02*
X37535350Y-102296033D01*
X37535350Y-102296033D02*
X37402017Y-102296033D01*
X37835350Y-102596033D02*
X37835350Y-101896033D01*
X37835350Y-101896033D02*
X38102017Y-101896033D01*
X38102017Y-101896033D02*
X38168684Y-101929366D01*
X38168684Y-101929366D02*
X38202017Y-101962700D01*
X38202017Y-101962700D02*
X38235350Y-102029366D01*
X38235350Y-102029366D02*
X38235350Y-102129366D01*
X38235350Y-102129366D02*
X38202017Y-102196033D01*
X38202017Y-102196033D02*
X38168684Y-102229366D01*
X38168684Y-102229366D02*
X38102017Y-102262700D01*
X38102017Y-102262700D02*
X37835350Y-102262700D01*
X38535350Y-102596033D02*
X38535350Y-101896033D01*
X39002017Y-101896033D02*
X39135350Y-101896033D01*
X39135350Y-101896033D02*
X39202017Y-101929366D01*
X39202017Y-101929366D02*
X39268683Y-101996033D01*
X39268683Y-101996033D02*
X39302017Y-102129366D01*
X39302017Y-102129366D02*
X39302017Y-102362700D01*
X39302017Y-102362700D02*
X39268683Y-102496033D01*
X39268683Y-102496033D02*
X39202017Y-102562700D01*
X39202017Y-102562700D02*
X39135350Y-102596033D01*
X39135350Y-102596033D02*
X39002017Y-102596033D01*
X39002017Y-102596033D02*
X38935350Y-102562700D01*
X38935350Y-102562700D02*
X38868683Y-102496033D01*
X38868683Y-102496033D02*
X38835350Y-102362700D01*
X38835350Y-102362700D02*
X38835350Y-102129366D01*
X38835350Y-102129366D02*
X38868683Y-101996033D01*
X38868683Y-101996033D02*
X38935350Y-101929366D01*
X38935350Y-101929366D02*
X39002017Y-101896033D01*
X39535350Y-101896033D02*
X39968683Y-101896033D01*
X39968683Y-101896033D02*
X39735350Y-102162700D01*
X39735350Y-102162700D02*
X39835350Y-102162700D01*
X39835350Y-102162700D02*
X39902016Y-102196033D01*
X39902016Y-102196033D02*
X39935350Y-102229366D01*
X39935350Y-102229366D02*
X39968683Y-102296033D01*
X39968683Y-102296033D02*
X39968683Y-102462700D01*
X39968683Y-102462700D02*
X39935350Y-102529366D01*
X39935350Y-102529366D02*
X39902016Y-102562700D01*
X39902016Y-102562700D02*
X39835350Y-102596033D01*
X39835350Y-102596033D02*
X39635350Y-102596033D01*
X39635350Y-102596033D02*
X39568683Y-102562700D01*
X39568683Y-102562700D02*
X39535350Y-102529366D01*
X40602017Y-101896033D02*
X40268683Y-101896033D01*
X40268683Y-101896033D02*
X40235350Y-102229366D01*
X40235350Y-102229366D02*
X40268683Y-102196033D01*
X40268683Y-102196033D02*
X40335350Y-102162700D01*
X40335350Y-102162700D02*
X40502017Y-102162700D01*
X40502017Y-102162700D02*
X40568683Y-102196033D01*
X40568683Y-102196033D02*
X40602017Y-102229366D01*
X40602017Y-102229366D02*
X40635350Y-102296033D01*
X40635350Y-102296033D02*
X40635350Y-102462700D01*
X40635350Y-102462700D02*
X40602017Y-102529366D01*
X40602017Y-102529366D02*
X40568683Y-102562700D01*
X40568683Y-102562700D02*
X40502017Y-102596033D01*
X40502017Y-102596033D02*
X40335350Y-102596033D01*
X40335350Y-102596033D02*
X40268683Y-102562700D01*
X40268683Y-102562700D02*
X40235350Y-102529366D01*
X37101921Y-92048289D02*
X37435254Y-92048289D01*
X37578111Y-92572099D02*
X37101921Y-92572099D01*
X37101921Y-92572099D02*
X37101921Y-91572099D01*
X37101921Y-91572099D02*
X37578111Y-91572099D01*
X38006683Y-92572099D02*
X38006683Y-91572099D01*
X38006683Y-91572099D02*
X38578111Y-92572099D01*
X38578111Y-92572099D02*
X38578111Y-91572099D01*
X39768587Y-91524480D02*
X38911445Y-92810194D01*
X40673349Y-92572099D02*
X40340016Y-92095908D01*
X40101921Y-92572099D02*
X40101921Y-91572099D01*
X40101921Y-91572099D02*
X40482873Y-91572099D01*
X40482873Y-91572099D02*
X40578111Y-91619718D01*
X40578111Y-91619718D02*
X40625730Y-91667337D01*
X40625730Y-91667337D02*
X40673349Y-91762575D01*
X40673349Y-91762575D02*
X40673349Y-91905432D01*
X40673349Y-91905432D02*
X40625730Y-92000670D01*
X40625730Y-92000670D02*
X40578111Y-92048289D01*
X40578111Y-92048289D02*
X40482873Y-92095908D01*
X40482873Y-92095908D02*
X40101921Y-92095908D01*
X41101921Y-92048289D02*
X41435254Y-92048289D01*
X41578111Y-92572099D02*
X41101921Y-92572099D01*
X41101921Y-92572099D02*
X41101921Y-91572099D01*
X41101921Y-91572099D02*
X41578111Y-91572099D01*
X41959064Y-92524480D02*
X42101921Y-92572099D01*
X42101921Y-92572099D02*
X42340016Y-92572099D01*
X42340016Y-92572099D02*
X42435254Y-92524480D01*
X42435254Y-92524480D02*
X42482873Y-92476860D01*
X42482873Y-92476860D02*
X42530492Y-92381622D01*
X42530492Y-92381622D02*
X42530492Y-92286384D01*
X42530492Y-92286384D02*
X42482873Y-92191146D01*
X42482873Y-92191146D02*
X42435254Y-92143527D01*
X42435254Y-92143527D02*
X42340016Y-92095908D01*
X42340016Y-92095908D02*
X42149540Y-92048289D01*
X42149540Y-92048289D02*
X42054302Y-92000670D01*
X42054302Y-92000670D02*
X42006683Y-91953051D01*
X42006683Y-91953051D02*
X41959064Y-91857813D01*
X41959064Y-91857813D02*
X41959064Y-91762575D01*
X41959064Y-91762575D02*
X42006683Y-91667337D01*
X42006683Y-91667337D02*
X42054302Y-91619718D01*
X42054302Y-91619718D02*
X42149540Y-91572099D01*
X42149540Y-91572099D02*
X42387635Y-91572099D01*
X42387635Y-91572099D02*
X42530492Y-91619718D01*
X42959064Y-92048289D02*
X43292397Y-92048289D01*
X43435254Y-92572099D02*
X42959064Y-92572099D01*
X42959064Y-92572099D02*
X42959064Y-91572099D01*
X42959064Y-91572099D02*
X43435254Y-91572099D01*
X43720969Y-91572099D02*
X44292397Y-91572099D01*
X44006683Y-92572099D02*
X44006683Y-91572099D01*
X37535350Y-133009366D02*
X37502017Y-133042700D01*
X37502017Y-133042700D02*
X37402017Y-133076033D01*
X37402017Y-133076033D02*
X37335350Y-133076033D01*
X37335350Y-133076033D02*
X37235350Y-133042700D01*
X37235350Y-133042700D02*
X37168684Y-132976033D01*
X37168684Y-132976033D02*
X37135350Y-132909366D01*
X37135350Y-132909366D02*
X37102017Y-132776033D01*
X37102017Y-132776033D02*
X37102017Y-132676033D01*
X37102017Y-132676033D02*
X37135350Y-132542700D01*
X37135350Y-132542700D02*
X37168684Y-132476033D01*
X37168684Y-132476033D02*
X37235350Y-132409366D01*
X37235350Y-132409366D02*
X37335350Y-132376033D01*
X37335350Y-132376033D02*
X37402017Y-132376033D01*
X37402017Y-132376033D02*
X37502017Y-132409366D01*
X37502017Y-132409366D02*
X37535350Y-132442700D01*
X37835350Y-133076033D02*
X37835350Y-132376033D01*
X37835350Y-132376033D02*
X38068684Y-132876033D01*
X38068684Y-132876033D02*
X38302017Y-132376033D01*
X38302017Y-132376033D02*
X38302017Y-133076033D01*
X38635350Y-133076033D02*
X38635350Y-132376033D01*
X38635350Y-132376033D02*
X38802017Y-132376033D01*
X38802017Y-132376033D02*
X38902017Y-132409366D01*
X38902017Y-132409366D02*
X38968684Y-132476033D01*
X38968684Y-132476033D02*
X39002017Y-132542700D01*
X39002017Y-132542700D02*
X39035350Y-132676033D01*
X39035350Y-132676033D02*
X39035350Y-132776033D01*
X39035350Y-132776033D02*
X39002017Y-132909366D01*
X39002017Y-132909366D02*
X38968684Y-132976033D01*
X38968684Y-132976033D02*
X38902017Y-133042700D01*
X38902017Y-133042700D02*
X38802017Y-133076033D01*
X38802017Y-133076033D02*
X38635350Y-133076033D01*
X56364649Y-101929366D02*
X56297982Y-101896033D01*
X56297982Y-101896033D02*
X56197982Y-101896033D01*
X56197982Y-101896033D02*
X56097982Y-101929366D01*
X56097982Y-101929366D02*
X56031316Y-101996033D01*
X56031316Y-101996033D02*
X55997982Y-102062700D01*
X55997982Y-102062700D02*
X55964649Y-102196033D01*
X55964649Y-102196033D02*
X55964649Y-102296033D01*
X55964649Y-102296033D02*
X55997982Y-102429366D01*
X55997982Y-102429366D02*
X56031316Y-102496033D01*
X56031316Y-102496033D02*
X56097982Y-102562700D01*
X56097982Y-102562700D02*
X56197982Y-102596033D01*
X56197982Y-102596033D02*
X56264649Y-102596033D01*
X56264649Y-102596033D02*
X56364649Y-102562700D01*
X56364649Y-102562700D02*
X56397982Y-102529366D01*
X56397982Y-102529366D02*
X56397982Y-102296033D01*
X56397982Y-102296033D02*
X56264649Y-102296033D01*
X56697982Y-102596033D02*
X56697982Y-101896033D01*
X56697982Y-101896033D02*
X56964649Y-101896033D01*
X56964649Y-101896033D02*
X57031316Y-101929366D01*
X57031316Y-101929366D02*
X57064649Y-101962700D01*
X57064649Y-101962700D02*
X57097982Y-102029366D01*
X57097982Y-102029366D02*
X57097982Y-102129366D01*
X57097982Y-102129366D02*
X57064649Y-102196033D01*
X57064649Y-102196033D02*
X57031316Y-102229366D01*
X57031316Y-102229366D02*
X56964649Y-102262700D01*
X56964649Y-102262700D02*
X56697982Y-102262700D01*
X57397982Y-102596033D02*
X57397982Y-101896033D01*
X57864649Y-101896033D02*
X57997982Y-101896033D01*
X57997982Y-101896033D02*
X58064649Y-101929366D01*
X58064649Y-101929366D02*
X58131315Y-101996033D01*
X58131315Y-101996033D02*
X58164649Y-102129366D01*
X58164649Y-102129366D02*
X58164649Y-102362700D01*
X58164649Y-102362700D02*
X58131315Y-102496033D01*
X58131315Y-102496033D02*
X58064649Y-102562700D01*
X58064649Y-102562700D02*
X57997982Y-102596033D01*
X57997982Y-102596033D02*
X57864649Y-102596033D01*
X57864649Y-102596033D02*
X57797982Y-102562700D01*
X57797982Y-102562700D02*
X57731315Y-102496033D01*
X57731315Y-102496033D02*
X57697982Y-102362700D01*
X57697982Y-102362700D02*
X57697982Y-102129366D01*
X57697982Y-102129366D02*
X57731315Y-101996033D01*
X57731315Y-101996033D02*
X57797982Y-101929366D01*
X57797982Y-101929366D02*
X57864649Y-101896033D01*
X58431315Y-101962700D02*
X58464648Y-101929366D01*
X58464648Y-101929366D02*
X58531315Y-101896033D01*
X58531315Y-101896033D02*
X58697982Y-101896033D01*
X58697982Y-101896033D02*
X58764648Y-101929366D01*
X58764648Y-101929366D02*
X58797982Y-101962700D01*
X58797982Y-101962700D02*
X58831315Y-102029366D01*
X58831315Y-102029366D02*
X58831315Y-102096033D01*
X58831315Y-102096033D02*
X58797982Y-102196033D01*
X58797982Y-102196033D02*
X58397982Y-102596033D01*
X58397982Y-102596033D02*
X58831315Y-102596033D01*
X59497982Y-102596033D02*
X59097982Y-102596033D01*
X59297982Y-102596033D02*
X59297982Y-101896033D01*
X59297982Y-101896033D02*
X59231315Y-101996033D01*
X59231315Y-101996033D02*
X59164649Y-102062700D01*
X59164649Y-102062700D02*
X59097982Y-102096033D01*
X56364649Y-117169366D02*
X56297982Y-117136033D01*
X56297982Y-117136033D02*
X56197982Y-117136033D01*
X56197982Y-117136033D02*
X56097982Y-117169366D01*
X56097982Y-117169366D02*
X56031316Y-117236033D01*
X56031316Y-117236033D02*
X55997982Y-117302700D01*
X55997982Y-117302700D02*
X55964649Y-117436033D01*
X55964649Y-117436033D02*
X55964649Y-117536033D01*
X55964649Y-117536033D02*
X55997982Y-117669366D01*
X55997982Y-117669366D02*
X56031316Y-117736033D01*
X56031316Y-117736033D02*
X56097982Y-117802700D01*
X56097982Y-117802700D02*
X56197982Y-117836033D01*
X56197982Y-117836033D02*
X56264649Y-117836033D01*
X56264649Y-117836033D02*
X56364649Y-117802700D01*
X56364649Y-117802700D02*
X56397982Y-117769366D01*
X56397982Y-117769366D02*
X56397982Y-117536033D01*
X56397982Y-117536033D02*
X56264649Y-117536033D01*
X56697982Y-117836033D02*
X56697982Y-117136033D01*
X56697982Y-117136033D02*
X56964649Y-117136033D01*
X56964649Y-117136033D02*
X57031316Y-117169366D01*
X57031316Y-117169366D02*
X57064649Y-117202700D01*
X57064649Y-117202700D02*
X57097982Y-117269366D01*
X57097982Y-117269366D02*
X57097982Y-117369366D01*
X57097982Y-117369366D02*
X57064649Y-117436033D01*
X57064649Y-117436033D02*
X57031316Y-117469366D01*
X57031316Y-117469366D02*
X56964649Y-117502700D01*
X56964649Y-117502700D02*
X56697982Y-117502700D01*
X57397982Y-117836033D02*
X57397982Y-117136033D01*
X57864649Y-117136033D02*
X57997982Y-117136033D01*
X57997982Y-117136033D02*
X58064649Y-117169366D01*
X58064649Y-117169366D02*
X58131315Y-117236033D01*
X58131315Y-117236033D02*
X58164649Y-117369366D01*
X58164649Y-117369366D02*
X58164649Y-117602700D01*
X58164649Y-117602700D02*
X58131315Y-117736033D01*
X58131315Y-117736033D02*
X58064649Y-117802700D01*
X58064649Y-117802700D02*
X57997982Y-117836033D01*
X57997982Y-117836033D02*
X57864649Y-117836033D01*
X57864649Y-117836033D02*
X57797982Y-117802700D01*
X57797982Y-117802700D02*
X57731315Y-117736033D01*
X57731315Y-117736033D02*
X57697982Y-117602700D01*
X57697982Y-117602700D02*
X57697982Y-117369366D01*
X57697982Y-117369366D02*
X57731315Y-117236033D01*
X57731315Y-117236033D02*
X57797982Y-117169366D01*
X57797982Y-117169366D02*
X57864649Y-117136033D01*
X58831315Y-117836033D02*
X58431315Y-117836033D01*
X58631315Y-117836033D02*
X58631315Y-117136033D01*
X58631315Y-117136033D02*
X58564648Y-117236033D01*
X58564648Y-117236033D02*
X58497982Y-117302700D01*
X58497982Y-117302700D02*
X58431315Y-117336033D01*
X59431315Y-117136033D02*
X59297982Y-117136033D01*
X59297982Y-117136033D02*
X59231315Y-117169366D01*
X59231315Y-117169366D02*
X59197982Y-117202700D01*
X59197982Y-117202700D02*
X59131315Y-117302700D01*
X59131315Y-117302700D02*
X59097982Y-117436033D01*
X59097982Y-117436033D02*
X59097982Y-117702700D01*
X59097982Y-117702700D02*
X59131315Y-117769366D01*
X59131315Y-117769366D02*
X59164649Y-117802700D01*
X59164649Y-117802700D02*
X59231315Y-117836033D01*
X59231315Y-117836033D02*
X59364649Y-117836033D01*
X59364649Y-117836033D02*
X59431315Y-117802700D01*
X59431315Y-117802700D02*
X59464649Y-117769366D01*
X59464649Y-117769366D02*
X59497982Y-117702700D01*
X59497982Y-117702700D02*
X59497982Y-117536033D01*
X59497982Y-117536033D02*
X59464649Y-117469366D01*
X59464649Y-117469366D02*
X59431315Y-117436033D01*
X59431315Y-117436033D02*
X59364649Y-117402700D01*
X59364649Y-117402700D02*
X59231315Y-117402700D01*
X59231315Y-117402700D02*
X59164649Y-117436033D01*
X59164649Y-117436033D02*
X59131315Y-117469366D01*
X59131315Y-117469366D02*
X59097982Y-117536033D01*
X37502017Y-124789366D02*
X37435350Y-124756033D01*
X37435350Y-124756033D02*
X37335350Y-124756033D01*
X37335350Y-124756033D02*
X37235350Y-124789366D01*
X37235350Y-124789366D02*
X37168684Y-124856033D01*
X37168684Y-124856033D02*
X37135350Y-124922700D01*
X37135350Y-124922700D02*
X37102017Y-125056033D01*
X37102017Y-125056033D02*
X37102017Y-125156033D01*
X37102017Y-125156033D02*
X37135350Y-125289366D01*
X37135350Y-125289366D02*
X37168684Y-125356033D01*
X37168684Y-125356033D02*
X37235350Y-125422700D01*
X37235350Y-125422700D02*
X37335350Y-125456033D01*
X37335350Y-125456033D02*
X37402017Y-125456033D01*
X37402017Y-125456033D02*
X37502017Y-125422700D01*
X37502017Y-125422700D02*
X37535350Y-125389366D01*
X37535350Y-125389366D02*
X37535350Y-125156033D01*
X37535350Y-125156033D02*
X37402017Y-125156033D01*
X37835350Y-125456033D02*
X37835350Y-124756033D01*
X37835350Y-124756033D02*
X38102017Y-124756033D01*
X38102017Y-124756033D02*
X38168684Y-124789366D01*
X38168684Y-124789366D02*
X38202017Y-124822700D01*
X38202017Y-124822700D02*
X38235350Y-124889366D01*
X38235350Y-124889366D02*
X38235350Y-124989366D01*
X38235350Y-124989366D02*
X38202017Y-125056033D01*
X38202017Y-125056033D02*
X38168684Y-125089366D01*
X38168684Y-125089366D02*
X38102017Y-125122700D01*
X38102017Y-125122700D02*
X37835350Y-125122700D01*
X38535350Y-125456033D02*
X38535350Y-124756033D01*
X39002017Y-124756033D02*
X39135350Y-124756033D01*
X39135350Y-124756033D02*
X39202017Y-124789366D01*
X39202017Y-124789366D02*
X39268683Y-124856033D01*
X39268683Y-124856033D02*
X39302017Y-124989366D01*
X39302017Y-124989366D02*
X39302017Y-125222700D01*
X39302017Y-125222700D02*
X39268683Y-125356033D01*
X39268683Y-125356033D02*
X39202017Y-125422700D01*
X39202017Y-125422700D02*
X39135350Y-125456033D01*
X39135350Y-125456033D02*
X39002017Y-125456033D01*
X39002017Y-125456033D02*
X38935350Y-125422700D01*
X38935350Y-125422700D02*
X38868683Y-125356033D01*
X38868683Y-125356033D02*
X38835350Y-125222700D01*
X38835350Y-125222700D02*
X38835350Y-124989366D01*
X38835350Y-124989366D02*
X38868683Y-124856033D01*
X38868683Y-124856033D02*
X38935350Y-124789366D01*
X38935350Y-124789366D02*
X39002017Y-124756033D01*
X39968683Y-125456033D02*
X39568683Y-125456033D01*
X39768683Y-125456033D02*
X39768683Y-124756033D01*
X39768683Y-124756033D02*
X39702016Y-124856033D01*
X39702016Y-124856033D02*
X39635350Y-124922700D01*
X39635350Y-124922700D02*
X39568683Y-124956033D01*
X40202017Y-124756033D02*
X40635350Y-124756033D01*
X40635350Y-124756033D02*
X40402017Y-125022700D01*
X40402017Y-125022700D02*
X40502017Y-125022700D01*
X40502017Y-125022700D02*
X40568683Y-125056033D01*
X40568683Y-125056033D02*
X40602017Y-125089366D01*
X40602017Y-125089366D02*
X40635350Y-125156033D01*
X40635350Y-125156033D02*
X40635350Y-125322700D01*
X40635350Y-125322700D02*
X40602017Y-125389366D01*
X40602017Y-125389366D02*
X40568683Y-125422700D01*
X40568683Y-125422700D02*
X40502017Y-125456033D01*
X40502017Y-125456033D02*
X40302017Y-125456033D01*
X40302017Y-125456033D02*
X40235350Y-125422700D01*
X40235350Y-125422700D02*
X40202017Y-125389366D01*
X41435350Y-124722700D02*
X40835350Y-125622700D01*
X41668683Y-125456033D02*
X41668683Y-124756033D01*
X41668683Y-124756033D02*
X41902017Y-125256033D01*
X41902017Y-125256033D02*
X42135350Y-124756033D01*
X42135350Y-124756033D02*
X42135350Y-125456033D01*
X42368683Y-124756033D02*
X42768683Y-124756033D01*
X42568683Y-125456033D02*
X42568683Y-124756033D01*
X43402016Y-125389366D02*
X43368683Y-125422700D01*
X43368683Y-125422700D02*
X43268683Y-125456033D01*
X43268683Y-125456033D02*
X43202016Y-125456033D01*
X43202016Y-125456033D02*
X43102016Y-125422700D01*
X43102016Y-125422700D02*
X43035350Y-125356033D01*
X43035350Y-125356033D02*
X43002016Y-125289366D01*
X43002016Y-125289366D02*
X42968683Y-125156033D01*
X42968683Y-125156033D02*
X42968683Y-125056033D01*
X42968683Y-125056033D02*
X43002016Y-124922700D01*
X43002016Y-124922700D02*
X43035350Y-124856033D01*
X43035350Y-124856033D02*
X43102016Y-124789366D01*
X43102016Y-124789366D02*
X43202016Y-124756033D01*
X43202016Y-124756033D02*
X43268683Y-124756033D01*
X43268683Y-124756033D02*
X43368683Y-124789366D01*
X43368683Y-124789366D02*
X43402016Y-124822700D01*
X43702016Y-125456033D02*
X43702016Y-124756033D01*
X44102016Y-125456033D02*
X43802016Y-125056033D01*
X44102016Y-124756033D02*
X43702016Y-125156033D01*
X37502017Y-99389366D02*
X37435350Y-99356033D01*
X37435350Y-99356033D02*
X37335350Y-99356033D01*
X37335350Y-99356033D02*
X37235350Y-99389366D01*
X37235350Y-99389366D02*
X37168684Y-99456033D01*
X37168684Y-99456033D02*
X37135350Y-99522700D01*
X37135350Y-99522700D02*
X37102017Y-99656033D01*
X37102017Y-99656033D02*
X37102017Y-99756033D01*
X37102017Y-99756033D02*
X37135350Y-99889366D01*
X37135350Y-99889366D02*
X37168684Y-99956033D01*
X37168684Y-99956033D02*
X37235350Y-100022700D01*
X37235350Y-100022700D02*
X37335350Y-100056033D01*
X37335350Y-100056033D02*
X37402017Y-100056033D01*
X37402017Y-100056033D02*
X37502017Y-100022700D01*
X37502017Y-100022700D02*
X37535350Y-99989366D01*
X37535350Y-99989366D02*
X37535350Y-99756033D01*
X37535350Y-99756033D02*
X37402017Y-99756033D01*
X37835350Y-100056033D02*
X37835350Y-99356033D01*
X37835350Y-99356033D02*
X38102017Y-99356033D01*
X38102017Y-99356033D02*
X38168684Y-99389366D01*
X38168684Y-99389366D02*
X38202017Y-99422700D01*
X38202017Y-99422700D02*
X38235350Y-99489366D01*
X38235350Y-99489366D02*
X38235350Y-99589366D01*
X38235350Y-99589366D02*
X38202017Y-99656033D01*
X38202017Y-99656033D02*
X38168684Y-99689366D01*
X38168684Y-99689366D02*
X38102017Y-99722700D01*
X38102017Y-99722700D02*
X37835350Y-99722700D01*
X38535350Y-100056033D02*
X38535350Y-99356033D01*
X39002017Y-99356033D02*
X39135350Y-99356033D01*
X39135350Y-99356033D02*
X39202017Y-99389366D01*
X39202017Y-99389366D02*
X39268683Y-99456033D01*
X39268683Y-99456033D02*
X39302017Y-99589366D01*
X39302017Y-99589366D02*
X39302017Y-99822700D01*
X39302017Y-99822700D02*
X39268683Y-99956033D01*
X39268683Y-99956033D02*
X39202017Y-100022700D01*
X39202017Y-100022700D02*
X39135350Y-100056033D01*
X39135350Y-100056033D02*
X39002017Y-100056033D01*
X39002017Y-100056033D02*
X38935350Y-100022700D01*
X38935350Y-100022700D02*
X38868683Y-99956033D01*
X38868683Y-99956033D02*
X38835350Y-99822700D01*
X38835350Y-99822700D02*
X38835350Y-99589366D01*
X38835350Y-99589366D02*
X38868683Y-99456033D01*
X38868683Y-99456033D02*
X38935350Y-99389366D01*
X38935350Y-99389366D02*
X39002017Y-99356033D01*
X39535350Y-99356033D02*
X39968683Y-99356033D01*
X39968683Y-99356033D02*
X39735350Y-99622700D01*
X39735350Y-99622700D02*
X39835350Y-99622700D01*
X39835350Y-99622700D02*
X39902016Y-99656033D01*
X39902016Y-99656033D02*
X39935350Y-99689366D01*
X39935350Y-99689366D02*
X39968683Y-99756033D01*
X39968683Y-99756033D02*
X39968683Y-99922700D01*
X39968683Y-99922700D02*
X39935350Y-99989366D01*
X39935350Y-99989366D02*
X39902016Y-100022700D01*
X39902016Y-100022700D02*
X39835350Y-100056033D01*
X39835350Y-100056033D02*
X39635350Y-100056033D01*
X39635350Y-100056033D02*
X39568683Y-100022700D01*
X39568683Y-100022700D02*
X39535350Y-99989366D01*
X40568683Y-99589366D02*
X40568683Y-100056033D01*
X40402017Y-99322700D02*
X40235350Y-99822700D01*
X40235350Y-99822700D02*
X40668683Y-99822700D01*
X58231315Y-135549366D02*
X58197982Y-135582700D01*
X58197982Y-135582700D02*
X58097982Y-135616033D01*
X58097982Y-135616033D02*
X58031315Y-135616033D01*
X58031315Y-135616033D02*
X57931315Y-135582700D01*
X57931315Y-135582700D02*
X57864649Y-135516033D01*
X57864649Y-135516033D02*
X57831315Y-135449366D01*
X57831315Y-135449366D02*
X57797982Y-135316033D01*
X57797982Y-135316033D02*
X57797982Y-135216033D01*
X57797982Y-135216033D02*
X57831315Y-135082700D01*
X57831315Y-135082700D02*
X57864649Y-135016033D01*
X57864649Y-135016033D02*
X57931315Y-134949366D01*
X57931315Y-134949366D02*
X58031315Y-134916033D01*
X58031315Y-134916033D02*
X58097982Y-134916033D01*
X58097982Y-134916033D02*
X58197982Y-134949366D01*
X58197982Y-134949366D02*
X58231315Y-134982700D01*
X58864649Y-135616033D02*
X58531315Y-135616033D01*
X58531315Y-135616033D02*
X58531315Y-134916033D01*
X59097982Y-135616033D02*
X59097982Y-134916033D01*
X59497982Y-135616033D02*
X59197982Y-135216033D01*
X59497982Y-134916033D02*
X59097982Y-135316033D01*
X58431315Y-133076033D02*
X58431315Y-132376033D01*
X58431315Y-132376033D02*
X58597982Y-132376033D01*
X58597982Y-132376033D02*
X58697982Y-132409366D01*
X58697982Y-132409366D02*
X58764649Y-132476033D01*
X58764649Y-132476033D02*
X58797982Y-132542700D01*
X58797982Y-132542700D02*
X58831315Y-132676033D01*
X58831315Y-132676033D02*
X58831315Y-132776033D01*
X58831315Y-132776033D02*
X58797982Y-132909366D01*
X58797982Y-132909366D02*
X58764649Y-132976033D01*
X58764649Y-132976033D02*
X58697982Y-133042700D01*
X58697982Y-133042700D02*
X58597982Y-133076033D01*
X58597982Y-133076033D02*
X58431315Y-133076033D01*
X59264649Y-132376033D02*
X59331315Y-132376033D01*
X59331315Y-132376033D02*
X59397982Y-132409366D01*
X59397982Y-132409366D02*
X59431315Y-132442700D01*
X59431315Y-132442700D02*
X59464649Y-132509366D01*
X59464649Y-132509366D02*
X59497982Y-132642700D01*
X59497982Y-132642700D02*
X59497982Y-132809366D01*
X59497982Y-132809366D02*
X59464649Y-132942700D01*
X59464649Y-132942700D02*
X59431315Y-133009366D01*
X59431315Y-133009366D02*
X59397982Y-133042700D01*
X59397982Y-133042700D02*
X59331315Y-133076033D01*
X59331315Y-133076033D02*
X59264649Y-133076033D01*
X59264649Y-133076033D02*
X59197982Y-133042700D01*
X59197982Y-133042700D02*
X59164649Y-133009366D01*
X59164649Y-133009366D02*
X59131315Y-132942700D01*
X59131315Y-132942700D02*
X59097982Y-132809366D01*
X59097982Y-132809366D02*
X59097982Y-132642700D01*
X59097982Y-132642700D02*
X59131315Y-132509366D01*
X59131315Y-132509366D02*
X59164649Y-132442700D01*
X59164649Y-132442700D02*
X59197982Y-132409366D01*
X59197982Y-132409366D02*
X59264649Y-132376033D01*
X81775714Y-118599104D02*
X82251904Y-118599104D01*
X81680476Y-118884819D02*
X82013809Y-117884819D01*
X82013809Y-117884819D02*
X82347142Y-118884819D01*
X82632857Y-117980057D02*
X82680476Y-117932438D01*
X82680476Y-117932438D02*
X82775714Y-117884819D01*
X82775714Y-117884819D02*
X83013809Y-117884819D01*
X83013809Y-117884819D02*
X83109047Y-117932438D01*
X83109047Y-117932438D02*
X83156666Y-117980057D01*
X83156666Y-117980057D02*
X83204285Y-118075295D01*
X83204285Y-118075295D02*
X83204285Y-118170533D01*
X83204285Y-118170533D02*
X83156666Y-118313390D01*
X83156666Y-118313390D02*
X82585238Y-118884819D01*
X82585238Y-118884819D02*
X83204285Y-118884819D01*
X103907200Y-112095238D02*
X103954819Y-111952381D01*
X103954819Y-111952381D02*
X103954819Y-111714286D01*
X103954819Y-111714286D02*
X103907200Y-111619048D01*
X103907200Y-111619048D02*
X103859580Y-111571429D01*
X103859580Y-111571429D02*
X103764342Y-111523810D01*
X103764342Y-111523810D02*
X103669104Y-111523810D01*
X103669104Y-111523810D02*
X103573866Y-111571429D01*
X103573866Y-111571429D02*
X103526247Y-111619048D01*
X103526247Y-111619048D02*
X103478628Y-111714286D01*
X103478628Y-111714286D02*
X103431009Y-111904762D01*
X103431009Y-111904762D02*
X103383390Y-112000000D01*
X103383390Y-112000000D02*
X103335771Y-112047619D01*
X103335771Y-112047619D02*
X103240533Y-112095238D01*
X103240533Y-112095238D02*
X103145295Y-112095238D01*
X103145295Y-112095238D02*
X103050057Y-112047619D01*
X103050057Y-112047619D02*
X103002438Y-112000000D01*
X103002438Y-112000000D02*
X102954819Y-111904762D01*
X102954819Y-111904762D02*
X102954819Y-111666667D01*
X102954819Y-111666667D02*
X103002438Y-111523810D01*
X103288152Y-111238095D02*
X103288152Y-110857143D01*
X102954819Y-111095238D02*
X103811961Y-111095238D01*
X103811961Y-111095238D02*
X103907200Y-111047619D01*
X103907200Y-111047619D02*
X103954819Y-110952381D01*
X103954819Y-110952381D02*
X103954819Y-110857143D01*
X103907200Y-110142857D02*
X103954819Y-110238095D01*
X103954819Y-110238095D02*
X103954819Y-110428571D01*
X103954819Y-110428571D02*
X103907200Y-110523809D01*
X103907200Y-110523809D02*
X103811961Y-110571428D01*
X103811961Y-110571428D02*
X103431009Y-110571428D01*
X103431009Y-110571428D02*
X103335771Y-110523809D01*
X103335771Y-110523809D02*
X103288152Y-110428571D01*
X103288152Y-110428571D02*
X103288152Y-110238095D01*
X103288152Y-110238095D02*
X103335771Y-110142857D01*
X103335771Y-110142857D02*
X103431009Y-110095238D01*
X103431009Y-110095238D02*
X103526247Y-110095238D01*
X103526247Y-110095238D02*
X103621485Y-110571428D01*
X103288152Y-109666666D02*
X104288152Y-109666666D01*
X103335771Y-109666666D02*
X103288152Y-109571428D01*
X103288152Y-109571428D02*
X103288152Y-109380952D01*
X103288152Y-109380952D02*
X103335771Y-109285714D01*
X103335771Y-109285714D02*
X103383390Y-109238095D01*
X103383390Y-109238095D02*
X103478628Y-109190476D01*
X103478628Y-109190476D02*
X103764342Y-109190476D01*
X103764342Y-109190476D02*
X103859580Y-109238095D01*
X103859580Y-109238095D02*
X103907200Y-109285714D01*
X103907200Y-109285714D02*
X103954819Y-109380952D01*
X103954819Y-109380952D02*
X103954819Y-109571428D01*
X103954819Y-109571428D02*
X103907200Y-109666666D01*
X103288152Y-108761904D02*
X104288152Y-108761904D01*
X103335771Y-108761904D02*
X103288152Y-108666666D01*
X103288152Y-108666666D02*
X103288152Y-108476190D01*
X103288152Y-108476190D02*
X103335771Y-108380952D01*
X103335771Y-108380952D02*
X103383390Y-108333333D01*
X103383390Y-108333333D02*
X103478628Y-108285714D01*
X103478628Y-108285714D02*
X103764342Y-108285714D01*
X103764342Y-108285714D02*
X103859580Y-108333333D01*
X103859580Y-108333333D02*
X103907200Y-108380952D01*
X103907200Y-108380952D02*
X103954819Y-108476190D01*
X103954819Y-108476190D02*
X103954819Y-108666666D01*
X103954819Y-108666666D02*
X103907200Y-108761904D01*
X103907200Y-107476190D02*
X103954819Y-107571428D01*
X103954819Y-107571428D02*
X103954819Y-107761904D01*
X103954819Y-107761904D02*
X103907200Y-107857142D01*
X103907200Y-107857142D02*
X103811961Y-107904761D01*
X103811961Y-107904761D02*
X103431009Y-107904761D01*
X103431009Y-107904761D02*
X103335771Y-107857142D01*
X103335771Y-107857142D02*
X103288152Y-107761904D01*
X103288152Y-107761904D02*
X103288152Y-107571428D01*
X103288152Y-107571428D02*
X103335771Y-107476190D01*
X103335771Y-107476190D02*
X103431009Y-107428571D01*
X103431009Y-107428571D02*
X103526247Y-107428571D01*
X103526247Y-107428571D02*
X103621485Y-107904761D01*
X103954819Y-106999999D02*
X103288152Y-106999999D01*
X103478628Y-106999999D02*
X103383390Y-106952380D01*
X103383390Y-106952380D02*
X103335771Y-106904761D01*
X103335771Y-106904761D02*
X103288152Y-106809523D01*
X103288152Y-106809523D02*
X103288152Y-106714285D01*
X103954819Y-105619046D02*
X102954819Y-105619046D01*
X102954819Y-105619046D02*
X103669104Y-105285713D01*
X103669104Y-105285713D02*
X102954819Y-104952380D01*
X102954819Y-104952380D02*
X103954819Y-104952380D01*
X103954819Y-104333332D02*
X103907200Y-104428570D01*
X103907200Y-104428570D02*
X103859580Y-104476189D01*
X103859580Y-104476189D02*
X103764342Y-104523808D01*
X103764342Y-104523808D02*
X103478628Y-104523808D01*
X103478628Y-104523808D02*
X103383390Y-104476189D01*
X103383390Y-104476189D02*
X103335771Y-104428570D01*
X103335771Y-104428570D02*
X103288152Y-104333332D01*
X103288152Y-104333332D02*
X103288152Y-104190475D01*
X103288152Y-104190475D02*
X103335771Y-104095237D01*
X103335771Y-104095237D02*
X103383390Y-104047618D01*
X103383390Y-104047618D02*
X103478628Y-103999999D01*
X103478628Y-103999999D02*
X103764342Y-103999999D01*
X103764342Y-103999999D02*
X103859580Y-104047618D01*
X103859580Y-104047618D02*
X103907200Y-104095237D01*
X103907200Y-104095237D02*
X103954819Y-104190475D01*
X103954819Y-104190475D02*
X103954819Y-104333332D01*
X103288152Y-103714284D02*
X103288152Y-103333332D01*
X102954819Y-103571427D02*
X103811961Y-103571427D01*
X103811961Y-103571427D02*
X103907200Y-103523808D01*
X103907200Y-103523808D02*
X103954819Y-103428570D01*
X103954819Y-103428570D02*
X103954819Y-103333332D01*
X103954819Y-102857141D02*
X103907200Y-102952379D01*
X103907200Y-102952379D02*
X103859580Y-102999998D01*
X103859580Y-102999998D02*
X103764342Y-103047617D01*
X103764342Y-103047617D02*
X103478628Y-103047617D01*
X103478628Y-103047617D02*
X103383390Y-102999998D01*
X103383390Y-102999998D02*
X103335771Y-102952379D01*
X103335771Y-102952379D02*
X103288152Y-102857141D01*
X103288152Y-102857141D02*
X103288152Y-102714284D01*
X103288152Y-102714284D02*
X103335771Y-102619046D01*
X103335771Y-102619046D02*
X103383390Y-102571427D01*
X103383390Y-102571427D02*
X103478628Y-102523808D01*
X103478628Y-102523808D02*
X103764342Y-102523808D01*
X103764342Y-102523808D02*
X103859580Y-102571427D01*
X103859580Y-102571427D02*
X103907200Y-102619046D01*
X103907200Y-102619046D02*
X103954819Y-102714284D01*
X103954819Y-102714284D02*
X103954819Y-102857141D01*
X103954819Y-102095236D02*
X103288152Y-102095236D01*
X103478628Y-102095236D02*
X103383390Y-102047617D01*
X103383390Y-102047617D02*
X103335771Y-101999998D01*
X103335771Y-101999998D02*
X103288152Y-101904760D01*
X103288152Y-101904760D02*
X103288152Y-101809522D01*
X70234819Y-129261904D02*
X71044342Y-129261904D01*
X71044342Y-129261904D02*
X71139580Y-129214285D01*
X71139580Y-129214285D02*
X71187200Y-129166666D01*
X71187200Y-129166666D02*
X71234819Y-129071428D01*
X71234819Y-129071428D02*
X71234819Y-128880952D01*
X71234819Y-128880952D02*
X71187200Y-128785714D01*
X71187200Y-128785714D02*
X71139580Y-128738095D01*
X71139580Y-128738095D02*
X71044342Y-128690476D01*
X71044342Y-128690476D02*
X70234819Y-128690476D01*
X71234819Y-127690476D02*
X71234819Y-128261904D01*
X71234819Y-127976190D02*
X70234819Y-127976190D01*
X70234819Y-127976190D02*
X70377676Y-128071428D01*
X70377676Y-128071428D02*
X70472914Y-128166666D01*
X70472914Y-128166666D02*
X70520533Y-128261904D01*
X65142857Y-138907200D02*
X65285714Y-138954819D01*
X65285714Y-138954819D02*
X65523809Y-138954819D01*
X65523809Y-138954819D02*
X65619047Y-138907200D01*
X65619047Y-138907200D02*
X65666666Y-138859580D01*
X65666666Y-138859580D02*
X65714285Y-138764342D01*
X65714285Y-138764342D02*
X65714285Y-138669104D01*
X65714285Y-138669104D02*
X65666666Y-138573866D01*
X65666666Y-138573866D02*
X65619047Y-138526247D01*
X65619047Y-138526247D02*
X65523809Y-138478628D01*
X65523809Y-138478628D02*
X65333333Y-138431009D01*
X65333333Y-138431009D02*
X65238095Y-138383390D01*
X65238095Y-138383390D02*
X65190476Y-138335771D01*
X65190476Y-138335771D02*
X65142857Y-138240533D01*
X65142857Y-138240533D02*
X65142857Y-138145295D01*
X65142857Y-138145295D02*
X65190476Y-138050057D01*
X65190476Y-138050057D02*
X65238095Y-138002438D01*
X65238095Y-138002438D02*
X65333333Y-137954819D01*
X65333333Y-137954819D02*
X65571428Y-137954819D01*
X65571428Y-137954819D02*
X65714285Y-138002438D01*
X66523809Y-138907200D02*
X66428571Y-138954819D01*
X66428571Y-138954819D02*
X66238095Y-138954819D01*
X66238095Y-138954819D02*
X66142857Y-138907200D01*
X66142857Y-138907200D02*
X66095238Y-138811961D01*
X66095238Y-138811961D02*
X66095238Y-138431009D01*
X66095238Y-138431009D02*
X66142857Y-138335771D01*
X66142857Y-138335771D02*
X66238095Y-138288152D01*
X66238095Y-138288152D02*
X66428571Y-138288152D01*
X66428571Y-138288152D02*
X66523809Y-138335771D01*
X66523809Y-138335771D02*
X66571428Y-138431009D01*
X66571428Y-138431009D02*
X66571428Y-138526247D01*
X66571428Y-138526247D02*
X66095238Y-138621485D01*
X67000000Y-138954819D02*
X67000000Y-138288152D01*
X67000000Y-138478628D02*
X67047619Y-138383390D01*
X67047619Y-138383390D02*
X67095238Y-138335771D01*
X67095238Y-138335771D02*
X67190476Y-138288152D01*
X67190476Y-138288152D02*
X67285714Y-138288152D01*
X67523810Y-138288152D02*
X67761905Y-138954819D01*
X67761905Y-138954819D02*
X68000000Y-138288152D01*
X68523810Y-138954819D02*
X68428572Y-138907200D01*
X68428572Y-138907200D02*
X68380953Y-138859580D01*
X68380953Y-138859580D02*
X68333334Y-138764342D01*
X68333334Y-138764342D02*
X68333334Y-138478628D01*
X68333334Y-138478628D02*
X68380953Y-138383390D01*
X68380953Y-138383390D02*
X68428572Y-138335771D01*
X68428572Y-138335771D02*
X68523810Y-138288152D01*
X68523810Y-138288152D02*
X68666667Y-138288152D01*
X68666667Y-138288152D02*
X68761905Y-138335771D01*
X68761905Y-138335771D02*
X68809524Y-138383390D01*
X68809524Y-138383390D02*
X68857143Y-138478628D01*
X68857143Y-138478628D02*
X68857143Y-138764342D01*
X68857143Y-138764342D02*
X68809524Y-138859580D01*
X68809524Y-138859580D02*
X68761905Y-138907200D01*
X68761905Y-138907200D02*
X68666667Y-138954819D01*
X68666667Y-138954819D02*
X68523810Y-138954819D01*
X68452381Y-82954819D02*
X68452381Y-81954819D01*
X68452381Y-81954819D02*
X68833333Y-81954819D01*
X68833333Y-81954819D02*
X68928571Y-82002438D01*
X68928571Y-82002438D02*
X68976190Y-82050057D01*
X68976190Y-82050057D02*
X69023809Y-82145295D01*
X69023809Y-82145295D02*
X69023809Y-82288152D01*
X69023809Y-82288152D02*
X68976190Y-82383390D01*
X68976190Y-82383390D02*
X68928571Y-82431009D01*
X68928571Y-82431009D02*
X68833333Y-82478628D01*
X68833333Y-82478628D02*
X68452381Y-82478628D01*
X69595238Y-82954819D02*
X69500000Y-82907200D01*
X69500000Y-82907200D02*
X69452381Y-82859580D01*
X69452381Y-82859580D02*
X69404762Y-82764342D01*
X69404762Y-82764342D02*
X69404762Y-82478628D01*
X69404762Y-82478628D02*
X69452381Y-82383390D01*
X69452381Y-82383390D02*
X69500000Y-82335771D01*
X69500000Y-82335771D02*
X69595238Y-82288152D01*
X69595238Y-82288152D02*
X69738095Y-82288152D01*
X69738095Y-82288152D02*
X69833333Y-82335771D01*
X69833333Y-82335771D02*
X69880952Y-82383390D01*
X69880952Y-82383390D02*
X69928571Y-82478628D01*
X69928571Y-82478628D02*
X69928571Y-82764342D01*
X69928571Y-82764342D02*
X69880952Y-82859580D01*
X69880952Y-82859580D02*
X69833333Y-82907200D01*
X69833333Y-82907200D02*
X69738095Y-82954819D01*
X69738095Y-82954819D02*
X69595238Y-82954819D01*
X70261905Y-82288152D02*
X70452381Y-82954819D01*
X70452381Y-82954819D02*
X70642857Y-82478628D01*
X70642857Y-82478628D02*
X70833333Y-82954819D01*
X70833333Y-82954819D02*
X71023809Y-82288152D01*
X71785714Y-82907200D02*
X71690476Y-82954819D01*
X71690476Y-82954819D02*
X71500000Y-82954819D01*
X71500000Y-82954819D02*
X71404762Y-82907200D01*
X71404762Y-82907200D02*
X71357143Y-82811961D01*
X71357143Y-82811961D02*
X71357143Y-82431009D01*
X71357143Y-82431009D02*
X71404762Y-82335771D01*
X71404762Y-82335771D02*
X71500000Y-82288152D01*
X71500000Y-82288152D02*
X71690476Y-82288152D01*
X71690476Y-82288152D02*
X71785714Y-82335771D01*
X71785714Y-82335771D02*
X71833333Y-82431009D01*
X71833333Y-82431009D02*
X71833333Y-82526247D01*
X71833333Y-82526247D02*
X71357143Y-82621485D01*
X72261905Y-82954819D02*
X72261905Y-82288152D01*
X72261905Y-82478628D02*
X72309524Y-82383390D01*
X72309524Y-82383390D02*
X72357143Y-82335771D01*
X72357143Y-82335771D02*
X72452381Y-82288152D01*
X72452381Y-82288152D02*
X72547619Y-82288152D01*
X73642858Y-82954819D02*
X73642858Y-81954819D01*
X74119048Y-82288152D02*
X74119048Y-82954819D01*
X74119048Y-82383390D02*
X74166667Y-82335771D01*
X74166667Y-82335771D02*
X74261905Y-82288152D01*
X74261905Y-82288152D02*
X74404762Y-82288152D01*
X74404762Y-82288152D02*
X74500000Y-82335771D01*
X74500000Y-82335771D02*
X74547619Y-82431009D01*
X74547619Y-82431009D02*
X74547619Y-82954819D01*
X68214285Y-75859580D02*
X68166666Y-75907200D01*
X68166666Y-75907200D02*
X68023809Y-75954819D01*
X68023809Y-75954819D02*
X67928571Y-75954819D01*
X67928571Y-75954819D02*
X67785714Y-75907200D01*
X67785714Y-75907200D02*
X67690476Y-75811961D01*
X67690476Y-75811961D02*
X67642857Y-75716723D01*
X67642857Y-75716723D02*
X67595238Y-75526247D01*
X67595238Y-75526247D02*
X67595238Y-75383390D01*
X67595238Y-75383390D02*
X67642857Y-75192914D01*
X67642857Y-75192914D02*
X67690476Y-75097676D01*
X67690476Y-75097676D02*
X67785714Y-75002438D01*
X67785714Y-75002438D02*
X67928571Y-74954819D01*
X67928571Y-74954819D02*
X68023809Y-74954819D01*
X68023809Y-74954819D02*
X68166666Y-75002438D01*
X68166666Y-75002438D02*
X68214285Y-75050057D01*
X68595238Y-75669104D02*
X69071428Y-75669104D01*
X68500000Y-75954819D02*
X68833333Y-74954819D01*
X68833333Y-74954819D02*
X69166666Y-75954819D01*
X69500000Y-75954819D02*
X69500000Y-74954819D01*
X69500000Y-74954819D02*
X69833333Y-75669104D01*
X69833333Y-75669104D02*
X70166666Y-74954819D01*
X70166666Y-74954819D02*
X70166666Y-75954819D01*
X71404762Y-75954819D02*
X71404762Y-74954819D01*
X71404762Y-74954819D02*
X71785714Y-74954819D01*
X71785714Y-74954819D02*
X71880952Y-75002438D01*
X71880952Y-75002438D02*
X71928571Y-75050057D01*
X71928571Y-75050057D02*
X71976190Y-75145295D01*
X71976190Y-75145295D02*
X71976190Y-75288152D01*
X71976190Y-75288152D02*
X71928571Y-75383390D01*
X71928571Y-75383390D02*
X71880952Y-75431009D01*
X71880952Y-75431009D02*
X71785714Y-75478628D01*
X71785714Y-75478628D02*
X71404762Y-75478628D01*
X72547619Y-75954819D02*
X72452381Y-75907200D01*
X72452381Y-75907200D02*
X72404762Y-75859580D01*
X72404762Y-75859580D02*
X72357143Y-75764342D01*
X72357143Y-75764342D02*
X72357143Y-75478628D01*
X72357143Y-75478628D02*
X72404762Y-75383390D01*
X72404762Y-75383390D02*
X72452381Y-75335771D01*
X72452381Y-75335771D02*
X72547619Y-75288152D01*
X72547619Y-75288152D02*
X72690476Y-75288152D01*
X72690476Y-75288152D02*
X72785714Y-75335771D01*
X72785714Y-75335771D02*
X72833333Y-75383390D01*
X72833333Y-75383390D02*
X72880952Y-75478628D01*
X72880952Y-75478628D02*
X72880952Y-75764342D01*
X72880952Y-75764342D02*
X72833333Y-75859580D01*
X72833333Y-75859580D02*
X72785714Y-75907200D01*
X72785714Y-75907200D02*
X72690476Y-75954819D01*
X72690476Y-75954819D02*
X72547619Y-75954819D01*
X73214286Y-75288152D02*
X73404762Y-75954819D01*
X73404762Y-75954819D02*
X73595238Y-75478628D01*
X73595238Y-75478628D02*
X73785714Y-75954819D01*
X73785714Y-75954819D02*
X73976190Y-75288152D01*
X74738095Y-75907200D02*
X74642857Y-75954819D01*
X74642857Y-75954819D02*
X74452381Y-75954819D01*
X74452381Y-75954819D02*
X74357143Y-75907200D01*
X74357143Y-75907200D02*
X74309524Y-75811961D01*
X74309524Y-75811961D02*
X74309524Y-75431009D01*
X74309524Y-75431009D02*
X74357143Y-75335771D01*
X74357143Y-75335771D02*
X74452381Y-75288152D01*
X74452381Y-75288152D02*
X74642857Y-75288152D01*
X74642857Y-75288152D02*
X74738095Y-75335771D01*
X74738095Y-75335771D02*
X74785714Y-75431009D01*
X74785714Y-75431009D02*
X74785714Y-75526247D01*
X74785714Y-75526247D02*
X74309524Y-75621485D01*
X75214286Y-75954819D02*
X75214286Y-75288152D01*
X75214286Y-75478628D02*
X75261905Y-75383390D01*
X75261905Y-75383390D02*
X75309524Y-75335771D01*
X75309524Y-75335771D02*
X75404762Y-75288152D01*
X75404762Y-75288152D02*
X75500000Y-75288152D01*
D11*
%TO.C,DC Motors*%
X100330000Y-131030000D02*
X100330000Y-123350000D01*
X100330000Y-131030000D02*
X97670000Y-131030000D01*
X100330000Y-123350000D02*
X97670000Y-123350000D01*
X99000000Y-133630000D02*
X97670000Y-133630000D01*
X97670000Y-133630000D02*
X97670000Y-132300000D01*
X97670000Y-131030000D02*
X97670000Y-123350000D01*
%TO.C,C1*%
X103120000Y-91632323D02*
G75*
G02*
X92880000Y-91632323I-5120000J0D01*
G01*
X92880000Y-91632323D02*
G75*
G02*
X103120000Y-91632323I5120000J0D01*
G01*
X103080000Y-91672323D02*
X92920000Y-91672323D01*
X103080000Y-91632323D02*
X92920000Y-91632323D01*
X103079000Y-91752323D02*
X92921000Y-91752323D01*
X103079000Y-91712323D02*
X92921000Y-91712323D01*
X103077000Y-91792323D02*
X92923000Y-91792323D01*
X103076000Y-91832323D02*
X92924000Y-91832323D01*
X103074000Y-91872323D02*
X92926000Y-91872323D01*
X103072000Y-91912323D02*
X92928000Y-91912323D01*
X103070000Y-91952323D02*
X92930000Y-91952323D01*
X103067000Y-91992323D02*
X92933000Y-91992323D01*
X103064000Y-92032323D02*
X92936000Y-92032323D01*
X103061000Y-92072323D02*
X92939000Y-92072323D01*
X103057000Y-92112323D02*
X92943000Y-92112323D01*
X103054000Y-92152323D02*
X92946000Y-92152323D01*
X103049000Y-92192323D02*
X92951000Y-92192323D01*
X103045000Y-92232323D02*
X92955000Y-92232323D01*
X103040000Y-92272323D02*
X92960000Y-92272323D01*
X103035000Y-92312323D02*
X92965000Y-92312323D01*
X103029000Y-92352323D02*
X92971000Y-92352323D01*
X103023000Y-92392323D02*
X92977000Y-92392323D01*
X103017000Y-92432323D02*
X92983000Y-92432323D01*
X103011000Y-92472323D02*
X92989000Y-92472323D01*
X103004000Y-92512323D02*
X92996000Y-92512323D01*
X102997000Y-92552323D02*
X93003000Y-92552323D01*
X102989000Y-92592323D02*
X93011000Y-92592323D01*
X102981000Y-92632323D02*
X93019000Y-92632323D01*
X102973000Y-92672323D02*
X93027000Y-92672323D01*
X102965000Y-92712323D02*
X93035000Y-92712323D01*
X102956000Y-92752323D02*
X93044000Y-92752323D01*
X102947000Y-92792323D02*
X93053000Y-92792323D01*
X102937000Y-92832323D02*
X93063000Y-92832323D01*
X102928000Y-92872323D02*
X93072000Y-92872323D01*
X102917000Y-92912323D02*
X99240000Y-92912323D01*
X102907000Y-92952323D02*
X99240000Y-92952323D01*
X102896000Y-92992323D02*
X99240000Y-92992323D01*
X102885000Y-93032323D02*
X99240000Y-93032323D01*
X102873000Y-93072323D02*
X99240000Y-93072323D01*
X102861000Y-93112323D02*
X99240000Y-93112323D01*
X102849000Y-93152323D02*
X99240000Y-93152323D01*
X102837000Y-93192323D02*
X99240000Y-93192323D01*
X102824000Y-93232323D02*
X99240000Y-93232323D01*
X102810000Y-93272323D02*
X99240000Y-93272323D01*
X102797000Y-93312323D02*
X99240000Y-93312323D01*
X102782000Y-93352323D02*
X99240000Y-93352323D01*
X102768000Y-93392323D02*
X99240000Y-93392323D01*
X102753000Y-93432323D02*
X99240000Y-93432323D01*
X102738000Y-93472323D02*
X99240000Y-93472323D01*
X102722000Y-93512323D02*
X99240000Y-93512323D01*
X102706000Y-93552323D02*
X99240000Y-93552323D01*
X102690000Y-93592323D02*
X99240000Y-93592323D01*
X102673000Y-93632323D02*
X99240000Y-93632323D01*
X102656000Y-93672323D02*
X99240000Y-93672323D01*
X102638000Y-93712323D02*
X99240000Y-93712323D01*
X102620000Y-93752323D02*
X99240000Y-93752323D01*
X102602000Y-93792323D02*
X99240000Y-93792323D01*
X102583000Y-93832323D02*
X99240000Y-93832323D01*
X102564000Y-93872323D02*
X99240000Y-93872323D01*
X102544000Y-93912323D02*
X99240000Y-93912323D01*
X102524000Y-93952323D02*
X99240000Y-93952323D01*
X102504000Y-93992323D02*
X99240000Y-93992323D01*
X102483000Y-94032323D02*
X99240000Y-94032323D01*
X102461000Y-94072323D02*
X99240000Y-94072323D01*
X102439000Y-94112323D02*
X99240000Y-94112323D01*
X102417000Y-94152323D02*
X99240000Y-94152323D01*
X102394000Y-94192323D02*
X99240000Y-94192323D01*
X102371000Y-94232323D02*
X99240000Y-94232323D01*
X102347000Y-94272323D02*
X99240000Y-94272323D01*
X102323000Y-94312323D02*
X99240000Y-94312323D01*
X102298000Y-94352323D02*
X99240000Y-94352323D01*
X102272000Y-94392323D02*
X99240000Y-94392323D01*
X102247000Y-94432323D02*
X99240000Y-94432323D01*
X102220000Y-94472323D02*
X99240000Y-94472323D01*
X102193000Y-94512323D02*
X99240000Y-94512323D01*
X102166000Y-94552323D02*
X99240000Y-94552323D01*
X102138000Y-94592323D02*
X99240000Y-94592323D01*
X102109000Y-94632323D02*
X99240000Y-94632323D01*
X102080000Y-94672323D02*
X99240000Y-94672323D01*
X102050000Y-94712323D02*
X99240000Y-94712323D01*
X102020000Y-94752323D02*
X99240000Y-94752323D01*
X101988000Y-94792323D02*
X99240000Y-94792323D01*
X101957000Y-94832323D02*
X99240000Y-94832323D01*
X101924000Y-94872323D02*
X99240000Y-94872323D01*
X101891000Y-94912323D02*
X99240000Y-94912323D01*
X101858000Y-94952323D02*
X99240000Y-94952323D01*
X101823000Y-94992323D02*
X99240000Y-94992323D01*
X101788000Y-95032323D02*
X99240000Y-95032323D01*
X101752000Y-95072323D02*
X99240000Y-95072323D01*
X101716000Y-95112323D02*
X99240000Y-95112323D01*
X101678000Y-95152323D02*
X99240000Y-95152323D01*
X101640000Y-95192323D02*
X99240000Y-95192323D01*
X101601000Y-95232323D02*
X99240000Y-95232323D01*
X101561000Y-95272323D02*
X99240000Y-95272323D01*
X101520000Y-95312323D02*
X99240000Y-95312323D01*
X101478000Y-95352323D02*
X99240000Y-95352323D01*
X101435000Y-95392323D02*
X94565000Y-95392323D01*
X101391000Y-95432323D02*
X94609000Y-95432323D01*
X101375000Y-86652677D02*
X100375000Y-86652677D01*
X101347000Y-95472323D02*
X94653000Y-95472323D01*
X101301000Y-95512323D02*
X94699000Y-95512323D01*
X101254000Y-95552323D02*
X94746000Y-95552323D01*
X101205000Y-95592323D02*
X94795000Y-95592323D01*
X101156000Y-95632323D02*
X94844000Y-95632323D01*
X101105000Y-95672323D02*
X94895000Y-95672323D01*
X101053000Y-95712323D02*
X94947000Y-95712323D01*
X101000000Y-95752323D02*
X95000000Y-95752323D01*
X100945000Y-95792323D02*
X95055000Y-95792323D01*
X100888000Y-95832323D02*
X95112000Y-95832323D01*
X100875000Y-86152677D02*
X100875000Y-87152677D01*
X100830000Y-95872323D02*
X95170000Y-95872323D01*
X100770000Y-95912323D02*
X95230000Y-95912323D01*
X100708000Y-95952323D02*
X95292000Y-95952323D01*
X100644000Y-95992323D02*
X95356000Y-95992323D01*
X100578000Y-96032323D02*
X95422000Y-96032323D01*
X100510000Y-96072323D02*
X95490000Y-96072323D01*
X100439000Y-96112323D02*
X95561000Y-96112323D01*
X100365000Y-96152323D02*
X95635000Y-96152323D01*
X100288000Y-96192323D02*
X95712000Y-96192323D01*
X100208000Y-96232323D02*
X95792000Y-96232323D01*
X100124000Y-96272323D02*
X95876000Y-96272323D01*
X100037000Y-96312323D02*
X95963000Y-96312323D01*
X99944000Y-96352323D02*
X96056000Y-96352323D01*
X99846000Y-96392323D02*
X96154000Y-96392323D01*
X99742000Y-96432323D02*
X96258000Y-96432323D01*
X99630000Y-96472323D02*
X96370000Y-96472323D01*
X99509000Y-96512323D02*
X96491000Y-96512323D01*
X99377000Y-96552323D02*
X96623000Y-96552323D01*
X99230000Y-96592323D02*
X96770000Y-96592323D01*
X99062000Y-96632323D02*
X96938000Y-96632323D01*
X98862000Y-96672323D02*
X97138000Y-96672323D01*
X98599000Y-96712323D02*
X97401000Y-96712323D01*
X96760000Y-95352323D02*
X94522000Y-95352323D01*
X96760000Y-95312323D02*
X94480000Y-95312323D01*
X96760000Y-95272323D02*
X94439000Y-95272323D01*
X96760000Y-95232323D02*
X94399000Y-95232323D01*
X96760000Y-95192323D02*
X94360000Y-95192323D01*
X96760000Y-95152323D02*
X94322000Y-95152323D01*
X96760000Y-95112323D02*
X94284000Y-95112323D01*
X96760000Y-95072323D02*
X94248000Y-95072323D01*
X96760000Y-95032323D02*
X94212000Y-95032323D01*
X96760000Y-94992323D02*
X94177000Y-94992323D01*
X96760000Y-94952323D02*
X94142000Y-94952323D01*
X96760000Y-94912323D02*
X94109000Y-94912323D01*
X96760000Y-94872323D02*
X94076000Y-94872323D01*
X96760000Y-94832323D02*
X94043000Y-94832323D01*
X96760000Y-94792323D02*
X94012000Y-94792323D01*
X96760000Y-94752323D02*
X93980000Y-94752323D01*
X96760000Y-94712323D02*
X93950000Y-94712323D01*
X96760000Y-94672323D02*
X93920000Y-94672323D01*
X96760000Y-94632323D02*
X93891000Y-94632323D01*
X96760000Y-94592323D02*
X93862000Y-94592323D01*
X96760000Y-94552323D02*
X93834000Y-94552323D01*
X96760000Y-94512323D02*
X93807000Y-94512323D01*
X96760000Y-94472323D02*
X93780000Y-94472323D01*
X96760000Y-94432323D02*
X93753000Y-94432323D01*
X96760000Y-94392323D02*
X93728000Y-94392323D01*
X96760000Y-94352323D02*
X93702000Y-94352323D01*
X96760000Y-94312323D02*
X93677000Y-94312323D01*
X96760000Y-94272323D02*
X93653000Y-94272323D01*
X96760000Y-94232323D02*
X93629000Y-94232323D01*
X96760000Y-94192323D02*
X93606000Y-94192323D01*
X96760000Y-94152323D02*
X93583000Y-94152323D01*
X96760000Y-94112323D02*
X93561000Y-94112323D01*
X96760000Y-94072323D02*
X93539000Y-94072323D01*
X96760000Y-94032323D02*
X93517000Y-94032323D01*
X96760000Y-93992323D02*
X93496000Y-93992323D01*
X96760000Y-93952323D02*
X93476000Y-93952323D01*
X96760000Y-93912323D02*
X93456000Y-93912323D01*
X96760000Y-93872323D02*
X93436000Y-93872323D01*
X96760000Y-93832323D02*
X93417000Y-93832323D01*
X96760000Y-93792323D02*
X93398000Y-93792323D01*
X96760000Y-93752323D02*
X93380000Y-93752323D01*
X96760000Y-93712323D02*
X93362000Y-93712323D01*
X96760000Y-93672323D02*
X93344000Y-93672323D01*
X96760000Y-93632323D02*
X93327000Y-93632323D01*
X96760000Y-93592323D02*
X93310000Y-93592323D01*
X96760000Y-93552323D02*
X93294000Y-93552323D01*
X96760000Y-93512323D02*
X93278000Y-93512323D01*
X96760000Y-93472323D02*
X93262000Y-93472323D01*
X96760000Y-93432323D02*
X93247000Y-93432323D01*
X96760000Y-93392323D02*
X93232000Y-93392323D01*
X96760000Y-93352323D02*
X93218000Y-93352323D01*
X96760000Y-93312323D02*
X93203000Y-93312323D01*
X96760000Y-93272323D02*
X93190000Y-93272323D01*
X96760000Y-93232323D02*
X93176000Y-93232323D01*
X96760000Y-93192323D02*
X93163000Y-93192323D01*
X96760000Y-93152323D02*
X93151000Y-93152323D01*
X96760000Y-93112323D02*
X93139000Y-93112323D01*
X96760000Y-93072323D02*
X93127000Y-93072323D01*
X96760000Y-93032323D02*
X93115000Y-93032323D01*
X96760000Y-92992323D02*
X93104000Y-92992323D01*
X96760000Y-92952323D02*
X93093000Y-92952323D01*
X96760000Y-92912323D02*
X93083000Y-92912323D01*
%TO.C,U2*%
X62500000Y-88480000D02*
X34100001Y-88480000D01*
X62499999Y-136400000D02*
X62500000Y-88480000D01*
X57313320Y-82566880D02*
X57313320Y-88459680D01*
X39330120Y-88459680D02*
X39330120Y-82566880D01*
X39330120Y-82566880D02*
X57313320Y-82566880D01*
X34100001Y-88480000D02*
X34100000Y-136400000D01*
X34100000Y-136400000D02*
X62499999Y-136400000D01*
%TO.C,A2*%
X90240000Y-117290000D02*
X90240000Y-115890000D01*
X90240000Y-114620000D02*
X90240000Y-96710000D01*
X90240000Y-96710000D02*
X74740000Y-96710000D01*
X88840000Y-117290000D02*
X90240000Y-117290000D01*
X87570000Y-117290000D02*
X87570000Y-114620000D01*
X87570000Y-114620000D02*
X90240000Y-114620000D01*
X87570000Y-114620000D02*
X87570000Y-96710000D01*
X77410000Y-117290000D02*
X77410000Y-96710000D01*
X74740000Y-117290000D02*
X87570000Y-117290000D01*
X74740000Y-96710000D02*
X74740000Y-117290000D01*
%TO.C,Stepper Motor*%
X102110000Y-113660000D02*
X102110000Y-111160000D01*
X101810000Y-113360000D02*
X101810000Y-100640000D01*
X101810000Y-100640000D02*
X97790000Y-100640000D01*
X100310000Y-113360000D02*
X100310000Y-112360000D01*
X100310000Y-112360000D02*
X101810000Y-112360000D01*
X100310000Y-101640000D02*
X101810000Y-101640000D01*
X100310000Y-100640000D02*
X100310000Y-101640000D01*
X99610000Y-113660000D02*
X102110000Y-113660000D01*
X99500000Y-113360000D02*
X99500000Y-112860000D01*
X99500000Y-112860000D02*
X98290000Y-112860000D01*
X99500000Y-101140000D02*
X99500000Y-100640000D01*
X98290000Y-112860000D02*
X98290000Y-101140000D01*
X98290000Y-101140000D02*
X99500000Y-101140000D01*
X97790000Y-113360000D02*
X101810000Y-113360000D01*
X97790000Y-100640000D02*
X97790000Y-113360000D01*
%TO.C,U1*%
X71780000Y-127500000D02*
G75*
G02*
X71780000Y-129500000I0J-1000000D01*
G01*
X92220000Y-131150000D02*
X92220000Y-125850000D01*
X92220000Y-125850000D02*
X71780000Y-125850000D01*
X71780000Y-131150000D02*
X92220000Y-131150000D01*
X71780000Y-129500000D02*
X71780000Y-131150000D01*
X71780000Y-125850000D02*
X71780000Y-127500000D01*
%TO.C,Servo*%
X70830000Y-142305000D02*
X70830000Y-139645000D01*
X65690000Y-142305000D02*
X70830000Y-142305000D01*
X65690000Y-142305000D02*
X65690000Y-139645000D01*
X65690000Y-139645000D02*
X70830000Y-139645000D01*
X63090000Y-140975000D02*
X63090000Y-139645000D01*
X63090000Y-139645000D02*
X64420000Y-139645000D01*
%TO.C,Power In*%
X68845000Y-86380000D02*
X68845000Y-85000000D01*
X70225000Y-86380000D02*
X68845000Y-86380000D01*
X71495000Y-83620000D02*
X74145000Y-83620000D01*
X71495000Y-86380000D02*
X71495000Y-83620000D01*
X71495000Y-86380000D02*
X74145000Y-86380000D01*
X74145000Y-86380000D02*
X74145000Y-83620000D01*
%TO.C,CAM Power*%
X71270000Y-79830000D02*
X68670000Y-79830000D01*
X73870000Y-79830000D02*
X72540000Y-79830000D01*
X73870000Y-78500000D02*
X73870000Y-79830000D01*
X68670000Y-77170000D02*
X68670000Y-79830000D01*
X71270000Y-77170000D02*
X71270000Y-79830000D01*
X71270000Y-77170000D02*
X68670000Y-77170000D01*
%TD*%
M02*
