M48
; DRILL file {KiCad 9.0.4} date 2025-11-14T15:10:35+0100
; FORMAT={-:-/ absolute / metric / decimal}
; #@! TF.CreationDate,2025-11-14T15:10:35+01:00
; #@! TF.GenerationSoftware,Kicad,Pcbnew,9.0.4
; #@! TF.FileFunction,Plated,1,2,PTH
FMAT,2
METRIC
; #@! TA.AperFunction,Plated,PTH,ComponentDrill
T1C0.800
%
G90
G05
T1
X35.6Y-89.58
X35.6Y-92.12
X35.6Y-94.66
X35.6Y-97.2
X35.6Y-99.74
X35.6Y-102.28
X35.6Y-104.82
X35.6Y-107.36
X35.6Y-109.9
X35.6Y-112.44
X35.6Y-114.98
X35.6Y-117.52
X35.6Y-120.06
X35.6Y-122.6
X35.6Y-125.14
X35.6Y-127.68
X35.6Y-130.22
X35.6Y-132.76
X35.6Y-135.3
X60.996Y-132.757
X60.996Y-135.297
X61.0Y-89.58
X61.0Y-92.12
X61.0Y-94.66
X61.0Y-97.2
X61.0Y-99.74
X61.0Y-102.28
X61.0Y-104.82
X61.0Y-107.36
X61.0Y-109.9
X61.0Y-112.44
X61.0Y-114.98
X61.0Y-117.52
X61.0Y-120.06
X61.0Y-122.6
X61.0Y-125.14
X61.0Y-127.68
X61.0Y-130.22
X64.42Y-140.975
X66.96Y-140.975
X69.5Y-140.975
X70.0Y-78.5
X70.225Y-85.0
X72.54Y-78.5
X72.765Y-85.0
X73.11Y-124.69
X73.11Y-132.31
X75.65Y-124.69
X75.65Y-132.31
X76.14Y-98.11
X76.14Y-100.65
X76.14Y-103.19
X76.14Y-105.73
X76.14Y-108.27
X76.14Y-110.81
X76.14Y-113.35
X76.14Y-115.89
X78.19Y-124.69
X78.19Y-132.31
X80.73Y-124.69
X80.73Y-132.31
X83.27Y-124.69
X83.27Y-132.31
X85.81Y-124.69
X85.81Y-132.31
X88.35Y-124.69
X88.35Y-132.31
X88.84Y-98.11
X88.84Y-100.65
X88.84Y-103.19
X88.84Y-105.73
X88.84Y-108.27
X88.84Y-110.81
X88.84Y-113.35
X88.84Y-115.89
X90.89Y-124.69
X90.89Y-132.31
X98.0Y-89.132
X98.0Y-94.132
X99.0Y-124.68
X99.0Y-127.22
X99.0Y-129.76
X99.0Y-132.3
X99.5Y-103.25
X99.5Y-105.75
X99.5Y-108.25
X99.5Y-110.75
M30
