%TF.GenerationSoftware,KiCad,Pcbnew,9.0.4*%
%TF.CreationDate,2025-11-14T15:07:35+01:00*%
%TF.ProjectId,OSCARPCB,4f534341-5250-4434-922e-6b696361645f,rev?*%
%TF.SameCoordinates,Original*%
%TF.FileFunction,Copper,L1,Top*%
%TF.FilePolarity,Positive*%
%FSLAX46Y46*%
G04 Gerber Fmt 4.6, Leading zero omitted, Abs format (unit mm)*
G04 Created by KiCad (PCBNEW 9.0.4) date 2025-11-14 15:07:35*
%MOMM*%
%LPD*%
G01*
G04 APERTURE LIST*
G04 Aperture macros list*
%AMRoundRect*
0 Rectangle with rounded corners*
0 $1 Rounding radius*
0 $2 $3 $4 $5 $6 $7 $8 $9 X,Y pos of 4 corners*
0 Add a 4 corners polygon primitive as box body*
4,1,4,$2,$3,$4,$5,$6,$7,$8,$9,$2,$3,0*
0 Add four circle primitives for the rounded corners*
1,1,$1+$1,$2,$3*
1,1,$1+$1,$4,$5*
1,1,$1+$1,$6,$7*
1,1,$1+$1,$8,$9*
0 Add four rect primitives between the rounded corners*
20,1,$1+$1,$2,$3,$4,$5,0*
20,1,$1+$1,$4,$5,$6,$7,0*
20,1,$1+$1,$6,$7,$8,$9,0*
20,1,$1+$1,$8,$9,$2,$3,0*%
G04 Aperture macros list end*
%TA.AperFunction,ComponentPad*%
%ADD10O,2.300000X2.300000*%
%TD*%
%TA.AperFunction,ComponentPad*%
%ADD11RoundRect,0.250000X-0.750000X0.750000X-0.750000X-0.750000X0.750000X-0.750000X0.750000X0.750000X0*%
%TD*%
%TA.AperFunction,ComponentPad*%
%ADD12R,1.600000X1.600000*%
%TD*%
%TA.AperFunction,ComponentPad*%
%ADD13R,2.400000X2.400000*%
%TD*%
%TA.AperFunction,ComponentPad*%
%ADD14R,2.200000X2.200000*%
%TD*%
%TA.AperFunction,Conductor*%
%ADD15C,0.800000*%
%TD*%
G04 APERTURE END LIST*
D10*
%TO.P,DC Motors,4*%
%TO.N,/R Motor -*%
X99000000Y-124680000D03*
%TO.P,DC Motors,3*%
%TO.N,/R Motor +*%
X99000000Y-127220000D03*
%TO.P,DC Motors,2*%
%TO.N,/L Motor -*%
X99000000Y-129760000D03*
%TO.P,DC Motors,1*%
%TO.N,/L Motor +*%
X99000000Y-132300000D03*
%TD*%
%TO.P,C1,2*%
%TO.N,GND VMOT*%
X98000000Y-94132323D03*
D11*
%TO.P,C1,1*%
%TO.N,VMOT*%
X98000000Y-89132323D03*
%TD*%
D10*
%TO.P,U2,38,GND*%
%TO.N,GND*%
X61000000Y-89580000D03*
%TO.P,U2,37,GPIO23*%
%TO.N,EN*%
X61000000Y-92120000D03*
%TO.P,U2,36,GPIO22*%
%TO.N,M0*%
X61000000Y-94660000D03*
%TO.P,U2,35,U0TXD/GPIO1*%
%TO.N,unconnected-(U2-U0TXD{slash}GPIO1-Pad35)*%
X61000000Y-97200000D03*
%TO.P,U2,34,U0RXD/GPIO3*%
%TO.N,unconnected-(U2-U0RXD{slash}GPIO3-Pad34)*%
X61000000Y-99740000D03*
%TO.P,U2,33,GPIO21*%
%TO.N,M1*%
X61000000Y-102280000D03*
%TO.P,U2,32,GND*%
%TO.N,GND*%
X61000000Y-104820000D03*
%TO.P,U2,31,GPIO19*%
%TO.N,M2*%
X61000000Y-107360000D03*
%TO.P,U2,30,GPIO18*%
%TO.N,SLP {slash} RST*%
X61000000Y-109900000D03*
%TO.P,U2,29,GPIO5*%
%TO.N,STEP*%
X61000000Y-112440000D03*
%TO.P,U2,28,GPIO17*%
%TO.N,DIR*%
X61000000Y-114980000D03*
%TO.P,U2,27,GPIO16*%
%TO.N,R EN*%
X61000000Y-117520000D03*
%TO.P,U2,26,ADC2_CH0/GPIO4*%
%TO.N,R Motor 3*%
X61000000Y-120060000D03*
%TO.P,U2,25,GPIO0/BOOT/ADC2_CH1*%
%TO.N,unconnected-(U2-GPIO0{slash}BOOT{slash}ADC2_CH1-Pad25)*%
X61000000Y-122600000D03*
%TO.P,U2,24,ADC2_CH2/GPIO2*%
%TO.N,R Motor 4*%
X61000000Y-125140000D03*
%TO.P,U2,23,MTDO/GPIO15/ADC2_CH3*%
%TO.N,unconnected-(U2-MTDO{slash}GPIO15{slash}ADC2_CH3-Pad23)*%
X61000000Y-127680000D03*
%TO.P,U2,22,SD_DATA1/GPIO8*%
%TO.N,Net-(U1-EN1\u002C2)*%
X61000000Y-130220000D03*
%TO.P,U2,21,SD_DATA0/GPIO7*%
%TO.N,Net-(U1-1A)*%
X60996320Y-132757280D03*
%TO.P,U2,20,SD_CLK/GPIO6*%
%TO.N,Net-(U1-2A)*%
X60996320Y-135297280D03*
%TO.P,U2,19,5V*%
%TO.N,VBATT*%
X35600000Y-135300000D03*
%TO.P,U2,18,CMD*%
%TO.N,unconnected-(U2-CMD-Pad18)*%
X35600000Y-132760000D03*
%TO.P,U2,17,SD_DATA3/GPIO10*%
%TO.N,unconnected-(U2-SD_DATA3{slash}GPIO10-Pad17)*%
X35600000Y-130220000D03*
%TO.P,U2,16,SD_DATA2/GPIO9*%
%TO.N,unconnected-(U2-SD_DATA2{slash}GPIO9-Pad16)*%
X35600000Y-127680000D03*
%TO.P,U2,15,MTCK/GPIO13/ADC2_CH4*%
%TO.N,Net-(U2-MTCK{slash}GPIO13{slash}ADC2_CH4)*%
X35600000Y-125140000D03*
%TO.P,U2,14,GND*%
%TO.N,GND*%
X35600000Y-122600000D03*
%TO.P,U2,13,MTDI/GPIO12/ADC2_CH5*%
%TO.N,unconnected-(U2-MTDI{slash}GPIO12{slash}ADC2_CH5-Pad13)*%
X35600000Y-120060000D03*
%TO.P,U2,12,MTMS/GPIO14/ADC2_CH6*%
%TO.N,unconnected-(U2-MTMS{slash}GPIO14{slash}ADC2_CH6-Pad12)*%
X35600000Y-117520000D03*
%TO.P,U2,11,ADC2_CH7/GPIO27*%
%TO.N,unconnected-(U2-ADC2_CH7{slash}GPIO27-Pad11)*%
X35600000Y-114980000D03*
%TO.P,U2,10,DAC_2/ADC2_CH9/GPIO26*%
%TO.N,unconnected-(U2-DAC_2{slash}ADC2_CH9{slash}GPIO26-Pad10)*%
X35600000Y-112440000D03*
%TO.P,U2,9,DAC_1/ADC2_CH8/GPIO25*%
%TO.N,unconnected-(U2-DAC_1{slash}ADC2_CH8{slash}GPIO25-Pad9)*%
X35600000Y-109900000D03*
%TO.P,U2,8,32K_XN/GPIO33/ADC1_CH5*%
%TO.N,unconnected-(U2-32K_XN{slash}GPIO33{slash}ADC1_CH5-Pad8)*%
X35600000Y-107360000D03*
%TO.P,U2,7,32K_XP/GPIO32/ADC1_CH4*%
%TO.N,unconnected-(U2-32K_XP{slash}GPIO32{slash}ADC1_CH4-Pad7)*%
X35600000Y-104820000D03*
%TO.P,U2,6,VDET_2/GPIO35/ADC1_CH7*%
%TO.N,unconnected-(U2-VDET_2{slash}GPIO35{slash}ADC1_CH7-Pad6)*%
X35600000Y-102280000D03*
%TO.P,U2,5,VDET_1/GPIO34/ADC1_CH6*%
%TO.N,unconnected-(U2-VDET_1{slash}GPIO34{slash}ADC1_CH6-Pad5)*%
X35600000Y-99740000D03*
%TO.P,U2,4,SENSOR_VN/GPIO39/ADC1_CH3*%
%TO.N,unconnected-(U2-SENSOR_VN{slash}GPIO39{slash}ADC1_CH3-Pad4)*%
X35600000Y-97200000D03*
%TO.P,U2,3,SENSOR_VP/GPIO36/ADC1_CH0*%
%TO.N,unconnected-(U2-SENSOR_VP{slash}GPIO36{slash}ADC1_CH0-Pad3)*%
X35600000Y-94660000D03*
%TO.P,U2,2,CHIP_PU*%
%TO.N,unconnected-(U2-CHIP_PU-Pad2)*%
X35600000Y-92120000D03*
%TO.P,U2,1,3V3*%
%TO.N,unconnected-(U2-3V3-Pad1)*%
X35600000Y-89580000D03*
%TD*%
%TO.P,A2,16,DIR*%
%TO.N,DIR*%
X76140000Y-115890000D03*
%TO.P,A2,15,STEP*%
%TO.N,STEP*%
X76140000Y-113350000D03*
%TO.P,A2,14,~{SLP}*%
%TO.N,SLP {slash} RST*%
X76140000Y-110810000D03*
%TO.P,A2,13,~{RST}*%
X76140000Y-108270000D03*
%TO.P,A2,12,M2*%
%TO.N,M2*%
X76140000Y-105730000D03*
%TO.P,A2,11,M1*%
%TO.N,M1*%
X76140000Y-103190000D03*
%TO.P,A2,10,M0*%
%TO.N,M0*%
X76140000Y-100650000D03*
%TO.P,A2,9,~{EN}*%
%TO.N,EN*%
X76140000Y-98110000D03*
%TO.P,A2,8,VMOT*%
%TO.N,VMOT*%
X88840000Y-98110000D03*
%TO.P,A2,7,GND*%
%TO.N,GND VMOT*%
X88840000Y-100650000D03*
%TO.P,A2,6,B2*%
%TO.N,/S. B2*%
X88840000Y-103190000D03*
%TO.P,A2,5,B1*%
%TO.N,/S. B1*%
X88840000Y-105730000D03*
%TO.P,A2,4,A1*%
%TO.N,/S. A1*%
X88840000Y-108270000D03*
%TO.P,A2,3,A2*%
%TO.N,/S. A2*%
X88840000Y-110810000D03*
%TO.P,A2,2,~{FLT}*%
%TO.N,FLT*%
X88840000Y-113350000D03*
D12*
%TO.P,A2,1,GND*%
%TO.N,GND*%
X88840000Y-115890000D03*
%TD*%
D10*
%TO.P,Stepper Motor,4*%
%TO.N,/S. B2*%
X99500000Y-103250000D03*
%TO.P,Stepper Motor,3*%
%TO.N,/S. B1*%
X99500000Y-105750000D03*
%TO.P,Stepper Motor,2*%
%TO.N,/S. A1*%
X99500000Y-108250000D03*
%TO.P,Stepper Motor,1*%
%TO.N,/S. A2*%
X99500000Y-110750000D03*
%TD*%
%TO.P,U1,16,VCC1*%
%TO.N,VBATT*%
X73110000Y-124690000D03*
%TO.P,U1,15,4A*%
%TO.N,R Motor 4*%
X75650000Y-124690000D03*
%TO.P,U1,14,4Y*%
%TO.N,/R Motor -*%
X78190000Y-124690000D03*
%TO.P,U1,13,GND*%
%TO.N,GND*%
X80730000Y-124690000D03*
%TO.P,U1,12,GND*%
X83270000Y-124690000D03*
%TO.P,U1,11,3Y*%
%TO.N,/R Motor +*%
X85810000Y-124690000D03*
%TO.P,U1,10,3A*%
%TO.N,R Motor 3*%
X88350000Y-124690000D03*
%TO.P,U1,9,EN3\u002C4*%
%TO.N,R EN*%
X90890000Y-124690000D03*
%TO.P,U1,8,VCC2*%
%TO.N,VBATT*%
X90890000Y-132310000D03*
%TO.P,U1,7,2A*%
%TO.N,Net-(U1-2A)*%
X88350000Y-132310000D03*
%TO.P,U1,6,2Y*%
%TO.N,/L Motor -*%
X85810000Y-132310000D03*
%TO.P,U1,5,GND*%
%TO.N,GND*%
X83270000Y-132310000D03*
%TO.P,U1,4,GND*%
X80730000Y-132310000D03*
%TO.P,U1,3,1Y*%
%TO.N,/L Motor +*%
X78190000Y-132310000D03*
%TO.P,U1,2,1A*%
%TO.N,Net-(U1-1A)*%
X75650000Y-132310000D03*
%TO.P,U1,1,EN1\u002C2*%
%TO.N,Net-(U1-EN1\u002C2)*%
X73110000Y-132310000D03*
%TD*%
%TO.P,Servo,3*%
%TO.N,GND*%
X69500000Y-140975000D03*
%TO.P,Servo,2*%
%TO.N,VBATT*%
X66960000Y-140975000D03*
D13*
%TO.P,Servo,1*%
%TO.N,Net-(U2-MTCK{slash}GPIO13{slash}ADC2_CH4)*%
X64420000Y-140975000D03*
%TD*%
D10*
%TO.P,Power In,2*%
%TO.N,VBATT*%
X72765000Y-85000000D03*
D14*
%TO.P,Power In,1*%
%TO.N,GND*%
X70225000Y-85000000D03*
%TD*%
D10*
%TO.P,CAM Power,2*%
%TO.N,GND*%
X70000000Y-78500000D03*
D14*
%TO.P,CAM Power,1*%
%TO.N,VBATT*%
X72540000Y-78500000D03*
%TD*%
D15*
%TO.N,EN*%
X76140000Y-98110000D02*
X70150000Y-92120000D01*
X70150000Y-92120000D02*
X61000000Y-92120000D01*
%TO.N,/S. A1*%
X88840000Y-108270000D02*
X99480000Y-108270000D01*
X99480000Y-108270000D02*
X99500000Y-108250000D01*
%TO.N,/S. B1*%
X99500000Y-105750000D02*
X88860000Y-105750000D01*
X88860000Y-105750000D02*
X88840000Y-105730000D01*
%TO.N,/S. B2*%
X99440000Y-103190000D02*
X99500000Y-103250000D01*
X88840000Y-103190000D02*
X99440000Y-103190000D01*
%TO.N,VMOT*%
X88840000Y-98110000D02*
X97817677Y-89132323D01*
X97817677Y-89132323D02*
X98000000Y-89132323D01*
%TO.N,/S. A2*%
X99440000Y-110810000D02*
X99500000Y-110750000D01*
X88840000Y-110810000D02*
X99440000Y-110810000D01*
%TO.N,SLP {slash} RST*%
X76140000Y-108270000D02*
X76140000Y-110810000D01*
%TO.N,GND VMOT*%
X98000000Y-94132323D02*
X91482323Y-100650000D01*
X91482323Y-100650000D02*
X88840000Y-100650000D01*
%TO.N,M1*%
X61000000Y-102280000D02*
X61421000Y-102701000D01*
X61421000Y-102701000D02*
X75651000Y-102701000D01*
X75651000Y-102701000D02*
X76140000Y-103190000D01*
%TO.N,M2*%
X61000000Y-107360000D02*
X74149447Y-107360000D01*
X74149447Y-107360000D02*
X75779447Y-105730000D01*
X75779447Y-105730000D02*
X76140000Y-105730000D01*
%TO.N,SLP {slash} RST*%
X61000000Y-109900000D02*
X74510000Y-109900000D01*
X74510000Y-109900000D02*
X76140000Y-108270000D01*
X76140000Y-110810000D02*
X75420000Y-110810000D01*
X75420000Y-110810000D02*
X74510000Y-109900000D01*
%TO.N,STEP*%
X61000000Y-112440000D02*
X62626345Y-112440000D01*
X62626345Y-112440000D02*
X63536345Y-113350000D01*
X63536345Y-113350000D02*
X76140000Y-113350000D01*
%TO.N,DIR*%
X61000000Y-114980000D02*
X61421000Y-115401000D01*
X61421000Y-115401000D02*
X75651000Y-115401000D01*
X75651000Y-115401000D02*
X76140000Y-115890000D01*
%TO.N,R Motor 3*%
X61241000Y-120301000D02*
X85587345Y-120301000D01*
X61000000Y-120060000D02*
X61241000Y-120301000D01*
X85587345Y-120301000D02*
X88350000Y-123063655D01*
X88350000Y-123063655D02*
X88350000Y-124690000D01*
%TO.N,R Motor 4*%
X61000000Y-125140000D02*
X61978000Y-125140000D01*
X61978000Y-125140000D02*
X64479000Y-122639000D01*
X75650000Y-124150000D02*
X75650000Y-124690000D01*
X64479000Y-122639000D02*
X74139000Y-122639000D01*
X74139000Y-122639000D02*
X75650000Y-124150000D01*
%TO.N,Net-(U1-2A)*%
X60996320Y-135297280D02*
X62146320Y-136447280D01*
X84573273Y-136447280D02*
X88350000Y-132670553D01*
X88350000Y-132670553D02*
X88350000Y-132310000D01*
%TO.N,Net-(U1-1A)*%
X75650000Y-133936345D02*
X75650000Y-132310000D01*
X60996320Y-132757280D02*
X61485320Y-133246280D01*
X61485320Y-133246280D02*
X61845873Y-133246280D01*
X62960593Y-134361000D02*
X75225345Y-134361000D01*
X61845873Y-133246280D02*
X62960593Y-134361000D01*
X75225345Y-134361000D02*
X75650000Y-133936345D01*
%TO.N,Net-(U1-EN1\u002C2)*%
X72800000Y-132000000D02*
X73110000Y-132310000D01*
X61486280Y-130706280D02*
X61845873Y-130706280D01*
X61000000Y-130220000D02*
X61486280Y-130706280D01*
X61845873Y-130706280D02*
X63047320Y-131907727D01*
X63314640Y-132000000D02*
X72800000Y-132000000D01*
%TO.N,M0*%
X69490000Y-98000000D02*
X64700553Y-98000000D01*
X61360553Y-94660000D02*
X61000000Y-94660000D01*
X64700553Y-98000000D02*
X61360553Y-94660000D01*
X69490000Y-98000000D02*
X72140000Y-100650000D01*
X72140000Y-100650000D02*
X76140000Y-100650000D01*
%TO.N,R EN*%
X61489000Y-118009000D02*
X61000000Y-117520000D01*
X90890000Y-124690000D02*
X90890000Y-123063655D01*
X90890000Y-123063655D02*
X85835345Y-118009000D01*
X85835345Y-118009000D02*
X61489000Y-118009000D01*
%TO.N,VBATT*%
X74994655Y-128201000D02*
X73110000Y-126316345D01*
X88407345Y-128201000D02*
X74994655Y-128201000D01*
X90890000Y-132310000D02*
X90890000Y-130683655D01*
X90890000Y-130683655D02*
X88407345Y-128201000D01*
X73110000Y-126316345D02*
X73110000Y-124690000D01*
X90890000Y-135110000D02*
X90890000Y-132310000D01*
X66960000Y-140975000D02*
X66960000Y-141335553D01*
X66960000Y-141335553D02*
X68650447Y-143026000D01*
X82974000Y-143026000D02*
X90890000Y-135110000D01*
X68650447Y-143026000D02*
X82974000Y-143026000D01*
%TO.N,GND*%
X88840000Y-115890000D02*
X87240000Y-115890000D01*
X87240000Y-115890000D02*
X83500000Y-112150000D01*
X70225000Y-86900000D02*
X70225000Y-85000000D01*
X83500000Y-112150000D02*
X83500000Y-100175000D01*
X83500000Y-100175000D02*
X70225000Y-86900000D01*
%TO.N,Net-(U1-2A)*%
X62146320Y-136447280D02*
X84573273Y-136447280D01*
%TD*%
M02*
